G04 #@! TF.GenerationSoftware,KiCad,Pcbnew,(5.1.5)-3*
G04 #@! TF.CreationDate,2020-02-06T21:26:35+01:00*
G04 #@! TF.ProjectId,wemos-baseplate,77656d6f-732d-4626-9173-65706c617465,rev?*
G04 #@! TF.SameCoordinates,Original*
G04 #@! TF.FileFunction,Copper,L1,Top*
G04 #@! TF.FilePolarity,Positive*
%FSLAX46Y46*%
G04 Gerber Fmt 4.6, Leading zero omitted, Abs format (unit mm)*
G04 Created by KiCad (PCBNEW (5.1.5)-3) date 2020-02-06 21:26:35*
%MOMM*%
%LPD*%
G04 APERTURE LIST*
%ADD10O,1.700000X1.000000*%
%ADD11O,2.500000X2.500000*%
%ADD12O,1.700000X1.200000*%
%ADD13R,1.700000X1.200000*%
%ADD14C,1.524000*%
%ADD15C,0.800000*%
%ADD16C,0.250000*%
%ADD17C,0.200000*%
%ADD18C,0.300000*%
%ADD19C,0.500000*%
%ADD20C,0.254000*%
G04 APERTURE END LIST*
D10*
X111760000Y-95885000D03*
X88900000Y-95885000D03*
X111760000Y-98425000D03*
X88900000Y-98425000D03*
X111760000Y-100965000D03*
X88900000Y-100965000D03*
X111760000Y-103505000D03*
X88900000Y-103505000D03*
X111760000Y-106045000D03*
X88900000Y-106045000D03*
X111760000Y-108585000D03*
X88900000Y-108585000D03*
X111760000Y-111125000D03*
X88900000Y-111125000D03*
X111760000Y-113665000D03*
X88900000Y-113665000D03*
X111760000Y-116205000D03*
X88900000Y-116205000D03*
X111760000Y-118745000D03*
X88900000Y-118745000D03*
X86360000Y-98425000D03*
X86360000Y-100965000D03*
X86360000Y-108585000D03*
X86360000Y-113665000D03*
X86360000Y-95885000D03*
X86360000Y-106045000D03*
X86360000Y-118745000D03*
X86360000Y-116205000D03*
X86360000Y-111125000D03*
X86360000Y-103505000D03*
X114300000Y-116205000D03*
X114300000Y-113665000D03*
X114300000Y-106045000D03*
X114300000Y-100965000D03*
X114300000Y-118745000D03*
X114300000Y-108585000D03*
X114300000Y-95885000D03*
X114300000Y-98425000D03*
X114300000Y-103505000D03*
X114300000Y-111125000D03*
D11*
X100330000Y-89535000D03*
X100330000Y-122555000D03*
D10*
X185180000Y-95885000D03*
X162320000Y-95885000D03*
X185180000Y-98425000D03*
X162320000Y-98425000D03*
X185180000Y-100965000D03*
X162320000Y-100965000D03*
X185180000Y-103505000D03*
X162320000Y-103505000D03*
X185180000Y-106045000D03*
X162320000Y-106045000D03*
X185180000Y-108585000D03*
X162320000Y-108585000D03*
X185180000Y-111125000D03*
X162320000Y-111125000D03*
X185180000Y-113665000D03*
X162320000Y-113665000D03*
X185180000Y-116205000D03*
X162320000Y-116205000D03*
X185180000Y-118745000D03*
X162320000Y-118745000D03*
X159780000Y-98425000D03*
X159780000Y-100965000D03*
X159780000Y-108585000D03*
X159780000Y-113665000D03*
X159780000Y-95885000D03*
X159780000Y-106045000D03*
X159780000Y-118745000D03*
X159780000Y-116205000D03*
X159780000Y-111125000D03*
X159780000Y-103505000D03*
X187720000Y-116205000D03*
X187720000Y-113665000D03*
X187720000Y-106045000D03*
X187720000Y-100965000D03*
X187720000Y-118745000D03*
X187720000Y-108585000D03*
X187720000Y-95885000D03*
X187720000Y-98425000D03*
X187720000Y-103505000D03*
X187720000Y-111125000D03*
D11*
X173750000Y-89535000D03*
X173750000Y-122555000D03*
D10*
X148470000Y-95885000D03*
X125610000Y-95885000D03*
X148470000Y-98425000D03*
X125610000Y-98425000D03*
X148470000Y-100965000D03*
X125610000Y-100965000D03*
X148470000Y-103505000D03*
X125610000Y-103505000D03*
X148470000Y-106045000D03*
X125610000Y-106045000D03*
X148470000Y-108585000D03*
X125610000Y-108585000D03*
X148470000Y-111125000D03*
X125610000Y-111125000D03*
X148470000Y-113665000D03*
X125610000Y-113665000D03*
X148470000Y-116205000D03*
X125610000Y-116205000D03*
X148470000Y-118745000D03*
X125610000Y-118745000D03*
X123070000Y-98425000D03*
X123070000Y-100965000D03*
X123070000Y-108585000D03*
X123070000Y-113665000D03*
X123070000Y-95885000D03*
X123070000Y-106045000D03*
X123070000Y-118745000D03*
X123070000Y-116205000D03*
X123070000Y-111125000D03*
X123070000Y-103505000D03*
X151010000Y-116205000D03*
X151010000Y-113665000D03*
X151010000Y-106045000D03*
X151010000Y-100965000D03*
X151010000Y-118745000D03*
X151010000Y-108585000D03*
X151010000Y-95885000D03*
X151010000Y-98425000D03*
X151010000Y-103505000D03*
X151010000Y-111125000D03*
D11*
X137040000Y-89535000D03*
X137040000Y-122555000D03*
D12*
X191008000Y-80899000D03*
X191008000Y-78899000D03*
X191008000Y-76899000D03*
X191008000Y-74899000D03*
X181896000Y-80899000D03*
X181896000Y-78899000D03*
X181896000Y-76899000D03*
X181896000Y-74899000D03*
X163671000Y-80899000D03*
X163671000Y-78899000D03*
X163671000Y-76899000D03*
X163671000Y-74899000D03*
X145447000Y-80899000D03*
X145447000Y-78899000D03*
X145447000Y-76899000D03*
X145447000Y-74899000D03*
X172784000Y-80899000D03*
X172784000Y-78899000D03*
X172784000Y-76899000D03*
X172784000Y-74899000D03*
X154559000Y-80899000D03*
X154559000Y-78899000D03*
X154559000Y-76899000D03*
X154559000Y-74899000D03*
X136334000Y-80899000D03*
X136334000Y-78899000D03*
X136334000Y-76899000D03*
X136334000Y-74899000D03*
X81661000Y-80899000D03*
X81661000Y-78899000D03*
X81661000Y-76899000D03*
X81661000Y-74899000D03*
X108998000Y-80899000D03*
X108998000Y-78899000D03*
X108998000Y-76899000D03*
X108998000Y-74899000D03*
X99885500Y-80899000D03*
X99885500Y-78899000D03*
X99885500Y-76899000D03*
X99885500Y-74899000D03*
X90773200Y-80899000D03*
X90773200Y-78899000D03*
X90773200Y-76899000D03*
X90773200Y-74899000D03*
X200025000Y-81280000D03*
X197485000Y-81280000D03*
X200025000Y-83820000D03*
X197485000Y-83820000D03*
X200025000Y-86360000D03*
X197485000Y-86360000D03*
X200025000Y-88900000D03*
X197485000Y-88900000D03*
X200025000Y-91440000D03*
X197485000Y-91440000D03*
X200025000Y-93980000D03*
X197485000Y-93980000D03*
X200025000Y-96520000D03*
X197485000Y-96520000D03*
X200025000Y-99060000D03*
X197485000Y-99060000D03*
X200025000Y-101600000D03*
X197485000Y-101600000D03*
X200025000Y-104140000D03*
X197485000Y-104140000D03*
X200025000Y-106680000D03*
X197485000Y-106680000D03*
X200025000Y-109220000D03*
X197485000Y-109220000D03*
X200025000Y-111760000D03*
X197485000Y-111760000D03*
X200025000Y-114300000D03*
X197485000Y-114300000D03*
X200025000Y-116840000D03*
X197485000Y-116840000D03*
X200025000Y-119380000D03*
D13*
X197485000Y-119380000D03*
D12*
X73660000Y-81280000D03*
X76200000Y-81280000D03*
X73660000Y-83820000D03*
X76200000Y-83820000D03*
X73660000Y-86360000D03*
X76200000Y-86360000D03*
X73660000Y-88900000D03*
X76200000Y-88900000D03*
X73660000Y-91440000D03*
X76200000Y-91440000D03*
X73660000Y-93980000D03*
X76200000Y-93980000D03*
X73660000Y-96520000D03*
X76200000Y-96520000D03*
X73660000Y-99060000D03*
X76200000Y-99060000D03*
X73660000Y-101600000D03*
X76200000Y-101600000D03*
X73660000Y-104140000D03*
X76200000Y-104140000D03*
X73660000Y-106680000D03*
X76200000Y-106680000D03*
X73660000Y-109220000D03*
X76200000Y-109220000D03*
X73660000Y-111760000D03*
X76200000Y-111760000D03*
X73660000Y-114300000D03*
X76200000Y-114300000D03*
X73660000Y-116840000D03*
X76200000Y-116840000D03*
X73660000Y-119380000D03*
D13*
X76200000Y-119380000D03*
D14*
X127222000Y-80899000D03*
X127222000Y-78899000D03*
X127222000Y-76899000D03*
X127222000Y-74899000D03*
X118110000Y-80899000D03*
X118110000Y-78899000D03*
X118110000Y-76899000D03*
X118110000Y-74899000D03*
D15*
X158056000Y-103019000D03*
D16*
X73660000Y-81280000D02*
X73660000Y-82455300D01*
X74835300Y-84135100D02*
X74835300Y-83263200D01*
X74835300Y-83263200D02*
X74027400Y-82455300D01*
X74027400Y-82455300D02*
X73660000Y-82455300D01*
D17*
X88900000Y-95185000D02*
X78692400Y-84977400D01*
X78692400Y-84977400D02*
X75677600Y-84977400D01*
X88900000Y-95885000D02*
X88900000Y-95185000D01*
D16*
X75677600Y-84977400D02*
X74835300Y-84135100D01*
X125610000Y-98425000D02*
X126785300Y-98425000D01*
X126785300Y-98425000D02*
X126785300Y-81335700D01*
X126785300Y-81335700D02*
X127222000Y-80899000D01*
X73660000Y-106680000D02*
X74835300Y-106680000D01*
X86360000Y-100965000D02*
X85184700Y-100965000D01*
X85184700Y-100965000D02*
X80645000Y-105504700D01*
X80645000Y-105504700D02*
X75643200Y-105504700D01*
X75643200Y-105504700D02*
X74835300Y-106312600D01*
X74835300Y-106312600D02*
X74835300Y-106680000D01*
X124245300Y-100965000D02*
X123070000Y-100965000D01*
X124333000Y-96901000D02*
X124245300Y-100965000D01*
X127222000Y-78899000D02*
X124245300Y-81875700D01*
X124245300Y-81875700D02*
X124245300Y-95416300D01*
X124245300Y-95416300D02*
X124434990Y-95605990D01*
X124434990Y-95605990D02*
X124434990Y-96799010D01*
X124434990Y-96799010D02*
X124333000Y-96901000D01*
X159780000Y-111125000D02*
X160955300Y-111125000D01*
X160955300Y-111125000D02*
X160955300Y-108390600D01*
X160955300Y-108390600D02*
X162030900Y-107315000D01*
X162030900Y-107315000D02*
X162580100Y-107315000D01*
X162580100Y-107315000D02*
X171179900Y-98715200D01*
X171179900Y-98715200D02*
X171179900Y-82503100D01*
X171179900Y-82503100D02*
X172784000Y-80899000D01*
X73660000Y-116840000D02*
X74835300Y-116840000D01*
X86360000Y-111125000D02*
X85184700Y-111125000D01*
X85184700Y-111125000D02*
X80645000Y-115664700D01*
X80645000Y-115664700D02*
X75643200Y-115664700D01*
X75643200Y-115664700D02*
X74835300Y-116472600D01*
X74835300Y-116472600D02*
X74835300Y-116840000D01*
D17*
X86360000Y-111825000D02*
X86360000Y-111125000D01*
X86510010Y-111975010D02*
X86360000Y-111825000D01*
X121169990Y-111975010D02*
X86510010Y-111975010D01*
X122020000Y-111125000D02*
X121169990Y-111975010D01*
X123070000Y-111125000D02*
X122020000Y-111125000D01*
X159780000Y-111125000D02*
X160830000Y-111125000D01*
X199924990Y-117740010D02*
X200025000Y-117640000D01*
X194765510Y-117740010D02*
X199924990Y-117740010D01*
X163830000Y-112077500D02*
X165798500Y-109918500D01*
X159780000Y-111125000D02*
X159780000Y-111825000D01*
X160020000Y-112077500D02*
X163830000Y-112077500D01*
X165798500Y-109918500D02*
X186118500Y-109918500D01*
X186538490Y-111424874D02*
X187064116Y-111950500D01*
X200025000Y-117640000D02*
X200025000Y-116840000D01*
X159780000Y-111825000D02*
X160020000Y-112077500D01*
X186538490Y-110338490D02*
X186538490Y-111424874D01*
X186118500Y-109918500D02*
X186538490Y-110338490D01*
X187064116Y-111950500D02*
X188976000Y-111950500D01*
X188976000Y-111950500D02*
X194765510Y-117740010D01*
D16*
X125610000Y-116205000D02*
X126785300Y-116205000D01*
X162320000Y-116205000D02*
X161144700Y-116205000D01*
X161144700Y-116205000D02*
X161144700Y-116447400D01*
X161144700Y-116447400D02*
X160557300Y-117034800D01*
X160557300Y-117034800D02*
X127615100Y-117034800D01*
X127615100Y-117034800D02*
X126785300Y-116205000D01*
X88900000Y-116205000D02*
X90075300Y-116205000D01*
X125610000Y-116205000D02*
X124434700Y-116205000D01*
X124434700Y-116205000D02*
X124434700Y-116419200D01*
X124434700Y-116419200D02*
X123775900Y-117078000D01*
X123775900Y-117078000D02*
X90948300Y-117078000D01*
X90948300Y-117078000D02*
X90075300Y-116205000D01*
X123070000Y-118745000D02*
X124245300Y-118745000D01*
X159780000Y-118745000D02*
X158604700Y-118745000D01*
X158604700Y-118745000D02*
X157731700Y-117872000D01*
X157731700Y-117872000D02*
X124904200Y-117872000D01*
X124904200Y-117872000D02*
X124245300Y-118530900D01*
X124245300Y-118530900D02*
X124245300Y-118745000D01*
X162320000Y-118745000D02*
X161144700Y-118745000D01*
X125610000Y-118745000D02*
X126785300Y-118745000D01*
X126785300Y-118745000D02*
X127615000Y-119574700D01*
X127615000Y-119574700D02*
X160557100Y-119574700D01*
X160557100Y-119574700D02*
X161144700Y-118987100D01*
X161144700Y-118987100D02*
X161144700Y-118745000D01*
X114300000Y-106045000D02*
X115475300Y-106045000D01*
X116311500Y-105208800D02*
X115475300Y-106045000D01*
X197485000Y-111760000D02*
X196309700Y-111760000D01*
X187720000Y-106045000D02*
X190594700Y-106045000D01*
X190594700Y-106045000D02*
X196309700Y-111760000D01*
D17*
X151010000Y-105345000D02*
X150440000Y-104775000D01*
X151010000Y-106045000D02*
X151010000Y-105345000D01*
X150440000Y-104775000D02*
X147066000Y-104775000D01*
X147066000Y-104775000D02*
X146558000Y-105283000D01*
X121600225Y-105221775D02*
X121920000Y-104902000D01*
D16*
X121600225Y-105221775D02*
X116311500Y-105208800D01*
D17*
X121920000Y-104902000D02*
X127508000Y-104902000D01*
X127508000Y-105029000D02*
X127635000Y-105156000D01*
X127508000Y-104902000D02*
X127508000Y-105029000D01*
D16*
X146558000Y-105283000D02*
X127635000Y-105156000D01*
X111760000Y-98425000D02*
X110584700Y-98425000D01*
X110584700Y-98425000D02*
X110584700Y-97543500D01*
X110584700Y-97543500D02*
X96861200Y-83820000D01*
X96861200Y-83820000D02*
X76200000Y-83820000D01*
X185180000Y-95885000D02*
X185180000Y-82183000D01*
X185180000Y-82183000D02*
X181896000Y-78899000D01*
X111760000Y-95885000D02*
X110584700Y-95885000D01*
X76200000Y-81280000D02*
X77375300Y-81280000D01*
X77375300Y-81280000D02*
X78533200Y-82437900D01*
X78533200Y-82437900D02*
X97137600Y-82437900D01*
X97137600Y-82437900D02*
X110584700Y-95885000D01*
X197485000Y-116840000D02*
X194610300Y-116840000D01*
X194610300Y-116840000D02*
X188895300Y-111125000D01*
X187720000Y-111125000D02*
X188895300Y-111125000D01*
X151010000Y-103505000D02*
X149834700Y-103505000D01*
X117006100Y-102235000D02*
X116745300Y-102235000D01*
X116745300Y-102235000D02*
X115475300Y-103505000D01*
X149834700Y-103505000D02*
X149834700Y-103284600D01*
X149834700Y-103284600D02*
X148785100Y-102235000D01*
X148785100Y-102235000D02*
X117006100Y-102235000D01*
X117006100Y-102235000D02*
X117006100Y-80002900D01*
X117006100Y-80002900D02*
X118110000Y-78899000D01*
X114300000Y-103505000D02*
X115475300Y-103505000D01*
X197485000Y-109220000D02*
X196309700Y-109220000D01*
X187720000Y-103505000D02*
X190594700Y-103505000D01*
X190594700Y-103505000D02*
X196309700Y-109220000D01*
X187720000Y-98425000D02*
X190594700Y-98425000D01*
X197485000Y-104140000D02*
X196309700Y-104140000D01*
X190594700Y-98425000D02*
X196309700Y-104140000D01*
X163671000Y-78899000D02*
X155431200Y-87138800D01*
X155431200Y-87138800D02*
X155431200Y-105339100D01*
X155431200Y-105339100D02*
X152185300Y-108585000D01*
X151010000Y-108585000D02*
X152185300Y-108585000D01*
X197485000Y-114300000D02*
X196309700Y-114300000D01*
X187720000Y-108585000D02*
X190594700Y-108585000D01*
X190594700Y-108585000D02*
X196309700Y-114300000D01*
X136334000Y-78899000D02*
X146181400Y-88746400D01*
X146181400Y-88746400D02*
X146181400Y-97695300D01*
X146181400Y-97695300D02*
X148263200Y-99777100D01*
X148263200Y-99777100D02*
X148867300Y-99777100D01*
X148867300Y-99777100D02*
X149834700Y-100744500D01*
X149834700Y-100744500D02*
X149834700Y-100965000D01*
X114300000Y-100965000D02*
X115475300Y-100965000D01*
X136334000Y-78899000D02*
X131242600Y-73807600D01*
X116400000Y-74999400D02*
X116400000Y-100040300D01*
X116400000Y-100040300D02*
X115475300Y-100965000D01*
X196309700Y-106680000D02*
X190594700Y-100965000D01*
X190594700Y-100965000D02*
X187720000Y-100965000D01*
X151010000Y-100965000D02*
X149834700Y-100965000D01*
X197485000Y-106680000D02*
X196309700Y-106680000D01*
D17*
X131242600Y-73807600D02*
X131211600Y-73807600D01*
X131211600Y-73807600D02*
X130175000Y-72771000D01*
X130175000Y-72771000D02*
X117602000Y-72771000D01*
X116332000Y-74041000D02*
X116332000Y-74930000D01*
X117602000Y-72771000D02*
X116332000Y-74041000D01*
D16*
X116332000Y-74930000D02*
X116400000Y-74999400D01*
X187720000Y-113665000D02*
X188895300Y-113665000D01*
X188895300Y-113665000D02*
X194610300Y-119380000D01*
X194610300Y-119380000D02*
X197485000Y-119380000D01*
X73660000Y-109220000D02*
X74835300Y-109220000D01*
X86360000Y-103505000D02*
X85184700Y-103505000D01*
X85184700Y-103505000D02*
X80645000Y-108044700D01*
X80645000Y-108044700D02*
X75643200Y-108044700D01*
X75643200Y-108044700D02*
X74835300Y-108852600D01*
X74835300Y-108852600D02*
X74835300Y-109220000D01*
X73660000Y-111760000D02*
X74835300Y-111760000D01*
X86360000Y-106045000D02*
X85184700Y-106045000D01*
X85184700Y-106045000D02*
X80645000Y-110584700D01*
X80645000Y-110584700D02*
X75643200Y-110584700D01*
X75643200Y-110584700D02*
X74835300Y-111392600D01*
X74835300Y-111392600D02*
X74835300Y-111760000D01*
X73660000Y-119380000D02*
X74835300Y-119380000D01*
X86360000Y-113665000D02*
X85184700Y-113665000D01*
X85184700Y-113665000D02*
X80645000Y-118204700D01*
X80645000Y-118204700D02*
X75202500Y-118204700D01*
X75202500Y-118204700D02*
X74835300Y-118571900D01*
X74835300Y-118571900D02*
X74835300Y-119380000D01*
D17*
X159780000Y-114365000D02*
X159780000Y-113665000D01*
X200025000Y-120180000D02*
X199745500Y-120459500D01*
X200025000Y-119380000D02*
X200025000Y-120180000D01*
X160223000Y-114808000D02*
X159780000Y-114365000D01*
X199745500Y-120459500D02*
X194056000Y-120459500D01*
X194056000Y-120459500D02*
X188404500Y-114808000D01*
X188404500Y-114808000D02*
X186944000Y-114808000D01*
X165886510Y-112814990D02*
X163893500Y-114808000D01*
X186380010Y-113312915D02*
X185882085Y-112814990D01*
X186380010Y-114244010D02*
X186380010Y-113312915D01*
X185882085Y-112814990D02*
X165886510Y-112814990D01*
X186944000Y-114808000D02*
X186380010Y-114244010D01*
X163893500Y-114808000D02*
X160223000Y-114808000D01*
D16*
X200025000Y-114300000D02*
X200025000Y-115475300D01*
X200392400Y-115475300D02*
X200025000Y-115475300D01*
X73660000Y-114300000D02*
X74835300Y-114300000D01*
X86360000Y-108585000D02*
X85184700Y-108585000D01*
X85184700Y-108585000D02*
X80645000Y-113124700D01*
X80645000Y-113124700D02*
X75643200Y-113124700D01*
X75643200Y-113124700D02*
X74835300Y-113932600D01*
X74835300Y-113932600D02*
X74835300Y-114300000D01*
D17*
X199907816Y-84720010D02*
X195972010Y-84720010D01*
X201225010Y-86037204D02*
X199907816Y-84720010D01*
X201225010Y-112299990D02*
X201225010Y-86037204D01*
X200025000Y-114300000D02*
X200025000Y-113500000D01*
X200025000Y-113500000D02*
X201225010Y-112299990D01*
X192151000Y-80899000D02*
X191008000Y-80899000D01*
X195972010Y-84720010D02*
X192151000Y-80899000D01*
X194599821Y-118140020D02*
X201074480Y-118140020D01*
X189274792Y-112814990D02*
X194599821Y-118140020D01*
X200392400Y-115475300D02*
X200565300Y-115475300D01*
X200565300Y-115475300D02*
X201295000Y-116205000D01*
X201295000Y-117919500D02*
X201074480Y-118140020D01*
X201295000Y-116205000D02*
X201295000Y-117919500D01*
X200025000Y-114300000D02*
X200025000Y-115100000D01*
X189274792Y-112814990D02*
X189268990Y-112814990D01*
X189268990Y-112814990D02*
X188804510Y-112350510D01*
X159648020Y-112474404D02*
X159892597Y-112474404D01*
X158629990Y-111456374D02*
X159648020Y-112474404D01*
X158730000Y-108585000D02*
X159780000Y-108585000D01*
X158629990Y-108685010D02*
X158730000Y-108585000D01*
X158629990Y-111456374D02*
X158629990Y-108685010D01*
X159651126Y-112477510D02*
X158629990Y-111456374D01*
X163995689Y-112477510D02*
X159651126Y-112477510D01*
X164122689Y-112350510D02*
X163995689Y-112477510D01*
X188804510Y-112350510D02*
X164122689Y-112350510D01*
D16*
X73660000Y-104140000D02*
X74835300Y-104140000D01*
X86360000Y-98425000D02*
X85184700Y-98425000D01*
X85184700Y-98425000D02*
X80645000Y-102964700D01*
X80645000Y-102964700D02*
X75643200Y-102964700D01*
X75643200Y-102964700D02*
X74835300Y-103772600D01*
X74835300Y-103772600D02*
X74835300Y-104140000D01*
D17*
X89050010Y-110274990D02*
X88900000Y-110425000D01*
X88900000Y-110425000D02*
X88900000Y-111125000D01*
X123709990Y-110274990D02*
X89050010Y-110274990D01*
X124560000Y-111125000D02*
X123709990Y-110274990D01*
X125610000Y-111125000D02*
X124560000Y-111125000D01*
X163370000Y-111125000D02*
X162320000Y-111125000D01*
X164640000Y-109855000D02*
X163370000Y-111125000D01*
X200025000Y-97320000D02*
X198824990Y-98520010D01*
X200025000Y-96520000D02*
X200025000Y-97320000D01*
X198824990Y-112909490D02*
X196094490Y-112909490D01*
X198824990Y-98520010D02*
X198824990Y-112909490D01*
X196094490Y-112909490D02*
X190500000Y-107315000D01*
X164782500Y-107962500D02*
X164782500Y-109855000D01*
X165430000Y-107315000D02*
X164782500Y-107962500D01*
X190500000Y-107315000D02*
X165430000Y-107315000D01*
X164782500Y-109855000D02*
X164640000Y-109855000D01*
D16*
X88900000Y-108585000D02*
X90075300Y-108585000D01*
X125610000Y-108585000D02*
X124434700Y-108585000D01*
X124434700Y-108585000D02*
X124434700Y-108834200D01*
X124434700Y-108834200D02*
X123847300Y-109421600D01*
X123847300Y-109421600D02*
X90911900Y-109421600D01*
X90911900Y-109421600D02*
X90075300Y-108585000D01*
X76200000Y-93980000D02*
X77375300Y-93980000D01*
X111760000Y-108585000D02*
X110584700Y-108585000D01*
X80726900Y-97331600D02*
X77375300Y-93980000D01*
X148470000Y-108585000D02*
X149645300Y-108585000D01*
X149645300Y-108585000D02*
X149645300Y-108364500D01*
X149645300Y-108364500D02*
X150600100Y-107409700D01*
X150600100Y-107409700D02*
X151164000Y-107409700D01*
X151164000Y-107409700D02*
X152186700Y-106387000D01*
X152186700Y-106387000D02*
X152186700Y-100624400D01*
X152186700Y-100624400D02*
X151130200Y-99567900D01*
X151130200Y-99567900D02*
X150608800Y-99567900D01*
X150608800Y-99567900D02*
X149740000Y-98699100D01*
X149740000Y-98699100D02*
X149740000Y-85192000D01*
X149740000Y-85192000D02*
X145447000Y-80899000D01*
D17*
X80851650Y-97488650D02*
X80772000Y-97409000D01*
X99488350Y-97488650D02*
X80851650Y-97488650D01*
D16*
X110584700Y-108585000D02*
X99488350Y-97488650D01*
X80772000Y-97409000D02*
X80726900Y-97331600D01*
X162320000Y-106045000D02*
X169394300Y-98970700D01*
X169394300Y-98970700D02*
X169394300Y-76737400D01*
X172352900Y-73778800D02*
X182350000Y-73778800D01*
D17*
X187706000Y-77724000D02*
X183769000Y-73787000D01*
X200025000Y-90640000D02*
X199555000Y-90170000D01*
X200025000Y-91440000D02*
X200025000Y-90640000D01*
X197232194Y-90170000D02*
X187706000Y-80643806D01*
X183769000Y-73787000D02*
X182372000Y-73787000D01*
X199555000Y-90170000D02*
X197232194Y-90170000D01*
X187706000Y-80643806D02*
X187706000Y-77724000D01*
X172352900Y-73778800D02*
X171077200Y-73778800D01*
X169418000Y-75438000D02*
X169418000Y-76581000D01*
X171077200Y-73778800D02*
X169418000Y-75438000D01*
D16*
X169394300Y-76737400D02*
X169418000Y-76581000D01*
X197485000Y-91440000D02*
X196309700Y-91440000D01*
X185180000Y-106045000D02*
X186355300Y-106045000D01*
X186355300Y-106045000D02*
X186355300Y-98270600D01*
X186355300Y-98270600D02*
X187536800Y-97089100D01*
X187536800Y-97089100D02*
X190660600Y-97089100D01*
X190660600Y-97089100D02*
X196309700Y-91440000D01*
X82651700Y-96716400D02*
X77375300Y-91440000D01*
X111760000Y-106045000D02*
X110584700Y-106045000D01*
X76200000Y-91440000D02*
X77375300Y-91440000D01*
D17*
X83254400Y-96716400D02*
X83312000Y-96774000D01*
X83312000Y-96774000D02*
X101346000Y-96774000D01*
X82651700Y-96716400D02*
X83254400Y-96716400D01*
D16*
X110584700Y-106045000D02*
X101346000Y-96774000D01*
X161144700Y-103505000D02*
X161144700Y-86770200D01*
X162320000Y-103505000D02*
X161144700Y-103505000D01*
X161144700Y-86770200D02*
X164660950Y-83253950D01*
X164660950Y-83253950D02*
X164758300Y-83156600D01*
D17*
X163195500Y-73312500D02*
X155609000Y-80899000D01*
D16*
X198849700Y-88532600D02*
X198849700Y-88900000D01*
X198041800Y-87724700D02*
X198849700Y-88532600D01*
X198849700Y-88900000D02*
X200025000Y-88900000D01*
X189544400Y-81050200D02*
X196218900Y-87724700D01*
X189544400Y-80336300D02*
X189544400Y-81050200D01*
X196218900Y-87724700D02*
X198041800Y-87724700D01*
D17*
X189544400Y-81050200D02*
X189544400Y-78038400D01*
X189544400Y-78038400D02*
X184023000Y-72517000D01*
X155609000Y-80899000D02*
X154559000Y-80899000D01*
X163991000Y-72517000D02*
X155609000Y-80899000D01*
X184023000Y-72517000D02*
X163991000Y-72517000D01*
X166116000Y-81798900D02*
X166116000Y-72517000D01*
X164660950Y-83253950D02*
X166116000Y-81798900D01*
D16*
X125610000Y-100965000D02*
X126785300Y-100965000D01*
X126785300Y-100965000D02*
X129273400Y-98476900D01*
X129273400Y-98476900D02*
X129273400Y-87959600D01*
X129273400Y-87959600D02*
X136334000Y-80899000D01*
X148470000Y-103505000D02*
X147294700Y-103505000D01*
X147294700Y-103505000D02*
X146439900Y-104359800D01*
X146439900Y-104359800D02*
X113600000Y-104359800D01*
X113600000Y-104359800D02*
X112935300Y-103695100D01*
X112935300Y-103695100D02*
X112935300Y-103505000D01*
X111760000Y-103505000D02*
X112935300Y-103505000D01*
X115475300Y-85376300D02*
X108998000Y-78899000D01*
X115443000Y-94361000D02*
X115475300Y-85376300D01*
X112935300Y-100811800D02*
X114354000Y-99393100D01*
X112935300Y-103505000D02*
X112935300Y-100811800D01*
X115824000Y-94742000D02*
X115443000Y-94361000D01*
X114354000Y-99393100D02*
X115109900Y-99393100D01*
X115824000Y-98679000D02*
X115824000Y-94742000D01*
X115109900Y-99393100D02*
X115824000Y-98679000D01*
D17*
X187370000Y-95885000D02*
X187720000Y-95885000D01*
D16*
X88900000Y-113665000D02*
X90075300Y-113665000D01*
X90903100Y-112837200D02*
X90075300Y-113665000D01*
D18*
X110678200Y-112837200D02*
X110866400Y-112649000D01*
D16*
X110678200Y-112837200D02*
X90903100Y-112837200D01*
D18*
X115824000Y-112649000D02*
X115951000Y-112776000D01*
X110866400Y-112649000D02*
X115824000Y-112649000D01*
D17*
X125610000Y-112965000D02*
X125294000Y-112649000D01*
X125610000Y-113665000D02*
X125610000Y-112965000D01*
X121539000Y-112649000D02*
X121412000Y-112776000D01*
X125294000Y-112649000D02*
X121539000Y-112649000D01*
D16*
X121412000Y-112776000D02*
X115951000Y-112776000D01*
X109409400Y-114840300D02*
X88742000Y-114840300D01*
X73147900Y-120573600D02*
X72414600Y-119840300D01*
D17*
X88744905Y-114808000D02*
X88773000Y-114808000D01*
D16*
X88742000Y-114840300D02*
X88773000Y-114808000D01*
D18*
X111760000Y-113665000D02*
X111760000Y-114465000D01*
D16*
X146421700Y-114538000D02*
X116586000Y-114681000D01*
D19*
X148469990Y-114665010D02*
X148470000Y-114665000D01*
X148470000Y-114665000D02*
X148470000Y-113665000D01*
X112110000Y-113665000D02*
X113110010Y-114665010D01*
X113110010Y-114665010D02*
X148469990Y-114665010D01*
X111760000Y-113665000D02*
X112110000Y-113665000D01*
X111759990Y-114665010D02*
X111760000Y-114665000D01*
X86135763Y-114665010D02*
X111759990Y-114665010D01*
X80320763Y-120480010D02*
X86135763Y-114665010D01*
X72954361Y-120480010D02*
X80320763Y-120480010D01*
X72136000Y-119888000D02*
X72954361Y-120480010D01*
X76200000Y-99060000D02*
X76200000Y-100160000D01*
X111760000Y-114665000D02*
X111760000Y-113665000D01*
X76030000Y-100330000D02*
X72326500Y-100330000D01*
X72009000Y-101028500D02*
X72136000Y-119888000D01*
X76200000Y-100160000D02*
X76030000Y-100330000D01*
X72326500Y-100330000D02*
X72009000Y-101028500D01*
D16*
X148470000Y-116205000D02*
X149645300Y-116205000D01*
X149645300Y-116205000D02*
X149645300Y-115984500D01*
X149645300Y-115984500D02*
X150600100Y-115029700D01*
X150600100Y-115029700D02*
X151173700Y-115029700D01*
X151173700Y-115029700D02*
X157175600Y-109027800D01*
X157175600Y-109027800D02*
X157175600Y-87394400D01*
X157175600Y-87394400D02*
X163671000Y-80899000D01*
D20*
G36*
X163846914Y-71792635D02*
G01*
X163804886Y-71805384D01*
X163708367Y-71834663D01*
X163580680Y-71902913D01*
X163468762Y-71994762D01*
X163445746Y-72022807D01*
X162701307Y-72767247D01*
X162701306Y-72767247D01*
X158880140Y-76588414D01*
X155554987Y-79913567D01*
X155537238Y-79899000D01*
X155686502Y-79776502D01*
X155840833Y-79588449D01*
X155955511Y-79373901D01*
X156026130Y-79141102D01*
X156049975Y-78899000D01*
X156026130Y-78656898D01*
X155955511Y-78424099D01*
X155840833Y-78209551D01*
X155686502Y-78021498D01*
X155537238Y-77899000D01*
X155686502Y-77776502D01*
X155840833Y-77588449D01*
X155955511Y-77373901D01*
X156026130Y-77141102D01*
X156049975Y-76899000D01*
X156026130Y-76656898D01*
X155955511Y-76424099D01*
X155840833Y-76209551D01*
X155686502Y-76021498D01*
X155537238Y-75899000D01*
X155686502Y-75776502D01*
X155840833Y-75588449D01*
X155955511Y-75373901D01*
X156026130Y-75141102D01*
X156049975Y-74899000D01*
X156026130Y-74656898D01*
X155955511Y-74424099D01*
X155840833Y-74209551D01*
X155686502Y-74021498D01*
X155498449Y-73867167D01*
X155283901Y-73752489D01*
X155051102Y-73681870D01*
X154869665Y-73664000D01*
X154248335Y-73664000D01*
X154066898Y-73681870D01*
X153834099Y-73752489D01*
X153619551Y-73867167D01*
X153431498Y-74021498D01*
X153277167Y-74209551D01*
X153162489Y-74424099D01*
X153091870Y-74656898D01*
X153068025Y-74899000D01*
X153091870Y-75141102D01*
X153162489Y-75373901D01*
X153277167Y-75588449D01*
X153431498Y-75776502D01*
X153580762Y-75899000D01*
X153431498Y-76021498D01*
X153277167Y-76209551D01*
X153162489Y-76424099D01*
X153091870Y-76656898D01*
X153068025Y-76899000D01*
X153091870Y-77141102D01*
X153162489Y-77373901D01*
X153277167Y-77588449D01*
X153431498Y-77776502D01*
X153580762Y-77899000D01*
X153431498Y-78021498D01*
X153277167Y-78209551D01*
X153162489Y-78424099D01*
X153091870Y-78656898D01*
X153068025Y-78899000D01*
X153091870Y-79141102D01*
X153162489Y-79373901D01*
X153277167Y-79588449D01*
X153431498Y-79776502D01*
X153580762Y-79899000D01*
X153431498Y-80021498D01*
X153277167Y-80209551D01*
X153162489Y-80424099D01*
X153091870Y-80656898D01*
X153068025Y-80899000D01*
X153091870Y-81141102D01*
X153162489Y-81373901D01*
X153277167Y-81588449D01*
X153431498Y-81776502D01*
X153619551Y-81930833D01*
X153834099Y-82045511D01*
X154066898Y-82116130D01*
X154248335Y-82134000D01*
X154869665Y-82134000D01*
X155051102Y-82116130D01*
X155283901Y-82045511D01*
X155498449Y-81930833D01*
X155686502Y-81776502D01*
X155831766Y-81599498D01*
X155891633Y-81581337D01*
X156019320Y-81513087D01*
X156131238Y-81421238D01*
X156154259Y-81393187D01*
X162250995Y-75296452D01*
X162274489Y-75373901D01*
X162389167Y-75588449D01*
X162543498Y-75776502D01*
X162692762Y-75899000D01*
X162543498Y-76021498D01*
X162389167Y-76209551D01*
X162274489Y-76424099D01*
X162203870Y-76656898D01*
X162180025Y-76899000D01*
X162203870Y-77141102D01*
X162274489Y-77373901D01*
X162389167Y-77588449D01*
X162543498Y-77776502D01*
X162692762Y-77899000D01*
X162543498Y-78021498D01*
X162389167Y-78209551D01*
X162274489Y-78424099D01*
X162203870Y-78656898D01*
X162180025Y-78899000D01*
X162203870Y-79141102D01*
X162238834Y-79256364D01*
X154920203Y-86574996D01*
X154891199Y-86598799D01*
X154836071Y-86665974D01*
X154796226Y-86714524D01*
X154731883Y-86834901D01*
X154725654Y-86846554D01*
X154682197Y-86989815D01*
X154671200Y-87101468D01*
X154671200Y-87101478D01*
X154667524Y-87138800D01*
X154671200Y-87176122D01*
X154671201Y-105024297D01*
X152029412Y-107666087D01*
X152003599Y-107644903D01*
X152697704Y-106950798D01*
X152726701Y-106927001D01*
X152821674Y-106811276D01*
X152892246Y-106679247D01*
X152935703Y-106535986D01*
X152946700Y-106424333D01*
X152946700Y-106424324D01*
X152950376Y-106387001D01*
X152946700Y-106349678D01*
X152946700Y-100661733D01*
X152950377Y-100624400D01*
X152943178Y-100551303D01*
X152935703Y-100475414D01*
X152892246Y-100332153D01*
X152821674Y-100200124D01*
X152726701Y-100084399D01*
X152697703Y-100060601D01*
X152002830Y-99365728D01*
X152166449Y-99231449D01*
X152308284Y-99058623D01*
X152413676Y-98861447D01*
X152478577Y-98647499D01*
X152500491Y-98425000D01*
X152478577Y-98202501D01*
X152413676Y-97988553D01*
X152308284Y-97791377D01*
X152166449Y-97618551D01*
X151993623Y-97476716D01*
X151796447Y-97371324D01*
X151582499Y-97306423D01*
X151415752Y-97290000D01*
X150604248Y-97290000D01*
X150500000Y-97300267D01*
X150500000Y-97009733D01*
X150604248Y-97020000D01*
X151415752Y-97020000D01*
X151582499Y-97003577D01*
X151796447Y-96938676D01*
X151993623Y-96833284D01*
X152166449Y-96691449D01*
X152308284Y-96518623D01*
X152413676Y-96321447D01*
X152478577Y-96107499D01*
X152500491Y-95885000D01*
X152478577Y-95662501D01*
X152413676Y-95448553D01*
X152308284Y-95251377D01*
X152166449Y-95078551D01*
X151993623Y-94936716D01*
X151796447Y-94831324D01*
X151582499Y-94766423D01*
X151415752Y-94750000D01*
X150604248Y-94750000D01*
X150500000Y-94760267D01*
X150500000Y-85229323D01*
X150503676Y-85192000D01*
X150500000Y-85154677D01*
X150500000Y-85154667D01*
X150489003Y-85043014D01*
X150445546Y-84899753D01*
X150374974Y-84767724D01*
X150280001Y-84651999D01*
X150251003Y-84628201D01*
X146879165Y-81256364D01*
X146914130Y-81141102D01*
X146937975Y-80899000D01*
X146914130Y-80656898D01*
X146843511Y-80424099D01*
X146728833Y-80209551D01*
X146574502Y-80021498D01*
X146425238Y-79899000D01*
X146574502Y-79776502D01*
X146728833Y-79588449D01*
X146843511Y-79373901D01*
X146914130Y-79141102D01*
X146937975Y-78899000D01*
X146914130Y-78656898D01*
X146843511Y-78424099D01*
X146728833Y-78209551D01*
X146574502Y-78021498D01*
X146425238Y-77899000D01*
X146574502Y-77776502D01*
X146728833Y-77588449D01*
X146843511Y-77373901D01*
X146914130Y-77141102D01*
X146937975Y-76899000D01*
X146914130Y-76656898D01*
X146843511Y-76424099D01*
X146728833Y-76209551D01*
X146574502Y-76021498D01*
X146425238Y-75899000D01*
X146574502Y-75776502D01*
X146728833Y-75588449D01*
X146843511Y-75373901D01*
X146914130Y-75141102D01*
X146937975Y-74899000D01*
X146914130Y-74656898D01*
X146843511Y-74424099D01*
X146728833Y-74209551D01*
X146574502Y-74021498D01*
X146386449Y-73867167D01*
X146171901Y-73752489D01*
X145939102Y-73681870D01*
X145757665Y-73664000D01*
X145136335Y-73664000D01*
X144954898Y-73681870D01*
X144722099Y-73752489D01*
X144507551Y-73867167D01*
X144319498Y-74021498D01*
X144165167Y-74209551D01*
X144050489Y-74424099D01*
X143979870Y-74656898D01*
X143956025Y-74899000D01*
X143979870Y-75141102D01*
X144050489Y-75373901D01*
X144165167Y-75588449D01*
X144319498Y-75776502D01*
X144468762Y-75899000D01*
X144319498Y-76021498D01*
X144165167Y-76209551D01*
X144050489Y-76424099D01*
X143979870Y-76656898D01*
X143956025Y-76899000D01*
X143979870Y-77141102D01*
X144050489Y-77373901D01*
X144165167Y-77588449D01*
X144319498Y-77776502D01*
X144468762Y-77899000D01*
X144319498Y-78021498D01*
X144165167Y-78209551D01*
X144050489Y-78424099D01*
X143979870Y-78656898D01*
X143956025Y-78899000D01*
X143979870Y-79141102D01*
X144050489Y-79373901D01*
X144165167Y-79588449D01*
X144319498Y-79776502D01*
X144468762Y-79899000D01*
X144319498Y-80021498D01*
X144165167Y-80209551D01*
X144050489Y-80424099D01*
X143979870Y-80656898D01*
X143956025Y-80899000D01*
X143979870Y-81141102D01*
X144050489Y-81373901D01*
X144165167Y-81588449D01*
X144319498Y-81776502D01*
X144507551Y-81930833D01*
X144722099Y-82045511D01*
X144954898Y-82116130D01*
X145136335Y-82134000D01*
X145607199Y-82134000D01*
X148980001Y-85506803D01*
X148980000Y-94760267D01*
X148875752Y-94750000D01*
X148064248Y-94750000D01*
X147897501Y-94766423D01*
X147683553Y-94831324D01*
X147486377Y-94936716D01*
X147313551Y-95078551D01*
X147171716Y-95251377D01*
X147066324Y-95448553D01*
X147001423Y-95662501D01*
X146979509Y-95885000D01*
X147001423Y-96107499D01*
X147066324Y-96321447D01*
X147171716Y-96518623D01*
X147313551Y-96691449D01*
X147486377Y-96833284D01*
X147683553Y-96938676D01*
X147897501Y-97003577D01*
X148064248Y-97020000D01*
X148875752Y-97020000D01*
X148980000Y-97009733D01*
X148980000Y-97300267D01*
X148875752Y-97290000D01*
X148064248Y-97290000D01*
X147897501Y-97306423D01*
X147683553Y-97371324D01*
X147486377Y-97476716D01*
X147313551Y-97618551D01*
X147253105Y-97692204D01*
X146941400Y-97380499D01*
X146941400Y-88783725D01*
X146945076Y-88746400D01*
X146941400Y-88709075D01*
X146941400Y-88709067D01*
X146930403Y-88597414D01*
X146886946Y-88454153D01*
X146816374Y-88322124D01*
X146721401Y-88206399D01*
X146692404Y-88182602D01*
X137766165Y-79256364D01*
X137801130Y-79141102D01*
X137824975Y-78899000D01*
X137801130Y-78656898D01*
X137730511Y-78424099D01*
X137615833Y-78209551D01*
X137461502Y-78021498D01*
X137312238Y-77899000D01*
X137461502Y-77776502D01*
X137615833Y-77588449D01*
X137730511Y-77373901D01*
X137801130Y-77141102D01*
X137824975Y-76899000D01*
X137801130Y-76656898D01*
X137730511Y-76424099D01*
X137615833Y-76209551D01*
X137461502Y-76021498D01*
X137312238Y-75899000D01*
X137461502Y-75776502D01*
X137615833Y-75588449D01*
X137730511Y-75373901D01*
X137801130Y-75141102D01*
X137824975Y-74899000D01*
X137801130Y-74656898D01*
X137730511Y-74424099D01*
X137615833Y-74209551D01*
X137461502Y-74021498D01*
X137273449Y-73867167D01*
X137058901Y-73752489D01*
X136826102Y-73681870D01*
X136644665Y-73664000D01*
X136023335Y-73664000D01*
X135841898Y-73681870D01*
X135609099Y-73752489D01*
X135394551Y-73867167D01*
X135206498Y-74021498D01*
X135052167Y-74209551D01*
X134937489Y-74424099D01*
X134866870Y-74656898D01*
X134843025Y-74899000D01*
X134866870Y-75141102D01*
X134937489Y-75373901D01*
X135052167Y-75588449D01*
X135206498Y-75776502D01*
X135355762Y-75899000D01*
X135206498Y-76021498D01*
X135052167Y-76209551D01*
X134937489Y-76424099D01*
X134936654Y-76426852D01*
X131753602Y-73243801D01*
X131666876Y-73172626D01*
X131557736Y-73114289D01*
X130720258Y-72276812D01*
X130697238Y-72248762D01*
X130585320Y-72156913D01*
X130457633Y-72088663D01*
X130319085Y-72046635D01*
X130211105Y-72036000D01*
X130175000Y-72032444D01*
X130138895Y-72036000D01*
X117638094Y-72036000D01*
X117601999Y-72032445D01*
X117565904Y-72036000D01*
X117565895Y-72036000D01*
X117457915Y-72046635D01*
X117319367Y-72088663D01*
X117191680Y-72156913D01*
X117079762Y-72248762D01*
X117056746Y-72276807D01*
X115837808Y-73495746D01*
X115809762Y-73518763D01*
X115717913Y-73630681D01*
X115649663Y-73758368D01*
X115634729Y-73807600D01*
X115607635Y-73896915D01*
X115593444Y-74041000D01*
X115597000Y-74077105D01*
X115597000Y-74733818D01*
X115584554Y-74773391D01*
X115568363Y-74922220D01*
X115581519Y-75071346D01*
X115623513Y-75215042D01*
X115640000Y-75246657D01*
X115640000Y-84466198D01*
X110430165Y-79256364D01*
X110465130Y-79141102D01*
X110488975Y-78899000D01*
X110465130Y-78656898D01*
X110394511Y-78424099D01*
X110279833Y-78209551D01*
X110125502Y-78021498D01*
X109976238Y-77899000D01*
X110125502Y-77776502D01*
X110279833Y-77588449D01*
X110394511Y-77373901D01*
X110465130Y-77141102D01*
X110488975Y-76899000D01*
X110465130Y-76656898D01*
X110394511Y-76424099D01*
X110279833Y-76209551D01*
X110125502Y-76021498D01*
X109976238Y-75899000D01*
X110125502Y-75776502D01*
X110279833Y-75588449D01*
X110394511Y-75373901D01*
X110465130Y-75141102D01*
X110488975Y-74899000D01*
X110465130Y-74656898D01*
X110394511Y-74424099D01*
X110279833Y-74209551D01*
X110125502Y-74021498D01*
X109937449Y-73867167D01*
X109722901Y-73752489D01*
X109490102Y-73681870D01*
X109308665Y-73664000D01*
X108687335Y-73664000D01*
X108505898Y-73681870D01*
X108273099Y-73752489D01*
X108058551Y-73867167D01*
X107870498Y-74021498D01*
X107716167Y-74209551D01*
X107601489Y-74424099D01*
X107530870Y-74656898D01*
X107507025Y-74899000D01*
X107530870Y-75141102D01*
X107601489Y-75373901D01*
X107716167Y-75588449D01*
X107870498Y-75776502D01*
X108019762Y-75899000D01*
X107870498Y-76021498D01*
X107716167Y-76209551D01*
X107601489Y-76424099D01*
X107530870Y-76656898D01*
X107507025Y-76899000D01*
X107530870Y-77141102D01*
X107601489Y-77373901D01*
X107716167Y-77588449D01*
X107870498Y-77776502D01*
X108019762Y-77899000D01*
X107870498Y-78021498D01*
X107716167Y-78209551D01*
X107601489Y-78424099D01*
X107530870Y-78656898D01*
X107507025Y-78899000D01*
X107530870Y-79141102D01*
X107601489Y-79373901D01*
X107716167Y-79588449D01*
X107870498Y-79776502D01*
X108019762Y-79899000D01*
X107870498Y-80021498D01*
X107716167Y-80209551D01*
X107601489Y-80424099D01*
X107530870Y-80656898D01*
X107507025Y-80899000D01*
X107530870Y-81141102D01*
X107601489Y-81373901D01*
X107716167Y-81588449D01*
X107870498Y-81776502D01*
X108058551Y-81930833D01*
X108273099Y-82045511D01*
X108505898Y-82116130D01*
X108687335Y-82134000D01*
X109308665Y-82134000D01*
X109490102Y-82116130D01*
X109722901Y-82045511D01*
X109937449Y-81930833D01*
X110125502Y-81776502D01*
X110279833Y-81588449D01*
X110394511Y-81373901D01*
X110395346Y-81371148D01*
X114714168Y-85689970D01*
X114683134Y-94322312D01*
X114679324Y-94361000D01*
X114686512Y-94433982D01*
X114693467Y-94507292D01*
X114693863Y-94508615D01*
X114693998Y-94509985D01*
X114715310Y-94580243D01*
X114736408Y-94650708D01*
X114737054Y-94651927D01*
X114737454Y-94653246D01*
X114772118Y-94718097D01*
X114793609Y-94758653D01*
X114705752Y-94750000D01*
X113894248Y-94750000D01*
X113727501Y-94766423D01*
X113513553Y-94831324D01*
X113316377Y-94936716D01*
X113143551Y-95078551D01*
X113030000Y-95216913D01*
X112916449Y-95078551D01*
X112743623Y-94936716D01*
X112546447Y-94831324D01*
X112332499Y-94766423D01*
X112165752Y-94750000D01*
X111354248Y-94750000D01*
X111187501Y-94766423D01*
X110973553Y-94831324D01*
X110776377Y-94936716D01*
X110740589Y-94966087D01*
X97701404Y-81926903D01*
X97677601Y-81897899D01*
X97561876Y-81802926D01*
X97429847Y-81732354D01*
X97286586Y-81688897D01*
X97174933Y-81677900D01*
X97174922Y-81677900D01*
X97137600Y-81674224D01*
X97100278Y-81677900D01*
X91981623Y-81677900D01*
X92055033Y-81588449D01*
X92169711Y-81373901D01*
X92240330Y-81141102D01*
X92264175Y-80899000D01*
X92240330Y-80656898D01*
X92169711Y-80424099D01*
X92055033Y-80209551D01*
X91900702Y-80021498D01*
X91751438Y-79899000D01*
X91900702Y-79776502D01*
X92055033Y-79588449D01*
X92169711Y-79373901D01*
X92240330Y-79141102D01*
X92264175Y-78899000D01*
X92240330Y-78656898D01*
X92169711Y-78424099D01*
X92055033Y-78209551D01*
X91900702Y-78021498D01*
X91751438Y-77899000D01*
X91900702Y-77776502D01*
X92055033Y-77588449D01*
X92169711Y-77373901D01*
X92240330Y-77141102D01*
X92264175Y-76899000D01*
X92240330Y-76656898D01*
X92169711Y-76424099D01*
X92055033Y-76209551D01*
X91900702Y-76021498D01*
X91751438Y-75899000D01*
X91900702Y-75776502D01*
X92055033Y-75588449D01*
X92169711Y-75373901D01*
X92240330Y-75141102D01*
X92264175Y-74899000D01*
X98394525Y-74899000D01*
X98418370Y-75141102D01*
X98488989Y-75373901D01*
X98603667Y-75588449D01*
X98757998Y-75776502D01*
X98907262Y-75899000D01*
X98757998Y-76021498D01*
X98603667Y-76209551D01*
X98488989Y-76424099D01*
X98418370Y-76656898D01*
X98394525Y-76899000D01*
X98418370Y-77141102D01*
X98488989Y-77373901D01*
X98603667Y-77588449D01*
X98757998Y-77776502D01*
X98907262Y-77899000D01*
X98757998Y-78021498D01*
X98603667Y-78209551D01*
X98488989Y-78424099D01*
X98418370Y-78656898D01*
X98394525Y-78899000D01*
X98418370Y-79141102D01*
X98488989Y-79373901D01*
X98603667Y-79588449D01*
X98757998Y-79776502D01*
X98907262Y-79899000D01*
X98757998Y-80021498D01*
X98603667Y-80209551D01*
X98488989Y-80424099D01*
X98418370Y-80656898D01*
X98394525Y-80899000D01*
X98418370Y-81141102D01*
X98488989Y-81373901D01*
X98603667Y-81588449D01*
X98757998Y-81776502D01*
X98946051Y-81930833D01*
X99160599Y-82045511D01*
X99393398Y-82116130D01*
X99574835Y-82134000D01*
X100196165Y-82134000D01*
X100377602Y-82116130D01*
X100610401Y-82045511D01*
X100824949Y-81930833D01*
X101013002Y-81776502D01*
X101167333Y-81588449D01*
X101282011Y-81373901D01*
X101352630Y-81141102D01*
X101376475Y-80899000D01*
X101352630Y-80656898D01*
X101282011Y-80424099D01*
X101167333Y-80209551D01*
X101013002Y-80021498D01*
X100863738Y-79899000D01*
X101013002Y-79776502D01*
X101167333Y-79588449D01*
X101282011Y-79373901D01*
X101352630Y-79141102D01*
X101376475Y-78899000D01*
X101352630Y-78656898D01*
X101282011Y-78424099D01*
X101167333Y-78209551D01*
X101013002Y-78021498D01*
X100863738Y-77899000D01*
X101013002Y-77776502D01*
X101167333Y-77588449D01*
X101282011Y-77373901D01*
X101352630Y-77141102D01*
X101376475Y-76899000D01*
X101352630Y-76656898D01*
X101282011Y-76424099D01*
X101167333Y-76209551D01*
X101013002Y-76021498D01*
X100863738Y-75899000D01*
X101013002Y-75776502D01*
X101167333Y-75588449D01*
X101282011Y-75373901D01*
X101352630Y-75141102D01*
X101376475Y-74899000D01*
X101352630Y-74656898D01*
X101282011Y-74424099D01*
X101167333Y-74209551D01*
X101013002Y-74021498D01*
X100824949Y-73867167D01*
X100610401Y-73752489D01*
X100377602Y-73681870D01*
X100196165Y-73664000D01*
X99574835Y-73664000D01*
X99393398Y-73681870D01*
X99160599Y-73752489D01*
X98946051Y-73867167D01*
X98757998Y-74021498D01*
X98603667Y-74209551D01*
X98488989Y-74424099D01*
X98418370Y-74656898D01*
X98394525Y-74899000D01*
X92264175Y-74899000D01*
X92240330Y-74656898D01*
X92169711Y-74424099D01*
X92055033Y-74209551D01*
X91900702Y-74021498D01*
X91712649Y-73867167D01*
X91498101Y-73752489D01*
X91265302Y-73681870D01*
X91083865Y-73664000D01*
X90462535Y-73664000D01*
X90281098Y-73681870D01*
X90048299Y-73752489D01*
X89833751Y-73867167D01*
X89645698Y-74021498D01*
X89491367Y-74209551D01*
X89376689Y-74424099D01*
X89306070Y-74656898D01*
X89282225Y-74899000D01*
X89306070Y-75141102D01*
X89376689Y-75373901D01*
X89491367Y-75588449D01*
X89645698Y-75776502D01*
X89794962Y-75899000D01*
X89645698Y-76021498D01*
X89491367Y-76209551D01*
X89376689Y-76424099D01*
X89306070Y-76656898D01*
X89282225Y-76899000D01*
X89306070Y-77141102D01*
X89376689Y-77373901D01*
X89491367Y-77588449D01*
X89645698Y-77776502D01*
X89794962Y-77899000D01*
X89645698Y-78021498D01*
X89491367Y-78209551D01*
X89376689Y-78424099D01*
X89306070Y-78656898D01*
X89282225Y-78899000D01*
X89306070Y-79141102D01*
X89376689Y-79373901D01*
X89491367Y-79588449D01*
X89645698Y-79776502D01*
X89794962Y-79899000D01*
X89645698Y-80021498D01*
X89491367Y-80209551D01*
X89376689Y-80424099D01*
X89306070Y-80656898D01*
X89282225Y-80899000D01*
X89306070Y-81141102D01*
X89376689Y-81373901D01*
X89491367Y-81588449D01*
X89564777Y-81677900D01*
X82869423Y-81677900D01*
X82942833Y-81588449D01*
X83057511Y-81373901D01*
X83128130Y-81141102D01*
X83151975Y-80899000D01*
X83128130Y-80656898D01*
X83057511Y-80424099D01*
X82942833Y-80209551D01*
X82788502Y-80021498D01*
X82639238Y-79899000D01*
X82788502Y-79776502D01*
X82942833Y-79588449D01*
X83057511Y-79373901D01*
X83128130Y-79141102D01*
X83151975Y-78899000D01*
X83128130Y-78656898D01*
X83057511Y-78424099D01*
X82942833Y-78209551D01*
X82788502Y-78021498D01*
X82639238Y-77899000D01*
X82788502Y-77776502D01*
X82942833Y-77588449D01*
X83057511Y-77373901D01*
X83128130Y-77141102D01*
X83151975Y-76899000D01*
X83128130Y-76656898D01*
X83057511Y-76424099D01*
X82942833Y-76209551D01*
X82788502Y-76021498D01*
X82639238Y-75899000D01*
X82788502Y-75776502D01*
X82942833Y-75588449D01*
X83057511Y-75373901D01*
X83128130Y-75141102D01*
X83151975Y-74899000D01*
X83128130Y-74656898D01*
X83057511Y-74424099D01*
X82942833Y-74209551D01*
X82788502Y-74021498D01*
X82600449Y-73867167D01*
X82385901Y-73752489D01*
X82153102Y-73681870D01*
X81971665Y-73664000D01*
X81350335Y-73664000D01*
X81168898Y-73681870D01*
X80936099Y-73752489D01*
X80721551Y-73867167D01*
X80533498Y-74021498D01*
X80379167Y-74209551D01*
X80264489Y-74424099D01*
X80193870Y-74656898D01*
X80170025Y-74899000D01*
X80193870Y-75141102D01*
X80264489Y-75373901D01*
X80379167Y-75588449D01*
X80533498Y-75776502D01*
X80682762Y-75899000D01*
X80533498Y-76021498D01*
X80379167Y-76209551D01*
X80264489Y-76424099D01*
X80193870Y-76656898D01*
X80170025Y-76899000D01*
X80193870Y-77141102D01*
X80264489Y-77373901D01*
X80379167Y-77588449D01*
X80533498Y-77776502D01*
X80682762Y-77899000D01*
X80533498Y-78021498D01*
X80379167Y-78209551D01*
X80264489Y-78424099D01*
X80193870Y-78656898D01*
X80170025Y-78899000D01*
X80193870Y-79141102D01*
X80264489Y-79373901D01*
X80379167Y-79588449D01*
X80533498Y-79776502D01*
X80682762Y-79899000D01*
X80533498Y-80021498D01*
X80379167Y-80209551D01*
X80264489Y-80424099D01*
X80193870Y-80656898D01*
X80170025Y-80899000D01*
X80193870Y-81141102D01*
X80264489Y-81373901D01*
X80379167Y-81588449D01*
X80452577Y-81677900D01*
X78848002Y-81677900D01*
X77939104Y-80769003D01*
X77915301Y-80739999D01*
X77799576Y-80645026D01*
X77667547Y-80574454D01*
X77524286Y-80530997D01*
X77424927Y-80521211D01*
X77327502Y-80402498D01*
X77139449Y-80248167D01*
X76924901Y-80133489D01*
X76692102Y-80062870D01*
X76510665Y-80045000D01*
X75889335Y-80045000D01*
X75707898Y-80062870D01*
X75475099Y-80133489D01*
X75260551Y-80248167D01*
X75072498Y-80402498D01*
X74930000Y-80576132D01*
X74787502Y-80402498D01*
X74599449Y-80248167D01*
X74384901Y-80133489D01*
X74152102Y-80062870D01*
X73970665Y-80045000D01*
X73349335Y-80045000D01*
X73167898Y-80062870D01*
X72935099Y-80133489D01*
X72720551Y-80248167D01*
X72532498Y-80402498D01*
X72378167Y-80590551D01*
X72263489Y-80805099D01*
X72192870Y-81037898D01*
X72169025Y-81280000D01*
X72192870Y-81522102D01*
X72263489Y-81754901D01*
X72378167Y-81969449D01*
X72532498Y-82157502D01*
X72720551Y-82311833D01*
X72900001Y-82407751D01*
X72900001Y-82417958D01*
X72896323Y-82455300D01*
X72910997Y-82604286D01*
X72932423Y-82674919D01*
X72720551Y-82788167D01*
X72532498Y-82942498D01*
X72378167Y-83130551D01*
X72263489Y-83345099D01*
X72192870Y-83577898D01*
X72169025Y-83820000D01*
X72192870Y-84062102D01*
X72263489Y-84294901D01*
X72378167Y-84509449D01*
X72532498Y-84697502D01*
X72720551Y-84851833D01*
X72935099Y-84966511D01*
X73167898Y-85037130D01*
X73349335Y-85055000D01*
X73970665Y-85055000D01*
X74152102Y-85037130D01*
X74384901Y-84966511D01*
X74519803Y-84894404D01*
X75091940Y-85466542D01*
X75072498Y-85482498D01*
X74930000Y-85656132D01*
X74787502Y-85482498D01*
X74599449Y-85328167D01*
X74384901Y-85213489D01*
X74152102Y-85142870D01*
X73970665Y-85125000D01*
X73349335Y-85125000D01*
X73167898Y-85142870D01*
X72935099Y-85213489D01*
X72720551Y-85328167D01*
X72532498Y-85482498D01*
X72378167Y-85670551D01*
X72263489Y-85885099D01*
X72192870Y-86117898D01*
X72169025Y-86360000D01*
X72192870Y-86602102D01*
X72263489Y-86834901D01*
X72378167Y-87049449D01*
X72532498Y-87237502D01*
X72720551Y-87391833D01*
X72935099Y-87506511D01*
X73167898Y-87577130D01*
X73349335Y-87595000D01*
X73970665Y-87595000D01*
X74152102Y-87577130D01*
X74384901Y-87506511D01*
X74599449Y-87391833D01*
X74787502Y-87237502D01*
X74930000Y-87063868D01*
X75072498Y-87237502D01*
X75260551Y-87391833D01*
X75475099Y-87506511D01*
X75707898Y-87577130D01*
X75889335Y-87595000D01*
X76510665Y-87595000D01*
X76692102Y-87577130D01*
X76924901Y-87506511D01*
X77139449Y-87391833D01*
X77327502Y-87237502D01*
X77481833Y-87049449D01*
X77596511Y-86834901D01*
X77667130Y-86602102D01*
X77690975Y-86360000D01*
X77667130Y-86117898D01*
X77596511Y-85885099D01*
X77504202Y-85712400D01*
X78387954Y-85712400D01*
X87749347Y-95073794D01*
X87743551Y-95078551D01*
X87630000Y-95216913D01*
X87516449Y-95078551D01*
X87343623Y-94936716D01*
X87146447Y-94831324D01*
X86932499Y-94766423D01*
X86765752Y-94750000D01*
X85954248Y-94750000D01*
X85787501Y-94766423D01*
X85573553Y-94831324D01*
X85376377Y-94936716D01*
X85203551Y-95078551D01*
X85061716Y-95251377D01*
X84956324Y-95448553D01*
X84891423Y-95662501D01*
X84869509Y-95885000D01*
X84884677Y-96039000D01*
X83546269Y-96039000D01*
X83537033Y-96034063D01*
X83398485Y-95992035D01*
X83290505Y-95981400D01*
X83254400Y-95977844D01*
X83218295Y-95981400D01*
X82991503Y-95981400D01*
X77939104Y-90929003D01*
X77915301Y-90899999D01*
X77799576Y-90805026D01*
X77667547Y-90734454D01*
X77524286Y-90690997D01*
X77424927Y-90681211D01*
X77327502Y-90562498D01*
X77139449Y-90408167D01*
X76924901Y-90293489D01*
X76692102Y-90222870D01*
X76510665Y-90205000D01*
X75889335Y-90205000D01*
X75707898Y-90222870D01*
X75475099Y-90293489D01*
X75260551Y-90408167D01*
X75072498Y-90562498D01*
X74930000Y-90736132D01*
X74787502Y-90562498D01*
X74599449Y-90408167D01*
X74384901Y-90293489D01*
X74152102Y-90222870D01*
X73970665Y-90205000D01*
X73349335Y-90205000D01*
X73167898Y-90222870D01*
X72935099Y-90293489D01*
X72720551Y-90408167D01*
X72532498Y-90562498D01*
X72378167Y-90750551D01*
X72263489Y-90965099D01*
X72192870Y-91197898D01*
X72169025Y-91440000D01*
X72192870Y-91682102D01*
X72263489Y-91914901D01*
X72378167Y-92129449D01*
X72532498Y-92317502D01*
X72720551Y-92471833D01*
X72935099Y-92586511D01*
X73167898Y-92657130D01*
X73349335Y-92675000D01*
X73970665Y-92675000D01*
X74152102Y-92657130D01*
X74384901Y-92586511D01*
X74599449Y-92471833D01*
X74787502Y-92317502D01*
X74930000Y-92143868D01*
X75072498Y-92317502D01*
X75260551Y-92471833D01*
X75475099Y-92586511D01*
X75707898Y-92657130D01*
X75889335Y-92675000D01*
X76510665Y-92675000D01*
X76692102Y-92657130D01*
X76924901Y-92586511D01*
X77139449Y-92471833D01*
X77245389Y-92384890D01*
X81614147Y-96753650D01*
X81223752Y-96753650D01*
X77939104Y-93469003D01*
X77915301Y-93439999D01*
X77799576Y-93345026D01*
X77667547Y-93274454D01*
X77524286Y-93230997D01*
X77424927Y-93221211D01*
X77327502Y-93102498D01*
X77139449Y-92948167D01*
X76924901Y-92833489D01*
X76692102Y-92762870D01*
X76510665Y-92745000D01*
X75889335Y-92745000D01*
X75707898Y-92762870D01*
X75475099Y-92833489D01*
X75260551Y-92948167D01*
X75072498Y-93102498D01*
X74930000Y-93276132D01*
X74787502Y-93102498D01*
X74599449Y-92948167D01*
X74384901Y-92833489D01*
X74152102Y-92762870D01*
X73970665Y-92745000D01*
X73349335Y-92745000D01*
X73167898Y-92762870D01*
X72935099Y-92833489D01*
X72720551Y-92948167D01*
X72532498Y-93102498D01*
X72378167Y-93290551D01*
X72263489Y-93505099D01*
X72192870Y-93737898D01*
X72169025Y-93980000D01*
X72192870Y-94222102D01*
X72263489Y-94454901D01*
X72378167Y-94669449D01*
X72532498Y-94857502D01*
X72720551Y-95011833D01*
X72935099Y-95126511D01*
X73167898Y-95197130D01*
X73349335Y-95215000D01*
X73970665Y-95215000D01*
X74152102Y-95197130D01*
X74384901Y-95126511D01*
X74599449Y-95011833D01*
X74787502Y-94857502D01*
X74930000Y-94683868D01*
X75072498Y-94857502D01*
X75260551Y-95011833D01*
X75475099Y-95126511D01*
X75707898Y-95197130D01*
X75889335Y-95215000D01*
X76510665Y-95215000D01*
X76692102Y-95197130D01*
X76924901Y-95126511D01*
X77139449Y-95011833D01*
X77245389Y-94924890D01*
X80119841Y-97799343D01*
X80134139Y-97823881D01*
X80199853Y-97914816D01*
X80309526Y-98016718D01*
X80417904Y-98083512D01*
X80441330Y-98102737D01*
X80569017Y-98170987D01*
X80707565Y-98213015D01*
X80815545Y-98223650D01*
X80815552Y-98223650D01*
X80851649Y-98227205D01*
X80887746Y-98223650D01*
X84311248Y-98223650D01*
X80330199Y-102204700D01*
X77527132Y-102204700D01*
X77596511Y-102074901D01*
X77667130Y-101842102D01*
X77690975Y-101600000D01*
X77667130Y-101357898D01*
X77596511Y-101125099D01*
X77481833Y-100910551D01*
X77327502Y-100722498D01*
X77139449Y-100568167D01*
X76924901Y-100453489D01*
X76692102Y-100382870D01*
X76510665Y-100365000D01*
X75889335Y-100365000D01*
X75707898Y-100382870D01*
X75475099Y-100453489D01*
X75260551Y-100568167D01*
X75072498Y-100722498D01*
X74930000Y-100896132D01*
X74787502Y-100722498D01*
X74599449Y-100568167D01*
X74384901Y-100453489D01*
X74152102Y-100382870D01*
X73970665Y-100365000D01*
X73349335Y-100365000D01*
X73167898Y-100382870D01*
X72935099Y-100453489D01*
X72720551Y-100568167D01*
X72532498Y-100722498D01*
X72378167Y-100910551D01*
X72263489Y-101125099D01*
X72192870Y-101357898D01*
X72169025Y-101600000D01*
X72192870Y-101842102D01*
X72263489Y-102074901D01*
X72378167Y-102289449D01*
X72532498Y-102477502D01*
X72720551Y-102631833D01*
X72935099Y-102746511D01*
X73167898Y-102817130D01*
X73349335Y-102835000D01*
X73970665Y-102835000D01*
X74152102Y-102817130D01*
X74384901Y-102746511D01*
X74599449Y-102631833D01*
X74787502Y-102477502D01*
X74930000Y-102303868D01*
X75064879Y-102468219D01*
X74485721Y-103047378D01*
X74384901Y-102993489D01*
X74152102Y-102922870D01*
X73970665Y-102905000D01*
X73349335Y-102905000D01*
X73167898Y-102922870D01*
X72935099Y-102993489D01*
X72720551Y-103108167D01*
X72532498Y-103262498D01*
X72378167Y-103450551D01*
X72263489Y-103665099D01*
X72192870Y-103897898D01*
X72169025Y-104140000D01*
X72192870Y-104382102D01*
X72263489Y-104614901D01*
X72378167Y-104829449D01*
X72532498Y-105017502D01*
X72720551Y-105171833D01*
X72935099Y-105286511D01*
X73167898Y-105357130D01*
X73349335Y-105375000D01*
X73970665Y-105375000D01*
X74152102Y-105357130D01*
X74384901Y-105286511D01*
X74599449Y-105171833D01*
X74787502Y-105017502D01*
X74884927Y-104898789D01*
X74968331Y-104890574D01*
X75064879Y-105008219D01*
X74485721Y-105587378D01*
X74384901Y-105533489D01*
X74152102Y-105462870D01*
X73970665Y-105445000D01*
X73349335Y-105445000D01*
X73167898Y-105462870D01*
X72935099Y-105533489D01*
X72720551Y-105648167D01*
X72532498Y-105802498D01*
X72378167Y-105990551D01*
X72263489Y-106205099D01*
X72192870Y-106437898D01*
X72169025Y-106680000D01*
X72192870Y-106922102D01*
X72263489Y-107154901D01*
X72378167Y-107369449D01*
X72532498Y-107557502D01*
X72720551Y-107711833D01*
X72935099Y-107826511D01*
X73167898Y-107897130D01*
X73349335Y-107915000D01*
X73970665Y-107915000D01*
X74152102Y-107897130D01*
X74384901Y-107826511D01*
X74599449Y-107711833D01*
X74787502Y-107557502D01*
X74884927Y-107438789D01*
X74968331Y-107430574D01*
X75064879Y-107548219D01*
X74485721Y-108127378D01*
X74384901Y-108073489D01*
X74152102Y-108002870D01*
X73970665Y-107985000D01*
X73349335Y-107985000D01*
X73167898Y-108002870D01*
X72935099Y-108073489D01*
X72720551Y-108188167D01*
X72532498Y-108342498D01*
X72378167Y-108530551D01*
X72263489Y-108745099D01*
X72192870Y-108977898D01*
X72169025Y-109220000D01*
X72192870Y-109462102D01*
X72263489Y-109694901D01*
X72378167Y-109909449D01*
X72532498Y-110097502D01*
X72720551Y-110251833D01*
X72935099Y-110366511D01*
X73167898Y-110437130D01*
X73349335Y-110455000D01*
X73970665Y-110455000D01*
X74152102Y-110437130D01*
X74384901Y-110366511D01*
X74599449Y-110251833D01*
X74787502Y-110097502D01*
X74884927Y-109978789D01*
X74968331Y-109970574D01*
X75064879Y-110088219D01*
X74485721Y-110667378D01*
X74384901Y-110613489D01*
X74152102Y-110542870D01*
X73970665Y-110525000D01*
X73349335Y-110525000D01*
X73167898Y-110542870D01*
X72935099Y-110613489D01*
X72720551Y-110728167D01*
X72532498Y-110882498D01*
X72378167Y-111070551D01*
X72263489Y-111285099D01*
X72192870Y-111517898D01*
X72169025Y-111760000D01*
X72192870Y-112002102D01*
X72263489Y-112234901D01*
X72378167Y-112449449D01*
X72532498Y-112637502D01*
X72720551Y-112791833D01*
X72935099Y-112906511D01*
X73167898Y-112977130D01*
X73349335Y-112995000D01*
X73970665Y-112995000D01*
X74152102Y-112977130D01*
X74384901Y-112906511D01*
X74599449Y-112791833D01*
X74787502Y-112637502D01*
X74884927Y-112518789D01*
X74968331Y-112510574D01*
X75064879Y-112628219D01*
X74485721Y-113207378D01*
X74384901Y-113153489D01*
X74152102Y-113082870D01*
X73970665Y-113065000D01*
X73349335Y-113065000D01*
X73167898Y-113082870D01*
X72935099Y-113153489D01*
X72720551Y-113268167D01*
X72532498Y-113422498D01*
X72378167Y-113610551D01*
X72263489Y-113825099D01*
X72192870Y-114057898D01*
X72169025Y-114300000D01*
X72192870Y-114542102D01*
X72263489Y-114774901D01*
X72378167Y-114989449D01*
X72532498Y-115177502D01*
X72720551Y-115331833D01*
X72935099Y-115446511D01*
X73167898Y-115517130D01*
X73349335Y-115535000D01*
X73970665Y-115535000D01*
X74152102Y-115517130D01*
X74384901Y-115446511D01*
X74599449Y-115331833D01*
X74787502Y-115177502D01*
X74884927Y-115058789D01*
X74968331Y-115050574D01*
X75064879Y-115168219D01*
X74485721Y-115747378D01*
X74384901Y-115693489D01*
X74152102Y-115622870D01*
X73970665Y-115605000D01*
X73349335Y-115605000D01*
X73167898Y-115622870D01*
X72935099Y-115693489D01*
X72720551Y-115808167D01*
X72532498Y-115962498D01*
X72378167Y-116150551D01*
X72263489Y-116365099D01*
X72192870Y-116597898D01*
X72169025Y-116840000D01*
X72192870Y-117082102D01*
X72263489Y-117314901D01*
X72378167Y-117529449D01*
X72532498Y-117717502D01*
X72720551Y-117871833D01*
X72935099Y-117986511D01*
X73167898Y-118057130D01*
X73349335Y-118075000D01*
X73970665Y-118075000D01*
X74152102Y-118057130D01*
X74328900Y-118003499D01*
X74324303Y-118008096D01*
X74295299Y-118031899D01*
X74240171Y-118099074D01*
X74200326Y-118147624D01*
X74186586Y-118173330D01*
X74152102Y-118162870D01*
X73970665Y-118145000D01*
X73349335Y-118145000D01*
X73167898Y-118162870D01*
X72935099Y-118233489D01*
X72720551Y-118348167D01*
X72532498Y-118502498D01*
X72378167Y-118690551D01*
X72263489Y-118905099D01*
X72192870Y-119137898D01*
X72169025Y-119380000D01*
X72192870Y-119622102D01*
X72263489Y-119854901D01*
X72378167Y-120069449D01*
X72532498Y-120257502D01*
X72720551Y-120411833D01*
X72935099Y-120526511D01*
X73167898Y-120597130D01*
X73349335Y-120615000D01*
X73970665Y-120615000D01*
X74152102Y-120597130D01*
X74384901Y-120526511D01*
X74599449Y-120411833D01*
X74781112Y-120262746D01*
X74819463Y-120334494D01*
X74898815Y-120431185D01*
X74995506Y-120510537D01*
X75105820Y-120569502D01*
X75225518Y-120605812D01*
X75350000Y-120618072D01*
X77050000Y-120618072D01*
X77174482Y-120605812D01*
X77294180Y-120569502D01*
X77404494Y-120510537D01*
X77501185Y-120431185D01*
X77580537Y-120334494D01*
X77639502Y-120224180D01*
X77675812Y-120104482D01*
X77688072Y-119980000D01*
X77688072Y-118964700D01*
X80607678Y-118964700D01*
X80645000Y-118968376D01*
X80682322Y-118964700D01*
X80682333Y-118964700D01*
X80793986Y-118953703D01*
X80937247Y-118910246D01*
X81069276Y-118839674D01*
X81184636Y-118745000D01*
X84869509Y-118745000D01*
X84891423Y-118967499D01*
X84956324Y-119181447D01*
X85061716Y-119378623D01*
X85203551Y-119551449D01*
X85376377Y-119693284D01*
X85573553Y-119798676D01*
X85787501Y-119863577D01*
X85954248Y-119880000D01*
X86765752Y-119880000D01*
X86932499Y-119863577D01*
X87146447Y-119798676D01*
X87343623Y-119693284D01*
X87516449Y-119551449D01*
X87630000Y-119413087D01*
X87743551Y-119551449D01*
X87916377Y-119693284D01*
X88113553Y-119798676D01*
X88327501Y-119863577D01*
X88494248Y-119880000D01*
X89305752Y-119880000D01*
X89472499Y-119863577D01*
X89686447Y-119798676D01*
X89883623Y-119693284D01*
X90056449Y-119551449D01*
X90198284Y-119378623D01*
X90303676Y-119181447D01*
X90368577Y-118967499D01*
X90390491Y-118745000D01*
X90368577Y-118522501D01*
X90303676Y-118308553D01*
X90198284Y-118111377D01*
X90056449Y-117938551D01*
X89883623Y-117796716D01*
X89686447Y-117691324D01*
X89472499Y-117626423D01*
X89305752Y-117610000D01*
X88494248Y-117610000D01*
X88327501Y-117626423D01*
X88113553Y-117691324D01*
X87916377Y-117796716D01*
X87743551Y-117938551D01*
X87630000Y-118076913D01*
X87516449Y-117938551D01*
X87343623Y-117796716D01*
X87146447Y-117691324D01*
X86932499Y-117626423D01*
X86765752Y-117610000D01*
X85954248Y-117610000D01*
X85787501Y-117626423D01*
X85573553Y-117691324D01*
X85376377Y-117796716D01*
X85203551Y-117938551D01*
X85061716Y-118111377D01*
X84956324Y-118308553D01*
X84891423Y-118522501D01*
X84869509Y-118745000D01*
X81184636Y-118745000D01*
X81185001Y-118744701D01*
X81208804Y-118715697D01*
X85340589Y-114583913D01*
X85376377Y-114613284D01*
X85573553Y-114718676D01*
X85787501Y-114783577D01*
X85954248Y-114800000D01*
X86765752Y-114800000D01*
X86932499Y-114783577D01*
X87146447Y-114718676D01*
X87343623Y-114613284D01*
X87516449Y-114471449D01*
X87630000Y-114333087D01*
X87743551Y-114471449D01*
X87916377Y-114613284D01*
X88113553Y-114718676D01*
X88327501Y-114783577D01*
X88494248Y-114800000D01*
X89305752Y-114800000D01*
X89472499Y-114783577D01*
X89686447Y-114718676D01*
X89883623Y-114613284D01*
X90056449Y-114471449D01*
X90092981Y-114426935D01*
X90112622Y-114425000D01*
X90112633Y-114425000D01*
X90224286Y-114414003D01*
X90367547Y-114370546D01*
X90499576Y-114299974D01*
X90615301Y-114205001D01*
X90639103Y-114175998D01*
X90848227Y-113966874D01*
X110315881Y-113966874D01*
X110395724Y-114189976D01*
X110517631Y-114377764D01*
X110673831Y-114538161D01*
X110858322Y-114665003D01*
X111064013Y-114753415D01*
X111283000Y-114800000D01*
X111633000Y-114800000D01*
X111633000Y-113792000D01*
X110442046Y-113792000D01*
X110315881Y-113966874D01*
X90848227Y-113966874D01*
X91217902Y-113597200D01*
X110479346Y-113597200D01*
X110524314Y-113610841D01*
X110678200Y-113625997D01*
X110832086Y-113610841D01*
X110980059Y-113565954D01*
X111032357Y-113538000D01*
X111633000Y-113538000D01*
X111633000Y-113518000D01*
X111887000Y-113518000D01*
X111887000Y-113538000D01*
X111907000Y-113538000D01*
X111907000Y-113792000D01*
X111887000Y-113792000D01*
X111887000Y-114800000D01*
X112237000Y-114800000D01*
X112455987Y-114753415D01*
X112661678Y-114665003D01*
X112846169Y-114538161D01*
X113002369Y-114377764D01*
X113030766Y-114334021D01*
X113143551Y-114471449D01*
X113316377Y-114613284D01*
X113513553Y-114718676D01*
X113727501Y-114783577D01*
X113894248Y-114800000D01*
X114705752Y-114800000D01*
X114872499Y-114783577D01*
X115086447Y-114718676D01*
X115283623Y-114613284D01*
X115456449Y-114471449D01*
X115598284Y-114298623D01*
X115703676Y-114101447D01*
X115768577Y-113887499D01*
X115790491Y-113665000D01*
X115778575Y-113544018D01*
X115797113Y-113549641D01*
X115950999Y-113564797D01*
X116104886Y-113549641D01*
X116149854Y-113536000D01*
X121449333Y-113536000D01*
X121560986Y-113525003D01*
X121594292Y-113514900D01*
X121579509Y-113665000D01*
X121601423Y-113887499D01*
X121666324Y-114101447D01*
X121771716Y-114298623D01*
X121913551Y-114471449D01*
X122086377Y-114613284D01*
X122283553Y-114718676D01*
X122497501Y-114783577D01*
X122664248Y-114800000D01*
X123475752Y-114800000D01*
X123642499Y-114783577D01*
X123856447Y-114718676D01*
X124053623Y-114613284D01*
X124226449Y-114471449D01*
X124340000Y-114333087D01*
X124453551Y-114471449D01*
X124626377Y-114613284D01*
X124823553Y-114718676D01*
X125037501Y-114783577D01*
X125204248Y-114800000D01*
X126015752Y-114800000D01*
X126182499Y-114783577D01*
X126396447Y-114718676D01*
X126593623Y-114613284D01*
X126766449Y-114471449D01*
X126908284Y-114298623D01*
X127013676Y-114101447D01*
X127054498Y-113966874D01*
X147025881Y-113966874D01*
X147105724Y-114189976D01*
X147227631Y-114377764D01*
X147383831Y-114538161D01*
X147568322Y-114665003D01*
X147774013Y-114753415D01*
X147993000Y-114800000D01*
X148343000Y-114800000D01*
X148343000Y-113792000D01*
X147152046Y-113792000D01*
X147025881Y-113966874D01*
X127054498Y-113966874D01*
X127078577Y-113887499D01*
X127100491Y-113665000D01*
X127078577Y-113442501D01*
X127054499Y-113363126D01*
X147025881Y-113363126D01*
X147152046Y-113538000D01*
X148343000Y-113538000D01*
X148343000Y-112530000D01*
X147993000Y-112530000D01*
X147774013Y-112576585D01*
X147568322Y-112664997D01*
X147383831Y-112791839D01*
X147227631Y-112952236D01*
X147105724Y-113140024D01*
X147025881Y-113363126D01*
X127054499Y-113363126D01*
X127013676Y-113228553D01*
X126908284Y-113031377D01*
X126766449Y-112858551D01*
X126593623Y-112716716D01*
X126396447Y-112611324D01*
X126226868Y-112559882D01*
X126224087Y-112554680D01*
X126132238Y-112442762D01*
X126104187Y-112419741D01*
X125944446Y-112260000D01*
X126015752Y-112260000D01*
X126182499Y-112243577D01*
X126396447Y-112178676D01*
X126593623Y-112073284D01*
X126766449Y-111931449D01*
X126908284Y-111758623D01*
X127013676Y-111561447D01*
X127078577Y-111347499D01*
X127100491Y-111125000D01*
X146979509Y-111125000D01*
X147001423Y-111347499D01*
X147066324Y-111561447D01*
X147171716Y-111758623D01*
X147313551Y-111931449D01*
X147486377Y-112073284D01*
X147683553Y-112178676D01*
X147897501Y-112243577D01*
X148064248Y-112260000D01*
X148875752Y-112260000D01*
X149042499Y-112243577D01*
X149256447Y-112178676D01*
X149453623Y-112073284D01*
X149626449Y-111931449D01*
X149740000Y-111793087D01*
X149853551Y-111931449D01*
X150026377Y-112073284D01*
X150223553Y-112178676D01*
X150437501Y-112243577D01*
X150604248Y-112260000D01*
X151415752Y-112260000D01*
X151582499Y-112243577D01*
X151796447Y-112178676D01*
X151993623Y-112073284D01*
X152166449Y-111931449D01*
X152308284Y-111758623D01*
X152413676Y-111561447D01*
X152478577Y-111347499D01*
X152500491Y-111125000D01*
X152478577Y-110902501D01*
X152413676Y-110688553D01*
X152308284Y-110491377D01*
X152166449Y-110318551D01*
X151993623Y-110176716D01*
X151796447Y-110071324D01*
X151582499Y-110006423D01*
X151415752Y-109990000D01*
X150604248Y-109990000D01*
X150437501Y-110006423D01*
X150223553Y-110071324D01*
X150026377Y-110176716D01*
X149853551Y-110318551D01*
X149740000Y-110456913D01*
X149626449Y-110318551D01*
X149453623Y-110176716D01*
X149256447Y-110071324D01*
X149042499Y-110006423D01*
X148875752Y-109990000D01*
X148064248Y-109990000D01*
X147897501Y-110006423D01*
X147683553Y-110071324D01*
X147486377Y-110176716D01*
X147313551Y-110318551D01*
X147171716Y-110491377D01*
X147066324Y-110688553D01*
X147001423Y-110902501D01*
X146979509Y-111125000D01*
X127100491Y-111125000D01*
X127078577Y-110902501D01*
X127013676Y-110688553D01*
X126908284Y-110491377D01*
X126766449Y-110318551D01*
X126593623Y-110176716D01*
X126396447Y-110071324D01*
X126182499Y-110006423D01*
X126015752Y-109990000D01*
X125204248Y-109990000D01*
X125037501Y-110006423D01*
X124823553Y-110071324D01*
X124642529Y-110168083D01*
X124409274Y-109934827D01*
X124411103Y-109932598D01*
X124746312Y-109597390D01*
X124823553Y-109638676D01*
X125037501Y-109703577D01*
X125204248Y-109720000D01*
X126015752Y-109720000D01*
X126182499Y-109703577D01*
X126396447Y-109638676D01*
X126593623Y-109533284D01*
X126766449Y-109391449D01*
X126908284Y-109218623D01*
X127013676Y-109021447D01*
X127078577Y-108807499D01*
X127100491Y-108585000D01*
X127078577Y-108362501D01*
X127013676Y-108148553D01*
X126908284Y-107951377D01*
X126766449Y-107778551D01*
X126593623Y-107636716D01*
X126396447Y-107531324D01*
X126182499Y-107466423D01*
X126015752Y-107450000D01*
X125204248Y-107450000D01*
X125037501Y-107466423D01*
X124823553Y-107531324D01*
X124626377Y-107636716D01*
X124453551Y-107778551D01*
X124417020Y-107823064D01*
X124397367Y-107825000D01*
X124285714Y-107835997D01*
X124276010Y-107838941D01*
X124226449Y-107778551D01*
X124053623Y-107636716D01*
X123856447Y-107531324D01*
X123642499Y-107466423D01*
X123475752Y-107450000D01*
X122664248Y-107450000D01*
X122497501Y-107466423D01*
X122283553Y-107531324D01*
X122086377Y-107636716D01*
X121913551Y-107778551D01*
X121771716Y-107951377D01*
X121666324Y-108148553D01*
X121601423Y-108362501D01*
X121579509Y-108585000D01*
X121587053Y-108661600D01*
X115782947Y-108661600D01*
X115790491Y-108585000D01*
X115768577Y-108362501D01*
X115703676Y-108148553D01*
X115598284Y-107951377D01*
X115456449Y-107778551D01*
X115283623Y-107636716D01*
X115086447Y-107531324D01*
X114872499Y-107466423D01*
X114705752Y-107450000D01*
X113894248Y-107450000D01*
X113727501Y-107466423D01*
X113513553Y-107531324D01*
X113316377Y-107636716D01*
X113143551Y-107778551D01*
X113030000Y-107916913D01*
X112916449Y-107778551D01*
X112743623Y-107636716D01*
X112546447Y-107531324D01*
X112332499Y-107466423D01*
X112165752Y-107450000D01*
X111354248Y-107450000D01*
X111187501Y-107466423D01*
X110973553Y-107531324D01*
X110776377Y-107636716D01*
X110740589Y-107666087D01*
X100583501Y-97509000D01*
X101005508Y-97509000D01*
X110020482Y-106555492D01*
X110044699Y-106585001D01*
X110101998Y-106632025D01*
X110159316Y-106679232D01*
X110159905Y-106679548D01*
X110160424Y-106679974D01*
X110226108Y-106715083D01*
X110291222Y-106750034D01*
X110291859Y-106750228D01*
X110292453Y-106750546D01*
X110363813Y-106772193D01*
X110434406Y-106793741D01*
X110435070Y-106793808D01*
X110435714Y-106794003D01*
X110509995Y-106801319D01*
X110567110Y-106807045D01*
X110603551Y-106851449D01*
X110776377Y-106993284D01*
X110973553Y-107098676D01*
X111187501Y-107163577D01*
X111354248Y-107180000D01*
X112165752Y-107180000D01*
X112332499Y-107163577D01*
X112546447Y-107098676D01*
X112743623Y-106993284D01*
X112916449Y-106851449D01*
X113030000Y-106713087D01*
X113143551Y-106851449D01*
X113316377Y-106993284D01*
X113513553Y-107098676D01*
X113727501Y-107163577D01*
X113894248Y-107180000D01*
X114705752Y-107180000D01*
X114872499Y-107163577D01*
X115086447Y-107098676D01*
X115283623Y-106993284D01*
X115456449Y-106851449D01*
X115492981Y-106806935D01*
X115512622Y-106805000D01*
X115512633Y-106805000D01*
X115624286Y-106794003D01*
X115767547Y-106750546D01*
X115899576Y-106679974D01*
X116015301Y-106585001D01*
X116039103Y-106555998D01*
X116625530Y-105969573D01*
X121585739Y-105981741D01*
X121579509Y-106045000D01*
X121601423Y-106267499D01*
X121666324Y-106481447D01*
X121771716Y-106678623D01*
X121913551Y-106851449D01*
X122086377Y-106993284D01*
X122283553Y-107098676D01*
X122497501Y-107163577D01*
X122664248Y-107180000D01*
X123475752Y-107180000D01*
X123642499Y-107163577D01*
X123856447Y-107098676D01*
X124053623Y-106993284D01*
X124226449Y-106851449D01*
X124340000Y-106713087D01*
X124453551Y-106851449D01*
X124626377Y-106993284D01*
X124823553Y-107098676D01*
X125037501Y-107163577D01*
X125204248Y-107180000D01*
X126015752Y-107180000D01*
X126182499Y-107163577D01*
X126396447Y-107098676D01*
X126593623Y-106993284D01*
X126766449Y-106851449D01*
X126908284Y-106678623D01*
X127013676Y-106481447D01*
X127078577Y-106267499D01*
X127100491Y-106045000D01*
X127078577Y-105822501D01*
X127022305Y-105637000D01*
X127046570Y-105637000D01*
X127091388Y-105692364D01*
X127206473Y-105788112D01*
X127338025Y-105859568D01*
X127480991Y-105903986D01*
X127592568Y-105915732D01*
X146590231Y-106043233D01*
X146701955Y-106032986D01*
X146845505Y-105990491D01*
X146978004Y-105920807D01*
X146992931Y-105908723D01*
X146979509Y-106045000D01*
X147001423Y-106267499D01*
X147066324Y-106481447D01*
X147171716Y-106678623D01*
X147313551Y-106851449D01*
X147486377Y-106993284D01*
X147683553Y-107098676D01*
X147897501Y-107163577D01*
X148064248Y-107180000D01*
X148875752Y-107180000D01*
X149042499Y-107163577D01*
X149256447Y-107098676D01*
X149453623Y-106993284D01*
X149626449Y-106851449D01*
X149740000Y-106713087D01*
X149853551Y-106851449D01*
X149979876Y-106955122D01*
X149352392Y-107582607D01*
X149256447Y-107531324D01*
X149042499Y-107466423D01*
X148875752Y-107450000D01*
X148064248Y-107450000D01*
X147897501Y-107466423D01*
X147683553Y-107531324D01*
X147486377Y-107636716D01*
X147313551Y-107778551D01*
X147171716Y-107951377D01*
X147066324Y-108148553D01*
X147001423Y-108362501D01*
X146979509Y-108585000D01*
X147001423Y-108807499D01*
X147066324Y-109021447D01*
X147171716Y-109218623D01*
X147313551Y-109391449D01*
X147486377Y-109533284D01*
X147683553Y-109638676D01*
X147897501Y-109703577D01*
X148064248Y-109720000D01*
X148875752Y-109720000D01*
X149042499Y-109703577D01*
X149256447Y-109638676D01*
X149453623Y-109533284D01*
X149626449Y-109391449D01*
X149662980Y-109346936D01*
X149682633Y-109345000D01*
X149794286Y-109334003D01*
X149803990Y-109331059D01*
X149853551Y-109391449D01*
X150026377Y-109533284D01*
X150223553Y-109638676D01*
X150437501Y-109703577D01*
X150604248Y-109720000D01*
X151415752Y-109720000D01*
X151582499Y-109703577D01*
X151796447Y-109638676D01*
X151993623Y-109533284D01*
X152166449Y-109391449D01*
X152202981Y-109346935D01*
X152222622Y-109345000D01*
X152222633Y-109345000D01*
X152334286Y-109334003D01*
X152477547Y-109290546D01*
X152609576Y-109219974D01*
X152725301Y-109125001D01*
X152749104Y-109095997D01*
X155942203Y-105902899D01*
X155971201Y-105879101D01*
X156066174Y-105763376D01*
X156136746Y-105631347D01*
X156180203Y-105488086D01*
X156191200Y-105376433D01*
X156191200Y-105376423D01*
X156194876Y-105339100D01*
X156191200Y-105301777D01*
X156191200Y-87453601D01*
X156438446Y-87206355D01*
X156426598Y-87245415D01*
X156411924Y-87394400D01*
X156415601Y-87431733D01*
X156415600Y-108712997D01*
X152213147Y-112915452D01*
X152166449Y-112858551D01*
X151993623Y-112716716D01*
X151796447Y-112611324D01*
X151582499Y-112546423D01*
X151415752Y-112530000D01*
X150604248Y-112530000D01*
X150437501Y-112546423D01*
X150223553Y-112611324D01*
X150026377Y-112716716D01*
X149853551Y-112858551D01*
X149740766Y-112995979D01*
X149712369Y-112952236D01*
X149556169Y-112791839D01*
X149371678Y-112664997D01*
X149165987Y-112576585D01*
X148947000Y-112530000D01*
X148597000Y-112530000D01*
X148597000Y-113538000D01*
X148617000Y-113538000D01*
X148617000Y-113792000D01*
X148597000Y-113792000D01*
X148597000Y-114800000D01*
X148947000Y-114800000D01*
X149165987Y-114753415D01*
X149371678Y-114665003D01*
X149556169Y-114538161D01*
X149712369Y-114377764D01*
X149740766Y-114334021D01*
X149853551Y-114471449D01*
X149979876Y-114575122D01*
X149352392Y-115202607D01*
X149256447Y-115151324D01*
X149042499Y-115086423D01*
X148875752Y-115070000D01*
X148064248Y-115070000D01*
X147897501Y-115086423D01*
X147683553Y-115151324D01*
X147486377Y-115256716D01*
X147313551Y-115398551D01*
X147171716Y-115571377D01*
X147066324Y-115768553D01*
X147001423Y-115982501D01*
X146979509Y-116205000D01*
X146986384Y-116274800D01*
X127929902Y-116274800D01*
X127349103Y-115694002D01*
X127325301Y-115664999D01*
X127209576Y-115570026D01*
X127077547Y-115499454D01*
X126934286Y-115455997D01*
X126822633Y-115445000D01*
X126822622Y-115445000D01*
X126802981Y-115443065D01*
X126766449Y-115398551D01*
X126593623Y-115256716D01*
X126396447Y-115151324D01*
X126182499Y-115086423D01*
X126015752Y-115070000D01*
X125204248Y-115070000D01*
X125037501Y-115086423D01*
X124823553Y-115151324D01*
X124626377Y-115256716D01*
X124453551Y-115398551D01*
X124417020Y-115443064D01*
X124397367Y-115445000D01*
X124285714Y-115455997D01*
X124276010Y-115458941D01*
X124226449Y-115398551D01*
X124053623Y-115256716D01*
X123856447Y-115151324D01*
X123642499Y-115086423D01*
X123475752Y-115070000D01*
X122664248Y-115070000D01*
X122497501Y-115086423D01*
X122283553Y-115151324D01*
X122086377Y-115256716D01*
X121913551Y-115398551D01*
X121771716Y-115571377D01*
X121666324Y-115768553D01*
X121601423Y-115982501D01*
X121579509Y-116205000D01*
X121590638Y-116318000D01*
X115779362Y-116318000D01*
X115790491Y-116205000D01*
X115768577Y-115982501D01*
X115703676Y-115768553D01*
X115598284Y-115571377D01*
X115456449Y-115398551D01*
X115283623Y-115256716D01*
X115086447Y-115151324D01*
X114872499Y-115086423D01*
X114705752Y-115070000D01*
X113894248Y-115070000D01*
X113727501Y-115086423D01*
X113513553Y-115151324D01*
X113316377Y-115256716D01*
X113143551Y-115398551D01*
X113030000Y-115536913D01*
X112916449Y-115398551D01*
X112743623Y-115256716D01*
X112546447Y-115151324D01*
X112332499Y-115086423D01*
X112165752Y-115070000D01*
X111354248Y-115070000D01*
X111187501Y-115086423D01*
X110973553Y-115151324D01*
X110776377Y-115256716D01*
X110603551Y-115398551D01*
X110461716Y-115571377D01*
X110356324Y-115768553D01*
X110291423Y-115982501D01*
X110269509Y-116205000D01*
X110280638Y-116318000D01*
X91263102Y-116318000D01*
X90639103Y-115694002D01*
X90615301Y-115664999D01*
X90499576Y-115570026D01*
X90367547Y-115499454D01*
X90224286Y-115455997D01*
X90112633Y-115445000D01*
X90112622Y-115445000D01*
X90092981Y-115443065D01*
X90056449Y-115398551D01*
X89883623Y-115256716D01*
X89686447Y-115151324D01*
X89472499Y-115086423D01*
X89305752Y-115070000D01*
X88494248Y-115070000D01*
X88327501Y-115086423D01*
X88113553Y-115151324D01*
X87916377Y-115256716D01*
X87743551Y-115398551D01*
X87630000Y-115536913D01*
X87516449Y-115398551D01*
X87343623Y-115256716D01*
X87146447Y-115151324D01*
X86932499Y-115086423D01*
X86765752Y-115070000D01*
X85954248Y-115070000D01*
X85787501Y-115086423D01*
X85573553Y-115151324D01*
X85376377Y-115256716D01*
X85203551Y-115398551D01*
X85061716Y-115571377D01*
X84956324Y-115768553D01*
X84891423Y-115982501D01*
X84869509Y-116205000D01*
X84891423Y-116427499D01*
X84956324Y-116641447D01*
X85061716Y-116838623D01*
X85203551Y-117011449D01*
X85376377Y-117153284D01*
X85573553Y-117258676D01*
X85787501Y-117323577D01*
X85954248Y-117340000D01*
X86765752Y-117340000D01*
X86932499Y-117323577D01*
X87146447Y-117258676D01*
X87343623Y-117153284D01*
X87516449Y-117011449D01*
X87630000Y-116873087D01*
X87743551Y-117011449D01*
X87916377Y-117153284D01*
X88113553Y-117258676D01*
X88327501Y-117323577D01*
X88494248Y-117340000D01*
X89305752Y-117340000D01*
X89472499Y-117323577D01*
X89686447Y-117258676D01*
X89883623Y-117153284D01*
X89919411Y-117123913D01*
X90384505Y-117589008D01*
X90408299Y-117618001D01*
X90437292Y-117641795D01*
X90437296Y-117641799D01*
X90479099Y-117676105D01*
X90524024Y-117712974D01*
X90656053Y-117783546D01*
X90799314Y-117827003D01*
X90910967Y-117838000D01*
X90910976Y-117838000D01*
X90948299Y-117841676D01*
X90985622Y-117838000D01*
X110726072Y-117838000D01*
X110603551Y-117938551D01*
X110461716Y-118111377D01*
X110356324Y-118308553D01*
X110291423Y-118522501D01*
X110269509Y-118745000D01*
X110291423Y-118967499D01*
X110356324Y-119181447D01*
X110461716Y-119378623D01*
X110603551Y-119551449D01*
X110776377Y-119693284D01*
X110973553Y-119798676D01*
X111187501Y-119863577D01*
X111354248Y-119880000D01*
X112165752Y-119880000D01*
X112332499Y-119863577D01*
X112546447Y-119798676D01*
X112743623Y-119693284D01*
X112916449Y-119551449D01*
X113030000Y-119413087D01*
X113143551Y-119551449D01*
X113316377Y-119693284D01*
X113513553Y-119798676D01*
X113727501Y-119863577D01*
X113894248Y-119880000D01*
X114705752Y-119880000D01*
X114872499Y-119863577D01*
X115086447Y-119798676D01*
X115283623Y-119693284D01*
X115456449Y-119551449D01*
X115598284Y-119378623D01*
X115703676Y-119181447D01*
X115768577Y-118967499D01*
X115790491Y-118745000D01*
X115768577Y-118522501D01*
X115703676Y-118308553D01*
X115598284Y-118111377D01*
X115456449Y-117938551D01*
X115333928Y-117838000D01*
X122036072Y-117838000D01*
X121913551Y-117938551D01*
X121771716Y-118111377D01*
X121666324Y-118308553D01*
X121601423Y-118522501D01*
X121579509Y-118745000D01*
X121601423Y-118967499D01*
X121666324Y-119181447D01*
X121771716Y-119378623D01*
X121913551Y-119551449D01*
X122086377Y-119693284D01*
X122283553Y-119798676D01*
X122497501Y-119863577D01*
X122664248Y-119880000D01*
X123475752Y-119880000D01*
X123642499Y-119863577D01*
X123856447Y-119798676D01*
X124053623Y-119693284D01*
X124226449Y-119551449D01*
X124262980Y-119506936D01*
X124352659Y-119498103D01*
X124394286Y-119494003D01*
X124403990Y-119491059D01*
X124453551Y-119551449D01*
X124626377Y-119693284D01*
X124823553Y-119798676D01*
X125037501Y-119863577D01*
X125204248Y-119880000D01*
X126015752Y-119880000D01*
X126182499Y-119863577D01*
X126396447Y-119798676D01*
X126593623Y-119693284D01*
X126629412Y-119663913D01*
X127051201Y-120085702D01*
X127074999Y-120114701D01*
X127103997Y-120138499D01*
X127190723Y-120209674D01*
X127322753Y-120280246D01*
X127466014Y-120323703D01*
X127577667Y-120334700D01*
X127577677Y-120334700D01*
X127615000Y-120338376D01*
X127652322Y-120334700D01*
X160519778Y-120334700D01*
X160557100Y-120338376D01*
X160594422Y-120334700D01*
X160594433Y-120334700D01*
X160706086Y-120323703D01*
X160849347Y-120280246D01*
X160981376Y-120209674D01*
X161097101Y-120114701D01*
X161120903Y-120085698D01*
X161451685Y-119754917D01*
X161533553Y-119798676D01*
X161747501Y-119863577D01*
X161914248Y-119880000D01*
X162725752Y-119880000D01*
X162892499Y-119863577D01*
X163106447Y-119798676D01*
X163303623Y-119693284D01*
X163476449Y-119551449D01*
X163618284Y-119378623D01*
X163723676Y-119181447D01*
X163788577Y-118967499D01*
X163810491Y-118745000D01*
X183689509Y-118745000D01*
X183711423Y-118967499D01*
X183776324Y-119181447D01*
X183881716Y-119378623D01*
X184023551Y-119551449D01*
X184196377Y-119693284D01*
X184393553Y-119798676D01*
X184607501Y-119863577D01*
X184774248Y-119880000D01*
X185585752Y-119880000D01*
X185752499Y-119863577D01*
X185966447Y-119798676D01*
X186163623Y-119693284D01*
X186336449Y-119551449D01*
X186450000Y-119413087D01*
X186563551Y-119551449D01*
X186736377Y-119693284D01*
X186933553Y-119798676D01*
X187147501Y-119863577D01*
X187314248Y-119880000D01*
X188125752Y-119880000D01*
X188292499Y-119863577D01*
X188506447Y-119798676D01*
X188703623Y-119693284D01*
X188876449Y-119551449D01*
X189018284Y-119378623D01*
X189123676Y-119181447D01*
X189188577Y-118967499D01*
X189210491Y-118745000D01*
X189188577Y-118522501D01*
X189123676Y-118308553D01*
X189018284Y-118111377D01*
X188876449Y-117938551D01*
X188703623Y-117796716D01*
X188506447Y-117691324D01*
X188292499Y-117626423D01*
X188125752Y-117610000D01*
X187314248Y-117610000D01*
X187147501Y-117626423D01*
X186933553Y-117691324D01*
X186736377Y-117796716D01*
X186563551Y-117938551D01*
X186450000Y-118076913D01*
X186336449Y-117938551D01*
X186163623Y-117796716D01*
X185966447Y-117691324D01*
X185752499Y-117626423D01*
X185585752Y-117610000D01*
X184774248Y-117610000D01*
X184607501Y-117626423D01*
X184393553Y-117691324D01*
X184196377Y-117796716D01*
X184023551Y-117938551D01*
X183881716Y-118111377D01*
X183776324Y-118308553D01*
X183711423Y-118522501D01*
X183689509Y-118745000D01*
X163810491Y-118745000D01*
X163788577Y-118522501D01*
X163723676Y-118308553D01*
X163618284Y-118111377D01*
X163476449Y-117938551D01*
X163303623Y-117796716D01*
X163106447Y-117691324D01*
X162892499Y-117626423D01*
X162725752Y-117610000D01*
X161914248Y-117610000D01*
X161747501Y-117626423D01*
X161533553Y-117691324D01*
X161336377Y-117796716D01*
X161163551Y-117938551D01*
X161127020Y-117983064D01*
X161107367Y-117985000D01*
X160995714Y-117995997D01*
X160986010Y-117998941D01*
X160936449Y-117938551D01*
X160763623Y-117796716D01*
X160727452Y-117777382D01*
X160849547Y-117740346D01*
X160981576Y-117669774D01*
X161097301Y-117574801D01*
X161121103Y-117545798D01*
X161451880Y-117215021D01*
X161533553Y-117258676D01*
X161747501Y-117323577D01*
X161914248Y-117340000D01*
X162725752Y-117340000D01*
X162892499Y-117323577D01*
X163106447Y-117258676D01*
X163303623Y-117153284D01*
X163476449Y-117011449D01*
X163618284Y-116838623D01*
X163723676Y-116641447D01*
X163788577Y-116427499D01*
X163810491Y-116205000D01*
X163788577Y-115982501D01*
X163723676Y-115768553D01*
X163618284Y-115571377D01*
X163594996Y-115543000D01*
X163857395Y-115543000D01*
X163893500Y-115546556D01*
X163929605Y-115543000D01*
X164037585Y-115532365D01*
X164176133Y-115490337D01*
X164303820Y-115422087D01*
X164415738Y-115330238D01*
X164438758Y-115302188D01*
X165774072Y-113966874D01*
X183735881Y-113966874D01*
X183815724Y-114189976D01*
X183937631Y-114377764D01*
X184093831Y-114538161D01*
X184278322Y-114665003D01*
X184484013Y-114753415D01*
X184703000Y-114800000D01*
X185053000Y-114800000D01*
X185053000Y-113792000D01*
X183862046Y-113792000D01*
X183735881Y-113966874D01*
X165774072Y-113966874D01*
X166190957Y-113549990D01*
X185327000Y-113549990D01*
X185327000Y-113792000D01*
X185307000Y-113792000D01*
X185307000Y-114800000D01*
X185657000Y-114800000D01*
X185851514Y-114758621D01*
X185857772Y-114766247D01*
X185885818Y-114789264D01*
X186398746Y-115302193D01*
X186421762Y-115330238D01*
X186533680Y-115422087D01*
X186541017Y-115426009D01*
X186450000Y-115536913D01*
X186336449Y-115398551D01*
X186163623Y-115256716D01*
X185966447Y-115151324D01*
X185752499Y-115086423D01*
X185585752Y-115070000D01*
X184774248Y-115070000D01*
X184607501Y-115086423D01*
X184393553Y-115151324D01*
X184196377Y-115256716D01*
X184023551Y-115398551D01*
X183881716Y-115571377D01*
X183776324Y-115768553D01*
X183711423Y-115982501D01*
X183689509Y-116205000D01*
X183711423Y-116427499D01*
X183776324Y-116641447D01*
X183881716Y-116838623D01*
X184023551Y-117011449D01*
X184196377Y-117153284D01*
X184393553Y-117258676D01*
X184607501Y-117323577D01*
X184774248Y-117340000D01*
X185585752Y-117340000D01*
X185752499Y-117323577D01*
X185966447Y-117258676D01*
X186163623Y-117153284D01*
X186336449Y-117011449D01*
X186450000Y-116873087D01*
X186563551Y-117011449D01*
X186736377Y-117153284D01*
X186933553Y-117258676D01*
X187147501Y-117323577D01*
X187314248Y-117340000D01*
X188125752Y-117340000D01*
X188292499Y-117323577D01*
X188506447Y-117258676D01*
X188703623Y-117153284D01*
X188876449Y-117011449D01*
X189018284Y-116838623D01*
X189123676Y-116641447D01*
X189141091Y-116584037D01*
X193510746Y-120953693D01*
X193533762Y-120981738D01*
X193645680Y-121073587D01*
X193773367Y-121141837D01*
X193911915Y-121183865D01*
X194056000Y-121198056D01*
X194092105Y-121194500D01*
X199709395Y-121194500D01*
X199745500Y-121198056D01*
X199781605Y-121194500D01*
X199889585Y-121183865D01*
X200028133Y-121141837D01*
X200155820Y-121073587D01*
X200267738Y-120981738D01*
X200290759Y-120953687D01*
X200519187Y-120725259D01*
X200547238Y-120702238D01*
X200639087Y-120590320D01*
X200658349Y-120554283D01*
X200749901Y-120526511D01*
X200964449Y-120411833D01*
X201152502Y-120257502D01*
X201306833Y-120069449D01*
X201421511Y-119854901D01*
X201492130Y-119622102D01*
X201515975Y-119380000D01*
X201492130Y-119137898D01*
X201421511Y-118905099D01*
X201372802Y-118813971D01*
X201484800Y-118754107D01*
X201596718Y-118662258D01*
X201619739Y-118634207D01*
X201789187Y-118464759D01*
X201817238Y-118441738D01*
X201909087Y-118329820D01*
X201977337Y-118202133D01*
X202019365Y-118063585D01*
X202030000Y-117955605D01*
X202030000Y-117955596D01*
X202033555Y-117919501D01*
X202030000Y-117883406D01*
X202030000Y-116241105D01*
X202033556Y-116205000D01*
X202019365Y-116060915D01*
X201977337Y-115922366D01*
X201909087Y-115794680D01*
X201840253Y-115710806D01*
X201840250Y-115710803D01*
X201817237Y-115682762D01*
X201789197Y-115659750D01*
X201222119Y-115092673D01*
X201306833Y-114989449D01*
X201421511Y-114774901D01*
X201492130Y-114542102D01*
X201515975Y-114300000D01*
X201492130Y-114057898D01*
X201421511Y-113825099D01*
X201306833Y-113610551D01*
X201152502Y-113422498D01*
X201146706Y-113417741D01*
X201719207Y-112845240D01*
X201747247Y-112822228D01*
X201770260Y-112794187D01*
X201770263Y-112794184D01*
X201839096Y-112710311D01*
X201839097Y-112710310D01*
X201907347Y-112582623D01*
X201949375Y-112444075D01*
X201960010Y-112336095D01*
X201960010Y-112336086D01*
X201963565Y-112299991D01*
X201960010Y-112263896D01*
X201960010Y-86073309D01*
X201963566Y-86037204D01*
X201949375Y-85893119D01*
X201907347Y-85754570D01*
X201839097Y-85626884D01*
X201770263Y-85543010D01*
X201747248Y-85514966D01*
X201719203Y-85491950D01*
X201027413Y-84800160D01*
X201152502Y-84697502D01*
X201306833Y-84509449D01*
X201421511Y-84294901D01*
X201492130Y-84062102D01*
X201515975Y-83820000D01*
X201492130Y-83577898D01*
X201421511Y-83345099D01*
X201306833Y-83130551D01*
X201152502Y-82942498D01*
X200964449Y-82788167D01*
X200749901Y-82673489D01*
X200517102Y-82602870D01*
X200335665Y-82585000D01*
X199714335Y-82585000D01*
X199532898Y-82602870D01*
X199300099Y-82673489D01*
X199085551Y-82788167D01*
X198897498Y-82942498D01*
X198755000Y-83116132D01*
X198612502Y-82942498D01*
X198424449Y-82788167D01*
X198209901Y-82673489D01*
X197977102Y-82602870D01*
X197795665Y-82585000D01*
X197174335Y-82585000D01*
X196992898Y-82602870D01*
X196760099Y-82673489D01*
X196545551Y-82788167D01*
X196357498Y-82942498D01*
X196203167Y-83130551D01*
X196088489Y-83345099D01*
X196017870Y-83577898D01*
X196004553Y-83713106D01*
X193571447Y-81280000D01*
X195994025Y-81280000D01*
X196017870Y-81522102D01*
X196088489Y-81754901D01*
X196203167Y-81969449D01*
X196357498Y-82157502D01*
X196545551Y-82311833D01*
X196760099Y-82426511D01*
X196992898Y-82497130D01*
X197174335Y-82515000D01*
X197795665Y-82515000D01*
X197977102Y-82497130D01*
X198209901Y-82426511D01*
X198424449Y-82311833D01*
X198612502Y-82157502D01*
X198755000Y-81983868D01*
X198897498Y-82157502D01*
X199085551Y-82311833D01*
X199300099Y-82426511D01*
X199532898Y-82497130D01*
X199714335Y-82515000D01*
X200335665Y-82515000D01*
X200517102Y-82497130D01*
X200749901Y-82426511D01*
X200964449Y-82311833D01*
X201152502Y-82157502D01*
X201306833Y-81969449D01*
X201421511Y-81754901D01*
X201492130Y-81522102D01*
X201515975Y-81280000D01*
X201492130Y-81037898D01*
X201421511Y-80805099D01*
X201306833Y-80590551D01*
X201152502Y-80402498D01*
X200964449Y-80248167D01*
X200749901Y-80133489D01*
X200517102Y-80062870D01*
X200335665Y-80045000D01*
X199714335Y-80045000D01*
X199532898Y-80062870D01*
X199300099Y-80133489D01*
X199085551Y-80248167D01*
X198897498Y-80402498D01*
X198755000Y-80576132D01*
X198612502Y-80402498D01*
X198424449Y-80248167D01*
X198209901Y-80133489D01*
X197977102Y-80062870D01*
X197795665Y-80045000D01*
X197174335Y-80045000D01*
X196992898Y-80062870D01*
X196760099Y-80133489D01*
X196545551Y-80248167D01*
X196357498Y-80402498D01*
X196203167Y-80590551D01*
X196088489Y-80805099D01*
X196017870Y-81037898D01*
X195994025Y-81280000D01*
X193571447Y-81280000D01*
X192696259Y-80404813D01*
X192673238Y-80376762D01*
X192561320Y-80284913D01*
X192433633Y-80216663D01*
X192295085Y-80174635D01*
X192258197Y-80171002D01*
X192135502Y-80021498D01*
X191986238Y-79899000D01*
X192135502Y-79776502D01*
X192289833Y-79588449D01*
X192404511Y-79373901D01*
X192475130Y-79141102D01*
X192498975Y-78899000D01*
X192475130Y-78656898D01*
X192404511Y-78424099D01*
X192289833Y-78209551D01*
X192135502Y-78021498D01*
X191986238Y-77899000D01*
X192135502Y-77776502D01*
X192289833Y-77588449D01*
X192404511Y-77373901D01*
X192475130Y-77141102D01*
X192498975Y-76899000D01*
X192475130Y-76656898D01*
X192404511Y-76424099D01*
X192289833Y-76209551D01*
X192135502Y-76021498D01*
X191986238Y-75899000D01*
X192135502Y-75776502D01*
X192289833Y-75588449D01*
X192404511Y-75373901D01*
X192475130Y-75141102D01*
X192498975Y-74899000D01*
X192475130Y-74656898D01*
X192404511Y-74424099D01*
X192289833Y-74209551D01*
X192135502Y-74021498D01*
X191947449Y-73867167D01*
X191732901Y-73752489D01*
X191500102Y-73681870D01*
X191318665Y-73664000D01*
X190697335Y-73664000D01*
X190515898Y-73681870D01*
X190283099Y-73752489D01*
X190068551Y-73867167D01*
X189880498Y-74021498D01*
X189726167Y-74209551D01*
X189611489Y-74424099D01*
X189540870Y-74656898D01*
X189517025Y-74899000D01*
X189540870Y-75141102D01*
X189611489Y-75373901D01*
X189726167Y-75588449D01*
X189880498Y-75776502D01*
X190029762Y-75899000D01*
X189880498Y-76021498D01*
X189726167Y-76209551D01*
X189611489Y-76424099D01*
X189540870Y-76656898D01*
X189517025Y-76899000D01*
X189524954Y-76979507D01*
X184568259Y-72022813D01*
X184545238Y-71994762D01*
X184433320Y-71902913D01*
X184305633Y-71834663D01*
X184167085Y-71792635D01*
X184059105Y-71782000D01*
X184038798Y-71780000D01*
X202843563Y-71780000D01*
X202708630Y-71914933D01*
X202496254Y-72232776D01*
X202349966Y-72585945D01*
X202275390Y-72960867D01*
X202275390Y-73343133D01*
X202349966Y-73718055D01*
X202496254Y-74071224D01*
X202708630Y-74389067D01*
X202978933Y-74659370D01*
X203296776Y-74871746D01*
X203649945Y-75018034D01*
X204024867Y-75092610D01*
X204407133Y-75092610D01*
X204782055Y-75018034D01*
X205135224Y-74871746D01*
X205453067Y-74659370D01*
X205588000Y-74524437D01*
X205588001Y-122706564D01*
X205453067Y-122571630D01*
X205135224Y-122359254D01*
X204782055Y-122212966D01*
X204407133Y-122138390D01*
X204024867Y-122138390D01*
X203649945Y-122212966D01*
X203296776Y-122359254D01*
X202978933Y-122571630D01*
X202708630Y-122841933D01*
X202496254Y-123159776D01*
X202349966Y-123512945D01*
X202275390Y-123887867D01*
X202275390Y-124270133D01*
X202349966Y-124645055D01*
X202496254Y-124998224D01*
X202708630Y-125316067D01*
X202843563Y-125451000D01*
X71603437Y-125451000D01*
X71738370Y-125316067D01*
X71950746Y-124998224D01*
X72097034Y-124645055D01*
X72171610Y-124270133D01*
X72171610Y-123887867D01*
X72097034Y-123512945D01*
X71950746Y-123159776D01*
X71738370Y-122841933D01*
X71468067Y-122571630D01*
X71165325Y-122369344D01*
X98445000Y-122369344D01*
X98445000Y-122740656D01*
X98517439Y-123104834D01*
X98659534Y-123447882D01*
X98865825Y-123756618D01*
X99128382Y-124019175D01*
X99437118Y-124225466D01*
X99780166Y-124367561D01*
X100144344Y-124440000D01*
X100515656Y-124440000D01*
X100879834Y-124367561D01*
X101222882Y-124225466D01*
X101531618Y-124019175D01*
X101794175Y-123756618D01*
X102000466Y-123447882D01*
X102142561Y-123104834D01*
X102215000Y-122740656D01*
X102215000Y-122369344D01*
X135155000Y-122369344D01*
X135155000Y-122740656D01*
X135227439Y-123104834D01*
X135369534Y-123447882D01*
X135575825Y-123756618D01*
X135838382Y-124019175D01*
X136147118Y-124225466D01*
X136490166Y-124367561D01*
X136854344Y-124440000D01*
X137225656Y-124440000D01*
X137589834Y-124367561D01*
X137932882Y-124225466D01*
X138241618Y-124019175D01*
X138504175Y-123756618D01*
X138710466Y-123447882D01*
X138852561Y-123104834D01*
X138925000Y-122740656D01*
X138925000Y-122369344D01*
X171865000Y-122369344D01*
X171865000Y-122740656D01*
X171937439Y-123104834D01*
X172079534Y-123447882D01*
X172285825Y-123756618D01*
X172548382Y-124019175D01*
X172857118Y-124225466D01*
X173200166Y-124367561D01*
X173564344Y-124440000D01*
X173935656Y-124440000D01*
X174299834Y-124367561D01*
X174642882Y-124225466D01*
X174951618Y-124019175D01*
X175214175Y-123756618D01*
X175420466Y-123447882D01*
X175562561Y-123104834D01*
X175635000Y-122740656D01*
X175635000Y-122369344D01*
X175562561Y-122005166D01*
X175420466Y-121662118D01*
X175214175Y-121353382D01*
X174951618Y-121090825D01*
X174642882Y-120884534D01*
X174299834Y-120742439D01*
X173935656Y-120670000D01*
X173564344Y-120670000D01*
X173200166Y-120742439D01*
X172857118Y-120884534D01*
X172548382Y-121090825D01*
X172285825Y-121353382D01*
X172079534Y-121662118D01*
X171937439Y-122005166D01*
X171865000Y-122369344D01*
X138925000Y-122369344D01*
X138852561Y-122005166D01*
X138710466Y-121662118D01*
X138504175Y-121353382D01*
X138241618Y-121090825D01*
X137932882Y-120884534D01*
X137589834Y-120742439D01*
X137225656Y-120670000D01*
X136854344Y-120670000D01*
X136490166Y-120742439D01*
X136147118Y-120884534D01*
X135838382Y-121090825D01*
X135575825Y-121353382D01*
X135369534Y-121662118D01*
X135227439Y-122005166D01*
X135155000Y-122369344D01*
X102215000Y-122369344D01*
X102142561Y-122005166D01*
X102000466Y-121662118D01*
X101794175Y-121353382D01*
X101531618Y-121090825D01*
X101222882Y-120884534D01*
X100879834Y-120742439D01*
X100515656Y-120670000D01*
X100144344Y-120670000D01*
X99780166Y-120742439D01*
X99437118Y-120884534D01*
X99128382Y-121090825D01*
X98865825Y-121353382D01*
X98659534Y-121662118D01*
X98517439Y-122005166D01*
X98445000Y-122369344D01*
X71165325Y-122369344D01*
X71150224Y-122359254D01*
X70797055Y-122212966D01*
X70422133Y-122138390D01*
X70039867Y-122138390D01*
X69664945Y-122212966D01*
X69311776Y-122359254D01*
X68993933Y-122571630D01*
X68859000Y-122706563D01*
X68859000Y-99060000D01*
X72169025Y-99060000D01*
X72192870Y-99302102D01*
X72263489Y-99534901D01*
X72378167Y-99749449D01*
X72532498Y-99937502D01*
X72720551Y-100091833D01*
X72935099Y-100206511D01*
X73167898Y-100277130D01*
X73349335Y-100295000D01*
X73970665Y-100295000D01*
X74152102Y-100277130D01*
X74384901Y-100206511D01*
X74599449Y-100091833D01*
X74787502Y-99937502D01*
X74928379Y-99765843D01*
X75018062Y-99889128D01*
X75197724Y-100055009D01*
X75406295Y-100182652D01*
X75635761Y-100267152D01*
X75877303Y-100305262D01*
X76073000Y-100142553D01*
X76073000Y-99187000D01*
X76327000Y-99187000D01*
X76327000Y-100142553D01*
X76522697Y-100305262D01*
X76764239Y-100267152D01*
X76993705Y-100182652D01*
X77202276Y-100055009D01*
X77381938Y-99889128D01*
X77525786Y-99691384D01*
X77628292Y-99469377D01*
X77643462Y-99377609D01*
X77518731Y-99187000D01*
X76327000Y-99187000D01*
X76073000Y-99187000D01*
X76053000Y-99187000D01*
X76053000Y-98933000D01*
X76073000Y-98933000D01*
X76073000Y-97977447D01*
X76327000Y-97977447D01*
X76327000Y-98933000D01*
X77518731Y-98933000D01*
X77643462Y-98742391D01*
X77628292Y-98650623D01*
X77525786Y-98428616D01*
X77381938Y-98230872D01*
X77202276Y-98064991D01*
X76993705Y-97937348D01*
X76764239Y-97852848D01*
X76522697Y-97814738D01*
X76327000Y-97977447D01*
X76073000Y-97977447D01*
X75877303Y-97814738D01*
X75635761Y-97852848D01*
X75406295Y-97937348D01*
X75197724Y-98064991D01*
X75018062Y-98230872D01*
X74928379Y-98354157D01*
X74787502Y-98182498D01*
X74599449Y-98028167D01*
X74384901Y-97913489D01*
X74152102Y-97842870D01*
X73970665Y-97825000D01*
X73349335Y-97825000D01*
X73167898Y-97842870D01*
X72935099Y-97913489D01*
X72720551Y-98028167D01*
X72532498Y-98182498D01*
X72378167Y-98370551D01*
X72263489Y-98585099D01*
X72192870Y-98817898D01*
X72169025Y-99060000D01*
X68859000Y-99060000D01*
X68859000Y-96520000D01*
X72169025Y-96520000D01*
X72192870Y-96762102D01*
X72263489Y-96994901D01*
X72378167Y-97209449D01*
X72532498Y-97397502D01*
X72720551Y-97551833D01*
X72935099Y-97666511D01*
X73167898Y-97737130D01*
X73349335Y-97755000D01*
X73970665Y-97755000D01*
X74152102Y-97737130D01*
X74384901Y-97666511D01*
X74599449Y-97551833D01*
X74787502Y-97397502D01*
X74930000Y-97223868D01*
X75072498Y-97397502D01*
X75260551Y-97551833D01*
X75475099Y-97666511D01*
X75707898Y-97737130D01*
X75889335Y-97755000D01*
X76510665Y-97755000D01*
X76692102Y-97737130D01*
X76924901Y-97666511D01*
X77139449Y-97551833D01*
X77327502Y-97397502D01*
X77481833Y-97209449D01*
X77596511Y-96994901D01*
X77667130Y-96762102D01*
X77690975Y-96520000D01*
X77667130Y-96277898D01*
X77596511Y-96045099D01*
X77481833Y-95830551D01*
X77327502Y-95642498D01*
X77139449Y-95488167D01*
X76924901Y-95373489D01*
X76692102Y-95302870D01*
X76510665Y-95285000D01*
X75889335Y-95285000D01*
X75707898Y-95302870D01*
X75475099Y-95373489D01*
X75260551Y-95488167D01*
X75072498Y-95642498D01*
X74930000Y-95816132D01*
X74787502Y-95642498D01*
X74599449Y-95488167D01*
X74384901Y-95373489D01*
X74152102Y-95302870D01*
X73970665Y-95285000D01*
X73349335Y-95285000D01*
X73167898Y-95302870D01*
X72935099Y-95373489D01*
X72720551Y-95488167D01*
X72532498Y-95642498D01*
X72378167Y-95830551D01*
X72263489Y-96045099D01*
X72192870Y-96277898D01*
X72169025Y-96520000D01*
X68859000Y-96520000D01*
X68859000Y-88900000D01*
X72169025Y-88900000D01*
X72192870Y-89142102D01*
X72263489Y-89374901D01*
X72378167Y-89589449D01*
X72532498Y-89777502D01*
X72720551Y-89931833D01*
X72935099Y-90046511D01*
X73167898Y-90117130D01*
X73349335Y-90135000D01*
X73970665Y-90135000D01*
X74152102Y-90117130D01*
X74384901Y-90046511D01*
X74599449Y-89931833D01*
X74787502Y-89777502D01*
X74930000Y-89603868D01*
X75072498Y-89777502D01*
X75260551Y-89931833D01*
X75475099Y-90046511D01*
X75707898Y-90117130D01*
X75889335Y-90135000D01*
X76510665Y-90135000D01*
X76692102Y-90117130D01*
X76924901Y-90046511D01*
X77139449Y-89931833D01*
X77327502Y-89777502D01*
X77481833Y-89589449D01*
X77596511Y-89374901D01*
X77667130Y-89142102D01*
X77690975Y-88900000D01*
X77667130Y-88657898D01*
X77596511Y-88425099D01*
X77481833Y-88210551D01*
X77327502Y-88022498D01*
X77139449Y-87868167D01*
X76924901Y-87753489D01*
X76692102Y-87682870D01*
X76510665Y-87665000D01*
X75889335Y-87665000D01*
X75707898Y-87682870D01*
X75475099Y-87753489D01*
X75260551Y-87868167D01*
X75072498Y-88022498D01*
X74930000Y-88196132D01*
X74787502Y-88022498D01*
X74599449Y-87868167D01*
X74384901Y-87753489D01*
X74152102Y-87682870D01*
X73970665Y-87665000D01*
X73349335Y-87665000D01*
X73167898Y-87682870D01*
X72935099Y-87753489D01*
X72720551Y-87868167D01*
X72532498Y-88022498D01*
X72378167Y-88210551D01*
X72263489Y-88425099D01*
X72192870Y-88657898D01*
X72169025Y-88900000D01*
X68859000Y-88900000D01*
X68859000Y-74524437D01*
X68993933Y-74659370D01*
X69311776Y-74871746D01*
X69664945Y-75018034D01*
X70039867Y-75092610D01*
X70422133Y-75092610D01*
X70797055Y-75018034D01*
X71150224Y-74871746D01*
X71468067Y-74659370D01*
X71738370Y-74389067D01*
X71950746Y-74071224D01*
X72097034Y-73718055D01*
X72171610Y-73343133D01*
X72171610Y-72960867D01*
X72097034Y-72585945D01*
X71950746Y-72232776D01*
X71738370Y-71914933D01*
X71603437Y-71780000D01*
X163975201Y-71780000D01*
X163846914Y-71792635D01*
G37*
X163846914Y-71792635D02*
X163804886Y-71805384D01*
X163708367Y-71834663D01*
X163580680Y-71902913D01*
X163468762Y-71994762D01*
X163445746Y-72022807D01*
X162701307Y-72767247D01*
X162701306Y-72767247D01*
X158880140Y-76588414D01*
X155554987Y-79913567D01*
X155537238Y-79899000D01*
X155686502Y-79776502D01*
X155840833Y-79588449D01*
X155955511Y-79373901D01*
X156026130Y-79141102D01*
X156049975Y-78899000D01*
X156026130Y-78656898D01*
X155955511Y-78424099D01*
X155840833Y-78209551D01*
X155686502Y-78021498D01*
X155537238Y-77899000D01*
X155686502Y-77776502D01*
X155840833Y-77588449D01*
X155955511Y-77373901D01*
X156026130Y-77141102D01*
X156049975Y-76899000D01*
X156026130Y-76656898D01*
X155955511Y-76424099D01*
X155840833Y-76209551D01*
X155686502Y-76021498D01*
X155537238Y-75899000D01*
X155686502Y-75776502D01*
X155840833Y-75588449D01*
X155955511Y-75373901D01*
X156026130Y-75141102D01*
X156049975Y-74899000D01*
X156026130Y-74656898D01*
X155955511Y-74424099D01*
X155840833Y-74209551D01*
X155686502Y-74021498D01*
X155498449Y-73867167D01*
X155283901Y-73752489D01*
X155051102Y-73681870D01*
X154869665Y-73664000D01*
X154248335Y-73664000D01*
X154066898Y-73681870D01*
X153834099Y-73752489D01*
X153619551Y-73867167D01*
X153431498Y-74021498D01*
X153277167Y-74209551D01*
X153162489Y-74424099D01*
X153091870Y-74656898D01*
X153068025Y-74899000D01*
X153091870Y-75141102D01*
X153162489Y-75373901D01*
X153277167Y-75588449D01*
X153431498Y-75776502D01*
X153580762Y-75899000D01*
X153431498Y-76021498D01*
X153277167Y-76209551D01*
X153162489Y-76424099D01*
X153091870Y-76656898D01*
X153068025Y-76899000D01*
X153091870Y-77141102D01*
X153162489Y-77373901D01*
X153277167Y-77588449D01*
X153431498Y-77776502D01*
X153580762Y-77899000D01*
X153431498Y-78021498D01*
X153277167Y-78209551D01*
X153162489Y-78424099D01*
X153091870Y-78656898D01*
X153068025Y-78899000D01*
X153091870Y-79141102D01*
X153162489Y-79373901D01*
X153277167Y-79588449D01*
X153431498Y-79776502D01*
X153580762Y-79899000D01*
X153431498Y-80021498D01*
X153277167Y-80209551D01*
X153162489Y-80424099D01*
X153091870Y-80656898D01*
X153068025Y-80899000D01*
X153091870Y-81141102D01*
X153162489Y-81373901D01*
X153277167Y-81588449D01*
X153431498Y-81776502D01*
X153619551Y-81930833D01*
X153834099Y-82045511D01*
X154066898Y-82116130D01*
X154248335Y-82134000D01*
X154869665Y-82134000D01*
X155051102Y-82116130D01*
X155283901Y-82045511D01*
X155498449Y-81930833D01*
X155686502Y-81776502D01*
X155831766Y-81599498D01*
X155891633Y-81581337D01*
X156019320Y-81513087D01*
X156131238Y-81421238D01*
X156154259Y-81393187D01*
X162250995Y-75296452D01*
X162274489Y-75373901D01*
X162389167Y-75588449D01*
X162543498Y-75776502D01*
X162692762Y-75899000D01*
X162543498Y-76021498D01*
X162389167Y-76209551D01*
X162274489Y-76424099D01*
X162203870Y-76656898D01*
X162180025Y-76899000D01*
X162203870Y-77141102D01*
X162274489Y-77373901D01*
X162389167Y-77588449D01*
X162543498Y-77776502D01*
X162692762Y-77899000D01*
X162543498Y-78021498D01*
X162389167Y-78209551D01*
X162274489Y-78424099D01*
X162203870Y-78656898D01*
X162180025Y-78899000D01*
X162203870Y-79141102D01*
X162238834Y-79256364D01*
X154920203Y-86574996D01*
X154891199Y-86598799D01*
X154836071Y-86665974D01*
X154796226Y-86714524D01*
X154731883Y-86834901D01*
X154725654Y-86846554D01*
X154682197Y-86989815D01*
X154671200Y-87101468D01*
X154671200Y-87101478D01*
X154667524Y-87138800D01*
X154671200Y-87176122D01*
X154671201Y-105024297D01*
X152029412Y-107666087D01*
X152003599Y-107644903D01*
X152697704Y-106950798D01*
X152726701Y-106927001D01*
X152821674Y-106811276D01*
X152892246Y-106679247D01*
X152935703Y-106535986D01*
X152946700Y-106424333D01*
X152946700Y-106424324D01*
X152950376Y-106387001D01*
X152946700Y-106349678D01*
X152946700Y-100661733D01*
X152950377Y-100624400D01*
X152943178Y-100551303D01*
X152935703Y-100475414D01*
X152892246Y-100332153D01*
X152821674Y-100200124D01*
X152726701Y-100084399D01*
X152697703Y-100060601D01*
X152002830Y-99365728D01*
X152166449Y-99231449D01*
X152308284Y-99058623D01*
X152413676Y-98861447D01*
X152478577Y-98647499D01*
X152500491Y-98425000D01*
X152478577Y-98202501D01*
X152413676Y-97988553D01*
X152308284Y-97791377D01*
X152166449Y-97618551D01*
X151993623Y-97476716D01*
X151796447Y-97371324D01*
X151582499Y-97306423D01*
X151415752Y-97290000D01*
X150604248Y-97290000D01*
X150500000Y-97300267D01*
X150500000Y-97009733D01*
X150604248Y-97020000D01*
X151415752Y-97020000D01*
X151582499Y-97003577D01*
X151796447Y-96938676D01*
X151993623Y-96833284D01*
X152166449Y-96691449D01*
X152308284Y-96518623D01*
X152413676Y-96321447D01*
X152478577Y-96107499D01*
X152500491Y-95885000D01*
X152478577Y-95662501D01*
X152413676Y-95448553D01*
X152308284Y-95251377D01*
X152166449Y-95078551D01*
X151993623Y-94936716D01*
X151796447Y-94831324D01*
X151582499Y-94766423D01*
X151415752Y-94750000D01*
X150604248Y-94750000D01*
X150500000Y-94760267D01*
X150500000Y-85229323D01*
X150503676Y-85192000D01*
X150500000Y-85154677D01*
X150500000Y-85154667D01*
X150489003Y-85043014D01*
X150445546Y-84899753D01*
X150374974Y-84767724D01*
X150280001Y-84651999D01*
X150251003Y-84628201D01*
X146879165Y-81256364D01*
X146914130Y-81141102D01*
X146937975Y-80899000D01*
X146914130Y-80656898D01*
X146843511Y-80424099D01*
X146728833Y-80209551D01*
X146574502Y-80021498D01*
X146425238Y-79899000D01*
X146574502Y-79776502D01*
X146728833Y-79588449D01*
X146843511Y-79373901D01*
X146914130Y-79141102D01*
X146937975Y-78899000D01*
X146914130Y-78656898D01*
X146843511Y-78424099D01*
X146728833Y-78209551D01*
X146574502Y-78021498D01*
X146425238Y-77899000D01*
X146574502Y-77776502D01*
X146728833Y-77588449D01*
X146843511Y-77373901D01*
X146914130Y-77141102D01*
X146937975Y-76899000D01*
X146914130Y-76656898D01*
X146843511Y-76424099D01*
X146728833Y-76209551D01*
X146574502Y-76021498D01*
X146425238Y-75899000D01*
X146574502Y-75776502D01*
X146728833Y-75588449D01*
X146843511Y-75373901D01*
X146914130Y-75141102D01*
X146937975Y-74899000D01*
X146914130Y-74656898D01*
X146843511Y-74424099D01*
X146728833Y-74209551D01*
X146574502Y-74021498D01*
X146386449Y-73867167D01*
X146171901Y-73752489D01*
X145939102Y-73681870D01*
X145757665Y-73664000D01*
X145136335Y-73664000D01*
X144954898Y-73681870D01*
X144722099Y-73752489D01*
X144507551Y-73867167D01*
X144319498Y-74021498D01*
X144165167Y-74209551D01*
X144050489Y-74424099D01*
X143979870Y-74656898D01*
X143956025Y-74899000D01*
X143979870Y-75141102D01*
X144050489Y-75373901D01*
X144165167Y-75588449D01*
X144319498Y-75776502D01*
X144468762Y-75899000D01*
X144319498Y-76021498D01*
X144165167Y-76209551D01*
X144050489Y-76424099D01*
X143979870Y-76656898D01*
X143956025Y-76899000D01*
X143979870Y-77141102D01*
X144050489Y-77373901D01*
X144165167Y-77588449D01*
X144319498Y-77776502D01*
X144468762Y-77899000D01*
X144319498Y-78021498D01*
X144165167Y-78209551D01*
X144050489Y-78424099D01*
X143979870Y-78656898D01*
X143956025Y-78899000D01*
X143979870Y-79141102D01*
X144050489Y-79373901D01*
X144165167Y-79588449D01*
X144319498Y-79776502D01*
X144468762Y-79899000D01*
X144319498Y-80021498D01*
X144165167Y-80209551D01*
X144050489Y-80424099D01*
X143979870Y-80656898D01*
X143956025Y-80899000D01*
X143979870Y-81141102D01*
X144050489Y-81373901D01*
X144165167Y-81588449D01*
X144319498Y-81776502D01*
X144507551Y-81930833D01*
X144722099Y-82045511D01*
X144954898Y-82116130D01*
X145136335Y-82134000D01*
X145607199Y-82134000D01*
X148980001Y-85506803D01*
X148980000Y-94760267D01*
X148875752Y-94750000D01*
X148064248Y-94750000D01*
X147897501Y-94766423D01*
X147683553Y-94831324D01*
X147486377Y-94936716D01*
X147313551Y-95078551D01*
X147171716Y-95251377D01*
X147066324Y-95448553D01*
X147001423Y-95662501D01*
X146979509Y-95885000D01*
X147001423Y-96107499D01*
X147066324Y-96321447D01*
X147171716Y-96518623D01*
X147313551Y-96691449D01*
X147486377Y-96833284D01*
X147683553Y-96938676D01*
X147897501Y-97003577D01*
X148064248Y-97020000D01*
X148875752Y-97020000D01*
X148980000Y-97009733D01*
X148980000Y-97300267D01*
X148875752Y-97290000D01*
X148064248Y-97290000D01*
X147897501Y-97306423D01*
X147683553Y-97371324D01*
X147486377Y-97476716D01*
X147313551Y-97618551D01*
X147253105Y-97692204D01*
X146941400Y-97380499D01*
X146941400Y-88783725D01*
X146945076Y-88746400D01*
X146941400Y-88709075D01*
X146941400Y-88709067D01*
X146930403Y-88597414D01*
X146886946Y-88454153D01*
X146816374Y-88322124D01*
X146721401Y-88206399D01*
X146692404Y-88182602D01*
X137766165Y-79256364D01*
X137801130Y-79141102D01*
X137824975Y-78899000D01*
X137801130Y-78656898D01*
X137730511Y-78424099D01*
X137615833Y-78209551D01*
X137461502Y-78021498D01*
X137312238Y-77899000D01*
X137461502Y-77776502D01*
X137615833Y-77588449D01*
X137730511Y-77373901D01*
X137801130Y-77141102D01*
X137824975Y-76899000D01*
X137801130Y-76656898D01*
X137730511Y-76424099D01*
X137615833Y-76209551D01*
X137461502Y-76021498D01*
X137312238Y-75899000D01*
X137461502Y-75776502D01*
X137615833Y-75588449D01*
X137730511Y-75373901D01*
X137801130Y-75141102D01*
X137824975Y-74899000D01*
X137801130Y-74656898D01*
X137730511Y-74424099D01*
X137615833Y-74209551D01*
X137461502Y-74021498D01*
X137273449Y-73867167D01*
X137058901Y-73752489D01*
X136826102Y-73681870D01*
X136644665Y-73664000D01*
X136023335Y-73664000D01*
X135841898Y-73681870D01*
X135609099Y-73752489D01*
X135394551Y-73867167D01*
X135206498Y-74021498D01*
X135052167Y-74209551D01*
X134937489Y-74424099D01*
X134866870Y-74656898D01*
X134843025Y-74899000D01*
X134866870Y-75141102D01*
X134937489Y-75373901D01*
X135052167Y-75588449D01*
X135206498Y-75776502D01*
X135355762Y-75899000D01*
X135206498Y-76021498D01*
X135052167Y-76209551D01*
X134937489Y-76424099D01*
X134936654Y-76426852D01*
X131753602Y-73243801D01*
X131666876Y-73172626D01*
X131557736Y-73114289D01*
X130720258Y-72276812D01*
X130697238Y-72248762D01*
X130585320Y-72156913D01*
X130457633Y-72088663D01*
X130319085Y-72046635D01*
X130211105Y-72036000D01*
X130175000Y-72032444D01*
X130138895Y-72036000D01*
X117638094Y-72036000D01*
X117601999Y-72032445D01*
X117565904Y-72036000D01*
X117565895Y-72036000D01*
X117457915Y-72046635D01*
X117319367Y-72088663D01*
X117191680Y-72156913D01*
X117079762Y-72248762D01*
X117056746Y-72276807D01*
X115837808Y-73495746D01*
X115809762Y-73518763D01*
X115717913Y-73630681D01*
X115649663Y-73758368D01*
X115634729Y-73807600D01*
X115607635Y-73896915D01*
X115593444Y-74041000D01*
X115597000Y-74077105D01*
X115597000Y-74733818D01*
X115584554Y-74773391D01*
X115568363Y-74922220D01*
X115581519Y-75071346D01*
X115623513Y-75215042D01*
X115640000Y-75246657D01*
X115640000Y-84466198D01*
X110430165Y-79256364D01*
X110465130Y-79141102D01*
X110488975Y-78899000D01*
X110465130Y-78656898D01*
X110394511Y-78424099D01*
X110279833Y-78209551D01*
X110125502Y-78021498D01*
X109976238Y-77899000D01*
X110125502Y-77776502D01*
X110279833Y-77588449D01*
X110394511Y-77373901D01*
X110465130Y-77141102D01*
X110488975Y-76899000D01*
X110465130Y-76656898D01*
X110394511Y-76424099D01*
X110279833Y-76209551D01*
X110125502Y-76021498D01*
X109976238Y-75899000D01*
X110125502Y-75776502D01*
X110279833Y-75588449D01*
X110394511Y-75373901D01*
X110465130Y-75141102D01*
X110488975Y-74899000D01*
X110465130Y-74656898D01*
X110394511Y-74424099D01*
X110279833Y-74209551D01*
X110125502Y-74021498D01*
X109937449Y-73867167D01*
X109722901Y-73752489D01*
X109490102Y-73681870D01*
X109308665Y-73664000D01*
X108687335Y-73664000D01*
X108505898Y-73681870D01*
X108273099Y-73752489D01*
X108058551Y-73867167D01*
X107870498Y-74021498D01*
X107716167Y-74209551D01*
X107601489Y-74424099D01*
X107530870Y-74656898D01*
X107507025Y-74899000D01*
X107530870Y-75141102D01*
X107601489Y-75373901D01*
X107716167Y-75588449D01*
X107870498Y-75776502D01*
X108019762Y-75899000D01*
X107870498Y-76021498D01*
X107716167Y-76209551D01*
X107601489Y-76424099D01*
X107530870Y-76656898D01*
X107507025Y-76899000D01*
X107530870Y-77141102D01*
X107601489Y-77373901D01*
X107716167Y-77588449D01*
X107870498Y-77776502D01*
X108019762Y-77899000D01*
X107870498Y-78021498D01*
X107716167Y-78209551D01*
X107601489Y-78424099D01*
X107530870Y-78656898D01*
X107507025Y-78899000D01*
X107530870Y-79141102D01*
X107601489Y-79373901D01*
X107716167Y-79588449D01*
X107870498Y-79776502D01*
X108019762Y-79899000D01*
X107870498Y-80021498D01*
X107716167Y-80209551D01*
X107601489Y-80424099D01*
X107530870Y-80656898D01*
X107507025Y-80899000D01*
X107530870Y-81141102D01*
X107601489Y-81373901D01*
X107716167Y-81588449D01*
X107870498Y-81776502D01*
X108058551Y-81930833D01*
X108273099Y-82045511D01*
X108505898Y-82116130D01*
X108687335Y-82134000D01*
X109308665Y-82134000D01*
X109490102Y-82116130D01*
X109722901Y-82045511D01*
X109937449Y-81930833D01*
X110125502Y-81776502D01*
X110279833Y-81588449D01*
X110394511Y-81373901D01*
X110395346Y-81371148D01*
X114714168Y-85689970D01*
X114683134Y-94322312D01*
X114679324Y-94361000D01*
X114686512Y-94433982D01*
X114693467Y-94507292D01*
X114693863Y-94508615D01*
X114693998Y-94509985D01*
X114715310Y-94580243D01*
X114736408Y-94650708D01*
X114737054Y-94651927D01*
X114737454Y-94653246D01*
X114772118Y-94718097D01*
X114793609Y-94758653D01*
X114705752Y-94750000D01*
X113894248Y-94750000D01*
X113727501Y-94766423D01*
X113513553Y-94831324D01*
X113316377Y-94936716D01*
X113143551Y-95078551D01*
X113030000Y-95216913D01*
X112916449Y-95078551D01*
X112743623Y-94936716D01*
X112546447Y-94831324D01*
X112332499Y-94766423D01*
X112165752Y-94750000D01*
X111354248Y-94750000D01*
X111187501Y-94766423D01*
X110973553Y-94831324D01*
X110776377Y-94936716D01*
X110740589Y-94966087D01*
X97701404Y-81926903D01*
X97677601Y-81897899D01*
X97561876Y-81802926D01*
X97429847Y-81732354D01*
X97286586Y-81688897D01*
X97174933Y-81677900D01*
X97174922Y-81677900D01*
X97137600Y-81674224D01*
X97100278Y-81677900D01*
X91981623Y-81677900D01*
X92055033Y-81588449D01*
X92169711Y-81373901D01*
X92240330Y-81141102D01*
X92264175Y-80899000D01*
X92240330Y-80656898D01*
X92169711Y-80424099D01*
X92055033Y-80209551D01*
X91900702Y-80021498D01*
X91751438Y-79899000D01*
X91900702Y-79776502D01*
X92055033Y-79588449D01*
X92169711Y-79373901D01*
X92240330Y-79141102D01*
X92264175Y-78899000D01*
X92240330Y-78656898D01*
X92169711Y-78424099D01*
X92055033Y-78209551D01*
X91900702Y-78021498D01*
X91751438Y-77899000D01*
X91900702Y-77776502D01*
X92055033Y-77588449D01*
X92169711Y-77373901D01*
X92240330Y-77141102D01*
X92264175Y-76899000D01*
X92240330Y-76656898D01*
X92169711Y-76424099D01*
X92055033Y-76209551D01*
X91900702Y-76021498D01*
X91751438Y-75899000D01*
X91900702Y-75776502D01*
X92055033Y-75588449D01*
X92169711Y-75373901D01*
X92240330Y-75141102D01*
X92264175Y-74899000D01*
X98394525Y-74899000D01*
X98418370Y-75141102D01*
X98488989Y-75373901D01*
X98603667Y-75588449D01*
X98757998Y-75776502D01*
X98907262Y-75899000D01*
X98757998Y-76021498D01*
X98603667Y-76209551D01*
X98488989Y-76424099D01*
X98418370Y-76656898D01*
X98394525Y-76899000D01*
X98418370Y-77141102D01*
X98488989Y-77373901D01*
X98603667Y-77588449D01*
X98757998Y-77776502D01*
X98907262Y-77899000D01*
X98757998Y-78021498D01*
X98603667Y-78209551D01*
X98488989Y-78424099D01*
X98418370Y-78656898D01*
X98394525Y-78899000D01*
X98418370Y-79141102D01*
X98488989Y-79373901D01*
X98603667Y-79588449D01*
X98757998Y-79776502D01*
X98907262Y-79899000D01*
X98757998Y-80021498D01*
X98603667Y-80209551D01*
X98488989Y-80424099D01*
X98418370Y-80656898D01*
X98394525Y-80899000D01*
X98418370Y-81141102D01*
X98488989Y-81373901D01*
X98603667Y-81588449D01*
X98757998Y-81776502D01*
X98946051Y-81930833D01*
X99160599Y-82045511D01*
X99393398Y-82116130D01*
X99574835Y-82134000D01*
X100196165Y-82134000D01*
X100377602Y-82116130D01*
X100610401Y-82045511D01*
X100824949Y-81930833D01*
X101013002Y-81776502D01*
X101167333Y-81588449D01*
X101282011Y-81373901D01*
X101352630Y-81141102D01*
X101376475Y-80899000D01*
X101352630Y-80656898D01*
X101282011Y-80424099D01*
X101167333Y-80209551D01*
X101013002Y-80021498D01*
X100863738Y-79899000D01*
X101013002Y-79776502D01*
X101167333Y-79588449D01*
X101282011Y-79373901D01*
X101352630Y-79141102D01*
X101376475Y-78899000D01*
X101352630Y-78656898D01*
X101282011Y-78424099D01*
X101167333Y-78209551D01*
X101013002Y-78021498D01*
X100863738Y-77899000D01*
X101013002Y-77776502D01*
X101167333Y-77588449D01*
X101282011Y-77373901D01*
X101352630Y-77141102D01*
X101376475Y-76899000D01*
X101352630Y-76656898D01*
X101282011Y-76424099D01*
X101167333Y-76209551D01*
X101013002Y-76021498D01*
X100863738Y-75899000D01*
X101013002Y-75776502D01*
X101167333Y-75588449D01*
X101282011Y-75373901D01*
X101352630Y-75141102D01*
X101376475Y-74899000D01*
X101352630Y-74656898D01*
X101282011Y-74424099D01*
X101167333Y-74209551D01*
X101013002Y-74021498D01*
X100824949Y-73867167D01*
X100610401Y-73752489D01*
X100377602Y-73681870D01*
X100196165Y-73664000D01*
X99574835Y-73664000D01*
X99393398Y-73681870D01*
X99160599Y-73752489D01*
X98946051Y-73867167D01*
X98757998Y-74021498D01*
X98603667Y-74209551D01*
X98488989Y-74424099D01*
X98418370Y-74656898D01*
X98394525Y-74899000D01*
X92264175Y-74899000D01*
X92240330Y-74656898D01*
X92169711Y-74424099D01*
X92055033Y-74209551D01*
X91900702Y-74021498D01*
X91712649Y-73867167D01*
X91498101Y-73752489D01*
X91265302Y-73681870D01*
X91083865Y-73664000D01*
X90462535Y-73664000D01*
X90281098Y-73681870D01*
X90048299Y-73752489D01*
X89833751Y-73867167D01*
X89645698Y-74021498D01*
X89491367Y-74209551D01*
X89376689Y-74424099D01*
X89306070Y-74656898D01*
X89282225Y-74899000D01*
X89306070Y-75141102D01*
X89376689Y-75373901D01*
X89491367Y-75588449D01*
X89645698Y-75776502D01*
X89794962Y-75899000D01*
X89645698Y-76021498D01*
X89491367Y-76209551D01*
X89376689Y-76424099D01*
X89306070Y-76656898D01*
X89282225Y-76899000D01*
X89306070Y-77141102D01*
X89376689Y-77373901D01*
X89491367Y-77588449D01*
X89645698Y-77776502D01*
X89794962Y-77899000D01*
X89645698Y-78021498D01*
X89491367Y-78209551D01*
X89376689Y-78424099D01*
X89306070Y-78656898D01*
X89282225Y-78899000D01*
X89306070Y-79141102D01*
X89376689Y-79373901D01*
X89491367Y-79588449D01*
X89645698Y-79776502D01*
X89794962Y-79899000D01*
X89645698Y-80021498D01*
X89491367Y-80209551D01*
X89376689Y-80424099D01*
X89306070Y-80656898D01*
X89282225Y-80899000D01*
X89306070Y-81141102D01*
X89376689Y-81373901D01*
X89491367Y-81588449D01*
X89564777Y-81677900D01*
X82869423Y-81677900D01*
X82942833Y-81588449D01*
X83057511Y-81373901D01*
X83128130Y-81141102D01*
X83151975Y-80899000D01*
X83128130Y-80656898D01*
X83057511Y-80424099D01*
X82942833Y-80209551D01*
X82788502Y-80021498D01*
X82639238Y-79899000D01*
X82788502Y-79776502D01*
X82942833Y-79588449D01*
X83057511Y-79373901D01*
X83128130Y-79141102D01*
X83151975Y-78899000D01*
X83128130Y-78656898D01*
X83057511Y-78424099D01*
X82942833Y-78209551D01*
X82788502Y-78021498D01*
X82639238Y-77899000D01*
X82788502Y-77776502D01*
X82942833Y-77588449D01*
X83057511Y-77373901D01*
X83128130Y-77141102D01*
X83151975Y-76899000D01*
X83128130Y-76656898D01*
X83057511Y-76424099D01*
X82942833Y-76209551D01*
X82788502Y-76021498D01*
X82639238Y-75899000D01*
X82788502Y-75776502D01*
X82942833Y-75588449D01*
X83057511Y-75373901D01*
X83128130Y-75141102D01*
X83151975Y-74899000D01*
X83128130Y-74656898D01*
X83057511Y-74424099D01*
X82942833Y-74209551D01*
X82788502Y-74021498D01*
X82600449Y-73867167D01*
X82385901Y-73752489D01*
X82153102Y-73681870D01*
X81971665Y-73664000D01*
X81350335Y-73664000D01*
X81168898Y-73681870D01*
X80936099Y-73752489D01*
X80721551Y-73867167D01*
X80533498Y-74021498D01*
X80379167Y-74209551D01*
X80264489Y-74424099D01*
X80193870Y-74656898D01*
X80170025Y-74899000D01*
X80193870Y-75141102D01*
X80264489Y-75373901D01*
X80379167Y-75588449D01*
X80533498Y-75776502D01*
X80682762Y-75899000D01*
X80533498Y-76021498D01*
X80379167Y-76209551D01*
X80264489Y-76424099D01*
X80193870Y-76656898D01*
X80170025Y-76899000D01*
X80193870Y-77141102D01*
X80264489Y-77373901D01*
X80379167Y-77588449D01*
X80533498Y-77776502D01*
X80682762Y-77899000D01*
X80533498Y-78021498D01*
X80379167Y-78209551D01*
X80264489Y-78424099D01*
X80193870Y-78656898D01*
X80170025Y-78899000D01*
X80193870Y-79141102D01*
X80264489Y-79373901D01*
X80379167Y-79588449D01*
X80533498Y-79776502D01*
X80682762Y-79899000D01*
X80533498Y-80021498D01*
X80379167Y-80209551D01*
X80264489Y-80424099D01*
X80193870Y-80656898D01*
X80170025Y-80899000D01*
X80193870Y-81141102D01*
X80264489Y-81373901D01*
X80379167Y-81588449D01*
X80452577Y-81677900D01*
X78848002Y-81677900D01*
X77939104Y-80769003D01*
X77915301Y-80739999D01*
X77799576Y-80645026D01*
X77667547Y-80574454D01*
X77524286Y-80530997D01*
X77424927Y-80521211D01*
X77327502Y-80402498D01*
X77139449Y-80248167D01*
X76924901Y-80133489D01*
X76692102Y-80062870D01*
X76510665Y-80045000D01*
X75889335Y-80045000D01*
X75707898Y-80062870D01*
X75475099Y-80133489D01*
X75260551Y-80248167D01*
X75072498Y-80402498D01*
X74930000Y-80576132D01*
X74787502Y-80402498D01*
X74599449Y-80248167D01*
X74384901Y-80133489D01*
X74152102Y-80062870D01*
X73970665Y-80045000D01*
X73349335Y-80045000D01*
X73167898Y-80062870D01*
X72935099Y-80133489D01*
X72720551Y-80248167D01*
X72532498Y-80402498D01*
X72378167Y-80590551D01*
X72263489Y-80805099D01*
X72192870Y-81037898D01*
X72169025Y-81280000D01*
X72192870Y-81522102D01*
X72263489Y-81754901D01*
X72378167Y-81969449D01*
X72532498Y-82157502D01*
X72720551Y-82311833D01*
X72900001Y-82407751D01*
X72900001Y-82417958D01*
X72896323Y-82455300D01*
X72910997Y-82604286D01*
X72932423Y-82674919D01*
X72720551Y-82788167D01*
X72532498Y-82942498D01*
X72378167Y-83130551D01*
X72263489Y-83345099D01*
X72192870Y-83577898D01*
X72169025Y-83820000D01*
X72192870Y-84062102D01*
X72263489Y-84294901D01*
X72378167Y-84509449D01*
X72532498Y-84697502D01*
X72720551Y-84851833D01*
X72935099Y-84966511D01*
X73167898Y-85037130D01*
X73349335Y-85055000D01*
X73970665Y-85055000D01*
X74152102Y-85037130D01*
X74384901Y-84966511D01*
X74519803Y-84894404D01*
X75091940Y-85466542D01*
X75072498Y-85482498D01*
X74930000Y-85656132D01*
X74787502Y-85482498D01*
X74599449Y-85328167D01*
X74384901Y-85213489D01*
X74152102Y-85142870D01*
X73970665Y-85125000D01*
X73349335Y-85125000D01*
X73167898Y-85142870D01*
X72935099Y-85213489D01*
X72720551Y-85328167D01*
X72532498Y-85482498D01*
X72378167Y-85670551D01*
X72263489Y-85885099D01*
X72192870Y-86117898D01*
X72169025Y-86360000D01*
X72192870Y-86602102D01*
X72263489Y-86834901D01*
X72378167Y-87049449D01*
X72532498Y-87237502D01*
X72720551Y-87391833D01*
X72935099Y-87506511D01*
X73167898Y-87577130D01*
X73349335Y-87595000D01*
X73970665Y-87595000D01*
X74152102Y-87577130D01*
X74384901Y-87506511D01*
X74599449Y-87391833D01*
X74787502Y-87237502D01*
X74930000Y-87063868D01*
X75072498Y-87237502D01*
X75260551Y-87391833D01*
X75475099Y-87506511D01*
X75707898Y-87577130D01*
X75889335Y-87595000D01*
X76510665Y-87595000D01*
X76692102Y-87577130D01*
X76924901Y-87506511D01*
X77139449Y-87391833D01*
X77327502Y-87237502D01*
X77481833Y-87049449D01*
X77596511Y-86834901D01*
X77667130Y-86602102D01*
X77690975Y-86360000D01*
X77667130Y-86117898D01*
X77596511Y-85885099D01*
X77504202Y-85712400D01*
X78387954Y-85712400D01*
X87749347Y-95073794D01*
X87743551Y-95078551D01*
X87630000Y-95216913D01*
X87516449Y-95078551D01*
X87343623Y-94936716D01*
X87146447Y-94831324D01*
X86932499Y-94766423D01*
X86765752Y-94750000D01*
X85954248Y-94750000D01*
X85787501Y-94766423D01*
X85573553Y-94831324D01*
X85376377Y-94936716D01*
X85203551Y-95078551D01*
X85061716Y-95251377D01*
X84956324Y-95448553D01*
X84891423Y-95662501D01*
X84869509Y-95885000D01*
X84884677Y-96039000D01*
X83546269Y-96039000D01*
X83537033Y-96034063D01*
X83398485Y-95992035D01*
X83290505Y-95981400D01*
X83254400Y-95977844D01*
X83218295Y-95981400D01*
X82991503Y-95981400D01*
X77939104Y-90929003D01*
X77915301Y-90899999D01*
X77799576Y-90805026D01*
X77667547Y-90734454D01*
X77524286Y-90690997D01*
X77424927Y-90681211D01*
X77327502Y-90562498D01*
X77139449Y-90408167D01*
X76924901Y-90293489D01*
X76692102Y-90222870D01*
X76510665Y-90205000D01*
X75889335Y-90205000D01*
X75707898Y-90222870D01*
X75475099Y-90293489D01*
X75260551Y-90408167D01*
X75072498Y-90562498D01*
X74930000Y-90736132D01*
X74787502Y-90562498D01*
X74599449Y-90408167D01*
X74384901Y-90293489D01*
X74152102Y-90222870D01*
X73970665Y-90205000D01*
X73349335Y-90205000D01*
X73167898Y-90222870D01*
X72935099Y-90293489D01*
X72720551Y-90408167D01*
X72532498Y-90562498D01*
X72378167Y-90750551D01*
X72263489Y-90965099D01*
X72192870Y-91197898D01*
X72169025Y-91440000D01*
X72192870Y-91682102D01*
X72263489Y-91914901D01*
X72378167Y-92129449D01*
X72532498Y-92317502D01*
X72720551Y-92471833D01*
X72935099Y-92586511D01*
X73167898Y-92657130D01*
X73349335Y-92675000D01*
X73970665Y-92675000D01*
X74152102Y-92657130D01*
X74384901Y-92586511D01*
X74599449Y-92471833D01*
X74787502Y-92317502D01*
X74930000Y-92143868D01*
X75072498Y-92317502D01*
X75260551Y-92471833D01*
X75475099Y-92586511D01*
X75707898Y-92657130D01*
X75889335Y-92675000D01*
X76510665Y-92675000D01*
X76692102Y-92657130D01*
X76924901Y-92586511D01*
X77139449Y-92471833D01*
X77245389Y-92384890D01*
X81614147Y-96753650D01*
X81223752Y-96753650D01*
X77939104Y-93469003D01*
X77915301Y-93439999D01*
X77799576Y-93345026D01*
X77667547Y-93274454D01*
X77524286Y-93230997D01*
X77424927Y-93221211D01*
X77327502Y-93102498D01*
X77139449Y-92948167D01*
X76924901Y-92833489D01*
X76692102Y-92762870D01*
X76510665Y-92745000D01*
X75889335Y-92745000D01*
X75707898Y-92762870D01*
X75475099Y-92833489D01*
X75260551Y-92948167D01*
X75072498Y-93102498D01*
X74930000Y-93276132D01*
X74787502Y-93102498D01*
X74599449Y-92948167D01*
X74384901Y-92833489D01*
X74152102Y-92762870D01*
X73970665Y-92745000D01*
X73349335Y-92745000D01*
X73167898Y-92762870D01*
X72935099Y-92833489D01*
X72720551Y-92948167D01*
X72532498Y-93102498D01*
X72378167Y-93290551D01*
X72263489Y-93505099D01*
X72192870Y-93737898D01*
X72169025Y-93980000D01*
X72192870Y-94222102D01*
X72263489Y-94454901D01*
X72378167Y-94669449D01*
X72532498Y-94857502D01*
X72720551Y-95011833D01*
X72935099Y-95126511D01*
X73167898Y-95197130D01*
X73349335Y-95215000D01*
X73970665Y-95215000D01*
X74152102Y-95197130D01*
X74384901Y-95126511D01*
X74599449Y-95011833D01*
X74787502Y-94857502D01*
X74930000Y-94683868D01*
X75072498Y-94857502D01*
X75260551Y-95011833D01*
X75475099Y-95126511D01*
X75707898Y-95197130D01*
X75889335Y-95215000D01*
X76510665Y-95215000D01*
X76692102Y-95197130D01*
X76924901Y-95126511D01*
X77139449Y-95011833D01*
X77245389Y-94924890D01*
X80119841Y-97799343D01*
X80134139Y-97823881D01*
X80199853Y-97914816D01*
X80309526Y-98016718D01*
X80417904Y-98083512D01*
X80441330Y-98102737D01*
X80569017Y-98170987D01*
X80707565Y-98213015D01*
X80815545Y-98223650D01*
X80815552Y-98223650D01*
X80851649Y-98227205D01*
X80887746Y-98223650D01*
X84311248Y-98223650D01*
X80330199Y-102204700D01*
X77527132Y-102204700D01*
X77596511Y-102074901D01*
X77667130Y-101842102D01*
X77690975Y-101600000D01*
X77667130Y-101357898D01*
X77596511Y-101125099D01*
X77481833Y-100910551D01*
X77327502Y-100722498D01*
X77139449Y-100568167D01*
X76924901Y-100453489D01*
X76692102Y-100382870D01*
X76510665Y-100365000D01*
X75889335Y-100365000D01*
X75707898Y-100382870D01*
X75475099Y-100453489D01*
X75260551Y-100568167D01*
X75072498Y-100722498D01*
X74930000Y-100896132D01*
X74787502Y-100722498D01*
X74599449Y-100568167D01*
X74384901Y-100453489D01*
X74152102Y-100382870D01*
X73970665Y-100365000D01*
X73349335Y-100365000D01*
X73167898Y-100382870D01*
X72935099Y-100453489D01*
X72720551Y-100568167D01*
X72532498Y-100722498D01*
X72378167Y-100910551D01*
X72263489Y-101125099D01*
X72192870Y-101357898D01*
X72169025Y-101600000D01*
X72192870Y-101842102D01*
X72263489Y-102074901D01*
X72378167Y-102289449D01*
X72532498Y-102477502D01*
X72720551Y-102631833D01*
X72935099Y-102746511D01*
X73167898Y-102817130D01*
X73349335Y-102835000D01*
X73970665Y-102835000D01*
X74152102Y-102817130D01*
X74384901Y-102746511D01*
X74599449Y-102631833D01*
X74787502Y-102477502D01*
X74930000Y-102303868D01*
X75064879Y-102468219D01*
X74485721Y-103047378D01*
X74384901Y-102993489D01*
X74152102Y-102922870D01*
X73970665Y-102905000D01*
X73349335Y-102905000D01*
X73167898Y-102922870D01*
X72935099Y-102993489D01*
X72720551Y-103108167D01*
X72532498Y-103262498D01*
X72378167Y-103450551D01*
X72263489Y-103665099D01*
X72192870Y-103897898D01*
X72169025Y-104140000D01*
X72192870Y-104382102D01*
X72263489Y-104614901D01*
X72378167Y-104829449D01*
X72532498Y-105017502D01*
X72720551Y-105171833D01*
X72935099Y-105286511D01*
X73167898Y-105357130D01*
X73349335Y-105375000D01*
X73970665Y-105375000D01*
X74152102Y-105357130D01*
X74384901Y-105286511D01*
X74599449Y-105171833D01*
X74787502Y-105017502D01*
X74884927Y-104898789D01*
X74968331Y-104890574D01*
X75064879Y-105008219D01*
X74485721Y-105587378D01*
X74384901Y-105533489D01*
X74152102Y-105462870D01*
X73970665Y-105445000D01*
X73349335Y-105445000D01*
X73167898Y-105462870D01*
X72935099Y-105533489D01*
X72720551Y-105648167D01*
X72532498Y-105802498D01*
X72378167Y-105990551D01*
X72263489Y-106205099D01*
X72192870Y-106437898D01*
X72169025Y-106680000D01*
X72192870Y-106922102D01*
X72263489Y-107154901D01*
X72378167Y-107369449D01*
X72532498Y-107557502D01*
X72720551Y-107711833D01*
X72935099Y-107826511D01*
X73167898Y-107897130D01*
X73349335Y-107915000D01*
X73970665Y-107915000D01*
X74152102Y-107897130D01*
X74384901Y-107826511D01*
X74599449Y-107711833D01*
X74787502Y-107557502D01*
X74884927Y-107438789D01*
X74968331Y-107430574D01*
X75064879Y-107548219D01*
X74485721Y-108127378D01*
X74384901Y-108073489D01*
X74152102Y-108002870D01*
X73970665Y-107985000D01*
X73349335Y-107985000D01*
X73167898Y-108002870D01*
X72935099Y-108073489D01*
X72720551Y-108188167D01*
X72532498Y-108342498D01*
X72378167Y-108530551D01*
X72263489Y-108745099D01*
X72192870Y-108977898D01*
X72169025Y-109220000D01*
X72192870Y-109462102D01*
X72263489Y-109694901D01*
X72378167Y-109909449D01*
X72532498Y-110097502D01*
X72720551Y-110251833D01*
X72935099Y-110366511D01*
X73167898Y-110437130D01*
X73349335Y-110455000D01*
X73970665Y-110455000D01*
X74152102Y-110437130D01*
X74384901Y-110366511D01*
X74599449Y-110251833D01*
X74787502Y-110097502D01*
X74884927Y-109978789D01*
X74968331Y-109970574D01*
X75064879Y-110088219D01*
X74485721Y-110667378D01*
X74384901Y-110613489D01*
X74152102Y-110542870D01*
X73970665Y-110525000D01*
X73349335Y-110525000D01*
X73167898Y-110542870D01*
X72935099Y-110613489D01*
X72720551Y-110728167D01*
X72532498Y-110882498D01*
X72378167Y-111070551D01*
X72263489Y-111285099D01*
X72192870Y-111517898D01*
X72169025Y-111760000D01*
X72192870Y-112002102D01*
X72263489Y-112234901D01*
X72378167Y-112449449D01*
X72532498Y-112637502D01*
X72720551Y-112791833D01*
X72935099Y-112906511D01*
X73167898Y-112977130D01*
X73349335Y-112995000D01*
X73970665Y-112995000D01*
X74152102Y-112977130D01*
X74384901Y-112906511D01*
X74599449Y-112791833D01*
X74787502Y-112637502D01*
X74884927Y-112518789D01*
X74968331Y-112510574D01*
X75064879Y-112628219D01*
X74485721Y-113207378D01*
X74384901Y-113153489D01*
X74152102Y-113082870D01*
X73970665Y-113065000D01*
X73349335Y-113065000D01*
X73167898Y-113082870D01*
X72935099Y-113153489D01*
X72720551Y-113268167D01*
X72532498Y-113422498D01*
X72378167Y-113610551D01*
X72263489Y-113825099D01*
X72192870Y-114057898D01*
X72169025Y-114300000D01*
X72192870Y-114542102D01*
X72263489Y-114774901D01*
X72378167Y-114989449D01*
X72532498Y-115177502D01*
X72720551Y-115331833D01*
X72935099Y-115446511D01*
X73167898Y-115517130D01*
X73349335Y-115535000D01*
X73970665Y-115535000D01*
X74152102Y-115517130D01*
X74384901Y-115446511D01*
X74599449Y-115331833D01*
X74787502Y-115177502D01*
X74884927Y-115058789D01*
X74968331Y-115050574D01*
X75064879Y-115168219D01*
X74485721Y-115747378D01*
X74384901Y-115693489D01*
X74152102Y-115622870D01*
X73970665Y-115605000D01*
X73349335Y-115605000D01*
X73167898Y-115622870D01*
X72935099Y-115693489D01*
X72720551Y-115808167D01*
X72532498Y-115962498D01*
X72378167Y-116150551D01*
X72263489Y-116365099D01*
X72192870Y-116597898D01*
X72169025Y-116840000D01*
X72192870Y-117082102D01*
X72263489Y-117314901D01*
X72378167Y-117529449D01*
X72532498Y-117717502D01*
X72720551Y-117871833D01*
X72935099Y-117986511D01*
X73167898Y-118057130D01*
X73349335Y-118075000D01*
X73970665Y-118075000D01*
X74152102Y-118057130D01*
X74328900Y-118003499D01*
X74324303Y-118008096D01*
X74295299Y-118031899D01*
X74240171Y-118099074D01*
X74200326Y-118147624D01*
X74186586Y-118173330D01*
X74152102Y-118162870D01*
X73970665Y-118145000D01*
X73349335Y-118145000D01*
X73167898Y-118162870D01*
X72935099Y-118233489D01*
X72720551Y-118348167D01*
X72532498Y-118502498D01*
X72378167Y-118690551D01*
X72263489Y-118905099D01*
X72192870Y-119137898D01*
X72169025Y-119380000D01*
X72192870Y-119622102D01*
X72263489Y-119854901D01*
X72378167Y-120069449D01*
X72532498Y-120257502D01*
X72720551Y-120411833D01*
X72935099Y-120526511D01*
X73167898Y-120597130D01*
X73349335Y-120615000D01*
X73970665Y-120615000D01*
X74152102Y-120597130D01*
X74384901Y-120526511D01*
X74599449Y-120411833D01*
X74781112Y-120262746D01*
X74819463Y-120334494D01*
X74898815Y-120431185D01*
X74995506Y-120510537D01*
X75105820Y-120569502D01*
X75225518Y-120605812D01*
X75350000Y-120618072D01*
X77050000Y-120618072D01*
X77174482Y-120605812D01*
X77294180Y-120569502D01*
X77404494Y-120510537D01*
X77501185Y-120431185D01*
X77580537Y-120334494D01*
X77639502Y-120224180D01*
X77675812Y-120104482D01*
X77688072Y-119980000D01*
X77688072Y-118964700D01*
X80607678Y-118964700D01*
X80645000Y-118968376D01*
X80682322Y-118964700D01*
X80682333Y-118964700D01*
X80793986Y-118953703D01*
X80937247Y-118910246D01*
X81069276Y-118839674D01*
X81184636Y-118745000D01*
X84869509Y-118745000D01*
X84891423Y-118967499D01*
X84956324Y-119181447D01*
X85061716Y-119378623D01*
X85203551Y-119551449D01*
X85376377Y-119693284D01*
X85573553Y-119798676D01*
X85787501Y-119863577D01*
X85954248Y-119880000D01*
X86765752Y-119880000D01*
X86932499Y-119863577D01*
X87146447Y-119798676D01*
X87343623Y-119693284D01*
X87516449Y-119551449D01*
X87630000Y-119413087D01*
X87743551Y-119551449D01*
X87916377Y-119693284D01*
X88113553Y-119798676D01*
X88327501Y-119863577D01*
X88494248Y-119880000D01*
X89305752Y-119880000D01*
X89472499Y-119863577D01*
X89686447Y-119798676D01*
X89883623Y-119693284D01*
X90056449Y-119551449D01*
X90198284Y-119378623D01*
X90303676Y-119181447D01*
X90368577Y-118967499D01*
X90390491Y-118745000D01*
X90368577Y-118522501D01*
X90303676Y-118308553D01*
X90198284Y-118111377D01*
X90056449Y-117938551D01*
X89883623Y-117796716D01*
X89686447Y-117691324D01*
X89472499Y-117626423D01*
X89305752Y-117610000D01*
X88494248Y-117610000D01*
X88327501Y-117626423D01*
X88113553Y-117691324D01*
X87916377Y-117796716D01*
X87743551Y-117938551D01*
X87630000Y-118076913D01*
X87516449Y-117938551D01*
X87343623Y-117796716D01*
X87146447Y-117691324D01*
X86932499Y-117626423D01*
X86765752Y-117610000D01*
X85954248Y-117610000D01*
X85787501Y-117626423D01*
X85573553Y-117691324D01*
X85376377Y-117796716D01*
X85203551Y-117938551D01*
X85061716Y-118111377D01*
X84956324Y-118308553D01*
X84891423Y-118522501D01*
X84869509Y-118745000D01*
X81184636Y-118745000D01*
X81185001Y-118744701D01*
X81208804Y-118715697D01*
X85340589Y-114583913D01*
X85376377Y-114613284D01*
X85573553Y-114718676D01*
X85787501Y-114783577D01*
X85954248Y-114800000D01*
X86765752Y-114800000D01*
X86932499Y-114783577D01*
X87146447Y-114718676D01*
X87343623Y-114613284D01*
X87516449Y-114471449D01*
X87630000Y-114333087D01*
X87743551Y-114471449D01*
X87916377Y-114613284D01*
X88113553Y-114718676D01*
X88327501Y-114783577D01*
X88494248Y-114800000D01*
X89305752Y-114800000D01*
X89472499Y-114783577D01*
X89686447Y-114718676D01*
X89883623Y-114613284D01*
X90056449Y-114471449D01*
X90092981Y-114426935D01*
X90112622Y-114425000D01*
X90112633Y-114425000D01*
X90224286Y-114414003D01*
X90367547Y-114370546D01*
X90499576Y-114299974D01*
X90615301Y-114205001D01*
X90639103Y-114175998D01*
X90848227Y-113966874D01*
X110315881Y-113966874D01*
X110395724Y-114189976D01*
X110517631Y-114377764D01*
X110673831Y-114538161D01*
X110858322Y-114665003D01*
X111064013Y-114753415D01*
X111283000Y-114800000D01*
X111633000Y-114800000D01*
X111633000Y-113792000D01*
X110442046Y-113792000D01*
X110315881Y-113966874D01*
X90848227Y-113966874D01*
X91217902Y-113597200D01*
X110479346Y-113597200D01*
X110524314Y-113610841D01*
X110678200Y-113625997D01*
X110832086Y-113610841D01*
X110980059Y-113565954D01*
X111032357Y-113538000D01*
X111633000Y-113538000D01*
X111633000Y-113518000D01*
X111887000Y-113518000D01*
X111887000Y-113538000D01*
X111907000Y-113538000D01*
X111907000Y-113792000D01*
X111887000Y-113792000D01*
X111887000Y-114800000D01*
X112237000Y-114800000D01*
X112455987Y-114753415D01*
X112661678Y-114665003D01*
X112846169Y-114538161D01*
X113002369Y-114377764D01*
X113030766Y-114334021D01*
X113143551Y-114471449D01*
X113316377Y-114613284D01*
X113513553Y-114718676D01*
X113727501Y-114783577D01*
X113894248Y-114800000D01*
X114705752Y-114800000D01*
X114872499Y-114783577D01*
X115086447Y-114718676D01*
X115283623Y-114613284D01*
X115456449Y-114471449D01*
X115598284Y-114298623D01*
X115703676Y-114101447D01*
X115768577Y-113887499D01*
X115790491Y-113665000D01*
X115778575Y-113544018D01*
X115797113Y-113549641D01*
X115950999Y-113564797D01*
X116104886Y-113549641D01*
X116149854Y-113536000D01*
X121449333Y-113536000D01*
X121560986Y-113525003D01*
X121594292Y-113514900D01*
X121579509Y-113665000D01*
X121601423Y-113887499D01*
X121666324Y-114101447D01*
X121771716Y-114298623D01*
X121913551Y-114471449D01*
X122086377Y-114613284D01*
X122283553Y-114718676D01*
X122497501Y-114783577D01*
X122664248Y-114800000D01*
X123475752Y-114800000D01*
X123642499Y-114783577D01*
X123856447Y-114718676D01*
X124053623Y-114613284D01*
X124226449Y-114471449D01*
X124340000Y-114333087D01*
X124453551Y-114471449D01*
X124626377Y-114613284D01*
X124823553Y-114718676D01*
X125037501Y-114783577D01*
X125204248Y-114800000D01*
X126015752Y-114800000D01*
X126182499Y-114783577D01*
X126396447Y-114718676D01*
X126593623Y-114613284D01*
X126766449Y-114471449D01*
X126908284Y-114298623D01*
X127013676Y-114101447D01*
X127054498Y-113966874D01*
X147025881Y-113966874D01*
X147105724Y-114189976D01*
X147227631Y-114377764D01*
X147383831Y-114538161D01*
X147568322Y-114665003D01*
X147774013Y-114753415D01*
X147993000Y-114800000D01*
X148343000Y-114800000D01*
X148343000Y-113792000D01*
X147152046Y-113792000D01*
X147025881Y-113966874D01*
X127054498Y-113966874D01*
X127078577Y-113887499D01*
X127100491Y-113665000D01*
X127078577Y-113442501D01*
X127054499Y-113363126D01*
X147025881Y-113363126D01*
X147152046Y-113538000D01*
X148343000Y-113538000D01*
X148343000Y-112530000D01*
X147993000Y-112530000D01*
X147774013Y-112576585D01*
X147568322Y-112664997D01*
X147383831Y-112791839D01*
X147227631Y-112952236D01*
X147105724Y-113140024D01*
X147025881Y-113363126D01*
X127054499Y-113363126D01*
X127013676Y-113228553D01*
X126908284Y-113031377D01*
X126766449Y-112858551D01*
X126593623Y-112716716D01*
X126396447Y-112611324D01*
X126226868Y-112559882D01*
X126224087Y-112554680D01*
X126132238Y-112442762D01*
X126104187Y-112419741D01*
X125944446Y-112260000D01*
X126015752Y-112260000D01*
X126182499Y-112243577D01*
X126396447Y-112178676D01*
X126593623Y-112073284D01*
X126766449Y-111931449D01*
X126908284Y-111758623D01*
X127013676Y-111561447D01*
X127078577Y-111347499D01*
X127100491Y-111125000D01*
X146979509Y-111125000D01*
X147001423Y-111347499D01*
X147066324Y-111561447D01*
X147171716Y-111758623D01*
X147313551Y-111931449D01*
X147486377Y-112073284D01*
X147683553Y-112178676D01*
X147897501Y-112243577D01*
X148064248Y-112260000D01*
X148875752Y-112260000D01*
X149042499Y-112243577D01*
X149256447Y-112178676D01*
X149453623Y-112073284D01*
X149626449Y-111931449D01*
X149740000Y-111793087D01*
X149853551Y-111931449D01*
X150026377Y-112073284D01*
X150223553Y-112178676D01*
X150437501Y-112243577D01*
X150604248Y-112260000D01*
X151415752Y-112260000D01*
X151582499Y-112243577D01*
X151796447Y-112178676D01*
X151993623Y-112073284D01*
X152166449Y-111931449D01*
X152308284Y-111758623D01*
X152413676Y-111561447D01*
X152478577Y-111347499D01*
X152500491Y-111125000D01*
X152478577Y-110902501D01*
X152413676Y-110688553D01*
X152308284Y-110491377D01*
X152166449Y-110318551D01*
X151993623Y-110176716D01*
X151796447Y-110071324D01*
X151582499Y-110006423D01*
X151415752Y-109990000D01*
X150604248Y-109990000D01*
X150437501Y-110006423D01*
X150223553Y-110071324D01*
X150026377Y-110176716D01*
X149853551Y-110318551D01*
X149740000Y-110456913D01*
X149626449Y-110318551D01*
X149453623Y-110176716D01*
X149256447Y-110071324D01*
X149042499Y-110006423D01*
X148875752Y-109990000D01*
X148064248Y-109990000D01*
X147897501Y-110006423D01*
X147683553Y-110071324D01*
X147486377Y-110176716D01*
X147313551Y-110318551D01*
X147171716Y-110491377D01*
X147066324Y-110688553D01*
X147001423Y-110902501D01*
X146979509Y-111125000D01*
X127100491Y-111125000D01*
X127078577Y-110902501D01*
X127013676Y-110688553D01*
X126908284Y-110491377D01*
X126766449Y-110318551D01*
X126593623Y-110176716D01*
X126396447Y-110071324D01*
X126182499Y-110006423D01*
X126015752Y-109990000D01*
X125204248Y-109990000D01*
X125037501Y-110006423D01*
X124823553Y-110071324D01*
X124642529Y-110168083D01*
X124409274Y-109934827D01*
X124411103Y-109932598D01*
X124746312Y-109597390D01*
X124823553Y-109638676D01*
X125037501Y-109703577D01*
X125204248Y-109720000D01*
X126015752Y-109720000D01*
X126182499Y-109703577D01*
X126396447Y-109638676D01*
X126593623Y-109533284D01*
X126766449Y-109391449D01*
X126908284Y-109218623D01*
X127013676Y-109021447D01*
X127078577Y-108807499D01*
X127100491Y-108585000D01*
X127078577Y-108362501D01*
X127013676Y-108148553D01*
X126908284Y-107951377D01*
X126766449Y-107778551D01*
X126593623Y-107636716D01*
X126396447Y-107531324D01*
X126182499Y-107466423D01*
X126015752Y-107450000D01*
X125204248Y-107450000D01*
X125037501Y-107466423D01*
X124823553Y-107531324D01*
X124626377Y-107636716D01*
X124453551Y-107778551D01*
X124417020Y-107823064D01*
X124397367Y-107825000D01*
X124285714Y-107835997D01*
X124276010Y-107838941D01*
X124226449Y-107778551D01*
X124053623Y-107636716D01*
X123856447Y-107531324D01*
X123642499Y-107466423D01*
X123475752Y-107450000D01*
X122664248Y-107450000D01*
X122497501Y-107466423D01*
X122283553Y-107531324D01*
X122086377Y-107636716D01*
X121913551Y-107778551D01*
X121771716Y-107951377D01*
X121666324Y-108148553D01*
X121601423Y-108362501D01*
X121579509Y-108585000D01*
X121587053Y-108661600D01*
X115782947Y-108661600D01*
X115790491Y-108585000D01*
X115768577Y-108362501D01*
X115703676Y-108148553D01*
X115598284Y-107951377D01*
X115456449Y-107778551D01*
X115283623Y-107636716D01*
X115086447Y-107531324D01*
X114872499Y-107466423D01*
X114705752Y-107450000D01*
X113894248Y-107450000D01*
X113727501Y-107466423D01*
X113513553Y-107531324D01*
X113316377Y-107636716D01*
X113143551Y-107778551D01*
X113030000Y-107916913D01*
X112916449Y-107778551D01*
X112743623Y-107636716D01*
X112546447Y-107531324D01*
X112332499Y-107466423D01*
X112165752Y-107450000D01*
X111354248Y-107450000D01*
X111187501Y-107466423D01*
X110973553Y-107531324D01*
X110776377Y-107636716D01*
X110740589Y-107666087D01*
X100583501Y-97509000D01*
X101005508Y-97509000D01*
X110020482Y-106555492D01*
X110044699Y-106585001D01*
X110101998Y-106632025D01*
X110159316Y-106679232D01*
X110159905Y-106679548D01*
X110160424Y-106679974D01*
X110226108Y-106715083D01*
X110291222Y-106750034D01*
X110291859Y-106750228D01*
X110292453Y-106750546D01*
X110363813Y-106772193D01*
X110434406Y-106793741D01*
X110435070Y-106793808D01*
X110435714Y-106794003D01*
X110509995Y-106801319D01*
X110567110Y-106807045D01*
X110603551Y-106851449D01*
X110776377Y-106993284D01*
X110973553Y-107098676D01*
X111187501Y-107163577D01*
X111354248Y-107180000D01*
X112165752Y-107180000D01*
X112332499Y-107163577D01*
X112546447Y-107098676D01*
X112743623Y-106993284D01*
X112916449Y-106851449D01*
X113030000Y-106713087D01*
X113143551Y-106851449D01*
X113316377Y-106993284D01*
X113513553Y-107098676D01*
X113727501Y-107163577D01*
X113894248Y-107180000D01*
X114705752Y-107180000D01*
X114872499Y-107163577D01*
X115086447Y-107098676D01*
X115283623Y-106993284D01*
X115456449Y-106851449D01*
X115492981Y-106806935D01*
X115512622Y-106805000D01*
X115512633Y-106805000D01*
X115624286Y-106794003D01*
X115767547Y-106750546D01*
X115899576Y-106679974D01*
X116015301Y-106585001D01*
X116039103Y-106555998D01*
X116625530Y-105969573D01*
X121585739Y-105981741D01*
X121579509Y-106045000D01*
X121601423Y-106267499D01*
X121666324Y-106481447D01*
X121771716Y-106678623D01*
X121913551Y-106851449D01*
X122086377Y-106993284D01*
X122283553Y-107098676D01*
X122497501Y-107163577D01*
X122664248Y-107180000D01*
X123475752Y-107180000D01*
X123642499Y-107163577D01*
X123856447Y-107098676D01*
X124053623Y-106993284D01*
X124226449Y-106851449D01*
X124340000Y-106713087D01*
X124453551Y-106851449D01*
X124626377Y-106993284D01*
X124823553Y-107098676D01*
X125037501Y-107163577D01*
X125204248Y-107180000D01*
X126015752Y-107180000D01*
X126182499Y-107163577D01*
X126396447Y-107098676D01*
X126593623Y-106993284D01*
X126766449Y-106851449D01*
X126908284Y-106678623D01*
X127013676Y-106481447D01*
X127078577Y-106267499D01*
X127100491Y-106045000D01*
X127078577Y-105822501D01*
X127022305Y-105637000D01*
X127046570Y-105637000D01*
X127091388Y-105692364D01*
X127206473Y-105788112D01*
X127338025Y-105859568D01*
X127480991Y-105903986D01*
X127592568Y-105915732D01*
X146590231Y-106043233D01*
X146701955Y-106032986D01*
X146845505Y-105990491D01*
X146978004Y-105920807D01*
X146992931Y-105908723D01*
X146979509Y-106045000D01*
X147001423Y-106267499D01*
X147066324Y-106481447D01*
X147171716Y-106678623D01*
X147313551Y-106851449D01*
X147486377Y-106993284D01*
X147683553Y-107098676D01*
X147897501Y-107163577D01*
X148064248Y-107180000D01*
X148875752Y-107180000D01*
X149042499Y-107163577D01*
X149256447Y-107098676D01*
X149453623Y-106993284D01*
X149626449Y-106851449D01*
X149740000Y-106713087D01*
X149853551Y-106851449D01*
X149979876Y-106955122D01*
X149352392Y-107582607D01*
X149256447Y-107531324D01*
X149042499Y-107466423D01*
X148875752Y-107450000D01*
X148064248Y-107450000D01*
X147897501Y-107466423D01*
X147683553Y-107531324D01*
X147486377Y-107636716D01*
X147313551Y-107778551D01*
X147171716Y-107951377D01*
X147066324Y-108148553D01*
X147001423Y-108362501D01*
X146979509Y-108585000D01*
X147001423Y-108807499D01*
X147066324Y-109021447D01*
X147171716Y-109218623D01*
X147313551Y-109391449D01*
X147486377Y-109533284D01*
X147683553Y-109638676D01*
X147897501Y-109703577D01*
X148064248Y-109720000D01*
X148875752Y-109720000D01*
X149042499Y-109703577D01*
X149256447Y-109638676D01*
X149453623Y-109533284D01*
X149626449Y-109391449D01*
X149662980Y-109346936D01*
X149682633Y-109345000D01*
X149794286Y-109334003D01*
X149803990Y-109331059D01*
X149853551Y-109391449D01*
X150026377Y-109533284D01*
X150223553Y-109638676D01*
X150437501Y-109703577D01*
X150604248Y-109720000D01*
X151415752Y-109720000D01*
X151582499Y-109703577D01*
X151796447Y-109638676D01*
X151993623Y-109533284D01*
X152166449Y-109391449D01*
X152202981Y-109346935D01*
X152222622Y-109345000D01*
X152222633Y-109345000D01*
X152334286Y-109334003D01*
X152477547Y-109290546D01*
X152609576Y-109219974D01*
X152725301Y-109125001D01*
X152749104Y-109095997D01*
X155942203Y-105902899D01*
X155971201Y-105879101D01*
X156066174Y-105763376D01*
X156136746Y-105631347D01*
X156180203Y-105488086D01*
X156191200Y-105376433D01*
X156191200Y-105376423D01*
X156194876Y-105339100D01*
X156191200Y-105301777D01*
X156191200Y-87453601D01*
X156438446Y-87206355D01*
X156426598Y-87245415D01*
X156411924Y-87394400D01*
X156415601Y-87431733D01*
X156415600Y-108712997D01*
X152213147Y-112915452D01*
X152166449Y-112858551D01*
X151993623Y-112716716D01*
X151796447Y-112611324D01*
X151582499Y-112546423D01*
X151415752Y-112530000D01*
X150604248Y-112530000D01*
X150437501Y-112546423D01*
X150223553Y-112611324D01*
X150026377Y-112716716D01*
X149853551Y-112858551D01*
X149740766Y-112995979D01*
X149712369Y-112952236D01*
X149556169Y-112791839D01*
X149371678Y-112664997D01*
X149165987Y-112576585D01*
X148947000Y-112530000D01*
X148597000Y-112530000D01*
X148597000Y-113538000D01*
X148617000Y-113538000D01*
X148617000Y-113792000D01*
X148597000Y-113792000D01*
X148597000Y-114800000D01*
X148947000Y-114800000D01*
X149165987Y-114753415D01*
X149371678Y-114665003D01*
X149556169Y-114538161D01*
X149712369Y-114377764D01*
X149740766Y-114334021D01*
X149853551Y-114471449D01*
X149979876Y-114575122D01*
X149352392Y-115202607D01*
X149256447Y-115151324D01*
X149042499Y-115086423D01*
X148875752Y-115070000D01*
X148064248Y-115070000D01*
X147897501Y-115086423D01*
X147683553Y-115151324D01*
X147486377Y-115256716D01*
X147313551Y-115398551D01*
X147171716Y-115571377D01*
X147066324Y-115768553D01*
X147001423Y-115982501D01*
X146979509Y-116205000D01*
X146986384Y-116274800D01*
X127929902Y-116274800D01*
X127349103Y-115694002D01*
X127325301Y-115664999D01*
X127209576Y-115570026D01*
X127077547Y-115499454D01*
X126934286Y-115455997D01*
X126822633Y-115445000D01*
X126822622Y-115445000D01*
X126802981Y-115443065D01*
X126766449Y-115398551D01*
X126593623Y-115256716D01*
X126396447Y-115151324D01*
X126182499Y-115086423D01*
X126015752Y-115070000D01*
X125204248Y-115070000D01*
X125037501Y-115086423D01*
X124823553Y-115151324D01*
X124626377Y-115256716D01*
X124453551Y-115398551D01*
X124417020Y-115443064D01*
X124397367Y-115445000D01*
X124285714Y-115455997D01*
X124276010Y-115458941D01*
X124226449Y-115398551D01*
X124053623Y-115256716D01*
X123856447Y-115151324D01*
X123642499Y-115086423D01*
X123475752Y-115070000D01*
X122664248Y-115070000D01*
X122497501Y-115086423D01*
X122283553Y-115151324D01*
X122086377Y-115256716D01*
X121913551Y-115398551D01*
X121771716Y-115571377D01*
X121666324Y-115768553D01*
X121601423Y-115982501D01*
X121579509Y-116205000D01*
X121590638Y-116318000D01*
X115779362Y-116318000D01*
X115790491Y-116205000D01*
X115768577Y-115982501D01*
X115703676Y-115768553D01*
X115598284Y-115571377D01*
X115456449Y-115398551D01*
X115283623Y-115256716D01*
X115086447Y-115151324D01*
X114872499Y-115086423D01*
X114705752Y-115070000D01*
X113894248Y-115070000D01*
X113727501Y-115086423D01*
X113513553Y-115151324D01*
X113316377Y-115256716D01*
X113143551Y-115398551D01*
X113030000Y-115536913D01*
X112916449Y-115398551D01*
X112743623Y-115256716D01*
X112546447Y-115151324D01*
X112332499Y-115086423D01*
X112165752Y-115070000D01*
X111354248Y-115070000D01*
X111187501Y-115086423D01*
X110973553Y-115151324D01*
X110776377Y-115256716D01*
X110603551Y-115398551D01*
X110461716Y-115571377D01*
X110356324Y-115768553D01*
X110291423Y-115982501D01*
X110269509Y-116205000D01*
X110280638Y-116318000D01*
X91263102Y-116318000D01*
X90639103Y-115694002D01*
X90615301Y-115664999D01*
X90499576Y-115570026D01*
X90367547Y-115499454D01*
X90224286Y-115455997D01*
X90112633Y-115445000D01*
X90112622Y-115445000D01*
X90092981Y-115443065D01*
X90056449Y-115398551D01*
X89883623Y-115256716D01*
X89686447Y-115151324D01*
X89472499Y-115086423D01*
X89305752Y-115070000D01*
X88494248Y-115070000D01*
X88327501Y-115086423D01*
X88113553Y-115151324D01*
X87916377Y-115256716D01*
X87743551Y-115398551D01*
X87630000Y-115536913D01*
X87516449Y-115398551D01*
X87343623Y-115256716D01*
X87146447Y-115151324D01*
X86932499Y-115086423D01*
X86765752Y-115070000D01*
X85954248Y-115070000D01*
X85787501Y-115086423D01*
X85573553Y-115151324D01*
X85376377Y-115256716D01*
X85203551Y-115398551D01*
X85061716Y-115571377D01*
X84956324Y-115768553D01*
X84891423Y-115982501D01*
X84869509Y-116205000D01*
X84891423Y-116427499D01*
X84956324Y-116641447D01*
X85061716Y-116838623D01*
X85203551Y-117011449D01*
X85376377Y-117153284D01*
X85573553Y-117258676D01*
X85787501Y-117323577D01*
X85954248Y-117340000D01*
X86765752Y-117340000D01*
X86932499Y-117323577D01*
X87146447Y-117258676D01*
X87343623Y-117153284D01*
X87516449Y-117011449D01*
X87630000Y-116873087D01*
X87743551Y-117011449D01*
X87916377Y-117153284D01*
X88113553Y-117258676D01*
X88327501Y-117323577D01*
X88494248Y-117340000D01*
X89305752Y-117340000D01*
X89472499Y-117323577D01*
X89686447Y-117258676D01*
X89883623Y-117153284D01*
X89919411Y-117123913D01*
X90384505Y-117589008D01*
X90408299Y-117618001D01*
X90437292Y-117641795D01*
X90437296Y-117641799D01*
X90479099Y-117676105D01*
X90524024Y-117712974D01*
X90656053Y-117783546D01*
X90799314Y-117827003D01*
X90910967Y-117838000D01*
X90910976Y-117838000D01*
X90948299Y-117841676D01*
X90985622Y-117838000D01*
X110726072Y-117838000D01*
X110603551Y-117938551D01*
X110461716Y-118111377D01*
X110356324Y-118308553D01*
X110291423Y-118522501D01*
X110269509Y-118745000D01*
X110291423Y-118967499D01*
X110356324Y-119181447D01*
X110461716Y-119378623D01*
X110603551Y-119551449D01*
X110776377Y-119693284D01*
X110973553Y-119798676D01*
X111187501Y-119863577D01*
X111354248Y-119880000D01*
X112165752Y-119880000D01*
X112332499Y-119863577D01*
X112546447Y-119798676D01*
X112743623Y-119693284D01*
X112916449Y-119551449D01*
X113030000Y-119413087D01*
X113143551Y-119551449D01*
X113316377Y-119693284D01*
X113513553Y-119798676D01*
X113727501Y-119863577D01*
X113894248Y-119880000D01*
X114705752Y-119880000D01*
X114872499Y-119863577D01*
X115086447Y-119798676D01*
X115283623Y-119693284D01*
X115456449Y-119551449D01*
X115598284Y-119378623D01*
X115703676Y-119181447D01*
X115768577Y-118967499D01*
X115790491Y-118745000D01*
X115768577Y-118522501D01*
X115703676Y-118308553D01*
X115598284Y-118111377D01*
X115456449Y-117938551D01*
X115333928Y-117838000D01*
X122036072Y-117838000D01*
X121913551Y-117938551D01*
X121771716Y-118111377D01*
X121666324Y-118308553D01*
X121601423Y-118522501D01*
X121579509Y-118745000D01*
X121601423Y-118967499D01*
X121666324Y-119181447D01*
X121771716Y-119378623D01*
X121913551Y-119551449D01*
X122086377Y-119693284D01*
X122283553Y-119798676D01*
X122497501Y-119863577D01*
X122664248Y-119880000D01*
X123475752Y-119880000D01*
X123642499Y-119863577D01*
X123856447Y-119798676D01*
X124053623Y-119693284D01*
X124226449Y-119551449D01*
X124262980Y-119506936D01*
X124352659Y-119498103D01*
X124394286Y-119494003D01*
X124403990Y-119491059D01*
X124453551Y-119551449D01*
X124626377Y-119693284D01*
X124823553Y-119798676D01*
X125037501Y-119863577D01*
X125204248Y-119880000D01*
X126015752Y-119880000D01*
X126182499Y-119863577D01*
X126396447Y-119798676D01*
X126593623Y-119693284D01*
X126629412Y-119663913D01*
X127051201Y-120085702D01*
X127074999Y-120114701D01*
X127103997Y-120138499D01*
X127190723Y-120209674D01*
X127322753Y-120280246D01*
X127466014Y-120323703D01*
X127577667Y-120334700D01*
X127577677Y-120334700D01*
X127615000Y-120338376D01*
X127652322Y-120334700D01*
X160519778Y-120334700D01*
X160557100Y-120338376D01*
X160594422Y-120334700D01*
X160594433Y-120334700D01*
X160706086Y-120323703D01*
X160849347Y-120280246D01*
X160981376Y-120209674D01*
X161097101Y-120114701D01*
X161120903Y-120085698D01*
X161451685Y-119754917D01*
X161533553Y-119798676D01*
X161747501Y-119863577D01*
X161914248Y-119880000D01*
X162725752Y-119880000D01*
X162892499Y-119863577D01*
X163106447Y-119798676D01*
X163303623Y-119693284D01*
X163476449Y-119551449D01*
X163618284Y-119378623D01*
X163723676Y-119181447D01*
X163788577Y-118967499D01*
X163810491Y-118745000D01*
X183689509Y-118745000D01*
X183711423Y-118967499D01*
X183776324Y-119181447D01*
X183881716Y-119378623D01*
X184023551Y-119551449D01*
X184196377Y-119693284D01*
X184393553Y-119798676D01*
X184607501Y-119863577D01*
X184774248Y-119880000D01*
X185585752Y-119880000D01*
X185752499Y-119863577D01*
X185966447Y-119798676D01*
X186163623Y-119693284D01*
X186336449Y-119551449D01*
X186450000Y-119413087D01*
X186563551Y-119551449D01*
X186736377Y-119693284D01*
X186933553Y-119798676D01*
X187147501Y-119863577D01*
X187314248Y-119880000D01*
X188125752Y-119880000D01*
X188292499Y-119863577D01*
X188506447Y-119798676D01*
X188703623Y-119693284D01*
X188876449Y-119551449D01*
X189018284Y-119378623D01*
X189123676Y-119181447D01*
X189188577Y-118967499D01*
X189210491Y-118745000D01*
X189188577Y-118522501D01*
X189123676Y-118308553D01*
X189018284Y-118111377D01*
X188876449Y-117938551D01*
X188703623Y-117796716D01*
X188506447Y-117691324D01*
X188292499Y-117626423D01*
X188125752Y-117610000D01*
X187314248Y-117610000D01*
X187147501Y-117626423D01*
X186933553Y-117691324D01*
X186736377Y-117796716D01*
X186563551Y-117938551D01*
X186450000Y-118076913D01*
X186336449Y-117938551D01*
X186163623Y-117796716D01*
X185966447Y-117691324D01*
X185752499Y-117626423D01*
X185585752Y-117610000D01*
X184774248Y-117610000D01*
X184607501Y-117626423D01*
X184393553Y-117691324D01*
X184196377Y-117796716D01*
X184023551Y-117938551D01*
X183881716Y-118111377D01*
X183776324Y-118308553D01*
X183711423Y-118522501D01*
X183689509Y-118745000D01*
X163810491Y-118745000D01*
X163788577Y-118522501D01*
X163723676Y-118308553D01*
X163618284Y-118111377D01*
X163476449Y-117938551D01*
X163303623Y-117796716D01*
X163106447Y-117691324D01*
X162892499Y-117626423D01*
X162725752Y-117610000D01*
X161914248Y-117610000D01*
X161747501Y-117626423D01*
X161533553Y-117691324D01*
X161336377Y-117796716D01*
X161163551Y-117938551D01*
X161127020Y-117983064D01*
X161107367Y-117985000D01*
X160995714Y-117995997D01*
X160986010Y-117998941D01*
X160936449Y-117938551D01*
X160763623Y-117796716D01*
X160727452Y-117777382D01*
X160849547Y-117740346D01*
X160981576Y-117669774D01*
X161097301Y-117574801D01*
X161121103Y-117545798D01*
X161451880Y-117215021D01*
X161533553Y-117258676D01*
X161747501Y-117323577D01*
X161914248Y-117340000D01*
X162725752Y-117340000D01*
X162892499Y-117323577D01*
X163106447Y-117258676D01*
X163303623Y-117153284D01*
X163476449Y-117011449D01*
X163618284Y-116838623D01*
X163723676Y-116641447D01*
X163788577Y-116427499D01*
X163810491Y-116205000D01*
X163788577Y-115982501D01*
X163723676Y-115768553D01*
X163618284Y-115571377D01*
X163594996Y-115543000D01*
X163857395Y-115543000D01*
X163893500Y-115546556D01*
X163929605Y-115543000D01*
X164037585Y-115532365D01*
X164176133Y-115490337D01*
X164303820Y-115422087D01*
X164415738Y-115330238D01*
X164438758Y-115302188D01*
X165774072Y-113966874D01*
X183735881Y-113966874D01*
X183815724Y-114189976D01*
X183937631Y-114377764D01*
X184093831Y-114538161D01*
X184278322Y-114665003D01*
X184484013Y-114753415D01*
X184703000Y-114800000D01*
X185053000Y-114800000D01*
X185053000Y-113792000D01*
X183862046Y-113792000D01*
X183735881Y-113966874D01*
X165774072Y-113966874D01*
X166190957Y-113549990D01*
X185327000Y-113549990D01*
X185327000Y-113792000D01*
X185307000Y-113792000D01*
X185307000Y-114800000D01*
X185657000Y-114800000D01*
X185851514Y-114758621D01*
X185857772Y-114766247D01*
X185885818Y-114789264D01*
X186398746Y-115302193D01*
X186421762Y-115330238D01*
X186533680Y-115422087D01*
X186541017Y-115426009D01*
X186450000Y-115536913D01*
X186336449Y-115398551D01*
X186163623Y-115256716D01*
X185966447Y-115151324D01*
X185752499Y-115086423D01*
X185585752Y-115070000D01*
X184774248Y-115070000D01*
X184607501Y-115086423D01*
X184393553Y-115151324D01*
X184196377Y-115256716D01*
X184023551Y-115398551D01*
X183881716Y-115571377D01*
X183776324Y-115768553D01*
X183711423Y-115982501D01*
X183689509Y-116205000D01*
X183711423Y-116427499D01*
X183776324Y-116641447D01*
X183881716Y-116838623D01*
X184023551Y-117011449D01*
X184196377Y-117153284D01*
X184393553Y-117258676D01*
X184607501Y-117323577D01*
X184774248Y-117340000D01*
X185585752Y-117340000D01*
X185752499Y-117323577D01*
X185966447Y-117258676D01*
X186163623Y-117153284D01*
X186336449Y-117011449D01*
X186450000Y-116873087D01*
X186563551Y-117011449D01*
X186736377Y-117153284D01*
X186933553Y-117258676D01*
X187147501Y-117323577D01*
X187314248Y-117340000D01*
X188125752Y-117340000D01*
X188292499Y-117323577D01*
X188506447Y-117258676D01*
X188703623Y-117153284D01*
X188876449Y-117011449D01*
X189018284Y-116838623D01*
X189123676Y-116641447D01*
X189141091Y-116584037D01*
X193510746Y-120953693D01*
X193533762Y-120981738D01*
X193645680Y-121073587D01*
X193773367Y-121141837D01*
X193911915Y-121183865D01*
X194056000Y-121198056D01*
X194092105Y-121194500D01*
X199709395Y-121194500D01*
X199745500Y-121198056D01*
X199781605Y-121194500D01*
X199889585Y-121183865D01*
X200028133Y-121141837D01*
X200155820Y-121073587D01*
X200267738Y-120981738D01*
X200290759Y-120953687D01*
X200519187Y-120725259D01*
X200547238Y-120702238D01*
X200639087Y-120590320D01*
X200658349Y-120554283D01*
X200749901Y-120526511D01*
X200964449Y-120411833D01*
X201152502Y-120257502D01*
X201306833Y-120069449D01*
X201421511Y-119854901D01*
X201492130Y-119622102D01*
X201515975Y-119380000D01*
X201492130Y-119137898D01*
X201421511Y-118905099D01*
X201372802Y-118813971D01*
X201484800Y-118754107D01*
X201596718Y-118662258D01*
X201619739Y-118634207D01*
X201789187Y-118464759D01*
X201817238Y-118441738D01*
X201909087Y-118329820D01*
X201977337Y-118202133D01*
X202019365Y-118063585D01*
X202030000Y-117955605D01*
X202030000Y-117955596D01*
X202033555Y-117919501D01*
X202030000Y-117883406D01*
X202030000Y-116241105D01*
X202033556Y-116205000D01*
X202019365Y-116060915D01*
X201977337Y-115922366D01*
X201909087Y-115794680D01*
X201840253Y-115710806D01*
X201840250Y-115710803D01*
X201817237Y-115682762D01*
X201789197Y-115659750D01*
X201222119Y-115092673D01*
X201306833Y-114989449D01*
X201421511Y-114774901D01*
X201492130Y-114542102D01*
X201515975Y-114300000D01*
X201492130Y-114057898D01*
X201421511Y-113825099D01*
X201306833Y-113610551D01*
X201152502Y-113422498D01*
X201146706Y-113417741D01*
X201719207Y-112845240D01*
X201747247Y-112822228D01*
X201770260Y-112794187D01*
X201770263Y-112794184D01*
X201839096Y-112710311D01*
X201839097Y-112710310D01*
X201907347Y-112582623D01*
X201949375Y-112444075D01*
X201960010Y-112336095D01*
X201960010Y-112336086D01*
X201963565Y-112299991D01*
X201960010Y-112263896D01*
X201960010Y-86073309D01*
X201963566Y-86037204D01*
X201949375Y-85893119D01*
X201907347Y-85754570D01*
X201839097Y-85626884D01*
X201770263Y-85543010D01*
X201747248Y-85514966D01*
X201719203Y-85491950D01*
X201027413Y-84800160D01*
X201152502Y-84697502D01*
X201306833Y-84509449D01*
X201421511Y-84294901D01*
X201492130Y-84062102D01*
X201515975Y-83820000D01*
X201492130Y-83577898D01*
X201421511Y-83345099D01*
X201306833Y-83130551D01*
X201152502Y-82942498D01*
X200964449Y-82788167D01*
X200749901Y-82673489D01*
X200517102Y-82602870D01*
X200335665Y-82585000D01*
X199714335Y-82585000D01*
X199532898Y-82602870D01*
X199300099Y-82673489D01*
X199085551Y-82788167D01*
X198897498Y-82942498D01*
X198755000Y-83116132D01*
X198612502Y-82942498D01*
X198424449Y-82788167D01*
X198209901Y-82673489D01*
X197977102Y-82602870D01*
X197795665Y-82585000D01*
X197174335Y-82585000D01*
X196992898Y-82602870D01*
X196760099Y-82673489D01*
X196545551Y-82788167D01*
X196357498Y-82942498D01*
X196203167Y-83130551D01*
X196088489Y-83345099D01*
X196017870Y-83577898D01*
X196004553Y-83713106D01*
X193571447Y-81280000D01*
X195994025Y-81280000D01*
X196017870Y-81522102D01*
X196088489Y-81754901D01*
X196203167Y-81969449D01*
X196357498Y-82157502D01*
X196545551Y-82311833D01*
X196760099Y-82426511D01*
X196992898Y-82497130D01*
X197174335Y-82515000D01*
X197795665Y-82515000D01*
X197977102Y-82497130D01*
X198209901Y-82426511D01*
X198424449Y-82311833D01*
X198612502Y-82157502D01*
X198755000Y-81983868D01*
X198897498Y-82157502D01*
X199085551Y-82311833D01*
X199300099Y-82426511D01*
X199532898Y-82497130D01*
X199714335Y-82515000D01*
X200335665Y-82515000D01*
X200517102Y-82497130D01*
X200749901Y-82426511D01*
X200964449Y-82311833D01*
X201152502Y-82157502D01*
X201306833Y-81969449D01*
X201421511Y-81754901D01*
X201492130Y-81522102D01*
X201515975Y-81280000D01*
X201492130Y-81037898D01*
X201421511Y-80805099D01*
X201306833Y-80590551D01*
X201152502Y-80402498D01*
X200964449Y-80248167D01*
X200749901Y-80133489D01*
X200517102Y-80062870D01*
X200335665Y-80045000D01*
X199714335Y-80045000D01*
X199532898Y-80062870D01*
X199300099Y-80133489D01*
X199085551Y-80248167D01*
X198897498Y-80402498D01*
X198755000Y-80576132D01*
X198612502Y-80402498D01*
X198424449Y-80248167D01*
X198209901Y-80133489D01*
X197977102Y-80062870D01*
X197795665Y-80045000D01*
X197174335Y-80045000D01*
X196992898Y-80062870D01*
X196760099Y-80133489D01*
X196545551Y-80248167D01*
X196357498Y-80402498D01*
X196203167Y-80590551D01*
X196088489Y-80805099D01*
X196017870Y-81037898D01*
X195994025Y-81280000D01*
X193571447Y-81280000D01*
X192696259Y-80404813D01*
X192673238Y-80376762D01*
X192561320Y-80284913D01*
X192433633Y-80216663D01*
X192295085Y-80174635D01*
X192258197Y-80171002D01*
X192135502Y-80021498D01*
X191986238Y-79899000D01*
X192135502Y-79776502D01*
X192289833Y-79588449D01*
X192404511Y-79373901D01*
X192475130Y-79141102D01*
X192498975Y-78899000D01*
X192475130Y-78656898D01*
X192404511Y-78424099D01*
X192289833Y-78209551D01*
X192135502Y-78021498D01*
X191986238Y-77899000D01*
X192135502Y-77776502D01*
X192289833Y-77588449D01*
X192404511Y-77373901D01*
X192475130Y-77141102D01*
X192498975Y-76899000D01*
X192475130Y-76656898D01*
X192404511Y-76424099D01*
X192289833Y-76209551D01*
X192135502Y-76021498D01*
X191986238Y-75899000D01*
X192135502Y-75776502D01*
X192289833Y-75588449D01*
X192404511Y-75373901D01*
X192475130Y-75141102D01*
X192498975Y-74899000D01*
X192475130Y-74656898D01*
X192404511Y-74424099D01*
X192289833Y-74209551D01*
X192135502Y-74021498D01*
X191947449Y-73867167D01*
X191732901Y-73752489D01*
X191500102Y-73681870D01*
X191318665Y-73664000D01*
X190697335Y-73664000D01*
X190515898Y-73681870D01*
X190283099Y-73752489D01*
X190068551Y-73867167D01*
X189880498Y-74021498D01*
X189726167Y-74209551D01*
X189611489Y-74424099D01*
X189540870Y-74656898D01*
X189517025Y-74899000D01*
X189540870Y-75141102D01*
X189611489Y-75373901D01*
X189726167Y-75588449D01*
X189880498Y-75776502D01*
X190029762Y-75899000D01*
X189880498Y-76021498D01*
X189726167Y-76209551D01*
X189611489Y-76424099D01*
X189540870Y-76656898D01*
X189517025Y-76899000D01*
X189524954Y-76979507D01*
X184568259Y-72022813D01*
X184545238Y-71994762D01*
X184433320Y-71902913D01*
X184305633Y-71834663D01*
X184167085Y-71792635D01*
X184059105Y-71782000D01*
X184038798Y-71780000D01*
X202843563Y-71780000D01*
X202708630Y-71914933D01*
X202496254Y-72232776D01*
X202349966Y-72585945D01*
X202275390Y-72960867D01*
X202275390Y-73343133D01*
X202349966Y-73718055D01*
X202496254Y-74071224D01*
X202708630Y-74389067D01*
X202978933Y-74659370D01*
X203296776Y-74871746D01*
X203649945Y-75018034D01*
X204024867Y-75092610D01*
X204407133Y-75092610D01*
X204782055Y-75018034D01*
X205135224Y-74871746D01*
X205453067Y-74659370D01*
X205588000Y-74524437D01*
X205588001Y-122706564D01*
X205453067Y-122571630D01*
X205135224Y-122359254D01*
X204782055Y-122212966D01*
X204407133Y-122138390D01*
X204024867Y-122138390D01*
X203649945Y-122212966D01*
X203296776Y-122359254D01*
X202978933Y-122571630D01*
X202708630Y-122841933D01*
X202496254Y-123159776D01*
X202349966Y-123512945D01*
X202275390Y-123887867D01*
X202275390Y-124270133D01*
X202349966Y-124645055D01*
X202496254Y-124998224D01*
X202708630Y-125316067D01*
X202843563Y-125451000D01*
X71603437Y-125451000D01*
X71738370Y-125316067D01*
X71950746Y-124998224D01*
X72097034Y-124645055D01*
X72171610Y-124270133D01*
X72171610Y-123887867D01*
X72097034Y-123512945D01*
X71950746Y-123159776D01*
X71738370Y-122841933D01*
X71468067Y-122571630D01*
X71165325Y-122369344D01*
X98445000Y-122369344D01*
X98445000Y-122740656D01*
X98517439Y-123104834D01*
X98659534Y-123447882D01*
X98865825Y-123756618D01*
X99128382Y-124019175D01*
X99437118Y-124225466D01*
X99780166Y-124367561D01*
X100144344Y-124440000D01*
X100515656Y-124440000D01*
X100879834Y-124367561D01*
X101222882Y-124225466D01*
X101531618Y-124019175D01*
X101794175Y-123756618D01*
X102000466Y-123447882D01*
X102142561Y-123104834D01*
X102215000Y-122740656D01*
X102215000Y-122369344D01*
X135155000Y-122369344D01*
X135155000Y-122740656D01*
X135227439Y-123104834D01*
X135369534Y-123447882D01*
X135575825Y-123756618D01*
X135838382Y-124019175D01*
X136147118Y-124225466D01*
X136490166Y-124367561D01*
X136854344Y-124440000D01*
X137225656Y-124440000D01*
X137589834Y-124367561D01*
X137932882Y-124225466D01*
X138241618Y-124019175D01*
X138504175Y-123756618D01*
X138710466Y-123447882D01*
X138852561Y-123104834D01*
X138925000Y-122740656D01*
X138925000Y-122369344D01*
X171865000Y-122369344D01*
X171865000Y-122740656D01*
X171937439Y-123104834D01*
X172079534Y-123447882D01*
X172285825Y-123756618D01*
X172548382Y-124019175D01*
X172857118Y-124225466D01*
X173200166Y-124367561D01*
X173564344Y-124440000D01*
X173935656Y-124440000D01*
X174299834Y-124367561D01*
X174642882Y-124225466D01*
X174951618Y-124019175D01*
X175214175Y-123756618D01*
X175420466Y-123447882D01*
X175562561Y-123104834D01*
X175635000Y-122740656D01*
X175635000Y-122369344D01*
X175562561Y-122005166D01*
X175420466Y-121662118D01*
X175214175Y-121353382D01*
X174951618Y-121090825D01*
X174642882Y-120884534D01*
X174299834Y-120742439D01*
X173935656Y-120670000D01*
X173564344Y-120670000D01*
X173200166Y-120742439D01*
X172857118Y-120884534D01*
X172548382Y-121090825D01*
X172285825Y-121353382D01*
X172079534Y-121662118D01*
X171937439Y-122005166D01*
X171865000Y-122369344D01*
X138925000Y-122369344D01*
X138852561Y-122005166D01*
X138710466Y-121662118D01*
X138504175Y-121353382D01*
X138241618Y-121090825D01*
X137932882Y-120884534D01*
X137589834Y-120742439D01*
X137225656Y-120670000D01*
X136854344Y-120670000D01*
X136490166Y-120742439D01*
X136147118Y-120884534D01*
X135838382Y-121090825D01*
X135575825Y-121353382D01*
X135369534Y-121662118D01*
X135227439Y-122005166D01*
X135155000Y-122369344D01*
X102215000Y-122369344D01*
X102142561Y-122005166D01*
X102000466Y-121662118D01*
X101794175Y-121353382D01*
X101531618Y-121090825D01*
X101222882Y-120884534D01*
X100879834Y-120742439D01*
X100515656Y-120670000D01*
X100144344Y-120670000D01*
X99780166Y-120742439D01*
X99437118Y-120884534D01*
X99128382Y-121090825D01*
X98865825Y-121353382D01*
X98659534Y-121662118D01*
X98517439Y-122005166D01*
X98445000Y-122369344D01*
X71165325Y-122369344D01*
X71150224Y-122359254D01*
X70797055Y-122212966D01*
X70422133Y-122138390D01*
X70039867Y-122138390D01*
X69664945Y-122212966D01*
X69311776Y-122359254D01*
X68993933Y-122571630D01*
X68859000Y-122706563D01*
X68859000Y-99060000D01*
X72169025Y-99060000D01*
X72192870Y-99302102D01*
X72263489Y-99534901D01*
X72378167Y-99749449D01*
X72532498Y-99937502D01*
X72720551Y-100091833D01*
X72935099Y-100206511D01*
X73167898Y-100277130D01*
X73349335Y-100295000D01*
X73970665Y-100295000D01*
X74152102Y-100277130D01*
X74384901Y-100206511D01*
X74599449Y-100091833D01*
X74787502Y-99937502D01*
X74928379Y-99765843D01*
X75018062Y-99889128D01*
X75197724Y-100055009D01*
X75406295Y-100182652D01*
X75635761Y-100267152D01*
X75877303Y-100305262D01*
X76073000Y-100142553D01*
X76073000Y-99187000D01*
X76327000Y-99187000D01*
X76327000Y-100142553D01*
X76522697Y-100305262D01*
X76764239Y-100267152D01*
X76993705Y-100182652D01*
X77202276Y-100055009D01*
X77381938Y-99889128D01*
X77525786Y-99691384D01*
X77628292Y-99469377D01*
X77643462Y-99377609D01*
X77518731Y-99187000D01*
X76327000Y-99187000D01*
X76073000Y-99187000D01*
X76053000Y-99187000D01*
X76053000Y-98933000D01*
X76073000Y-98933000D01*
X76073000Y-97977447D01*
X76327000Y-97977447D01*
X76327000Y-98933000D01*
X77518731Y-98933000D01*
X77643462Y-98742391D01*
X77628292Y-98650623D01*
X77525786Y-98428616D01*
X77381938Y-98230872D01*
X77202276Y-98064991D01*
X76993705Y-97937348D01*
X76764239Y-97852848D01*
X76522697Y-97814738D01*
X76327000Y-97977447D01*
X76073000Y-97977447D01*
X75877303Y-97814738D01*
X75635761Y-97852848D01*
X75406295Y-97937348D01*
X75197724Y-98064991D01*
X75018062Y-98230872D01*
X74928379Y-98354157D01*
X74787502Y-98182498D01*
X74599449Y-98028167D01*
X74384901Y-97913489D01*
X74152102Y-97842870D01*
X73970665Y-97825000D01*
X73349335Y-97825000D01*
X73167898Y-97842870D01*
X72935099Y-97913489D01*
X72720551Y-98028167D01*
X72532498Y-98182498D01*
X72378167Y-98370551D01*
X72263489Y-98585099D01*
X72192870Y-98817898D01*
X72169025Y-99060000D01*
X68859000Y-99060000D01*
X68859000Y-96520000D01*
X72169025Y-96520000D01*
X72192870Y-96762102D01*
X72263489Y-96994901D01*
X72378167Y-97209449D01*
X72532498Y-97397502D01*
X72720551Y-97551833D01*
X72935099Y-97666511D01*
X73167898Y-97737130D01*
X73349335Y-97755000D01*
X73970665Y-97755000D01*
X74152102Y-97737130D01*
X74384901Y-97666511D01*
X74599449Y-97551833D01*
X74787502Y-97397502D01*
X74930000Y-97223868D01*
X75072498Y-97397502D01*
X75260551Y-97551833D01*
X75475099Y-97666511D01*
X75707898Y-97737130D01*
X75889335Y-97755000D01*
X76510665Y-97755000D01*
X76692102Y-97737130D01*
X76924901Y-97666511D01*
X77139449Y-97551833D01*
X77327502Y-97397502D01*
X77481833Y-97209449D01*
X77596511Y-96994901D01*
X77667130Y-96762102D01*
X77690975Y-96520000D01*
X77667130Y-96277898D01*
X77596511Y-96045099D01*
X77481833Y-95830551D01*
X77327502Y-95642498D01*
X77139449Y-95488167D01*
X76924901Y-95373489D01*
X76692102Y-95302870D01*
X76510665Y-95285000D01*
X75889335Y-95285000D01*
X75707898Y-95302870D01*
X75475099Y-95373489D01*
X75260551Y-95488167D01*
X75072498Y-95642498D01*
X74930000Y-95816132D01*
X74787502Y-95642498D01*
X74599449Y-95488167D01*
X74384901Y-95373489D01*
X74152102Y-95302870D01*
X73970665Y-95285000D01*
X73349335Y-95285000D01*
X73167898Y-95302870D01*
X72935099Y-95373489D01*
X72720551Y-95488167D01*
X72532498Y-95642498D01*
X72378167Y-95830551D01*
X72263489Y-96045099D01*
X72192870Y-96277898D01*
X72169025Y-96520000D01*
X68859000Y-96520000D01*
X68859000Y-88900000D01*
X72169025Y-88900000D01*
X72192870Y-89142102D01*
X72263489Y-89374901D01*
X72378167Y-89589449D01*
X72532498Y-89777502D01*
X72720551Y-89931833D01*
X72935099Y-90046511D01*
X73167898Y-90117130D01*
X73349335Y-90135000D01*
X73970665Y-90135000D01*
X74152102Y-90117130D01*
X74384901Y-90046511D01*
X74599449Y-89931833D01*
X74787502Y-89777502D01*
X74930000Y-89603868D01*
X75072498Y-89777502D01*
X75260551Y-89931833D01*
X75475099Y-90046511D01*
X75707898Y-90117130D01*
X75889335Y-90135000D01*
X76510665Y-90135000D01*
X76692102Y-90117130D01*
X76924901Y-90046511D01*
X77139449Y-89931833D01*
X77327502Y-89777502D01*
X77481833Y-89589449D01*
X77596511Y-89374901D01*
X77667130Y-89142102D01*
X77690975Y-88900000D01*
X77667130Y-88657898D01*
X77596511Y-88425099D01*
X77481833Y-88210551D01*
X77327502Y-88022498D01*
X77139449Y-87868167D01*
X76924901Y-87753489D01*
X76692102Y-87682870D01*
X76510665Y-87665000D01*
X75889335Y-87665000D01*
X75707898Y-87682870D01*
X75475099Y-87753489D01*
X75260551Y-87868167D01*
X75072498Y-88022498D01*
X74930000Y-88196132D01*
X74787502Y-88022498D01*
X74599449Y-87868167D01*
X74384901Y-87753489D01*
X74152102Y-87682870D01*
X73970665Y-87665000D01*
X73349335Y-87665000D01*
X73167898Y-87682870D01*
X72935099Y-87753489D01*
X72720551Y-87868167D01*
X72532498Y-88022498D01*
X72378167Y-88210551D01*
X72263489Y-88425099D01*
X72192870Y-88657898D01*
X72169025Y-88900000D01*
X68859000Y-88900000D01*
X68859000Y-74524437D01*
X68993933Y-74659370D01*
X69311776Y-74871746D01*
X69664945Y-75018034D01*
X70039867Y-75092610D01*
X70422133Y-75092610D01*
X70797055Y-75018034D01*
X71150224Y-74871746D01*
X71468067Y-74659370D01*
X71738370Y-74389067D01*
X71950746Y-74071224D01*
X72097034Y-73718055D01*
X72171610Y-73343133D01*
X72171610Y-72960867D01*
X72097034Y-72585945D01*
X71950746Y-72232776D01*
X71738370Y-71914933D01*
X71603437Y-71780000D01*
X163975201Y-71780000D01*
X163846914Y-71792635D01*
G36*
X198897498Y-92317502D02*
G01*
X199085551Y-92471833D01*
X199300099Y-92586511D01*
X199532898Y-92657130D01*
X199714335Y-92675000D01*
X200335665Y-92675000D01*
X200490011Y-92659798D01*
X200490011Y-92760202D01*
X200335665Y-92745000D01*
X199714335Y-92745000D01*
X199532898Y-92762870D01*
X199300099Y-92833489D01*
X199085551Y-92948167D01*
X198897498Y-93102498D01*
X198755000Y-93276132D01*
X198612502Y-93102498D01*
X198424449Y-92948167D01*
X198209901Y-92833489D01*
X197977102Y-92762870D01*
X197795665Y-92745000D01*
X197174335Y-92745000D01*
X196992898Y-92762870D01*
X196760099Y-92833489D01*
X196545551Y-92948167D01*
X196357498Y-93102498D01*
X196203167Y-93290551D01*
X196088489Y-93505099D01*
X196017870Y-93737898D01*
X195994025Y-93980000D01*
X196017870Y-94222102D01*
X196088489Y-94454901D01*
X196203167Y-94669449D01*
X196357498Y-94857502D01*
X196545551Y-95011833D01*
X196760099Y-95126511D01*
X196992898Y-95197130D01*
X197174335Y-95215000D01*
X197795665Y-95215000D01*
X197977102Y-95197130D01*
X198209901Y-95126511D01*
X198424449Y-95011833D01*
X198612502Y-94857502D01*
X198755000Y-94683868D01*
X198897498Y-94857502D01*
X199085551Y-95011833D01*
X199300099Y-95126511D01*
X199532898Y-95197130D01*
X199714335Y-95215000D01*
X200335665Y-95215000D01*
X200490011Y-95199798D01*
X200490011Y-95300202D01*
X200335665Y-95285000D01*
X199714335Y-95285000D01*
X199532898Y-95302870D01*
X199300099Y-95373489D01*
X199085551Y-95488167D01*
X198897498Y-95642498D01*
X198755000Y-95816132D01*
X198612502Y-95642498D01*
X198424449Y-95488167D01*
X198209901Y-95373489D01*
X197977102Y-95302870D01*
X197795665Y-95285000D01*
X197174335Y-95285000D01*
X196992898Y-95302870D01*
X196760099Y-95373489D01*
X196545551Y-95488167D01*
X196357498Y-95642498D01*
X196203167Y-95830551D01*
X196088489Y-96045099D01*
X196017870Y-96277898D01*
X195994025Y-96520000D01*
X196017870Y-96762102D01*
X196088489Y-96994901D01*
X196203167Y-97209449D01*
X196357498Y-97397502D01*
X196545551Y-97551833D01*
X196760099Y-97666511D01*
X196992898Y-97737130D01*
X197174335Y-97755000D01*
X197795665Y-97755000D01*
X197977102Y-97737130D01*
X198209901Y-97666511D01*
X198424449Y-97551833D01*
X198612502Y-97397502D01*
X198755000Y-97223868D01*
X198897498Y-97397502D01*
X198903294Y-97402259D01*
X198334227Y-97971327D01*
X198278705Y-97937348D01*
X198049239Y-97852848D01*
X197807697Y-97814738D01*
X197612000Y-97977447D01*
X197612000Y-98933000D01*
X197632000Y-98933000D01*
X197632000Y-99187000D01*
X197612000Y-99187000D01*
X197612000Y-100142553D01*
X197807697Y-100305262D01*
X198049239Y-100267152D01*
X198089990Y-100252146D01*
X198089990Y-100417114D01*
X197977102Y-100382870D01*
X197795665Y-100365000D01*
X197174335Y-100365000D01*
X196992898Y-100382870D01*
X196760099Y-100453489D01*
X196545551Y-100568167D01*
X196357498Y-100722498D01*
X196203167Y-100910551D01*
X196088489Y-101125099D01*
X196017870Y-101357898D01*
X195994025Y-101600000D01*
X196017870Y-101842102D01*
X196088489Y-102074901D01*
X196203167Y-102289449D01*
X196357498Y-102477502D01*
X196545551Y-102631833D01*
X196760099Y-102746511D01*
X196992898Y-102817130D01*
X197174335Y-102835000D01*
X197795665Y-102835000D01*
X197977102Y-102817130D01*
X198089990Y-102782886D01*
X198089990Y-102957114D01*
X197977102Y-102922870D01*
X197795665Y-102905000D01*
X197174335Y-102905000D01*
X196992898Y-102922870D01*
X196760099Y-102993489D01*
X196545551Y-103108167D01*
X196439611Y-103195109D01*
X192622111Y-99377609D01*
X196041538Y-99377609D01*
X196056708Y-99469377D01*
X196159214Y-99691384D01*
X196303062Y-99889128D01*
X196482724Y-100055009D01*
X196691295Y-100182652D01*
X196920761Y-100267152D01*
X197162303Y-100305262D01*
X197358000Y-100142553D01*
X197358000Y-99187000D01*
X196166269Y-99187000D01*
X196041538Y-99377609D01*
X192622111Y-99377609D01*
X191986893Y-98742391D01*
X196041538Y-98742391D01*
X196166269Y-98933000D01*
X197358000Y-98933000D01*
X197358000Y-97977447D01*
X197162303Y-97814738D01*
X196920761Y-97852848D01*
X196691295Y-97937348D01*
X196482724Y-98064991D01*
X196303062Y-98230872D01*
X196159214Y-98428616D01*
X196056708Y-98650623D01*
X196041538Y-98742391D01*
X191986893Y-98742391D01*
X191158504Y-97914003D01*
X191134701Y-97884999D01*
X191018976Y-97790026D01*
X190990233Y-97774662D01*
X191084876Y-97724074D01*
X191200601Y-97629101D01*
X191224404Y-97600097D01*
X196439611Y-92384891D01*
X196545551Y-92471833D01*
X196760099Y-92586511D01*
X196992898Y-92657130D01*
X197174335Y-92675000D01*
X197795665Y-92675000D01*
X197977102Y-92657130D01*
X198209901Y-92586511D01*
X198424449Y-92471833D01*
X198612502Y-92317502D01*
X198755000Y-92143868D01*
X198897498Y-92317502D01*
G37*
X198897498Y-92317502D02*
X199085551Y-92471833D01*
X199300099Y-92586511D01*
X199532898Y-92657130D01*
X199714335Y-92675000D01*
X200335665Y-92675000D01*
X200490011Y-92659798D01*
X200490011Y-92760202D01*
X200335665Y-92745000D01*
X199714335Y-92745000D01*
X199532898Y-92762870D01*
X199300099Y-92833489D01*
X199085551Y-92948167D01*
X198897498Y-93102498D01*
X198755000Y-93276132D01*
X198612502Y-93102498D01*
X198424449Y-92948167D01*
X198209901Y-92833489D01*
X197977102Y-92762870D01*
X197795665Y-92745000D01*
X197174335Y-92745000D01*
X196992898Y-92762870D01*
X196760099Y-92833489D01*
X196545551Y-92948167D01*
X196357498Y-93102498D01*
X196203167Y-93290551D01*
X196088489Y-93505099D01*
X196017870Y-93737898D01*
X195994025Y-93980000D01*
X196017870Y-94222102D01*
X196088489Y-94454901D01*
X196203167Y-94669449D01*
X196357498Y-94857502D01*
X196545551Y-95011833D01*
X196760099Y-95126511D01*
X196992898Y-95197130D01*
X197174335Y-95215000D01*
X197795665Y-95215000D01*
X197977102Y-95197130D01*
X198209901Y-95126511D01*
X198424449Y-95011833D01*
X198612502Y-94857502D01*
X198755000Y-94683868D01*
X198897498Y-94857502D01*
X199085551Y-95011833D01*
X199300099Y-95126511D01*
X199532898Y-95197130D01*
X199714335Y-95215000D01*
X200335665Y-95215000D01*
X200490011Y-95199798D01*
X200490011Y-95300202D01*
X200335665Y-95285000D01*
X199714335Y-95285000D01*
X199532898Y-95302870D01*
X199300099Y-95373489D01*
X199085551Y-95488167D01*
X198897498Y-95642498D01*
X198755000Y-95816132D01*
X198612502Y-95642498D01*
X198424449Y-95488167D01*
X198209901Y-95373489D01*
X197977102Y-95302870D01*
X197795665Y-95285000D01*
X197174335Y-95285000D01*
X196992898Y-95302870D01*
X196760099Y-95373489D01*
X196545551Y-95488167D01*
X196357498Y-95642498D01*
X196203167Y-95830551D01*
X196088489Y-96045099D01*
X196017870Y-96277898D01*
X195994025Y-96520000D01*
X196017870Y-96762102D01*
X196088489Y-96994901D01*
X196203167Y-97209449D01*
X196357498Y-97397502D01*
X196545551Y-97551833D01*
X196760099Y-97666511D01*
X196992898Y-97737130D01*
X197174335Y-97755000D01*
X197795665Y-97755000D01*
X197977102Y-97737130D01*
X198209901Y-97666511D01*
X198424449Y-97551833D01*
X198612502Y-97397502D01*
X198755000Y-97223868D01*
X198897498Y-97397502D01*
X198903294Y-97402259D01*
X198334227Y-97971327D01*
X198278705Y-97937348D01*
X198049239Y-97852848D01*
X197807697Y-97814738D01*
X197612000Y-97977447D01*
X197612000Y-98933000D01*
X197632000Y-98933000D01*
X197632000Y-99187000D01*
X197612000Y-99187000D01*
X197612000Y-100142553D01*
X197807697Y-100305262D01*
X198049239Y-100267152D01*
X198089990Y-100252146D01*
X198089990Y-100417114D01*
X197977102Y-100382870D01*
X197795665Y-100365000D01*
X197174335Y-100365000D01*
X196992898Y-100382870D01*
X196760099Y-100453489D01*
X196545551Y-100568167D01*
X196357498Y-100722498D01*
X196203167Y-100910551D01*
X196088489Y-101125099D01*
X196017870Y-101357898D01*
X195994025Y-101600000D01*
X196017870Y-101842102D01*
X196088489Y-102074901D01*
X196203167Y-102289449D01*
X196357498Y-102477502D01*
X196545551Y-102631833D01*
X196760099Y-102746511D01*
X196992898Y-102817130D01*
X197174335Y-102835000D01*
X197795665Y-102835000D01*
X197977102Y-102817130D01*
X198089990Y-102782886D01*
X198089990Y-102957114D01*
X197977102Y-102922870D01*
X197795665Y-102905000D01*
X197174335Y-102905000D01*
X196992898Y-102922870D01*
X196760099Y-102993489D01*
X196545551Y-103108167D01*
X196439611Y-103195109D01*
X192622111Y-99377609D01*
X196041538Y-99377609D01*
X196056708Y-99469377D01*
X196159214Y-99691384D01*
X196303062Y-99889128D01*
X196482724Y-100055009D01*
X196691295Y-100182652D01*
X196920761Y-100267152D01*
X197162303Y-100305262D01*
X197358000Y-100142553D01*
X197358000Y-99187000D01*
X196166269Y-99187000D01*
X196041538Y-99377609D01*
X192622111Y-99377609D01*
X191986893Y-98742391D01*
X196041538Y-98742391D01*
X196166269Y-98933000D01*
X197358000Y-98933000D01*
X197358000Y-97977447D01*
X197162303Y-97814738D01*
X196920761Y-97852848D01*
X196691295Y-97937348D01*
X196482724Y-98064991D01*
X196303062Y-98230872D01*
X196159214Y-98428616D01*
X196056708Y-98650623D01*
X196041538Y-98742391D01*
X191986893Y-98742391D01*
X191158504Y-97914003D01*
X191134701Y-97884999D01*
X191018976Y-97790026D01*
X190990233Y-97774662D01*
X191084876Y-97724074D01*
X191200601Y-97629101D01*
X191224404Y-97600097D01*
X196439611Y-92384891D01*
X196545551Y-92471833D01*
X196760099Y-92586511D01*
X196992898Y-92657130D01*
X197174335Y-92675000D01*
X197795665Y-92675000D01*
X197977102Y-92657130D01*
X198209901Y-92586511D01*
X198424449Y-92471833D01*
X198612502Y-92317502D01*
X198755000Y-92143868D01*
X198897498Y-92317502D01*
M02*
