M48
; DRILL file {KiCad (5.1.5)-3} date 06/02/2020 21:26:43
; FORMAT={-:-/ absolute / inch / decimal}
; #@! TF.CreationDate,2020-02-06T21:26:43+01:00
; #@! TF.GenerationSoftware,Kicad,Pcbnew,(5.1.5)-3
; #@! TF.FileFunction,Plated,1,4,PTH
FMAT,2
INCH
T1C0.0157
T2C0.0300
T3C0.0315
T4C0.0394
T5C0.0965
%
G90
G05
T1
X6.2227Y-4.0559
T2
X5.7263Y-2.9488
X5.7263Y-3.0275
X5.7263Y-3.1063
X5.7263Y-3.185
X3.5737Y-2.9488
X3.5737Y-3.0275
X3.5737Y-3.1063
X3.5737Y-3.185
X6.8025Y-2.9488
X6.8025Y-3.0275
X6.8025Y-3.1063
X6.8025Y-3.185
X4.65Y-2.9488
X4.65Y-3.0275
X4.65Y-3.1063
X4.65Y-3.185
X7.1613Y-2.9488
X7.1613Y-3.0275
X7.1613Y-3.1063
X7.1613Y-3.185
X5.3675Y-2.9488
X5.3675Y-3.0275
X5.3675Y-3.1063
X5.3675Y-3.185
X5.0087Y-2.9488
X5.0087Y-3.0275
X5.0087Y-3.1063
X5.0087Y-3.185
X7.52Y-2.9488
X7.52Y-3.0275
X7.52Y-3.1063
X7.52Y-3.185
X6.085Y-2.9488
X6.085Y-3.0275
X6.085Y-3.1063
X6.085Y-3.185
X6.4437Y-2.9488
X6.4437Y-3.0275
X6.4437Y-3.1063
X6.4437Y-3.185
X4.2913Y-2.9488
X4.2913Y-3.0275
X4.2913Y-3.1063
X4.2913Y-3.185
X3.9325Y-2.9488
X3.9325Y-3.0275
X3.9325Y-3.1063
X3.9325Y-3.185
X3.215Y-2.9488
X3.215Y-3.0275
X3.215Y-3.1063
X3.215Y-3.185
T3
X3.4Y-3.775
X3.4Y-3.875
X3.4Y-3.975
X3.4Y-4.075
X3.4Y-4.175
X3.4Y-4.275
X3.4Y-4.375
X3.4Y-4.475
X3.4Y-4.575
X3.4Y-4.675
X3.5Y-3.775
X3.5Y-3.875
X3.5Y-3.975
X3.5Y-4.075
X3.5Y-4.175
X3.5Y-4.275
X3.5Y-4.375
X3.5Y-4.475
X3.5Y-4.575
X3.5Y-4.675
X4.4Y-3.775
X4.4Y-3.875
X4.4Y-3.975
X4.4Y-4.075
X4.4Y-4.175
X4.4Y-4.275
X4.4Y-4.375
X4.4Y-4.475
X4.4Y-4.575
X4.4Y-4.675
X4.5Y-3.775
X4.5Y-3.875
X4.5Y-3.975
X4.5Y-4.075
X4.5Y-4.175
X4.5Y-4.275
X4.5Y-4.375
X4.5Y-4.475
X4.5Y-4.575
X4.5Y-4.675
X4.8453Y-3.775
X4.8453Y-3.875
X4.8453Y-3.975
X4.8453Y-4.075
X4.8453Y-4.175
X4.8453Y-4.275
X4.8453Y-4.375
X4.8453Y-4.475
X4.8453Y-4.575
X4.8453Y-4.675
X4.9453Y-3.775
X4.9453Y-3.875
X4.9453Y-3.975
X4.9453Y-4.075
X4.9453Y-4.175
X4.9453Y-4.275
X4.9453Y-4.375
X4.9453Y-4.475
X4.9453Y-4.575
X4.9453Y-4.675
X5.8453Y-3.775
X5.8453Y-3.875
X5.8453Y-3.975
X5.8453Y-4.075
X5.8453Y-4.175
X5.8453Y-4.275
X5.8453Y-4.375
X5.8453Y-4.475
X5.8453Y-4.575
X5.8453Y-4.675
X5.9453Y-3.775
X5.9453Y-3.875
X5.9453Y-3.975
X5.9453Y-4.075
X5.9453Y-4.175
X5.9453Y-4.275
X5.9453Y-4.375
X5.9453Y-4.475
X5.9453Y-4.575
X5.9453Y-4.675
X6.2906Y-3.775
X6.2906Y-3.875
X6.2906Y-3.975
X6.2906Y-4.075
X6.2906Y-4.175
X6.2906Y-4.275
X6.2906Y-4.375
X6.2906Y-4.475
X6.2906Y-4.575
X6.2906Y-4.675
X6.3906Y-3.775
X6.3906Y-3.875
X6.3906Y-3.975
X6.3906Y-4.075
X6.3906Y-4.175
X6.3906Y-4.275
X6.3906Y-4.375
X6.3906Y-4.475
X6.3906Y-4.575
X6.3906Y-4.675
X7.2906Y-3.775
X7.2906Y-3.875
X7.2906Y-3.975
X7.2906Y-4.075
X7.2906Y-4.175
X7.2906Y-4.275
X7.2906Y-4.375
X7.2906Y-4.475
X7.2906Y-4.575
X7.2906Y-4.675
X7.3906Y-3.775
X7.3906Y-3.875
X7.3906Y-3.975
X7.3906Y-4.075
X7.3906Y-4.175
X7.3906Y-4.275
X7.3906Y-4.375
X7.3906Y-4.475
X7.3906Y-4.575
X7.3906Y-4.675
T4
X7.775Y-3.2
X7.775Y-3.3
X7.775Y-3.4
X7.775Y-3.5
X7.775Y-3.6
X7.775Y-3.7
X7.775Y-3.8
X7.775Y-3.9
X7.775Y-4.0
X7.775Y-4.1
X7.775Y-4.2
X7.775Y-4.3
X7.775Y-4.4
X7.775Y-4.5
X7.775Y-4.6
X7.775Y-4.7
X7.875Y-3.2
X7.875Y-3.3
X7.875Y-3.4
X7.875Y-3.5
X7.875Y-3.6
X7.875Y-3.7
X7.875Y-3.8
X7.875Y-3.9
X7.875Y-4.0
X7.875Y-4.1
X7.875Y-4.2
X7.875Y-4.3
X7.875Y-4.4
X7.875Y-4.5
X7.875Y-4.6
X7.875Y-4.7
X2.9Y-3.2
X2.9Y-3.3
X2.9Y-3.4
X2.9Y-3.5
X2.9Y-3.6
X2.9Y-3.7
X2.9Y-3.8
X2.9Y-3.9
X2.9Y-4.0
X2.9Y-4.1
X2.9Y-4.2
X2.9Y-4.3
X2.9Y-4.4
X2.9Y-4.5
X2.9Y-4.6
X2.9Y-4.7
X3.0Y-3.2
X3.0Y-3.3
X3.0Y-3.4
X3.0Y-3.5
X3.0Y-3.6
X3.0Y-3.7
X3.0Y-3.8
X3.0Y-3.9
X3.0Y-4.0
X3.0Y-4.1
X3.0Y-4.2
X3.0Y-4.3
X3.0Y-4.4
X3.0Y-4.5
X3.0Y-4.6
X3.0Y-4.7
T5
X3.95Y-3.525
X3.95Y-4.825
X5.3953Y-3.525
X5.3953Y-4.825
X6.8406Y-3.525
X6.8406Y-4.825
T0
M30
