G04 #@! TF.GenerationSoftware,KiCad,Pcbnew,(5.1.5)-3*
G04 #@! TF.CreationDate,2020-02-06T21:26:36+01:00*
G04 #@! TF.ProjectId,wemos-baseplate,77656d6f-732d-4626-9173-65706c617465,rev?*
G04 #@! TF.SameCoordinates,Original*
G04 #@! TF.FileFunction,Legend,Top*
G04 #@! TF.FilePolarity,Positive*
%FSLAX46Y46*%
G04 Gerber Fmt 4.6, Leading zero omitted, Abs format (unit mm)*
G04 Created by KiCad (PCBNEW (5.1.5)-3) date 2020-02-06 21:26:36*
%MOMM*%
%LPD*%
G04 APERTURE LIST*
%ADD10C,0.150000*%
%ADD11C,0.120000*%
G04 APERTURE END LIST*
D10*
X67770761Y-128214380D02*
X67199333Y-128214380D01*
X67485047Y-128214380D02*
X67485047Y-127214380D01*
X67389809Y-127357238D01*
X67294571Y-127452476D01*
X67199333Y-127500095D01*
X68199333Y-128119142D02*
X68246952Y-128166761D01*
X68199333Y-128214380D01*
X68151714Y-128166761D01*
X68199333Y-128119142D01*
X68199333Y-128214380D01*
X68627904Y-127309619D02*
X68675523Y-127262000D01*
X68770761Y-127214380D01*
X69008857Y-127214380D01*
X69104095Y-127262000D01*
X69151714Y-127309619D01*
X69199333Y-127404857D01*
X69199333Y-127500095D01*
X69151714Y-127642952D01*
X68580285Y-128214380D01*
X69199333Y-128214380D01*
X69532666Y-127214380D02*
X70199333Y-127214380D01*
X69770761Y-128214380D01*
X70770761Y-127214380D02*
X70866000Y-127214380D01*
X70961238Y-127262000D01*
X71008857Y-127309619D01*
X71056476Y-127404857D01*
X71104095Y-127595333D01*
X71104095Y-127833428D01*
X71056476Y-128023904D01*
X71008857Y-128119142D01*
X70961238Y-128166761D01*
X70866000Y-128214380D01*
X70770761Y-128214380D01*
X70675523Y-128166761D01*
X70627904Y-128119142D01*
X70580285Y-128023904D01*
X70532666Y-127833428D01*
X70532666Y-127595333D01*
X70580285Y-127404857D01*
X70627904Y-127309619D01*
X70675523Y-127262000D01*
X70770761Y-127214380D01*
X72294571Y-128214380D02*
X72294571Y-127547714D01*
X72294571Y-127642952D02*
X72342190Y-127595333D01*
X72437428Y-127547714D01*
X72580285Y-127547714D01*
X72675523Y-127595333D01*
X72723142Y-127690571D01*
X72723142Y-128214380D01*
X72723142Y-127690571D02*
X72770761Y-127595333D01*
X72866000Y-127547714D01*
X73008857Y-127547714D01*
X73104095Y-127595333D01*
X73151714Y-127690571D01*
X73151714Y-128214380D01*
X73627904Y-128214380D02*
X73627904Y-127547714D01*
X73627904Y-127642952D02*
X73675523Y-127595333D01*
X73770761Y-127547714D01*
X73913619Y-127547714D01*
X74008857Y-127595333D01*
X74056476Y-127690571D01*
X74056476Y-128214380D01*
X74056476Y-127690571D02*
X74104095Y-127595333D01*
X74199333Y-127547714D01*
X74342190Y-127547714D01*
X74437428Y-127595333D01*
X74485047Y-127690571D01*
X74485047Y-128214380D01*
D11*
X70231000Y-126492000D02*
X71501000Y-126492000D01*
X70231000Y-124079000D02*
X70231000Y-127078421D01*
X71501000Y-124079000D02*
X71501000Y-127078421D01*
X71501000Y-126492000D02*
X70374496Y-127078421D01*
X71501000Y-126492000D02*
X70374496Y-125905579D01*
X70231000Y-126492000D02*
X71357504Y-127078421D01*
X70231000Y-126492000D02*
X71357504Y-125905579D01*
D10*
X45107943Y-103131092D02*
X45106799Y-103607281D01*
X45582873Y-103656045D01*
X45535369Y-103608312D01*
X45487979Y-103512959D01*
X45488551Y-103274865D01*
X45536399Y-103179741D01*
X45584133Y-103132237D01*
X45679485Y-103084847D01*
X45917579Y-103085419D01*
X46012703Y-103133267D01*
X46060207Y-103181001D01*
X46107597Y-103276353D01*
X46107025Y-103514447D01*
X46059177Y-103609571D01*
X46011444Y-103657075D01*
X45204211Y-102702751D02*
X45156707Y-102655018D01*
X45109317Y-102559665D01*
X45109889Y-102321571D01*
X45157737Y-102226447D01*
X45205471Y-102178943D01*
X45300823Y-102131553D01*
X45396061Y-102131782D01*
X45538803Y-102179744D01*
X46108856Y-102752545D01*
X46110344Y-102133499D01*
X46016137Y-101704700D02*
X46063870Y-101657195D01*
X46111375Y-101704929D01*
X46063641Y-101752433D01*
X46016137Y-101704700D01*
X46111375Y-101704929D01*
X45541436Y-101084509D02*
X45493588Y-101179633D01*
X45445855Y-101227137D01*
X45350502Y-101274527D01*
X45302883Y-101274413D01*
X45207760Y-101226565D01*
X45160256Y-101178831D01*
X45112866Y-101083479D01*
X45113323Y-100893004D01*
X45161171Y-100797880D01*
X45208905Y-100750376D01*
X45304257Y-100702986D01*
X45351876Y-100703100D01*
X45446999Y-100750948D01*
X45494504Y-100798681D01*
X45541894Y-100894034D01*
X45541436Y-101084509D01*
X45588826Y-101179862D01*
X45636330Y-101227595D01*
X45731454Y-101275443D01*
X45921929Y-101275901D01*
X46017281Y-101228511D01*
X46065015Y-101181006D01*
X46112863Y-101085883D01*
X46113321Y-100895407D01*
X46065931Y-100800055D01*
X46018426Y-100752322D01*
X45923303Y-100704474D01*
X45732827Y-100704016D01*
X45637475Y-100751406D01*
X45589741Y-100798910D01*
X45541894Y-100894034D01*
X45114583Y-100369195D02*
X45116071Y-99750150D01*
X45496221Y-100084398D01*
X45496564Y-99941541D01*
X45544412Y-99846418D01*
X45592145Y-99798913D01*
X45687498Y-99751523D01*
X45925592Y-99752096D01*
X46020716Y-99799943D01*
X46068220Y-99847677D01*
X46115610Y-99943029D01*
X46114923Y-100228743D01*
X46067075Y-100323866D01*
X46019342Y-100371370D01*
X45212224Y-99369427D02*
X45164720Y-99321694D01*
X45117330Y-99226342D01*
X45117902Y-98988247D01*
X45165750Y-98893124D01*
X45213483Y-98845619D01*
X45308836Y-98798229D01*
X45404074Y-98798458D01*
X45546816Y-98846421D01*
X46116869Y-99419221D01*
X46118357Y-98800175D01*
X46121219Y-97609703D02*
X45454554Y-97608100D01*
X45549792Y-97608329D02*
X45502288Y-97560596D01*
X45454898Y-97465243D01*
X45455241Y-97322387D01*
X45503089Y-97227263D01*
X45598441Y-97179873D01*
X46122249Y-97181132D01*
X45598441Y-97179873D02*
X45503318Y-97132025D01*
X45455928Y-97036673D01*
X45456271Y-96893816D01*
X45504119Y-96798693D01*
X45599471Y-96751303D01*
X46123279Y-96752562D01*
X46124424Y-96276373D02*
X45457759Y-96274771D01*
X45552997Y-96274999D02*
X45505493Y-96227266D01*
X45458103Y-96131914D01*
X45458446Y-95989057D01*
X45506294Y-95893934D01*
X45601646Y-95846544D01*
X46125454Y-95847803D01*
X45601646Y-95846544D02*
X45506523Y-95798696D01*
X45459133Y-95703344D01*
X45459476Y-95560487D01*
X45507324Y-95465364D01*
X45602676Y-95417974D01*
X46126484Y-95419233D01*
D11*
X46870757Y-125932425D02*
X46997757Y-73100425D01*
X68326000Y-125984000D02*
X46284338Y-125931015D01*
X68453000Y-73152000D02*
X46411338Y-73099015D01*
X46997757Y-73100425D02*
X47581468Y-74228335D01*
X46997757Y-73100425D02*
X46408630Y-74225516D01*
X46870757Y-125932425D02*
X47459884Y-124807334D01*
X46870757Y-125932425D02*
X46287046Y-124804515D01*
D10*
X52649380Y-79771428D02*
X52649380Y-80342857D01*
X52649380Y-80057142D02*
X51649380Y-80057142D01*
X51792238Y-80152380D01*
X51887476Y-80247619D01*
X51935095Y-80342857D01*
X51649380Y-79152380D02*
X51649380Y-79057142D01*
X51697000Y-78961904D01*
X51744619Y-78914285D01*
X51839857Y-78866666D01*
X52030333Y-78819047D01*
X52268428Y-78819047D01*
X52458904Y-78866666D01*
X52554142Y-78914285D01*
X52601761Y-78961904D01*
X52649380Y-79057142D01*
X52649380Y-79152380D01*
X52601761Y-79247619D01*
X52554142Y-79295238D01*
X52458904Y-79342857D01*
X52268428Y-79390476D01*
X52030333Y-79390476D01*
X51839857Y-79342857D01*
X51744619Y-79295238D01*
X51697000Y-79247619D01*
X51649380Y-79152380D01*
X52554142Y-78390476D02*
X52601761Y-78342857D01*
X52649380Y-78390476D01*
X52601761Y-78438095D01*
X52554142Y-78390476D01*
X52649380Y-78390476D01*
X52649380Y-77390476D02*
X52649380Y-77961904D01*
X52649380Y-77676190D02*
X51649380Y-77676190D01*
X51792238Y-77771428D01*
X51887476Y-77866666D01*
X51935095Y-77961904D01*
X51649380Y-76533333D02*
X51649380Y-76723809D01*
X51697000Y-76819047D01*
X51744619Y-76866666D01*
X51887476Y-76961904D01*
X52077952Y-77009523D01*
X52458904Y-77009523D01*
X52554142Y-76961904D01*
X52601761Y-76914285D01*
X52649380Y-76819047D01*
X52649380Y-76628571D01*
X52601761Y-76533333D01*
X52554142Y-76485714D01*
X52458904Y-76438095D01*
X52220809Y-76438095D01*
X52125571Y-76485714D01*
X52077952Y-76533333D01*
X52030333Y-76628571D01*
X52030333Y-76819047D01*
X52077952Y-76914285D01*
X52125571Y-76961904D01*
X52220809Y-77009523D01*
X51649380Y-75819047D02*
X51649380Y-75723809D01*
X51697000Y-75628571D01*
X51744619Y-75580952D01*
X51839857Y-75533333D01*
X52030333Y-75485714D01*
X52268428Y-75485714D01*
X52458904Y-75533333D01*
X52554142Y-75580952D01*
X52601761Y-75628571D01*
X52649380Y-75723809D01*
X52649380Y-75819047D01*
X52601761Y-75914285D01*
X52554142Y-75961904D01*
X52458904Y-76009523D01*
X52268428Y-76057142D01*
X52030333Y-76057142D01*
X51839857Y-76009523D01*
X51744619Y-75961904D01*
X51697000Y-75914285D01*
X51649380Y-75819047D01*
X52649380Y-74295238D02*
X51982714Y-74295238D01*
X52077952Y-74295238D02*
X52030333Y-74247619D01*
X51982714Y-74152380D01*
X51982714Y-74009523D01*
X52030333Y-73914285D01*
X52125571Y-73866666D01*
X52649380Y-73866666D01*
X52125571Y-73866666D02*
X52030333Y-73819047D01*
X51982714Y-73723809D01*
X51982714Y-73580952D01*
X52030333Y-73485714D01*
X52125571Y-73438095D01*
X52649380Y-73438095D01*
X52649380Y-72961904D02*
X51982714Y-72961904D01*
X52077952Y-72961904D02*
X52030333Y-72914285D01*
X51982714Y-72819047D01*
X51982714Y-72676190D01*
X52030333Y-72580952D01*
X52125571Y-72533333D01*
X52649380Y-72533333D01*
X52125571Y-72533333D02*
X52030333Y-72485714D01*
X51982714Y-72390476D01*
X51982714Y-72247619D01*
X52030333Y-72152380D01*
X52125571Y-72104761D01*
X52649380Y-72104761D01*
D11*
X53467000Y-81280000D02*
X53467000Y-71120000D01*
X76200000Y-81280000D02*
X52880579Y-81280000D01*
X76200000Y-71120000D02*
X52880579Y-71120000D01*
X53467000Y-71120000D02*
X54053421Y-72246504D01*
X53467000Y-71120000D02*
X52880579Y-72246504D01*
X53467000Y-81280000D02*
X54053421Y-80153496D01*
X53467000Y-81280000D02*
X52880579Y-80153496D01*
D10*
X54903619Y-119555023D02*
X54903619Y-119364547D01*
X54856000Y-119269309D01*
X54808380Y-119221690D01*
X54665523Y-119126452D01*
X54475047Y-119078833D01*
X54094095Y-119078833D01*
X53998857Y-119126452D01*
X53951238Y-119174071D01*
X53903619Y-119269309D01*
X53903619Y-119459785D01*
X53951238Y-119555023D01*
X53998857Y-119602642D01*
X54094095Y-119650261D01*
X54332190Y-119650261D01*
X54427428Y-119602642D01*
X54475047Y-119555023D01*
X54522666Y-119459785D01*
X54522666Y-119269309D01*
X54475047Y-119174071D01*
X54427428Y-119126452D01*
X54332190Y-119078833D01*
X53998857Y-120078833D02*
X53951238Y-120126452D01*
X53903619Y-120078833D01*
X53951238Y-120031214D01*
X53998857Y-120078833D01*
X53903619Y-120078833D01*
X54903619Y-120459785D02*
X54903619Y-121126452D01*
X53903619Y-120697880D01*
X54903619Y-121412166D02*
X54903619Y-122031214D01*
X54522666Y-121697880D01*
X54522666Y-121840738D01*
X54475047Y-121935976D01*
X54427428Y-121983595D01*
X54332190Y-122031214D01*
X54094095Y-122031214D01*
X53998857Y-121983595D01*
X53951238Y-121935976D01*
X53903619Y-121840738D01*
X53903619Y-121555023D01*
X53951238Y-121459785D01*
X53998857Y-121412166D01*
X53903619Y-122983595D02*
X53903619Y-122412166D01*
X53903619Y-122697880D02*
X54903619Y-122697880D01*
X54760761Y-122602642D01*
X54665523Y-122507404D01*
X54617904Y-122412166D01*
X53903619Y-124174071D02*
X54570285Y-124174071D01*
X54475047Y-124174071D02*
X54522666Y-124221690D01*
X54570285Y-124316928D01*
X54570285Y-124459785D01*
X54522666Y-124555023D01*
X54427428Y-124602642D01*
X53903619Y-124602642D01*
X54427428Y-124602642D02*
X54522666Y-124650261D01*
X54570285Y-124745500D01*
X54570285Y-124888357D01*
X54522666Y-124983595D01*
X54427428Y-125031214D01*
X53903619Y-125031214D01*
X53903619Y-125507404D02*
X54570285Y-125507404D01*
X54475047Y-125507404D02*
X54522666Y-125555023D01*
X54570285Y-125650261D01*
X54570285Y-125793119D01*
X54522666Y-125888357D01*
X54427428Y-125935976D01*
X53903619Y-125935976D01*
X54427428Y-125935976D02*
X54522666Y-125983595D01*
X54570285Y-126078833D01*
X54570285Y-126221690D01*
X54522666Y-126316928D01*
X54427428Y-126364547D01*
X53903619Y-126364547D01*
D11*
X55626000Y-119380000D02*
X55626000Y-126111000D01*
X76200000Y-119380000D02*
X55039579Y-119380000D01*
X76200000Y-126111000D02*
X55039579Y-126111000D01*
X55626000Y-126111000D02*
X55039579Y-124984496D01*
X55626000Y-126111000D02*
X56212421Y-124984496D01*
X55626000Y-119380000D02*
X55039579Y-120506504D01*
X55626000Y-119380000D02*
X56212421Y-120506504D01*
D10*
X198390309Y-134881952D02*
X198295071Y-134834333D01*
X198247452Y-134786714D01*
X198199833Y-134691476D01*
X198199833Y-134643857D01*
X198247452Y-134548619D01*
X198295071Y-134501000D01*
X198390309Y-134453380D01*
X198580785Y-134453380D01*
X198676023Y-134501000D01*
X198723642Y-134548619D01*
X198771261Y-134643857D01*
X198771261Y-134691476D01*
X198723642Y-134786714D01*
X198676023Y-134834333D01*
X198580785Y-134881952D01*
X198390309Y-134881952D01*
X198295071Y-134929571D01*
X198247452Y-134977190D01*
X198199833Y-135072428D01*
X198199833Y-135262904D01*
X198247452Y-135358142D01*
X198295071Y-135405761D01*
X198390309Y-135453380D01*
X198580785Y-135453380D01*
X198676023Y-135405761D01*
X198723642Y-135358142D01*
X198771261Y-135262904D01*
X198771261Y-135072428D01*
X198723642Y-134977190D01*
X198676023Y-134929571D01*
X198580785Y-134881952D01*
X199199833Y-135358142D02*
X199247452Y-135405761D01*
X199199833Y-135453380D01*
X199152214Y-135405761D01*
X199199833Y-135358142D01*
X199199833Y-135453380D01*
X199580785Y-134453380D02*
X200247452Y-134453380D01*
X199818880Y-135453380D01*
X201056976Y-134453380D02*
X200866500Y-134453380D01*
X200771261Y-134501000D01*
X200723642Y-134548619D01*
X200628404Y-134691476D01*
X200580785Y-134881952D01*
X200580785Y-135262904D01*
X200628404Y-135358142D01*
X200676023Y-135405761D01*
X200771261Y-135453380D01*
X200961738Y-135453380D01*
X201056976Y-135405761D01*
X201104595Y-135358142D01*
X201152214Y-135262904D01*
X201152214Y-135024809D01*
X201104595Y-134929571D01*
X201056976Y-134881952D01*
X200961738Y-134834333D01*
X200771261Y-134834333D01*
X200676023Y-134881952D01*
X200628404Y-134929571D01*
X200580785Y-135024809D01*
X201485547Y-134453380D02*
X202104595Y-134453380D01*
X201771261Y-134834333D01*
X201914119Y-134834333D01*
X202009357Y-134881952D01*
X202056976Y-134929571D01*
X202104595Y-135024809D01*
X202104595Y-135262904D01*
X202056976Y-135358142D01*
X202009357Y-135405761D01*
X201914119Y-135453380D01*
X201628404Y-135453380D01*
X201533166Y-135405761D01*
X201485547Y-135358142D01*
X203295071Y-135453380D02*
X203295071Y-134786714D01*
X203295071Y-134881952D02*
X203342690Y-134834333D01*
X203437928Y-134786714D01*
X203580785Y-134786714D01*
X203676023Y-134834333D01*
X203723642Y-134929571D01*
X203723642Y-135453380D01*
X203723642Y-134929571D02*
X203771261Y-134834333D01*
X203866500Y-134786714D01*
X204009357Y-134786714D01*
X204104595Y-134834333D01*
X204152214Y-134929571D01*
X204152214Y-135453380D01*
X204628404Y-135453380D02*
X204628404Y-134786714D01*
X204628404Y-134881952D02*
X204676023Y-134834333D01*
X204771261Y-134786714D01*
X204914119Y-134786714D01*
X205009357Y-134834333D01*
X205056976Y-134929571D01*
X205056976Y-135453380D01*
X205056976Y-134929571D02*
X205104595Y-134834333D01*
X205199833Y-134786714D01*
X205342690Y-134786714D01*
X205437928Y-134834333D01*
X205485547Y-134929571D01*
X205485547Y-135453380D01*
D11*
X197485000Y-133731000D02*
X206248000Y-133731000D01*
X197485000Y-119380000D02*
X197485000Y-134317421D01*
X206248000Y-119380000D02*
X206248000Y-134317421D01*
X206248000Y-133731000D02*
X205121496Y-134317421D01*
X206248000Y-133731000D02*
X205121496Y-133144579D01*
X197485000Y-133731000D02*
X198611504Y-134317421D01*
X197485000Y-133731000D02*
X198611504Y-133144579D01*
D10*
X68723309Y-137167952D02*
X68628071Y-137120333D01*
X68580452Y-137072714D01*
X68532833Y-136977476D01*
X68532833Y-136929857D01*
X68580452Y-136834619D01*
X68628071Y-136787000D01*
X68723309Y-136739380D01*
X68913785Y-136739380D01*
X69009023Y-136787000D01*
X69056642Y-136834619D01*
X69104261Y-136929857D01*
X69104261Y-136977476D01*
X69056642Y-137072714D01*
X69009023Y-137120333D01*
X68913785Y-137167952D01*
X68723309Y-137167952D01*
X68628071Y-137215571D01*
X68580452Y-137263190D01*
X68532833Y-137358428D01*
X68532833Y-137548904D01*
X68580452Y-137644142D01*
X68628071Y-137691761D01*
X68723309Y-137739380D01*
X68913785Y-137739380D01*
X69009023Y-137691761D01*
X69056642Y-137644142D01*
X69104261Y-137548904D01*
X69104261Y-137358428D01*
X69056642Y-137263190D01*
X69009023Y-137215571D01*
X68913785Y-137167952D01*
X69532833Y-137644142D02*
X69580452Y-137691761D01*
X69532833Y-137739380D01*
X69485214Y-137691761D01*
X69532833Y-137644142D01*
X69532833Y-137739380D01*
X70199500Y-136739380D02*
X70294738Y-136739380D01*
X70389976Y-136787000D01*
X70437595Y-136834619D01*
X70485214Y-136929857D01*
X70532833Y-137120333D01*
X70532833Y-137358428D01*
X70485214Y-137548904D01*
X70437595Y-137644142D01*
X70389976Y-137691761D01*
X70294738Y-137739380D01*
X70199500Y-137739380D01*
X70104261Y-137691761D01*
X70056642Y-137644142D01*
X70009023Y-137548904D01*
X69961404Y-137358428D01*
X69961404Y-137120333D01*
X70009023Y-136929857D01*
X70056642Y-136834619D01*
X70104261Y-136787000D01*
X70199500Y-136739380D01*
X71151880Y-136739380D02*
X71247119Y-136739380D01*
X71342357Y-136787000D01*
X71389976Y-136834619D01*
X71437595Y-136929857D01*
X71485214Y-137120333D01*
X71485214Y-137358428D01*
X71437595Y-137548904D01*
X71389976Y-137644142D01*
X71342357Y-137691761D01*
X71247119Y-137739380D01*
X71151880Y-137739380D01*
X71056642Y-137691761D01*
X71009023Y-137644142D01*
X70961404Y-137548904D01*
X70913785Y-137358428D01*
X70913785Y-137120333D01*
X70961404Y-136929857D01*
X71009023Y-136834619D01*
X71056642Y-136787000D01*
X71151880Y-136739380D01*
X72437595Y-137739380D02*
X71866166Y-137739380D01*
X72151880Y-137739380D02*
X72151880Y-136739380D01*
X72056642Y-136882238D01*
X71961404Y-136977476D01*
X71866166Y-137025095D01*
X73628071Y-137739380D02*
X73628071Y-137072714D01*
X73628071Y-137167952D02*
X73675690Y-137120333D01*
X73770928Y-137072714D01*
X73913785Y-137072714D01*
X74009023Y-137120333D01*
X74056642Y-137215571D01*
X74056642Y-137739380D01*
X74056642Y-137215571D02*
X74104261Y-137120333D01*
X74199500Y-137072714D01*
X74342357Y-137072714D01*
X74437595Y-137120333D01*
X74485214Y-137215571D01*
X74485214Y-137739380D01*
X74961404Y-137739380D02*
X74961404Y-137072714D01*
X74961404Y-137167952D02*
X75009023Y-137120333D01*
X75104261Y-137072714D01*
X75247119Y-137072714D01*
X75342357Y-137120333D01*
X75389976Y-137215571D01*
X75389976Y-137739380D01*
X75389976Y-137215571D02*
X75437595Y-137120333D01*
X75532833Y-137072714D01*
X75675690Y-137072714D01*
X75770928Y-137120333D01*
X75818547Y-137215571D01*
X75818547Y-137739380D01*
D11*
X76200000Y-136017000D02*
X68199000Y-136017000D01*
X76200000Y-119380000D02*
X76200000Y-136603421D01*
X68199000Y-119380000D02*
X68199000Y-136603421D01*
X68199000Y-136017000D02*
X69325504Y-135430579D01*
X68199000Y-136017000D02*
X69325504Y-136603421D01*
X76200000Y-136017000D02*
X75073496Y-135430579D01*
X76200000Y-136017000D02*
X75073496Y-136603421D01*
D10*
X214177619Y-128761666D02*
X214130000Y-128714047D01*
X214082380Y-128618809D01*
X214082380Y-128380714D01*
X214130000Y-128285476D01*
X214177619Y-128237857D01*
X214272857Y-128190238D01*
X214368095Y-128190238D01*
X214510952Y-128237857D01*
X215082380Y-128809285D01*
X215082380Y-128190238D01*
X214987142Y-127761666D02*
X215034761Y-127714047D01*
X215082380Y-127761666D01*
X215034761Y-127809285D01*
X214987142Y-127761666D01*
X215082380Y-127761666D01*
X214082380Y-127095000D02*
X214082380Y-126999761D01*
X214130000Y-126904523D01*
X214177619Y-126856904D01*
X214272857Y-126809285D01*
X214463333Y-126761666D01*
X214701428Y-126761666D01*
X214891904Y-126809285D01*
X214987142Y-126856904D01*
X215034761Y-126904523D01*
X215082380Y-126999761D01*
X215082380Y-127095000D01*
X215034761Y-127190238D01*
X214987142Y-127237857D01*
X214891904Y-127285476D01*
X214701428Y-127333095D01*
X214463333Y-127333095D01*
X214272857Y-127285476D01*
X214177619Y-127237857D01*
X214130000Y-127190238D01*
X214082380Y-127095000D01*
X214082380Y-126428333D02*
X214082380Y-125809285D01*
X214463333Y-126142619D01*
X214463333Y-125999761D01*
X214510952Y-125904523D01*
X214558571Y-125856904D01*
X214653809Y-125809285D01*
X214891904Y-125809285D01*
X214987142Y-125856904D01*
X215034761Y-125904523D01*
X215082380Y-125999761D01*
X215082380Y-126285476D01*
X215034761Y-126380714D01*
X214987142Y-126428333D01*
X214177619Y-125428333D02*
X214130000Y-125380714D01*
X214082380Y-125285476D01*
X214082380Y-125047380D01*
X214130000Y-124952142D01*
X214177619Y-124904523D01*
X214272857Y-124856904D01*
X214368095Y-124856904D01*
X214510952Y-124904523D01*
X215082380Y-125475952D01*
X215082380Y-124856904D01*
X215082380Y-123666428D02*
X214415714Y-123666428D01*
X214510952Y-123666428D02*
X214463333Y-123618809D01*
X214415714Y-123523571D01*
X214415714Y-123380714D01*
X214463333Y-123285476D01*
X214558571Y-123237857D01*
X215082380Y-123237857D01*
X214558571Y-123237857D02*
X214463333Y-123190238D01*
X214415714Y-123095000D01*
X214415714Y-122952142D01*
X214463333Y-122856904D01*
X214558571Y-122809285D01*
X215082380Y-122809285D01*
X215082380Y-122333095D02*
X214415714Y-122333095D01*
X214510952Y-122333095D02*
X214463333Y-122285476D01*
X214415714Y-122190238D01*
X214415714Y-122047380D01*
X214463333Y-121952142D01*
X214558571Y-121904523D01*
X215082380Y-121904523D01*
X214558571Y-121904523D02*
X214463333Y-121856904D01*
X214415714Y-121761666D01*
X214415714Y-121618809D01*
X214463333Y-121523571D01*
X214558571Y-121475952D01*
X215082380Y-121475952D01*
D11*
X213360000Y-126111000D02*
X213360000Y-124079000D01*
X206248000Y-126111000D02*
X213946421Y-126111000D01*
X206248000Y-124079000D02*
X213946421Y-124079000D01*
X213360000Y-124079000D02*
X213946421Y-125205504D01*
X213360000Y-124079000D02*
X212773579Y-125205504D01*
X213360000Y-126111000D02*
X213946421Y-124984496D01*
X213360000Y-126111000D02*
X212773579Y-124984496D01*
D10*
X201565333Y-129087619D02*
X201612952Y-129040000D01*
X201708190Y-128992380D01*
X201946285Y-128992380D01*
X202041523Y-129040000D01*
X202089142Y-129087619D01*
X202136761Y-129182857D01*
X202136761Y-129278095D01*
X202089142Y-129420952D01*
X201517714Y-129992380D01*
X202136761Y-129992380D01*
X202565333Y-129897142D02*
X202612952Y-129944761D01*
X202565333Y-129992380D01*
X202517714Y-129944761D01*
X202565333Y-129897142D01*
X202565333Y-129992380D01*
X203232000Y-128992380D02*
X203327238Y-128992380D01*
X203422476Y-129040000D01*
X203470095Y-129087619D01*
X203517714Y-129182857D01*
X203565333Y-129373333D01*
X203565333Y-129611428D01*
X203517714Y-129801904D01*
X203470095Y-129897142D01*
X203422476Y-129944761D01*
X203327238Y-129992380D01*
X203232000Y-129992380D01*
X203136761Y-129944761D01*
X203089142Y-129897142D01*
X203041523Y-129801904D01*
X202993904Y-129611428D01*
X202993904Y-129373333D01*
X203041523Y-129182857D01*
X203089142Y-129087619D01*
X203136761Y-129040000D01*
X203232000Y-128992380D01*
X203898666Y-128992380D02*
X204517714Y-128992380D01*
X204184380Y-129373333D01*
X204327238Y-129373333D01*
X204422476Y-129420952D01*
X204470095Y-129468571D01*
X204517714Y-129563809D01*
X204517714Y-129801904D01*
X204470095Y-129897142D01*
X204422476Y-129944761D01*
X204327238Y-129992380D01*
X204041523Y-129992380D01*
X203946285Y-129944761D01*
X203898666Y-129897142D01*
X204898666Y-129087619D02*
X204946285Y-129040000D01*
X205041523Y-128992380D01*
X205279619Y-128992380D01*
X205374857Y-129040000D01*
X205422476Y-129087619D01*
X205470095Y-129182857D01*
X205470095Y-129278095D01*
X205422476Y-129420952D01*
X204851047Y-129992380D01*
X205470095Y-129992380D01*
X206660571Y-129992380D02*
X206660571Y-129325714D01*
X206660571Y-129420952D02*
X206708190Y-129373333D01*
X206803428Y-129325714D01*
X206946285Y-129325714D01*
X207041523Y-129373333D01*
X207089142Y-129468571D01*
X207089142Y-129992380D01*
X207089142Y-129468571D02*
X207136761Y-129373333D01*
X207232000Y-129325714D01*
X207374857Y-129325714D01*
X207470095Y-129373333D01*
X207517714Y-129468571D01*
X207517714Y-129992380D01*
X207993904Y-129992380D02*
X207993904Y-129325714D01*
X207993904Y-129420952D02*
X208041523Y-129373333D01*
X208136761Y-129325714D01*
X208279619Y-129325714D01*
X208374857Y-129373333D01*
X208422476Y-129468571D01*
X208422476Y-129992380D01*
X208422476Y-129468571D02*
X208470095Y-129373333D01*
X208565333Y-129325714D01*
X208708190Y-129325714D01*
X208803428Y-129373333D01*
X208851047Y-129468571D01*
X208851047Y-129992380D01*
D11*
X206248000Y-128270000D02*
X204216000Y-128270000D01*
X206248000Y-126111000D02*
X206248000Y-128856421D01*
X204216000Y-126111000D02*
X204216000Y-128856421D01*
X204216000Y-128270000D02*
X205342504Y-127683579D01*
X204216000Y-128270000D02*
X205342504Y-128856421D01*
X206248000Y-128270000D02*
X205121496Y-127683579D01*
X206248000Y-128270000D02*
X205121496Y-128856421D01*
D10*
X65548333Y-131754619D02*
X65595952Y-131707000D01*
X65691190Y-131659380D01*
X65929285Y-131659380D01*
X66024523Y-131707000D01*
X66072142Y-131754619D01*
X66119761Y-131849857D01*
X66119761Y-131945095D01*
X66072142Y-132087952D01*
X65500714Y-132659380D01*
X66119761Y-132659380D01*
X66548333Y-132564142D02*
X66595952Y-132611761D01*
X66548333Y-132659380D01*
X66500714Y-132611761D01*
X66548333Y-132564142D01*
X66548333Y-132659380D01*
X67215000Y-131659380D02*
X67310238Y-131659380D01*
X67405476Y-131707000D01*
X67453095Y-131754619D01*
X67500714Y-131849857D01*
X67548333Y-132040333D01*
X67548333Y-132278428D01*
X67500714Y-132468904D01*
X67453095Y-132564142D01*
X67405476Y-132611761D01*
X67310238Y-132659380D01*
X67215000Y-132659380D01*
X67119761Y-132611761D01*
X67072142Y-132564142D01*
X67024523Y-132468904D01*
X66976904Y-132278428D01*
X66976904Y-132040333D01*
X67024523Y-131849857D01*
X67072142Y-131754619D01*
X67119761Y-131707000D01*
X67215000Y-131659380D01*
X67881666Y-131659380D02*
X68500714Y-131659380D01*
X68167380Y-132040333D01*
X68310238Y-132040333D01*
X68405476Y-132087952D01*
X68453095Y-132135571D01*
X68500714Y-132230809D01*
X68500714Y-132468904D01*
X68453095Y-132564142D01*
X68405476Y-132611761D01*
X68310238Y-132659380D01*
X68024523Y-132659380D01*
X67929285Y-132611761D01*
X67881666Y-132564142D01*
X68881666Y-131754619D02*
X68929285Y-131707000D01*
X69024523Y-131659380D01*
X69262619Y-131659380D01*
X69357857Y-131707000D01*
X69405476Y-131754619D01*
X69453095Y-131849857D01*
X69453095Y-131945095D01*
X69405476Y-132087952D01*
X68834047Y-132659380D01*
X69453095Y-132659380D01*
X70643571Y-132659380D02*
X70643571Y-131992714D01*
X70643571Y-132087952D02*
X70691190Y-132040333D01*
X70786428Y-131992714D01*
X70929285Y-131992714D01*
X71024523Y-132040333D01*
X71072142Y-132135571D01*
X71072142Y-132659380D01*
X71072142Y-132135571D02*
X71119761Y-132040333D01*
X71215000Y-131992714D01*
X71357857Y-131992714D01*
X71453095Y-132040333D01*
X71500714Y-132135571D01*
X71500714Y-132659380D01*
X71976904Y-132659380D02*
X71976904Y-131992714D01*
X71976904Y-132087952D02*
X72024523Y-132040333D01*
X72119761Y-131992714D01*
X72262619Y-131992714D01*
X72357857Y-132040333D01*
X72405476Y-132135571D01*
X72405476Y-132659380D01*
X72405476Y-132135571D02*
X72453095Y-132040333D01*
X72548333Y-131992714D01*
X72691190Y-131992714D01*
X72786428Y-132040333D01*
X72834047Y-132135571D01*
X72834047Y-132659380D01*
D11*
X68199000Y-130937000D02*
X70231000Y-130937000D01*
X68199000Y-126238000D02*
X68199000Y-131523421D01*
X70231000Y-126238000D02*
X70231000Y-131523421D01*
X70231000Y-130937000D02*
X69104496Y-131523421D01*
X70231000Y-130937000D02*
X69104496Y-130350579D01*
X68199000Y-130937000D02*
X69325504Y-131523421D01*
X68199000Y-130937000D02*
X69325504Y-130350579D01*
D10*
X59364619Y-128761666D02*
X59317000Y-128714047D01*
X59269380Y-128618809D01*
X59269380Y-128380714D01*
X59317000Y-128285476D01*
X59364619Y-128237857D01*
X59459857Y-128190238D01*
X59555095Y-128190238D01*
X59697952Y-128237857D01*
X60269380Y-128809285D01*
X60269380Y-128190238D01*
X60174142Y-127761666D02*
X60221761Y-127714047D01*
X60269380Y-127761666D01*
X60221761Y-127809285D01*
X60174142Y-127761666D01*
X60269380Y-127761666D01*
X59269380Y-127095000D02*
X59269380Y-126999761D01*
X59317000Y-126904523D01*
X59364619Y-126856904D01*
X59459857Y-126809285D01*
X59650333Y-126761666D01*
X59888428Y-126761666D01*
X60078904Y-126809285D01*
X60174142Y-126856904D01*
X60221761Y-126904523D01*
X60269380Y-126999761D01*
X60269380Y-127095000D01*
X60221761Y-127190238D01*
X60174142Y-127237857D01*
X60078904Y-127285476D01*
X59888428Y-127333095D01*
X59650333Y-127333095D01*
X59459857Y-127285476D01*
X59364619Y-127237857D01*
X59317000Y-127190238D01*
X59269380Y-127095000D01*
X59269380Y-126428333D02*
X59269380Y-125809285D01*
X59650333Y-126142619D01*
X59650333Y-125999761D01*
X59697952Y-125904523D01*
X59745571Y-125856904D01*
X59840809Y-125809285D01*
X60078904Y-125809285D01*
X60174142Y-125856904D01*
X60221761Y-125904523D01*
X60269380Y-125999761D01*
X60269380Y-126285476D01*
X60221761Y-126380714D01*
X60174142Y-126428333D01*
X59364619Y-125428333D02*
X59317000Y-125380714D01*
X59269380Y-125285476D01*
X59269380Y-125047380D01*
X59317000Y-124952142D01*
X59364619Y-124904523D01*
X59459857Y-124856904D01*
X59555095Y-124856904D01*
X59697952Y-124904523D01*
X60269380Y-125475952D01*
X60269380Y-124856904D01*
X60269380Y-123666428D02*
X59602714Y-123666428D01*
X59697952Y-123666428D02*
X59650333Y-123618809D01*
X59602714Y-123523571D01*
X59602714Y-123380714D01*
X59650333Y-123285476D01*
X59745571Y-123237857D01*
X60269380Y-123237857D01*
X59745571Y-123237857D02*
X59650333Y-123190238D01*
X59602714Y-123095000D01*
X59602714Y-122952142D01*
X59650333Y-122856904D01*
X59745571Y-122809285D01*
X60269380Y-122809285D01*
X60269380Y-122333095D02*
X59602714Y-122333095D01*
X59697952Y-122333095D02*
X59650333Y-122285476D01*
X59602714Y-122190238D01*
X59602714Y-122047380D01*
X59650333Y-121952142D01*
X59745571Y-121904523D01*
X60269380Y-121904523D01*
X59745571Y-121904523D02*
X59650333Y-121856904D01*
X59602714Y-121761666D01*
X59602714Y-121618809D01*
X59650333Y-121523571D01*
X59745571Y-121475952D01*
X60269380Y-121475952D01*
D11*
X61087000Y-126111000D02*
X61087000Y-124079000D01*
X68199000Y-126111000D02*
X60500579Y-126111000D01*
X68199000Y-124079000D02*
X60500579Y-124079000D01*
X61087000Y-124079000D02*
X61673421Y-125205504D01*
X61087000Y-124079000D02*
X60500579Y-125205504D01*
X61087000Y-126111000D02*
X61673421Y-124984496D01*
X61087000Y-126111000D02*
X60500579Y-124984496D01*
D10*
X39790620Y-94996452D02*
X39790620Y-94520261D01*
X39314429Y-94472642D01*
X39362048Y-94520261D01*
X39409667Y-94615500D01*
X39409667Y-94853595D01*
X39362048Y-94948833D01*
X39314429Y-94996452D01*
X39219191Y-95044071D01*
X38981096Y-95044071D01*
X38885858Y-94996452D01*
X38838239Y-94948833D01*
X38790620Y-94853595D01*
X38790620Y-94615500D01*
X38838239Y-94520261D01*
X38885858Y-94472642D01*
X39457286Y-95901214D02*
X38790620Y-95901214D01*
X39838239Y-95663119D02*
X39123953Y-95425023D01*
X39123953Y-96044071D01*
X38885858Y-96425023D02*
X38838239Y-96472642D01*
X38790620Y-96425023D01*
X38838239Y-96377404D01*
X38885858Y-96425023D01*
X38790620Y-96425023D01*
X38790620Y-96948833D02*
X38790620Y-97139309D01*
X38838239Y-97234547D01*
X38885858Y-97282166D01*
X39028715Y-97377404D01*
X39219191Y-97425023D01*
X39600143Y-97425023D01*
X39695381Y-97377404D01*
X39743001Y-97329785D01*
X39790620Y-97234547D01*
X39790620Y-97044071D01*
X39743001Y-96948833D01*
X39695381Y-96901214D01*
X39600143Y-96853595D01*
X39362048Y-96853595D01*
X39266810Y-96901214D01*
X39219191Y-96948833D01*
X39171572Y-97044071D01*
X39171572Y-97234547D01*
X39219191Y-97329785D01*
X39266810Y-97377404D01*
X39362048Y-97425023D01*
X38790620Y-97901214D02*
X38790620Y-98091690D01*
X38838239Y-98186928D01*
X38885858Y-98234547D01*
X39028715Y-98329785D01*
X39219191Y-98377404D01*
X39600143Y-98377404D01*
X39695381Y-98329785D01*
X39743001Y-98282166D01*
X39790620Y-98186928D01*
X39790620Y-97996452D01*
X39743001Y-97901214D01*
X39695381Y-97853595D01*
X39600143Y-97805976D01*
X39362048Y-97805976D01*
X39266810Y-97853595D01*
X39219191Y-97901214D01*
X39171572Y-97996452D01*
X39171572Y-98186928D01*
X39219191Y-98282166D01*
X39266810Y-98329785D01*
X39362048Y-98377404D01*
X38790620Y-99329785D02*
X38790620Y-98758357D01*
X38790620Y-99044071D02*
X39790620Y-99044071D01*
X39647762Y-98948833D01*
X39552524Y-98853595D01*
X39504905Y-98758357D01*
X38790620Y-100520261D02*
X39457286Y-100520261D01*
X39362048Y-100520261D02*
X39409667Y-100567880D01*
X39457286Y-100663119D01*
X39457286Y-100805976D01*
X39409667Y-100901214D01*
X39314429Y-100948833D01*
X38790620Y-100948833D01*
X39314429Y-100948833D02*
X39409667Y-100996452D01*
X39457286Y-101091690D01*
X39457286Y-101234547D01*
X39409667Y-101329785D01*
X39314429Y-101377404D01*
X38790620Y-101377404D01*
X38790620Y-101853595D02*
X39457286Y-101853595D01*
X39362048Y-101853595D02*
X39409667Y-101901214D01*
X39457286Y-101996452D01*
X39457286Y-102139309D01*
X39409667Y-102234547D01*
X39314429Y-102282166D01*
X38790620Y-102282166D01*
X39314429Y-102282166D02*
X39409667Y-102329785D01*
X39457286Y-102425023D01*
X39457286Y-102567880D01*
X39409667Y-102663119D01*
X39314429Y-102710738D01*
X38790620Y-102710738D01*
D11*
X40513001Y-71120000D02*
X40513001Y-126111000D01*
X68199000Y-71120000D02*
X39926580Y-71120000D01*
X68199000Y-126111000D02*
X39926580Y-126111000D01*
X40513001Y-126111000D02*
X39926580Y-124984496D01*
X40513001Y-126111000D02*
X41099422Y-124984496D01*
X40513001Y-71120000D02*
X39926580Y-72246504D01*
X40513001Y-71120000D02*
X41099422Y-72246504D01*
D10*
X62516142Y-61555380D02*
X62039952Y-61555380D01*
X61992333Y-62031571D01*
X62039952Y-61983952D01*
X62135190Y-61936333D01*
X62373285Y-61936333D01*
X62468523Y-61983952D01*
X62516142Y-62031571D01*
X62563761Y-62126809D01*
X62563761Y-62364904D01*
X62516142Y-62460142D01*
X62468523Y-62507761D01*
X62373285Y-62555380D01*
X62135190Y-62555380D01*
X62039952Y-62507761D01*
X61992333Y-62460142D01*
X62992333Y-62460142D02*
X63039952Y-62507761D01*
X62992333Y-62555380D01*
X62944714Y-62507761D01*
X62992333Y-62460142D01*
X62992333Y-62555380D01*
X63659000Y-61555380D02*
X63754238Y-61555380D01*
X63849476Y-61603000D01*
X63897095Y-61650619D01*
X63944714Y-61745857D01*
X63992333Y-61936333D01*
X63992333Y-62174428D01*
X63944714Y-62364904D01*
X63897095Y-62460142D01*
X63849476Y-62507761D01*
X63754238Y-62555380D01*
X63659000Y-62555380D01*
X63563761Y-62507761D01*
X63516142Y-62460142D01*
X63468523Y-62364904D01*
X63420904Y-62174428D01*
X63420904Y-61936333D01*
X63468523Y-61745857D01*
X63516142Y-61650619D01*
X63563761Y-61603000D01*
X63659000Y-61555380D01*
X64563761Y-61983952D02*
X64468523Y-61936333D01*
X64420904Y-61888714D01*
X64373285Y-61793476D01*
X64373285Y-61745857D01*
X64420904Y-61650619D01*
X64468523Y-61603000D01*
X64563761Y-61555380D01*
X64754238Y-61555380D01*
X64849476Y-61603000D01*
X64897095Y-61650619D01*
X64944714Y-61745857D01*
X64944714Y-61793476D01*
X64897095Y-61888714D01*
X64849476Y-61936333D01*
X64754238Y-61983952D01*
X64563761Y-61983952D01*
X64468523Y-62031571D01*
X64420904Y-62079190D01*
X64373285Y-62174428D01*
X64373285Y-62364904D01*
X64420904Y-62460142D01*
X64468523Y-62507761D01*
X64563761Y-62555380D01*
X64754238Y-62555380D01*
X64849476Y-62507761D01*
X64897095Y-62460142D01*
X64944714Y-62364904D01*
X64944714Y-62174428D01*
X64897095Y-62079190D01*
X64849476Y-62031571D01*
X64754238Y-61983952D01*
X65563761Y-61555380D02*
X65659000Y-61555380D01*
X65754238Y-61603000D01*
X65801857Y-61650619D01*
X65849476Y-61745857D01*
X65897095Y-61936333D01*
X65897095Y-62174428D01*
X65849476Y-62364904D01*
X65801857Y-62460142D01*
X65754238Y-62507761D01*
X65659000Y-62555380D01*
X65563761Y-62555380D01*
X65468523Y-62507761D01*
X65420904Y-62460142D01*
X65373285Y-62364904D01*
X65325666Y-62174428D01*
X65325666Y-61936333D01*
X65373285Y-61745857D01*
X65420904Y-61650619D01*
X65468523Y-61603000D01*
X65563761Y-61555380D01*
X67087571Y-62555380D02*
X67087571Y-61888714D01*
X67087571Y-61983952D02*
X67135190Y-61936333D01*
X67230428Y-61888714D01*
X67373285Y-61888714D01*
X67468523Y-61936333D01*
X67516142Y-62031571D01*
X67516142Y-62555380D01*
X67516142Y-62031571D02*
X67563761Y-61936333D01*
X67659000Y-61888714D01*
X67801857Y-61888714D01*
X67897095Y-61936333D01*
X67944714Y-62031571D01*
X67944714Y-62555380D01*
X68420904Y-62555380D02*
X68420904Y-61888714D01*
X68420904Y-61983952D02*
X68468523Y-61936333D01*
X68563761Y-61888714D01*
X68706619Y-61888714D01*
X68801857Y-61936333D01*
X68849476Y-62031571D01*
X68849476Y-62555380D01*
X68849476Y-62031571D02*
X68897095Y-61936333D01*
X68992333Y-61888714D01*
X69135190Y-61888714D01*
X69230428Y-61936333D01*
X69278047Y-62031571D01*
X69278047Y-62555380D01*
D11*
X68199000Y-63373000D02*
X63119000Y-63373000D01*
X68199000Y-80899000D02*
X68199000Y-62786579D01*
X63119000Y-80899000D02*
X63119000Y-62786579D01*
X63119000Y-63373000D02*
X64245504Y-62786579D01*
X63119000Y-63373000D02*
X64245504Y-63959421D01*
X68199000Y-63373000D02*
X67072496Y-62786579D01*
X68199000Y-63373000D02*
X67072496Y-63959421D01*
D10*
X205115958Y-62922887D02*
X205119379Y-63589545D01*
X204875911Y-62543162D02*
X204641484Y-63258660D01*
X205260524Y-63255483D01*
X205642693Y-63491620D02*
X205690555Y-63538994D01*
X205643181Y-63586857D01*
X205595319Y-63539483D01*
X205642693Y-63491620D01*
X205643181Y-63586857D01*
X206067104Y-62679908D02*
X206114478Y-62632045D01*
X206209471Y-62583938D01*
X206447563Y-62582716D01*
X206543044Y-62629846D01*
X206590907Y-62677220D01*
X206639014Y-62772212D01*
X206639503Y-62867449D01*
X206592617Y-63010549D01*
X206024129Y-63584902D01*
X206643168Y-63581725D01*
X207211657Y-63007372D02*
X207116176Y-62960242D01*
X207068313Y-62912868D01*
X207020206Y-62817876D01*
X207019961Y-62770257D01*
X207067091Y-62674776D01*
X207114465Y-62626913D01*
X207209458Y-62578806D01*
X207399931Y-62577829D01*
X207495412Y-62624958D01*
X207543275Y-62672332D01*
X207591382Y-62767325D01*
X207591627Y-62814943D01*
X207544497Y-62910424D01*
X207497123Y-62958287D01*
X207402131Y-63006394D01*
X207211657Y-63007372D01*
X207116664Y-63055479D01*
X207069290Y-63103342D01*
X207022161Y-63198823D01*
X207023138Y-63389297D01*
X207071245Y-63484289D01*
X207119108Y-63531663D01*
X207214589Y-63578793D01*
X207405063Y-63577815D01*
X207500055Y-63529708D01*
X207547430Y-63481846D01*
X207594559Y-63386364D01*
X207593582Y-63195891D01*
X207545475Y-63100898D01*
X207497612Y-63053524D01*
X207402131Y-63006394D01*
X207923734Y-62575141D02*
X208590392Y-62571719D01*
X208166958Y-63573906D01*
X209738366Y-63565841D02*
X209734944Y-62899184D01*
X209735433Y-62994420D02*
X209782807Y-62946558D01*
X209877800Y-62898450D01*
X210020655Y-62897717D01*
X210116136Y-62944847D01*
X210164243Y-63039840D01*
X210166931Y-63563642D01*
X210164243Y-63039840D02*
X210211373Y-62944358D01*
X210306366Y-62896251D01*
X210449221Y-62895518D01*
X210544702Y-62942648D01*
X210592809Y-63037640D01*
X210595497Y-63561443D01*
X211071681Y-63558999D02*
X211068260Y-62892341D01*
X211068749Y-62987578D02*
X211116123Y-62939715D01*
X211211116Y-62891608D01*
X211353971Y-62890875D01*
X211449452Y-62938005D01*
X211497559Y-63032997D01*
X211500247Y-63556800D01*
X211497559Y-63032997D02*
X211544689Y-62937516D01*
X211639681Y-62889409D01*
X211782537Y-62888676D01*
X211878018Y-62935805D01*
X211926125Y-63030798D01*
X211928813Y-63554601D01*
D11*
X206170509Y-64401781D02*
X210457509Y-64379781D01*
X206248000Y-79502000D02*
X206167499Y-63815368D01*
X210535000Y-79480000D02*
X210454499Y-63793368D01*
X210457509Y-64379781D02*
X209334029Y-64971975D01*
X210457509Y-64379781D02*
X209328011Y-63799149D01*
X206170509Y-64401781D02*
X207300007Y-64982413D01*
X206170509Y-64401781D02*
X207293989Y-63809587D01*
D10*
X133175880Y-64968380D02*
X132604452Y-64968380D01*
X132890166Y-64968380D02*
X132890166Y-63968380D01*
X132794928Y-64111238D01*
X132699690Y-64206476D01*
X132604452Y-64254095D01*
X133509214Y-63968380D02*
X134128261Y-63968380D01*
X133794928Y-64349333D01*
X133937785Y-64349333D01*
X134033023Y-64396952D01*
X134080642Y-64444571D01*
X134128261Y-64539809D01*
X134128261Y-64777904D01*
X134080642Y-64873142D01*
X134033023Y-64920761D01*
X133937785Y-64968380D01*
X133652071Y-64968380D01*
X133556833Y-64920761D01*
X133509214Y-64873142D01*
X134699690Y-64396952D02*
X134604452Y-64349333D01*
X134556833Y-64301714D01*
X134509214Y-64206476D01*
X134509214Y-64158857D01*
X134556833Y-64063619D01*
X134604452Y-64016000D01*
X134699690Y-63968380D01*
X134890166Y-63968380D01*
X134985404Y-64016000D01*
X135033023Y-64063619D01*
X135080642Y-64158857D01*
X135080642Y-64206476D01*
X135033023Y-64301714D01*
X134985404Y-64349333D01*
X134890166Y-64396952D01*
X134699690Y-64396952D01*
X134604452Y-64444571D01*
X134556833Y-64492190D01*
X134509214Y-64587428D01*
X134509214Y-64777904D01*
X134556833Y-64873142D01*
X134604452Y-64920761D01*
X134699690Y-64968380D01*
X134890166Y-64968380D01*
X134985404Y-64920761D01*
X135033023Y-64873142D01*
X135080642Y-64777904D01*
X135080642Y-64587428D01*
X135033023Y-64492190D01*
X134985404Y-64444571D01*
X134890166Y-64396952D01*
X135509214Y-64873142D02*
X135556833Y-64920761D01*
X135509214Y-64968380D01*
X135461595Y-64920761D01*
X135509214Y-64873142D01*
X135509214Y-64968380D01*
X136175880Y-63968380D02*
X136271119Y-63968380D01*
X136366357Y-64016000D01*
X136413976Y-64063619D01*
X136461595Y-64158857D01*
X136509214Y-64349333D01*
X136509214Y-64587428D01*
X136461595Y-64777904D01*
X136413976Y-64873142D01*
X136366357Y-64920761D01*
X136271119Y-64968380D01*
X136175880Y-64968380D01*
X136080642Y-64920761D01*
X136033023Y-64873142D01*
X135985404Y-64777904D01*
X135937785Y-64587428D01*
X135937785Y-64349333D01*
X135985404Y-64158857D01*
X136033023Y-64063619D01*
X136080642Y-64016000D01*
X136175880Y-63968380D01*
X137366357Y-64301714D02*
X137366357Y-64968380D01*
X137128261Y-63920761D02*
X136890166Y-64635047D01*
X137509214Y-64635047D01*
X137937785Y-64968380D02*
X138128261Y-64968380D01*
X138223500Y-64920761D01*
X138271119Y-64873142D01*
X138366357Y-64730285D01*
X138413976Y-64539809D01*
X138413976Y-64158857D01*
X138366357Y-64063619D01*
X138318738Y-64016000D01*
X138223500Y-63968380D01*
X138033023Y-63968380D01*
X137937785Y-64016000D01*
X137890166Y-64063619D01*
X137842547Y-64158857D01*
X137842547Y-64396952D01*
X137890166Y-64492190D01*
X137937785Y-64539809D01*
X138033023Y-64587428D01*
X138223500Y-64587428D01*
X138318738Y-64539809D01*
X138366357Y-64492190D01*
X138413976Y-64396952D01*
X139604452Y-64968380D02*
X139604452Y-64301714D01*
X139604452Y-64396952D02*
X139652071Y-64349333D01*
X139747309Y-64301714D01*
X139890166Y-64301714D01*
X139985404Y-64349333D01*
X140033023Y-64444571D01*
X140033023Y-64968380D01*
X140033023Y-64444571D02*
X140080642Y-64349333D01*
X140175880Y-64301714D01*
X140318738Y-64301714D01*
X140413976Y-64349333D01*
X140461595Y-64444571D01*
X140461595Y-64968380D01*
X140937785Y-64968380D02*
X140937785Y-64301714D01*
X140937785Y-64396952D02*
X140985404Y-64349333D01*
X141080642Y-64301714D01*
X141223500Y-64301714D01*
X141318738Y-64349333D01*
X141366357Y-64444571D01*
X141366357Y-64968380D01*
X141366357Y-64444571D02*
X141413976Y-64349333D01*
X141509214Y-64301714D01*
X141652071Y-64301714D01*
X141747309Y-64349333D01*
X141794928Y-64444571D01*
X141794928Y-64968380D01*
D11*
X68199000Y-65786000D02*
X206248000Y-65786000D01*
X68199000Y-71120000D02*
X68199000Y-65199579D01*
X206248000Y-71120000D02*
X206248000Y-65199579D01*
X206248000Y-65786000D02*
X205121496Y-66372421D01*
X206248000Y-65786000D02*
X205121496Y-65199579D01*
X68199000Y-65786000D02*
X69325504Y-66372421D01*
X68199000Y-65786000D02*
X69325504Y-65199579D01*
D10*
X189531809Y-84971380D02*
X189531809Y-83971380D01*
X190198476Y-83971380D02*
X190388952Y-83971380D01*
X190484190Y-84019000D01*
X190579428Y-84114238D01*
X190627047Y-84304714D01*
X190627047Y-84638047D01*
X190579428Y-84828523D01*
X190484190Y-84923761D01*
X190388952Y-84971380D01*
X190198476Y-84971380D01*
X190103238Y-84923761D01*
X190008000Y-84828523D01*
X189960380Y-84638047D01*
X189960380Y-84304714D01*
X190008000Y-84114238D01*
X190103238Y-84019000D01*
X190198476Y-83971380D01*
X190960380Y-83971380D02*
X191579428Y-83971380D01*
X191246095Y-84352333D01*
X191388952Y-84352333D01*
X191484190Y-84399952D01*
X191531809Y-84447571D01*
X191579428Y-84542809D01*
X191579428Y-84780904D01*
X191531809Y-84876142D01*
X191484190Y-84923761D01*
X191388952Y-84971380D01*
X191103238Y-84971380D01*
X191008000Y-84923761D01*
X190960380Y-84876142D01*
X192484190Y-83971380D02*
X192008000Y-83971380D01*
X191960380Y-84447571D01*
X192008000Y-84399952D01*
X192103238Y-84352333D01*
X192341333Y-84352333D01*
X192436571Y-84399952D01*
X192484190Y-84447571D01*
X192531809Y-84542809D01*
X192531809Y-84780904D01*
X192484190Y-84876142D01*
X192436571Y-84923761D01*
X192341333Y-84971380D01*
X192103238Y-84971380D01*
X192008000Y-84923761D01*
X191960380Y-84876142D01*
X189531809Y-86621380D02*
X189531809Y-85621380D01*
X190198476Y-85621380D02*
X190388952Y-85621380D01*
X190484190Y-85669000D01*
X190579428Y-85764238D01*
X190627047Y-85954714D01*
X190627047Y-86288047D01*
X190579428Y-86478523D01*
X190484190Y-86573761D01*
X190388952Y-86621380D01*
X190198476Y-86621380D01*
X190103238Y-86573761D01*
X190008000Y-86478523D01*
X189960380Y-86288047D01*
X189960380Y-85954714D01*
X190008000Y-85764238D01*
X190103238Y-85669000D01*
X190198476Y-85621380D01*
X190960380Y-85621380D02*
X191579428Y-85621380D01*
X191246095Y-86002333D01*
X191388952Y-86002333D01*
X191484190Y-86049952D01*
X191531809Y-86097571D01*
X191579428Y-86192809D01*
X191579428Y-86430904D01*
X191531809Y-86526142D01*
X191484190Y-86573761D01*
X191388952Y-86621380D01*
X191103238Y-86621380D01*
X191008000Y-86573761D01*
X190960380Y-86526142D01*
X191912761Y-85621380D02*
X192579428Y-85621380D01*
X192150857Y-86621380D01*
X180602095Y-83971380D02*
X181173523Y-83971380D01*
X180887809Y-84971380D02*
X180887809Y-83971380D01*
X181411619Y-83971380D02*
X182078285Y-84971380D01*
X182078285Y-83971380D02*
X181411619Y-84971380D01*
X182459238Y-84971380D02*
X182459238Y-83971380D01*
X182697333Y-83971380D01*
X182840190Y-84019000D01*
X182935428Y-84114238D01*
X182983047Y-84209476D01*
X183030666Y-84399952D01*
X183030666Y-84542809D01*
X182983047Y-84733285D01*
X182935428Y-84828523D01*
X182840190Y-84923761D01*
X182697333Y-84971380D01*
X182459238Y-84971380D01*
X181197333Y-86621380D02*
X180864000Y-86145190D01*
X180625904Y-86621380D02*
X180625904Y-85621380D01*
X181006857Y-85621380D01*
X181102095Y-85669000D01*
X181149714Y-85716619D01*
X181197333Y-85811857D01*
X181197333Y-85954714D01*
X181149714Y-86049952D01*
X181102095Y-86097571D01*
X181006857Y-86145190D01*
X180625904Y-86145190D01*
X181530666Y-85621380D02*
X182197333Y-86621380D01*
X182197333Y-85621380D02*
X181530666Y-86621380D01*
X182578285Y-86621380D02*
X182578285Y-85621380D01*
X182816380Y-85621380D01*
X182959238Y-85669000D01*
X183054476Y-85764238D01*
X183102095Y-85859476D01*
X183149714Y-86049952D01*
X183149714Y-86192809D01*
X183102095Y-86383285D01*
X183054476Y-86478523D01*
X182959238Y-86573761D01*
X182816380Y-86621380D01*
X182578285Y-86621380D01*
X171497809Y-84971380D02*
X171497809Y-83971380D01*
X172164476Y-83971380D02*
X172354952Y-83971380D01*
X172450190Y-84019000D01*
X172545428Y-84114238D01*
X172593047Y-84304714D01*
X172593047Y-84638047D01*
X172545428Y-84828523D01*
X172450190Y-84923761D01*
X172354952Y-84971380D01*
X172164476Y-84971380D01*
X172069238Y-84923761D01*
X171974000Y-84828523D01*
X171926380Y-84638047D01*
X171926380Y-84304714D01*
X171974000Y-84114238D01*
X172069238Y-84019000D01*
X172164476Y-83971380D01*
X172974000Y-84066619D02*
X173021619Y-84019000D01*
X173116857Y-83971380D01*
X173354952Y-83971380D01*
X173450190Y-84019000D01*
X173497809Y-84066619D01*
X173545428Y-84161857D01*
X173545428Y-84257095D01*
X173497809Y-84399952D01*
X172926380Y-84971380D01*
X173545428Y-84971380D01*
X173878761Y-83971380D02*
X174545428Y-83971380D01*
X174116857Y-84971380D01*
X171640666Y-85621380D02*
X172212095Y-85621380D01*
X171926380Y-86621380D02*
X171926380Y-85621380D01*
X172545428Y-86621380D02*
X172545428Y-85621380D01*
X172878761Y-86335666D01*
X173212095Y-85621380D01*
X173212095Y-86621380D01*
X173640666Y-86573761D02*
X173783523Y-86621380D01*
X174021619Y-86621380D01*
X174116857Y-86573761D01*
X174164476Y-86526142D01*
X174212095Y-86430904D01*
X174212095Y-86335666D01*
X174164476Y-86240428D01*
X174116857Y-86192809D01*
X174021619Y-86145190D01*
X173831142Y-86097571D01*
X173735904Y-86049952D01*
X173688285Y-86002333D01*
X173640666Y-85907095D01*
X173640666Y-85811857D01*
X173688285Y-85716619D01*
X173735904Y-85669000D01*
X173831142Y-85621380D01*
X174069238Y-85621380D01*
X174212095Y-85669000D01*
X162353809Y-84971380D02*
X162353809Y-83971380D01*
X163020476Y-83971380D02*
X163210952Y-83971380D01*
X163306190Y-84019000D01*
X163401428Y-84114238D01*
X163449047Y-84304714D01*
X163449047Y-84638047D01*
X163401428Y-84828523D01*
X163306190Y-84923761D01*
X163210952Y-84971380D01*
X163020476Y-84971380D01*
X162925238Y-84923761D01*
X162830000Y-84828523D01*
X162782380Y-84638047D01*
X162782380Y-84304714D01*
X162830000Y-84114238D01*
X162925238Y-84019000D01*
X163020476Y-83971380D01*
X164068095Y-83971380D02*
X164163333Y-83971380D01*
X164258571Y-84019000D01*
X164306190Y-84066619D01*
X164353809Y-84161857D01*
X164401428Y-84352333D01*
X164401428Y-84590428D01*
X164353809Y-84780904D01*
X164306190Y-84876142D01*
X164258571Y-84923761D01*
X164163333Y-84971380D01*
X164068095Y-84971380D01*
X163972857Y-84923761D01*
X163925238Y-84876142D01*
X163877619Y-84780904D01*
X163830000Y-84590428D01*
X163830000Y-84352333D01*
X163877619Y-84161857D01*
X163925238Y-84066619D01*
X163972857Y-84019000D01*
X164068095Y-83971380D01*
X165258571Y-84304714D02*
X165258571Y-84971380D01*
X165020476Y-83923761D02*
X164782380Y-84638047D01*
X165401428Y-84638047D01*
X162568095Y-85621380D02*
X163139523Y-85621380D01*
X162853809Y-86621380D02*
X162853809Y-85621380D01*
X163472857Y-86621380D02*
X163472857Y-85621380D01*
X163710952Y-85621380D01*
X163853809Y-85669000D01*
X163949047Y-85764238D01*
X163996666Y-85859476D01*
X164044285Y-86049952D01*
X164044285Y-86192809D01*
X163996666Y-86383285D01*
X163949047Y-86478523D01*
X163853809Y-86573761D01*
X163710952Y-86621380D01*
X163472857Y-86621380D01*
X164663333Y-85621380D02*
X164758571Y-85621380D01*
X164853809Y-85669000D01*
X164901428Y-85716619D01*
X164949047Y-85811857D01*
X164996666Y-86002333D01*
X164996666Y-86240428D01*
X164949047Y-86430904D01*
X164901428Y-86526142D01*
X164853809Y-86573761D01*
X164758571Y-86621380D01*
X164663333Y-86621380D01*
X164568095Y-86573761D01*
X164520476Y-86526142D01*
X164472857Y-86430904D01*
X164425238Y-86240428D01*
X164425238Y-86002333D01*
X164472857Y-85811857D01*
X164520476Y-85716619D01*
X164568095Y-85669000D01*
X164663333Y-85621380D01*
X153209809Y-84971380D02*
X153209809Y-83971380D01*
X153876476Y-83971380D02*
X154066952Y-83971380D01*
X154162190Y-84019000D01*
X154257428Y-84114238D01*
X154305047Y-84304714D01*
X154305047Y-84638047D01*
X154257428Y-84828523D01*
X154162190Y-84923761D01*
X154066952Y-84971380D01*
X153876476Y-84971380D01*
X153781238Y-84923761D01*
X153686000Y-84828523D01*
X153638380Y-84638047D01*
X153638380Y-84304714D01*
X153686000Y-84114238D01*
X153781238Y-84019000D01*
X153876476Y-83971380D01*
X155257428Y-84971380D02*
X154686000Y-84971380D01*
X154971714Y-84971380D02*
X154971714Y-83971380D01*
X154876476Y-84114238D01*
X154781238Y-84209476D01*
X154686000Y-84257095D01*
X155733619Y-84971380D02*
X155924095Y-84971380D01*
X156019333Y-84923761D01*
X156066952Y-84876142D01*
X156162190Y-84733285D01*
X156209809Y-84542809D01*
X156209809Y-84161857D01*
X156162190Y-84066619D01*
X156114571Y-84019000D01*
X156019333Y-83971380D01*
X155828857Y-83971380D01*
X155733619Y-84019000D01*
X155686000Y-84066619D01*
X155638380Y-84161857D01*
X155638380Y-84399952D01*
X155686000Y-84495190D01*
X155733619Y-84542809D01*
X155828857Y-84590428D01*
X156019333Y-84590428D01*
X156114571Y-84542809D01*
X156162190Y-84495190D01*
X156209809Y-84399952D01*
X153209809Y-86621380D02*
X153209809Y-85621380D01*
X153876476Y-85621380D02*
X154066952Y-85621380D01*
X154162190Y-85669000D01*
X154257428Y-85764238D01*
X154305047Y-85954714D01*
X154305047Y-86288047D01*
X154257428Y-86478523D01*
X154162190Y-86573761D01*
X154066952Y-86621380D01*
X153876476Y-86621380D01*
X153781238Y-86573761D01*
X153686000Y-86478523D01*
X153638380Y-86288047D01*
X153638380Y-85954714D01*
X153686000Y-85764238D01*
X153781238Y-85669000D01*
X153876476Y-85621380D01*
X155257428Y-86621380D02*
X154686000Y-86621380D01*
X154971714Y-86621380D02*
X154971714Y-85621380D01*
X154876476Y-85764238D01*
X154781238Y-85859476D01*
X154686000Y-85907095D01*
X155828857Y-86049952D02*
X155733619Y-86002333D01*
X155686000Y-85954714D01*
X155638380Y-85859476D01*
X155638380Y-85811857D01*
X155686000Y-85716619D01*
X155733619Y-85669000D01*
X155828857Y-85621380D01*
X156019333Y-85621380D01*
X156114571Y-85669000D01*
X156162190Y-85716619D01*
X156209809Y-85811857D01*
X156209809Y-85859476D01*
X156162190Y-85954714D01*
X156114571Y-86002333D01*
X156019333Y-86049952D01*
X155828857Y-86049952D01*
X155733619Y-86097571D01*
X155686000Y-86145190D01*
X155638380Y-86240428D01*
X155638380Y-86430904D01*
X155686000Y-86526142D01*
X155733619Y-86573761D01*
X155828857Y-86621380D01*
X156019333Y-86621380D01*
X156114571Y-86573761D01*
X156162190Y-86526142D01*
X156209809Y-86430904D01*
X156209809Y-86240428D01*
X156162190Y-86145190D01*
X156114571Y-86097571D01*
X156019333Y-86049952D01*
X144065809Y-84971380D02*
X144065809Y-83971380D01*
X144732476Y-83971380D02*
X144922952Y-83971380D01*
X145018190Y-84019000D01*
X145113428Y-84114238D01*
X145161047Y-84304714D01*
X145161047Y-84638047D01*
X145113428Y-84828523D01*
X145018190Y-84923761D01*
X144922952Y-84971380D01*
X144732476Y-84971380D01*
X144637238Y-84923761D01*
X144542000Y-84828523D01*
X144494380Y-84638047D01*
X144494380Y-84304714D01*
X144542000Y-84114238D01*
X144637238Y-84019000D01*
X144732476Y-83971380D01*
X146113428Y-84971380D02*
X145542000Y-84971380D01*
X145827714Y-84971380D02*
X145827714Y-83971380D01*
X145732476Y-84114238D01*
X145637238Y-84209476D01*
X145542000Y-84257095D01*
X146446761Y-83971380D02*
X147113428Y-83971380D01*
X146684857Y-84971380D01*
X144065809Y-86621380D02*
X144065809Y-85621380D01*
X144732476Y-85621380D02*
X144922952Y-85621380D01*
X145018190Y-85669000D01*
X145113428Y-85764238D01*
X145161047Y-85954714D01*
X145161047Y-86288047D01*
X145113428Y-86478523D01*
X145018190Y-86573761D01*
X144922952Y-86621380D01*
X144732476Y-86621380D01*
X144637238Y-86573761D01*
X144542000Y-86478523D01*
X144494380Y-86288047D01*
X144494380Y-85954714D01*
X144542000Y-85764238D01*
X144637238Y-85669000D01*
X144732476Y-85621380D01*
X146113428Y-86621380D02*
X145542000Y-86621380D01*
X145827714Y-86621380D02*
X145827714Y-85621380D01*
X145732476Y-85764238D01*
X145637238Y-85859476D01*
X145542000Y-85907095D01*
X146970571Y-85621380D02*
X146780095Y-85621380D01*
X146684857Y-85669000D01*
X146637238Y-85716619D01*
X146542000Y-85859476D01*
X146494380Y-86049952D01*
X146494380Y-86430904D01*
X146542000Y-86526142D01*
X146589619Y-86573761D01*
X146684857Y-86621380D01*
X146875333Y-86621380D01*
X146970571Y-86573761D01*
X147018190Y-86526142D01*
X147065809Y-86430904D01*
X147065809Y-86192809D01*
X147018190Y-86097571D01*
X146970571Y-86049952D01*
X146875333Y-86002333D01*
X146684857Y-86002333D01*
X146589619Y-86049952D01*
X146542000Y-86097571D01*
X146494380Y-86192809D01*
X134921809Y-84971380D02*
X134921809Y-83971380D01*
X135588476Y-83971380D02*
X135778952Y-83971380D01*
X135874190Y-84019000D01*
X135969428Y-84114238D01*
X136017047Y-84304714D01*
X136017047Y-84638047D01*
X135969428Y-84828523D01*
X135874190Y-84923761D01*
X135778952Y-84971380D01*
X135588476Y-84971380D01*
X135493238Y-84923761D01*
X135398000Y-84828523D01*
X135350380Y-84638047D01*
X135350380Y-84304714D01*
X135398000Y-84114238D01*
X135493238Y-84019000D01*
X135588476Y-83971380D01*
X136398000Y-84066619D02*
X136445619Y-84019000D01*
X136540857Y-83971380D01*
X136778952Y-83971380D01*
X136874190Y-84019000D01*
X136921809Y-84066619D01*
X136969428Y-84161857D01*
X136969428Y-84257095D01*
X136921809Y-84399952D01*
X136350380Y-84971380D01*
X136969428Y-84971380D01*
X137874190Y-83971380D02*
X137398000Y-83971380D01*
X137350380Y-84447571D01*
X137398000Y-84399952D01*
X137493238Y-84352333D01*
X137731333Y-84352333D01*
X137826571Y-84399952D01*
X137874190Y-84447571D01*
X137921809Y-84542809D01*
X137921809Y-84780904D01*
X137874190Y-84876142D01*
X137826571Y-84923761D01*
X137731333Y-84971380D01*
X137493238Y-84971380D01*
X137398000Y-84923761D01*
X137350380Y-84876142D01*
X134921809Y-86621380D02*
X134921809Y-85621380D01*
X135588476Y-85621380D02*
X135778952Y-85621380D01*
X135874190Y-85669000D01*
X135969428Y-85764238D01*
X136017047Y-85954714D01*
X136017047Y-86288047D01*
X135969428Y-86478523D01*
X135874190Y-86573761D01*
X135778952Y-86621380D01*
X135588476Y-86621380D01*
X135493238Y-86573761D01*
X135398000Y-86478523D01*
X135350380Y-86288047D01*
X135350380Y-85954714D01*
X135398000Y-85764238D01*
X135493238Y-85669000D01*
X135588476Y-85621380D01*
X136398000Y-85716619D02*
X136445619Y-85669000D01*
X136540857Y-85621380D01*
X136778952Y-85621380D01*
X136874190Y-85669000D01*
X136921809Y-85716619D01*
X136969428Y-85811857D01*
X136969428Y-85907095D01*
X136921809Y-86049952D01*
X136350380Y-86621380D01*
X136969428Y-86621380D01*
X137826571Y-85621380D02*
X137636095Y-85621380D01*
X137540857Y-85669000D01*
X137493238Y-85716619D01*
X137398000Y-85859476D01*
X137350380Y-86049952D01*
X137350380Y-86430904D01*
X137398000Y-86526142D01*
X137445619Y-86573761D01*
X137540857Y-86621380D01*
X137731333Y-86621380D01*
X137826571Y-86573761D01*
X137874190Y-86526142D01*
X137921809Y-86430904D01*
X137921809Y-86192809D01*
X137874190Y-86097571D01*
X137826571Y-86049952D01*
X137731333Y-86002333D01*
X137540857Y-86002333D01*
X137445619Y-86049952D01*
X137398000Y-86097571D01*
X137350380Y-86192809D01*
X126015904Y-84923761D02*
X126158761Y-84971380D01*
X126396857Y-84971380D01*
X126492095Y-84923761D01*
X126539714Y-84876142D01*
X126587333Y-84780904D01*
X126587333Y-84685666D01*
X126539714Y-84590428D01*
X126492095Y-84542809D01*
X126396857Y-84495190D01*
X126206380Y-84447571D01*
X126111142Y-84399952D01*
X126063523Y-84352333D01*
X126015904Y-84257095D01*
X126015904Y-84161857D01*
X126063523Y-84066619D01*
X126111142Y-84019000D01*
X126206380Y-83971380D01*
X126444476Y-83971380D01*
X126587333Y-84019000D01*
X126873047Y-83971380D02*
X127206380Y-84971380D01*
X127539714Y-83971380D01*
X127873047Y-84971380D02*
X127873047Y-83971380D01*
X128444476Y-84971380D01*
X128444476Y-83971380D01*
X126039714Y-86573761D02*
X126182571Y-86621380D01*
X126420666Y-86621380D01*
X126515904Y-86573761D01*
X126563523Y-86526142D01*
X126611142Y-86430904D01*
X126611142Y-86335666D01*
X126563523Y-86240428D01*
X126515904Y-86192809D01*
X126420666Y-86145190D01*
X126230190Y-86097571D01*
X126134952Y-86049952D01*
X126087333Y-86002333D01*
X126039714Y-85907095D01*
X126039714Y-85811857D01*
X126087333Y-85716619D01*
X126134952Y-85669000D01*
X126230190Y-85621380D01*
X126468285Y-85621380D01*
X126611142Y-85669000D01*
X126896857Y-85621380D02*
X127230190Y-86621380D01*
X127563523Y-85621380D01*
X127896857Y-86621380D02*
X127896857Y-85621380D01*
X128277809Y-85621380D01*
X128373047Y-85669000D01*
X128420666Y-85716619D01*
X128468285Y-85811857D01*
X128468285Y-85954714D01*
X128420666Y-86049952D01*
X128373047Y-86097571D01*
X128277809Y-86145190D01*
X127896857Y-86145190D01*
X116633809Y-84971380D02*
X116633809Y-83971380D01*
X117300476Y-83971380D02*
X117490952Y-83971380D01*
X117586190Y-84019000D01*
X117681428Y-84114238D01*
X117729047Y-84304714D01*
X117729047Y-84638047D01*
X117681428Y-84828523D01*
X117586190Y-84923761D01*
X117490952Y-84971380D01*
X117300476Y-84971380D01*
X117205238Y-84923761D01*
X117110000Y-84828523D01*
X117062380Y-84638047D01*
X117062380Y-84304714D01*
X117110000Y-84114238D01*
X117205238Y-84019000D01*
X117300476Y-83971380D01*
X118062380Y-83971380D02*
X118681428Y-83971380D01*
X118348095Y-84352333D01*
X118490952Y-84352333D01*
X118586190Y-84399952D01*
X118633809Y-84447571D01*
X118681428Y-84542809D01*
X118681428Y-84780904D01*
X118633809Y-84876142D01*
X118586190Y-84923761D01*
X118490952Y-84971380D01*
X118205238Y-84971380D01*
X118110000Y-84923761D01*
X118062380Y-84876142D01*
X119062380Y-84066619D02*
X119110000Y-84019000D01*
X119205238Y-83971380D01*
X119443333Y-83971380D01*
X119538571Y-84019000D01*
X119586190Y-84066619D01*
X119633809Y-84161857D01*
X119633809Y-84257095D01*
X119586190Y-84399952D01*
X119014761Y-84971380D01*
X119633809Y-84971380D01*
X116633809Y-86621380D02*
X116633809Y-85621380D01*
X117300476Y-85621380D02*
X117490952Y-85621380D01*
X117586190Y-85669000D01*
X117681428Y-85764238D01*
X117729047Y-85954714D01*
X117729047Y-86288047D01*
X117681428Y-86478523D01*
X117586190Y-86573761D01*
X117490952Y-86621380D01*
X117300476Y-86621380D01*
X117205238Y-86573761D01*
X117110000Y-86478523D01*
X117062380Y-86288047D01*
X117062380Y-85954714D01*
X117110000Y-85764238D01*
X117205238Y-85669000D01*
X117300476Y-85621380D01*
X118062380Y-85621380D02*
X118681428Y-85621380D01*
X118348095Y-86002333D01*
X118490952Y-86002333D01*
X118586190Y-86049952D01*
X118633809Y-86097571D01*
X118681428Y-86192809D01*
X118681428Y-86430904D01*
X118633809Y-86526142D01*
X118586190Y-86573761D01*
X118490952Y-86621380D01*
X118205238Y-86621380D01*
X118110000Y-86573761D01*
X118062380Y-86526142D01*
X119014761Y-85621380D02*
X119633809Y-85621380D01*
X119300476Y-86002333D01*
X119443333Y-86002333D01*
X119538571Y-86049952D01*
X119586190Y-86097571D01*
X119633809Y-86192809D01*
X119633809Y-86430904D01*
X119586190Y-86526142D01*
X119538571Y-86573761D01*
X119443333Y-86621380D01*
X119157619Y-86621380D01*
X119062380Y-86573761D01*
X119014761Y-86526142D01*
X107989809Y-84971380D02*
X107989809Y-83971380D01*
X108418380Y-84066619D02*
X108466000Y-84019000D01*
X108561238Y-83971380D01*
X108799333Y-83971380D01*
X108894571Y-84019000D01*
X108942190Y-84066619D01*
X108989809Y-84161857D01*
X108989809Y-84257095D01*
X108942190Y-84399952D01*
X108370761Y-84971380D01*
X108989809Y-84971380D01*
X109989809Y-84876142D02*
X109942190Y-84923761D01*
X109799333Y-84971380D01*
X109704095Y-84971380D01*
X109561238Y-84923761D01*
X109466000Y-84828523D01*
X109418380Y-84733285D01*
X109370761Y-84542809D01*
X109370761Y-84399952D01*
X109418380Y-84209476D01*
X109466000Y-84114238D01*
X109561238Y-84019000D01*
X109704095Y-83971380D01*
X109799333Y-83971380D01*
X109942190Y-84019000D01*
X109989809Y-84066619D01*
X98845809Y-84971380D02*
X98845809Y-83971380D01*
X99274380Y-84066619D02*
X99322000Y-84019000D01*
X99417238Y-83971380D01*
X99655333Y-83971380D01*
X99750571Y-84019000D01*
X99798190Y-84066619D01*
X99845809Y-84161857D01*
X99845809Y-84257095D01*
X99798190Y-84399952D01*
X99226761Y-84971380D01*
X99845809Y-84971380D01*
X100845809Y-84876142D02*
X100798190Y-84923761D01*
X100655333Y-84971380D01*
X100560095Y-84971380D01*
X100417238Y-84923761D01*
X100322000Y-84828523D01*
X100274380Y-84733285D01*
X100226761Y-84542809D01*
X100226761Y-84399952D01*
X100274380Y-84209476D01*
X100322000Y-84114238D01*
X100417238Y-84019000D01*
X100560095Y-83971380D01*
X100655333Y-83971380D01*
X100798190Y-84019000D01*
X100845809Y-84066619D01*
X89828809Y-84971380D02*
X89828809Y-83971380D01*
X90257380Y-84066619D02*
X90305000Y-84019000D01*
X90400238Y-83971380D01*
X90638333Y-83971380D01*
X90733571Y-84019000D01*
X90781190Y-84066619D01*
X90828809Y-84161857D01*
X90828809Y-84257095D01*
X90781190Y-84399952D01*
X90209761Y-84971380D01*
X90828809Y-84971380D01*
X91828809Y-84876142D02*
X91781190Y-84923761D01*
X91638333Y-84971380D01*
X91543095Y-84971380D01*
X91400238Y-84923761D01*
X91305000Y-84828523D01*
X91257380Y-84733285D01*
X91209761Y-84542809D01*
X91209761Y-84399952D01*
X91257380Y-84209476D01*
X91305000Y-84114238D01*
X91400238Y-84019000D01*
X91543095Y-83971380D01*
X91638333Y-83971380D01*
X91781190Y-84019000D01*
X91828809Y-84066619D01*
X80938809Y-84971380D02*
X80938809Y-83971380D01*
X81367380Y-84066619D02*
X81415000Y-84019000D01*
X81510238Y-83971380D01*
X81748333Y-83971380D01*
X81843571Y-84019000D01*
X81891190Y-84066619D01*
X81938809Y-84161857D01*
X81938809Y-84257095D01*
X81891190Y-84399952D01*
X81319761Y-84971380D01*
X81938809Y-84971380D01*
X82938809Y-84876142D02*
X82891190Y-84923761D01*
X82748333Y-84971380D01*
X82653095Y-84971380D01*
X82510238Y-84923761D01*
X82415000Y-84828523D01*
X82367380Y-84733285D01*
X82319761Y-84542809D01*
X82319761Y-84399952D01*
X82367380Y-84209476D01*
X82415000Y-84114238D01*
X82510238Y-84019000D01*
X82653095Y-83971380D01*
X82748333Y-83971380D01*
X82891190Y-84019000D01*
X82938809Y-84066619D01*
X82550000Y-88265000D02*
X82550000Y-125095000D01*
X82550000Y-125095000D02*
X118110000Y-125095000D01*
X118110000Y-125095000D02*
X118110000Y-86995000D01*
X118110000Y-86995000D02*
X82550000Y-86995000D01*
X82550000Y-86995000D02*
X82550000Y-88265000D01*
X87630000Y-94615000D02*
X87630000Y-114935000D01*
X86360000Y-114935000D02*
X114300000Y-114935000D01*
X113030000Y-114935000D02*
X113030000Y-94615000D01*
X114300000Y-94615000D02*
X86360000Y-94615000D01*
X86360000Y-120015000D02*
X114300000Y-120015000D01*
X155970000Y-88265000D02*
X155970000Y-125095000D01*
X155970000Y-125095000D02*
X191530000Y-125095000D01*
X191530000Y-125095000D02*
X191530000Y-86995000D01*
X191530000Y-86995000D02*
X155970000Y-86995000D01*
X155970000Y-86995000D02*
X155970000Y-88265000D01*
X161050000Y-94615000D02*
X161050000Y-114935000D01*
X159780000Y-114935000D02*
X187720000Y-114935000D01*
X186450000Y-114935000D02*
X186450000Y-94615000D01*
X187720000Y-94615000D02*
X159780000Y-94615000D01*
X159780000Y-120015000D02*
X187720000Y-120015000D01*
X119260000Y-88265000D02*
X119260000Y-125095000D01*
X119260000Y-125095000D02*
X154820000Y-125095000D01*
X154820000Y-125095000D02*
X154820000Y-86995000D01*
X154820000Y-86995000D02*
X119260000Y-86995000D01*
X119260000Y-86995000D02*
X119260000Y-88265000D01*
X124340000Y-94615000D02*
X124340000Y-114935000D01*
X123070000Y-114935000D02*
X151010000Y-114935000D01*
X149740000Y-114935000D02*
X149740000Y-94615000D01*
X151010000Y-94615000D02*
X123070000Y-94615000D01*
X123070000Y-120015000D02*
X151010000Y-120015000D01*
D11*
X194308000Y-75899000D02*
X194308000Y-75299000D01*
X194308000Y-80499000D02*
X194308000Y-79899000D01*
X188458000Y-83399000D02*
X188458000Y-72349000D01*
X194308000Y-83399000D02*
X188458000Y-83399000D01*
X194308000Y-79649000D02*
X194308000Y-76149000D01*
X194308000Y-72349000D02*
X188458000Y-72349000D01*
X194308000Y-83399000D02*
X194308000Y-80749000D01*
X194308000Y-74999000D02*
X194308000Y-72349000D01*
X185196000Y-75899000D02*
X185196000Y-75299000D01*
X185196000Y-80499000D02*
X185196000Y-79899000D01*
X179346000Y-83399000D02*
X179346000Y-72349000D01*
X185196000Y-83399000D02*
X179346000Y-83399000D01*
X185196000Y-79649000D02*
X185196000Y-76149000D01*
X185196000Y-72349000D02*
X179346000Y-72349000D01*
X185196000Y-83399000D02*
X185196000Y-80749000D01*
X185196000Y-74999000D02*
X185196000Y-72349000D01*
X166971000Y-75899000D02*
X166971000Y-75299000D01*
X166971000Y-80499000D02*
X166971000Y-79899000D01*
X161121000Y-83399000D02*
X161121000Y-72349000D01*
X166971000Y-83399000D02*
X161121000Y-83399000D01*
X166971000Y-79649000D02*
X166971000Y-76149000D01*
X166971000Y-72349000D02*
X161121000Y-72349000D01*
X166971000Y-83399000D02*
X166971000Y-80749000D01*
X166971000Y-74999000D02*
X166971000Y-72349000D01*
X148747000Y-75899000D02*
X148747000Y-75299000D01*
X148747000Y-80499000D02*
X148747000Y-79899000D01*
X142897000Y-83399000D02*
X142897000Y-72349000D01*
X148747000Y-83399000D02*
X142897000Y-83399000D01*
X148747000Y-79649000D02*
X148747000Y-76149000D01*
X148747000Y-72349000D02*
X142897000Y-72349000D01*
X148747000Y-83399000D02*
X148747000Y-80749000D01*
X148747000Y-74999000D02*
X148747000Y-72349000D01*
X176084000Y-75899000D02*
X176084000Y-75299000D01*
X176084000Y-80499000D02*
X176084000Y-79899000D01*
X170234000Y-83399000D02*
X170234000Y-72349000D01*
X176084000Y-83399000D02*
X170234000Y-83399000D01*
X176084000Y-79649000D02*
X176084000Y-76149000D01*
X176084000Y-72349000D02*
X170234000Y-72349000D01*
X176084000Y-83399000D02*
X176084000Y-80749000D01*
X176084000Y-74999000D02*
X176084000Y-72349000D01*
X157859000Y-75899000D02*
X157859000Y-75299000D01*
X157859000Y-80499000D02*
X157859000Y-79899000D01*
X152009000Y-83399000D02*
X152009000Y-72349000D01*
X157859000Y-83399000D02*
X152009000Y-83399000D01*
X157859000Y-79649000D02*
X157859000Y-76149000D01*
X157859000Y-72349000D02*
X152009000Y-72349000D01*
X157859000Y-83399000D02*
X157859000Y-80749000D01*
X157859000Y-74999000D02*
X157859000Y-72349000D01*
X139634000Y-75899000D02*
X139634000Y-75299000D01*
X139634000Y-80499000D02*
X139634000Y-79899000D01*
X133784000Y-83399000D02*
X133784000Y-72349000D01*
X139634000Y-83399000D02*
X133784000Y-83399000D01*
X139634000Y-79649000D02*
X139634000Y-76149000D01*
X139634000Y-72349000D02*
X133784000Y-72349000D01*
X139634000Y-83399000D02*
X139634000Y-80749000D01*
X139634000Y-74999000D02*
X139634000Y-72349000D01*
X84961000Y-75899000D02*
X84961000Y-75299000D01*
X84961000Y-80499000D02*
X84961000Y-79899000D01*
X79111000Y-83399000D02*
X79111000Y-72349000D01*
X84961000Y-83399000D02*
X79111000Y-83399000D01*
X84961000Y-79649000D02*
X84961000Y-76149000D01*
X84961000Y-72349000D02*
X79111000Y-72349000D01*
X84961000Y-83399000D02*
X84961000Y-80749000D01*
X84961000Y-74999000D02*
X84961000Y-72349000D01*
X112298000Y-75899000D02*
X112298000Y-75299000D01*
X112298000Y-80499000D02*
X112298000Y-79899000D01*
X106448000Y-83399000D02*
X106448000Y-72349000D01*
X112298000Y-83399000D02*
X106448000Y-83399000D01*
X112298000Y-79649000D02*
X112298000Y-76149000D01*
X112298000Y-72349000D02*
X106448000Y-72349000D01*
X112298000Y-83399000D02*
X112298000Y-80749000D01*
X112298000Y-74999000D02*
X112298000Y-72349000D01*
X103185500Y-75899000D02*
X103185500Y-75299000D01*
X103185500Y-80499000D02*
X103185500Y-79899000D01*
X97335500Y-83399000D02*
X97335500Y-72349000D01*
X103185500Y-83399000D02*
X97335500Y-83399000D01*
X103185500Y-79649000D02*
X103185500Y-76149000D01*
X103185500Y-72349000D02*
X97335500Y-72349000D01*
X103185500Y-83399000D02*
X103185500Y-80749000D01*
X103185500Y-74999000D02*
X103185500Y-72349000D01*
X94073200Y-75899000D02*
X94073200Y-75299000D01*
X94073200Y-80499000D02*
X94073200Y-79899000D01*
X88223200Y-83399000D02*
X88223200Y-72349000D01*
X94073200Y-83399000D02*
X88223200Y-83399000D01*
X94073200Y-79649000D02*
X94073200Y-76149000D01*
X94073200Y-72349000D02*
X88223200Y-72349000D01*
X94073200Y-83399000D02*
X94073200Y-80749000D01*
X94073200Y-74999000D02*
X94073200Y-72349000D01*
X197485000Y-120710000D02*
X196375000Y-120710000D01*
X196375000Y-120710000D02*
X196375000Y-119380000D01*
X210115000Y-120710000D02*
X210115000Y-79950000D01*
X210115000Y-79950000D02*
X201485000Y-79950000D01*
X201485000Y-120710000D02*
X201485000Y-79950000D01*
X210115000Y-120710000D02*
X201485000Y-120710000D01*
X210115000Y-82550000D02*
X201485000Y-82550000D01*
X210115000Y-85090000D02*
X201485000Y-85090000D01*
X210115000Y-87630000D02*
X201485000Y-87630000D01*
X210115000Y-90170000D02*
X201485000Y-90170000D01*
X210115000Y-92710000D02*
X201485000Y-92710000D01*
X210115000Y-95250000D02*
X201485000Y-95250000D01*
X210115000Y-97790000D02*
X201485000Y-97790000D01*
X210115000Y-100330000D02*
X201485000Y-100330000D01*
X210115000Y-102870000D02*
X201485000Y-102870000D01*
X210115000Y-105410000D02*
X201485000Y-105410000D01*
X210115000Y-107950000D02*
X201485000Y-107950000D01*
X210115000Y-110490000D02*
X201485000Y-110490000D01*
X210115000Y-113030000D02*
X201485000Y-113030000D01*
X210115000Y-115570000D02*
X201485000Y-115570000D01*
X210115000Y-118110000D02*
X201485000Y-118110000D01*
X198975000Y-80920000D02*
X198535000Y-80920000D01*
X201485000Y-80920000D02*
X201075000Y-80920000D01*
X198975000Y-81640000D02*
X198535000Y-81640000D01*
X201485000Y-81640000D02*
X201075000Y-81640000D01*
X198975000Y-83460000D02*
X198535000Y-83460000D01*
X201485000Y-83460000D02*
X201075000Y-83460000D01*
X198975000Y-84180000D02*
X198535000Y-84180000D01*
X201485000Y-84180000D02*
X201075000Y-84180000D01*
X198975000Y-86000000D02*
X198535000Y-86000000D01*
X201485000Y-86000000D02*
X201075000Y-86000000D01*
X198975000Y-86720000D02*
X198535000Y-86720000D01*
X201485000Y-86720000D02*
X201075000Y-86720000D01*
X198975000Y-88540000D02*
X198535000Y-88540000D01*
X201485000Y-88540000D02*
X201075000Y-88540000D01*
X198975000Y-89260000D02*
X198535000Y-89260000D01*
X201485000Y-89260000D02*
X201075000Y-89260000D01*
X198975000Y-91080000D02*
X198535000Y-91080000D01*
X201485000Y-91080000D02*
X201075000Y-91080000D01*
X198975000Y-91800000D02*
X198535000Y-91800000D01*
X201485000Y-91800000D02*
X201075000Y-91800000D01*
X198975000Y-93620000D02*
X198535000Y-93620000D01*
X201485000Y-93620000D02*
X201075000Y-93620000D01*
X198975000Y-94340000D02*
X198535000Y-94340000D01*
X201485000Y-94340000D02*
X201075000Y-94340000D01*
X198975000Y-96160000D02*
X198535000Y-96160000D01*
X201485000Y-96160000D02*
X201075000Y-96160000D01*
X198975000Y-96880000D02*
X198535000Y-96880000D01*
X201485000Y-96880000D02*
X201075000Y-96880000D01*
X198975000Y-98700000D02*
X198535000Y-98700000D01*
X201485000Y-98700000D02*
X201075000Y-98700000D01*
X198975000Y-99420000D02*
X198535000Y-99420000D01*
X201485000Y-99420000D02*
X201075000Y-99420000D01*
X198975000Y-101240000D02*
X198535000Y-101240000D01*
X201485000Y-101240000D02*
X201075000Y-101240000D01*
X198975000Y-101960000D02*
X198535000Y-101960000D01*
X201485000Y-101960000D02*
X201075000Y-101960000D01*
X198975000Y-103780000D02*
X198535000Y-103780000D01*
X201485000Y-103780000D02*
X201075000Y-103780000D01*
X198975000Y-104500000D02*
X198535000Y-104500000D01*
X201485000Y-104500000D02*
X201075000Y-104500000D01*
X198975000Y-106320000D02*
X198535000Y-106320000D01*
X201485000Y-106320000D02*
X201075000Y-106320000D01*
X198975000Y-107040000D02*
X198535000Y-107040000D01*
X201485000Y-107040000D02*
X201075000Y-107040000D01*
X198975000Y-108860000D02*
X198535000Y-108860000D01*
X201485000Y-108860000D02*
X201075000Y-108860000D01*
X198975000Y-109580000D02*
X198535000Y-109580000D01*
X201485000Y-109580000D02*
X201075000Y-109580000D01*
X198975000Y-111400000D02*
X198535000Y-111400000D01*
X201485000Y-111400000D02*
X201075000Y-111400000D01*
X198975000Y-112120000D02*
X198535000Y-112120000D01*
X201485000Y-112120000D02*
X201075000Y-112120000D01*
X198975000Y-113940000D02*
X198535000Y-113940000D01*
X201485000Y-113940000D02*
X201075000Y-113940000D01*
X198975000Y-114660000D02*
X198535000Y-114660000D01*
X201485000Y-114660000D02*
X201075000Y-114660000D01*
X198975000Y-116480000D02*
X198535000Y-116480000D01*
X201485000Y-116480000D02*
X201075000Y-116480000D01*
X198975000Y-117200000D02*
X198535000Y-117200000D01*
X201485000Y-117200000D02*
X201075000Y-117200000D01*
X198975000Y-119020000D02*
X198595000Y-119020000D01*
X201485000Y-119020000D02*
X201075000Y-119020000D01*
X198975000Y-119740000D02*
X198595000Y-119740000D01*
X201485000Y-119740000D02*
X201075000Y-119740000D01*
X210115000Y-118228100D02*
X201485000Y-118228100D01*
X210115000Y-118346195D02*
X201485000Y-118346195D01*
X210115000Y-118464290D02*
X201485000Y-118464290D01*
X210115000Y-118582385D02*
X201485000Y-118582385D01*
X210115000Y-118700480D02*
X201485000Y-118700480D01*
X210115000Y-118818575D02*
X201485000Y-118818575D01*
X210115000Y-118936670D02*
X201485000Y-118936670D01*
X210115000Y-119054765D02*
X201485000Y-119054765D01*
X210115000Y-119172860D02*
X201485000Y-119172860D01*
X210115000Y-119290955D02*
X201485000Y-119290955D01*
X210115000Y-119409050D02*
X201485000Y-119409050D01*
X210115000Y-119527145D02*
X201485000Y-119527145D01*
X210115000Y-119645240D02*
X201485000Y-119645240D01*
X210115000Y-119763335D02*
X201485000Y-119763335D01*
X210115000Y-119881430D02*
X201485000Y-119881430D01*
X210115000Y-119999525D02*
X201485000Y-119999525D01*
X210115000Y-120117620D02*
X201485000Y-120117620D01*
X210115000Y-120235715D02*
X201485000Y-120235715D01*
X210115000Y-120353810D02*
X201485000Y-120353810D01*
X210115000Y-120471905D02*
X201485000Y-120471905D01*
X210115000Y-120590000D02*
X201485000Y-120590000D01*
X77470000Y-120650000D02*
X76200000Y-120650000D01*
X77470000Y-119380000D02*
X77470000Y-120650000D01*
X75157071Y-80900000D02*
X74702929Y-80900000D01*
X75157071Y-81660000D02*
X74702929Y-81660000D01*
X72617071Y-80900000D02*
X72220000Y-80900000D01*
X72617071Y-81660000D02*
X72220000Y-81660000D01*
X63560000Y-80900000D02*
X69560000Y-80900000D01*
X63560000Y-81660000D02*
X63560000Y-80900000D01*
X69560000Y-81660000D02*
X63560000Y-81660000D01*
X72220000Y-82550000D02*
X69560000Y-82550000D01*
X75157071Y-83440000D02*
X74702929Y-83440000D01*
X75157071Y-84200000D02*
X74702929Y-84200000D01*
X72617071Y-83440000D02*
X72220000Y-83440000D01*
X72617071Y-84200000D02*
X72220000Y-84200000D01*
X63560000Y-83440000D02*
X69560000Y-83440000D01*
X63560000Y-84200000D02*
X63560000Y-83440000D01*
X69560000Y-84200000D02*
X63560000Y-84200000D01*
X72220000Y-85090000D02*
X69560000Y-85090000D01*
X75157071Y-85980000D02*
X74702929Y-85980000D01*
X75157071Y-86740000D02*
X74702929Y-86740000D01*
X72617071Y-85980000D02*
X72220000Y-85980000D01*
X72617071Y-86740000D02*
X72220000Y-86740000D01*
X63560000Y-85980000D02*
X69560000Y-85980000D01*
X63560000Y-86740000D02*
X63560000Y-85980000D01*
X69560000Y-86740000D02*
X63560000Y-86740000D01*
X72220000Y-87630000D02*
X69560000Y-87630000D01*
X75157071Y-88520000D02*
X74702929Y-88520000D01*
X75157071Y-89280000D02*
X74702929Y-89280000D01*
X72617071Y-88520000D02*
X72220000Y-88520000D01*
X72617071Y-89280000D02*
X72220000Y-89280000D01*
X63560000Y-88520000D02*
X69560000Y-88520000D01*
X63560000Y-89280000D02*
X63560000Y-88520000D01*
X69560000Y-89280000D02*
X63560000Y-89280000D01*
X72220000Y-90170000D02*
X69560000Y-90170000D01*
X75157071Y-91060000D02*
X74702929Y-91060000D01*
X75157071Y-91820000D02*
X74702929Y-91820000D01*
X72617071Y-91060000D02*
X72220000Y-91060000D01*
X72617071Y-91820000D02*
X72220000Y-91820000D01*
X63560000Y-91060000D02*
X69560000Y-91060000D01*
X63560000Y-91820000D02*
X63560000Y-91060000D01*
X69560000Y-91820000D02*
X63560000Y-91820000D01*
X72220000Y-92710000D02*
X69560000Y-92710000D01*
X75157071Y-93600000D02*
X74702929Y-93600000D01*
X75157071Y-94360000D02*
X74702929Y-94360000D01*
X72617071Y-93600000D02*
X72220000Y-93600000D01*
X72617071Y-94360000D02*
X72220000Y-94360000D01*
X63560000Y-93600000D02*
X69560000Y-93600000D01*
X63560000Y-94360000D02*
X63560000Y-93600000D01*
X69560000Y-94360000D02*
X63560000Y-94360000D01*
X72220000Y-95250000D02*
X69560000Y-95250000D01*
X75157071Y-96140000D02*
X74702929Y-96140000D01*
X75157071Y-96900000D02*
X74702929Y-96900000D01*
X72617071Y-96140000D02*
X72220000Y-96140000D01*
X72617071Y-96900000D02*
X72220000Y-96900000D01*
X63560000Y-96140000D02*
X69560000Y-96140000D01*
X63560000Y-96900000D02*
X63560000Y-96140000D01*
X69560000Y-96900000D02*
X63560000Y-96900000D01*
X72220000Y-97790000D02*
X69560000Y-97790000D01*
X75157071Y-98680000D02*
X74702929Y-98680000D01*
X75157071Y-99440000D02*
X74702929Y-99440000D01*
X72617071Y-98680000D02*
X72220000Y-98680000D01*
X72617071Y-99440000D02*
X72220000Y-99440000D01*
X63560000Y-98680000D02*
X69560000Y-98680000D01*
X63560000Y-99440000D02*
X63560000Y-98680000D01*
X69560000Y-99440000D02*
X63560000Y-99440000D01*
X72220000Y-100330000D02*
X69560000Y-100330000D01*
X75157071Y-101220000D02*
X74702929Y-101220000D01*
X75157071Y-101980000D02*
X74702929Y-101980000D01*
X72617071Y-101220000D02*
X72220000Y-101220000D01*
X72617071Y-101980000D02*
X72220000Y-101980000D01*
X63560000Y-101220000D02*
X69560000Y-101220000D01*
X63560000Y-101980000D02*
X63560000Y-101220000D01*
X69560000Y-101980000D02*
X63560000Y-101980000D01*
X72220000Y-102870000D02*
X69560000Y-102870000D01*
X75157071Y-103760000D02*
X74702929Y-103760000D01*
X75157071Y-104520000D02*
X74702929Y-104520000D01*
X72617071Y-103760000D02*
X72220000Y-103760000D01*
X72617071Y-104520000D02*
X72220000Y-104520000D01*
X63560000Y-103760000D02*
X69560000Y-103760000D01*
X63560000Y-104520000D02*
X63560000Y-103760000D01*
X69560000Y-104520000D02*
X63560000Y-104520000D01*
X72220000Y-105410000D02*
X69560000Y-105410000D01*
X75157071Y-106300000D02*
X74702929Y-106300000D01*
X75157071Y-107060000D02*
X74702929Y-107060000D01*
X72617071Y-106300000D02*
X72220000Y-106300000D01*
X72617071Y-107060000D02*
X72220000Y-107060000D01*
X63560000Y-106300000D02*
X69560000Y-106300000D01*
X63560000Y-107060000D02*
X63560000Y-106300000D01*
X69560000Y-107060000D02*
X63560000Y-107060000D01*
X72220000Y-107950000D02*
X69560000Y-107950000D01*
X75157071Y-108840000D02*
X74702929Y-108840000D01*
X75157071Y-109600000D02*
X74702929Y-109600000D01*
X72617071Y-108840000D02*
X72220000Y-108840000D01*
X72617071Y-109600000D02*
X72220000Y-109600000D01*
X63560000Y-108840000D02*
X69560000Y-108840000D01*
X63560000Y-109600000D02*
X63560000Y-108840000D01*
X69560000Y-109600000D02*
X63560000Y-109600000D01*
X72220000Y-110490000D02*
X69560000Y-110490000D01*
X75157071Y-111380000D02*
X74702929Y-111380000D01*
X75157071Y-112140000D02*
X74702929Y-112140000D01*
X72617071Y-111380000D02*
X72220000Y-111380000D01*
X72617071Y-112140000D02*
X72220000Y-112140000D01*
X63560000Y-111380000D02*
X69560000Y-111380000D01*
X63560000Y-112140000D02*
X63560000Y-111380000D01*
X69560000Y-112140000D02*
X63560000Y-112140000D01*
X72220000Y-113030000D02*
X69560000Y-113030000D01*
X75157071Y-113920000D02*
X74702929Y-113920000D01*
X75157071Y-114680000D02*
X74702929Y-114680000D01*
X72617071Y-113920000D02*
X72220000Y-113920000D01*
X72617071Y-114680000D02*
X72220000Y-114680000D01*
X63560000Y-113920000D02*
X69560000Y-113920000D01*
X63560000Y-114680000D02*
X63560000Y-113920000D01*
X69560000Y-114680000D02*
X63560000Y-114680000D01*
X72220000Y-115570000D02*
X69560000Y-115570000D01*
X75157071Y-116460000D02*
X74702929Y-116460000D01*
X75157071Y-117220000D02*
X74702929Y-117220000D01*
X72617071Y-116460000D02*
X72220000Y-116460000D01*
X72617071Y-117220000D02*
X72220000Y-117220000D01*
X63560000Y-116460000D02*
X69560000Y-116460000D01*
X63560000Y-117220000D02*
X63560000Y-116460000D01*
X69560000Y-117220000D02*
X63560000Y-117220000D01*
X72220000Y-118110000D02*
X69560000Y-118110000D01*
X75090000Y-119000000D02*
X74702929Y-119000000D01*
X75090000Y-119760000D02*
X74702929Y-119760000D01*
X72617071Y-119000000D02*
X72220000Y-119000000D01*
X72617071Y-119760000D02*
X72220000Y-119760000D01*
X69560000Y-119100000D02*
X63560000Y-119100000D01*
X69560000Y-119220000D02*
X63560000Y-119220000D01*
X69560000Y-119340000D02*
X63560000Y-119340000D01*
X69560000Y-119460000D02*
X63560000Y-119460000D01*
X69560000Y-119580000D02*
X63560000Y-119580000D01*
X69560000Y-119700000D02*
X63560000Y-119700000D01*
X63560000Y-119000000D02*
X69560000Y-119000000D01*
X63560000Y-119760000D02*
X63560000Y-119000000D01*
X69560000Y-119760000D02*
X63560000Y-119760000D01*
X69560000Y-120710000D02*
X72220000Y-120710000D01*
X69560000Y-79950000D02*
X69560000Y-120710000D01*
X72220000Y-79950000D02*
X69560000Y-79950000D01*
X72220000Y-120710000D02*
X72220000Y-79950000D01*
X130522000Y-75899000D02*
X130522000Y-75299000D01*
X130522000Y-80499000D02*
X130522000Y-79899000D01*
X124672000Y-83399000D02*
X124672000Y-72349000D01*
X130522000Y-83399000D02*
X124672000Y-83399000D01*
X130522000Y-79649000D02*
X130522000Y-76149000D01*
X130522000Y-72349000D02*
X124672000Y-72349000D01*
X130522000Y-83399000D02*
X130522000Y-80749000D01*
X130522000Y-74999000D02*
X130522000Y-72349000D01*
X121410000Y-75899000D02*
X121410000Y-75299000D01*
X121410000Y-80499000D02*
X121410000Y-79899000D01*
X115560000Y-83399000D02*
X115560000Y-72349000D01*
X121410000Y-83399000D02*
X115560000Y-83399000D01*
X121410000Y-79649000D02*
X121410000Y-76149000D01*
X121410000Y-72349000D02*
X115560000Y-72349000D01*
X121410000Y-83399000D02*
X121410000Y-80749000D01*
X121410000Y-74999000D02*
X121410000Y-72349000D01*
D10*
X99568095Y-93237380D02*
X99568095Y-94046904D01*
X99615714Y-94142142D01*
X99663333Y-94189761D01*
X99758571Y-94237380D01*
X99949047Y-94237380D01*
X100044285Y-94189761D01*
X100091904Y-94142142D01*
X100139523Y-94046904D01*
X100139523Y-93237380D01*
X101139523Y-94237380D02*
X100568095Y-94237380D01*
X100853809Y-94237380D02*
X100853809Y-93237380D01*
X100758571Y-93380238D01*
X100663333Y-93475476D01*
X100568095Y-93523095D01*
X106997619Y-95446904D02*
X107454761Y-95446904D01*
X107226190Y-96246904D02*
X107226190Y-95446904D01*
X107645238Y-96246904D02*
X108064285Y-95713571D01*
X107645238Y-95713571D02*
X108064285Y-96246904D01*
X108369047Y-96246904D02*
X108369047Y-95446904D01*
X108559523Y-95446904D01*
X108673809Y-95485000D01*
X108750000Y-95561190D01*
X108788095Y-95637380D01*
X108826190Y-95789761D01*
X108826190Y-95904047D01*
X108788095Y-96056428D01*
X108750000Y-96132619D01*
X108673809Y-96208809D01*
X108559523Y-96246904D01*
X108369047Y-96246904D01*
X172988095Y-93237380D02*
X172988095Y-94046904D01*
X173035714Y-94142142D01*
X173083333Y-94189761D01*
X173178571Y-94237380D01*
X173369047Y-94237380D01*
X173464285Y-94189761D01*
X173511904Y-94142142D01*
X173559523Y-94046904D01*
X173559523Y-93237380D01*
X173940476Y-93237380D02*
X174559523Y-93237380D01*
X174226190Y-93618333D01*
X174369047Y-93618333D01*
X174464285Y-93665952D01*
X174511904Y-93713571D01*
X174559523Y-93808809D01*
X174559523Y-94046904D01*
X174511904Y-94142142D01*
X174464285Y-94189761D01*
X174369047Y-94237380D01*
X174083333Y-94237380D01*
X173988095Y-94189761D01*
X173940476Y-94142142D01*
X180417619Y-95446904D02*
X180874761Y-95446904D01*
X180646190Y-96246904D02*
X180646190Y-95446904D01*
X181065238Y-96246904D02*
X181484285Y-95713571D01*
X181065238Y-95713571D02*
X181484285Y-96246904D01*
X181789047Y-96246904D02*
X181789047Y-95446904D01*
X181979523Y-95446904D01*
X182093809Y-95485000D01*
X182170000Y-95561190D01*
X182208095Y-95637380D01*
X182246190Y-95789761D01*
X182246190Y-95904047D01*
X182208095Y-96056428D01*
X182170000Y-96132619D01*
X182093809Y-96208809D01*
X181979523Y-96246904D01*
X181789047Y-96246904D01*
X136278095Y-93237380D02*
X136278095Y-94046904D01*
X136325714Y-94142142D01*
X136373333Y-94189761D01*
X136468571Y-94237380D01*
X136659047Y-94237380D01*
X136754285Y-94189761D01*
X136801904Y-94142142D01*
X136849523Y-94046904D01*
X136849523Y-93237380D01*
X137278095Y-93332619D02*
X137325714Y-93285000D01*
X137420952Y-93237380D01*
X137659047Y-93237380D01*
X137754285Y-93285000D01*
X137801904Y-93332619D01*
X137849523Y-93427857D01*
X137849523Y-93523095D01*
X137801904Y-93665952D01*
X137230476Y-94237380D01*
X137849523Y-94237380D01*
X143707619Y-95446904D02*
X144164761Y-95446904D01*
X143936190Y-96246904D02*
X143936190Y-95446904D01*
X144355238Y-96246904D02*
X144774285Y-95713571D01*
X144355238Y-95713571D02*
X144774285Y-96246904D01*
X145079047Y-96246904D02*
X145079047Y-95446904D01*
X145269523Y-95446904D01*
X145383809Y-95485000D01*
X145460000Y-95561190D01*
X145498095Y-95637380D01*
X145536190Y-95789761D01*
X145536190Y-95904047D01*
X145498095Y-96056428D01*
X145460000Y-96132619D01*
X145383809Y-96208809D01*
X145269523Y-96246904D01*
X145079047Y-96246904D01*
X195014904Y-74434619D02*
X195586333Y-74434619D01*
X195700619Y-74472714D01*
X195776809Y-74548904D01*
X195814904Y-74663190D01*
X195814904Y-74739380D01*
X195814904Y-73634619D02*
X195814904Y-74091761D01*
X195814904Y-73863190D02*
X195014904Y-73863190D01*
X195129190Y-73939380D01*
X195205380Y-74015571D01*
X195243476Y-74091761D01*
X195014904Y-72910809D02*
X195014904Y-73291761D01*
X195395857Y-73329857D01*
X195357761Y-73291761D01*
X195319666Y-73215571D01*
X195319666Y-73025095D01*
X195357761Y-72948904D01*
X195395857Y-72910809D01*
X195472047Y-72872714D01*
X195662523Y-72872714D01*
X195738714Y-72910809D01*
X195776809Y-72948904D01*
X195814904Y-73025095D01*
X195814904Y-73215571D01*
X195776809Y-73291761D01*
X195738714Y-73329857D01*
D11*
X193211571Y-81502571D02*
X192354428Y-81502571D01*
X192783000Y-81502571D02*
X192783000Y-80002571D01*
X192640142Y-80216857D01*
X192497285Y-80359714D01*
X192354428Y-80431142D01*
D10*
X185888380Y-74215523D02*
X186602666Y-74215523D01*
X186745523Y-74263142D01*
X186840761Y-74358380D01*
X186888380Y-74501238D01*
X186888380Y-74596476D01*
X186888380Y-73215523D02*
X186888380Y-73786952D01*
X186888380Y-73501238D02*
X185888380Y-73501238D01*
X186031238Y-73596476D01*
X186126476Y-73691714D01*
X186174095Y-73786952D01*
X186221714Y-72358380D02*
X186888380Y-72358380D01*
X185840761Y-72596476D02*
X186555047Y-72834571D01*
X186555047Y-72215523D01*
D11*
X184099571Y-81502571D02*
X183242428Y-81502571D01*
X183671000Y-81502571D02*
X183671000Y-80002571D01*
X183528142Y-80216857D01*
X183385285Y-80359714D01*
X183242428Y-80431142D01*
D10*
X167473380Y-74723523D02*
X168187666Y-74723523D01*
X168330523Y-74771142D01*
X168425761Y-74866380D01*
X168473380Y-75009238D01*
X168473380Y-75104476D01*
X168473380Y-73723523D02*
X168473380Y-74294952D01*
X168473380Y-74009238D02*
X167473380Y-74009238D01*
X167616238Y-74104476D01*
X167711476Y-74199714D01*
X167759095Y-74294952D01*
X167473380Y-73390190D02*
X167473380Y-72771142D01*
X167854333Y-73104476D01*
X167854333Y-72961619D01*
X167901952Y-72866380D01*
X167949571Y-72818761D01*
X168044809Y-72771142D01*
X168282904Y-72771142D01*
X168378142Y-72818761D01*
X168425761Y-72866380D01*
X168473380Y-72961619D01*
X168473380Y-73247333D01*
X168425761Y-73342571D01*
X168378142Y-73390190D01*
D11*
X165874571Y-81502571D02*
X165017428Y-81502571D01*
X165446000Y-81502571D02*
X165446000Y-80002571D01*
X165303142Y-80216857D01*
X165160285Y-80359714D01*
X165017428Y-80431142D01*
D10*
X149185380Y-74469523D02*
X149899666Y-74469523D01*
X150042523Y-74517142D01*
X150137761Y-74612380D01*
X150185380Y-74755238D01*
X150185380Y-74850476D01*
X150185380Y-73469523D02*
X150185380Y-74040952D01*
X150185380Y-73755238D02*
X149185380Y-73755238D01*
X149328238Y-73850476D01*
X149423476Y-73945714D01*
X149471095Y-74040952D01*
X149280619Y-73088571D02*
X149233000Y-73040952D01*
X149185380Y-72945714D01*
X149185380Y-72707619D01*
X149233000Y-72612380D01*
X149280619Y-72564761D01*
X149375857Y-72517142D01*
X149471095Y-72517142D01*
X149613952Y-72564761D01*
X150185380Y-73136190D01*
X150185380Y-72517142D01*
D11*
X147650571Y-81502571D02*
X146793428Y-81502571D01*
X147222000Y-81502571D02*
X147222000Y-80002571D01*
X147079142Y-80216857D01*
X146936285Y-80359714D01*
X146793428Y-80431142D01*
D10*
X176744380Y-74088523D02*
X177458666Y-74088523D01*
X177601523Y-74136142D01*
X177696761Y-74231380D01*
X177744380Y-74374238D01*
X177744380Y-74469476D01*
X177744380Y-73088523D02*
X177744380Y-73659952D01*
X177744380Y-73374238D02*
X176744380Y-73374238D01*
X176887238Y-73469476D01*
X176982476Y-73564714D01*
X177030095Y-73659952D01*
X177744380Y-72136142D02*
X177744380Y-72707571D01*
X177744380Y-72421857D02*
X176744380Y-72421857D01*
X176887238Y-72517095D01*
X176982476Y-72612333D01*
X177030095Y-72707571D01*
D11*
X174987571Y-81502571D02*
X174130428Y-81502571D01*
X174559000Y-81502571D02*
X174559000Y-80002571D01*
X174416142Y-80216857D01*
X174273285Y-80359714D01*
X174130428Y-80431142D01*
D10*
X158329380Y-74342523D02*
X159043666Y-74342523D01*
X159186523Y-74390142D01*
X159281761Y-74485380D01*
X159329380Y-74628238D01*
X159329380Y-74723476D01*
X159329380Y-73342523D02*
X159329380Y-73913952D01*
X159329380Y-73628238D02*
X158329380Y-73628238D01*
X158472238Y-73723476D01*
X158567476Y-73818714D01*
X158615095Y-73913952D01*
X158329380Y-72723476D02*
X158329380Y-72628238D01*
X158377000Y-72533000D01*
X158424619Y-72485380D01*
X158519857Y-72437761D01*
X158710333Y-72390142D01*
X158948428Y-72390142D01*
X159138904Y-72437761D01*
X159234142Y-72485380D01*
X159281761Y-72533000D01*
X159329380Y-72628238D01*
X159329380Y-72723476D01*
X159281761Y-72818714D01*
X159234142Y-72866333D01*
X159138904Y-72913952D01*
X158948428Y-72961571D01*
X158710333Y-72961571D01*
X158519857Y-72913952D01*
X158424619Y-72866333D01*
X158377000Y-72818714D01*
X158329380Y-72723476D01*
D11*
X156762571Y-81502571D02*
X155905428Y-81502571D01*
X156334000Y-81502571D02*
X156334000Y-80002571D01*
X156191142Y-80216857D01*
X156048285Y-80359714D01*
X155905428Y-80431142D01*
D10*
X140168380Y-73485333D02*
X140882666Y-73485333D01*
X141025523Y-73532952D01*
X141120761Y-73628190D01*
X141168380Y-73771047D01*
X141168380Y-73866285D01*
X141168380Y-72961523D02*
X141168380Y-72771047D01*
X141120761Y-72675809D01*
X141073142Y-72628190D01*
X140930285Y-72532952D01*
X140739809Y-72485333D01*
X140358857Y-72485333D01*
X140263619Y-72532952D01*
X140216000Y-72580571D01*
X140168380Y-72675809D01*
X140168380Y-72866285D01*
X140216000Y-72961523D01*
X140263619Y-73009142D01*
X140358857Y-73056761D01*
X140596952Y-73056761D01*
X140692190Y-73009142D01*
X140739809Y-72961523D01*
X140787428Y-72866285D01*
X140787428Y-72675809D01*
X140739809Y-72580571D01*
X140692190Y-72532952D01*
X140596952Y-72485333D01*
D11*
X138537571Y-81502571D02*
X137680428Y-81502571D01*
X138109000Y-81502571D02*
X138109000Y-80002571D01*
X137966142Y-80216857D01*
X137823285Y-80359714D01*
X137680428Y-80431142D01*
D10*
X85685380Y-73612333D02*
X86399666Y-73612333D01*
X86542523Y-73659952D01*
X86637761Y-73755190D01*
X86685380Y-73898047D01*
X86685380Y-73993285D01*
X85685380Y-72707571D02*
X85685380Y-72898047D01*
X85733000Y-72993285D01*
X85780619Y-73040904D01*
X85923476Y-73136142D01*
X86113952Y-73183761D01*
X86494904Y-73183761D01*
X86590142Y-73136142D01*
X86637761Y-73088523D01*
X86685380Y-72993285D01*
X86685380Y-72802809D01*
X86637761Y-72707571D01*
X86590142Y-72659952D01*
X86494904Y-72612333D01*
X86256809Y-72612333D01*
X86161571Y-72659952D01*
X86113952Y-72707571D01*
X86066333Y-72802809D01*
X86066333Y-72993285D01*
X86113952Y-73088523D01*
X86161571Y-73136142D01*
X86256809Y-73183761D01*
D11*
X83864571Y-81502571D02*
X83007428Y-81502571D01*
X83436000Y-81502571D02*
X83436000Y-80002571D01*
X83293142Y-80216857D01*
X83150285Y-80359714D01*
X83007428Y-80431142D01*
D10*
X112863380Y-73612333D02*
X113577666Y-73612333D01*
X113720523Y-73659952D01*
X113815761Y-73755190D01*
X113863380Y-73898047D01*
X113863380Y-73993285D01*
X112863380Y-72659952D02*
X112863380Y-73136142D01*
X113339571Y-73183761D01*
X113291952Y-73136142D01*
X113244333Y-73040904D01*
X113244333Y-72802809D01*
X113291952Y-72707571D01*
X113339571Y-72659952D01*
X113434809Y-72612333D01*
X113672904Y-72612333D01*
X113768142Y-72659952D01*
X113815761Y-72707571D01*
X113863380Y-72802809D01*
X113863380Y-73040904D01*
X113815761Y-73136142D01*
X113768142Y-73183761D01*
D11*
X111201571Y-81502571D02*
X110344428Y-81502571D01*
X110773000Y-81502571D02*
X110773000Y-80002571D01*
X110630142Y-80216857D01*
X110487285Y-80359714D01*
X110344428Y-80431142D01*
D10*
X103846380Y-73485333D02*
X104560666Y-73485333D01*
X104703523Y-73532952D01*
X104798761Y-73628190D01*
X104846380Y-73771047D01*
X104846380Y-73866285D01*
X104179714Y-72580571D02*
X104846380Y-72580571D01*
X103798761Y-72818666D02*
X104513047Y-73056761D01*
X104513047Y-72437714D01*
D11*
X102089071Y-81502571D02*
X101231928Y-81502571D01*
X101660500Y-81502571D02*
X101660500Y-80002571D01*
X101517642Y-80216857D01*
X101374785Y-80359714D01*
X101231928Y-80431142D01*
D10*
X94702380Y-73739333D02*
X95416666Y-73739333D01*
X95559523Y-73786952D01*
X95654761Y-73882190D01*
X95702380Y-74025047D01*
X95702380Y-74120285D01*
X94702380Y-73358380D02*
X94702380Y-72739333D01*
X95083333Y-73072666D01*
X95083333Y-72929809D01*
X95130952Y-72834571D01*
X95178571Y-72786952D01*
X95273809Y-72739333D01*
X95511904Y-72739333D01*
X95607142Y-72786952D01*
X95654761Y-72834571D01*
X95702380Y-72929809D01*
X95702380Y-73215523D01*
X95654761Y-73310761D01*
X95607142Y-73358380D01*
D11*
X92976771Y-81502571D02*
X92119628Y-81502571D01*
X92548200Y-81502571D02*
X92548200Y-80002571D01*
X92405342Y-80216857D01*
X92262485Y-80359714D01*
X92119628Y-80431142D01*
D10*
X202801666Y-121602380D02*
X202801666Y-122316666D01*
X202754047Y-122459523D01*
X202658809Y-122554761D01*
X202515952Y-122602380D01*
X202420714Y-122602380D01*
X203230238Y-121697619D02*
X203277857Y-121650000D01*
X203373095Y-121602380D01*
X203611190Y-121602380D01*
X203706428Y-121650000D01*
X203754047Y-121697619D01*
X203801666Y-121792857D01*
X203801666Y-121888095D01*
X203754047Y-122030952D01*
X203182619Y-122602380D01*
X203801666Y-122602380D01*
X70211666Y-121102380D02*
X70211666Y-121816666D01*
X70164047Y-121959523D01*
X70068809Y-122054761D01*
X69925952Y-122102380D01*
X69830714Y-122102380D01*
X71211666Y-122102380D02*
X70640238Y-122102380D01*
X70925952Y-122102380D02*
X70925952Y-121102380D01*
X70830714Y-121245238D01*
X70735476Y-121340476D01*
X70640238Y-121388095D01*
X131024380Y-73358333D02*
X131738666Y-73358333D01*
X131881523Y-73405952D01*
X131976761Y-73501190D01*
X132024380Y-73644047D01*
X132024380Y-73739285D01*
X131452952Y-72739285D02*
X131405333Y-72834523D01*
X131357714Y-72882142D01*
X131262476Y-72929761D01*
X131214857Y-72929761D01*
X131119619Y-72882142D01*
X131072000Y-72834523D01*
X131024380Y-72739285D01*
X131024380Y-72548809D01*
X131072000Y-72453571D01*
X131119619Y-72405952D01*
X131214857Y-72358333D01*
X131262476Y-72358333D01*
X131357714Y-72405952D01*
X131405333Y-72453571D01*
X131452952Y-72548809D01*
X131452952Y-72739285D01*
X131500571Y-72834523D01*
X131548190Y-72882142D01*
X131643428Y-72929761D01*
X131833904Y-72929761D01*
X131929142Y-72882142D01*
X131976761Y-72834523D01*
X132024380Y-72739285D01*
X132024380Y-72548809D01*
X131976761Y-72453571D01*
X131929142Y-72405952D01*
X131833904Y-72358333D01*
X131643428Y-72358333D01*
X131548190Y-72405952D01*
X131500571Y-72453571D01*
X131452952Y-72548809D01*
D11*
X129425571Y-81502571D02*
X128568428Y-81502571D01*
X128997000Y-81502571D02*
X128997000Y-80002571D01*
X128854142Y-80216857D01*
X128711285Y-80359714D01*
X128568428Y-80431142D01*
D10*
X122007380Y-73612333D02*
X122721666Y-73612333D01*
X122864523Y-73659952D01*
X122959761Y-73755190D01*
X123007380Y-73898047D01*
X123007380Y-73993285D01*
X122007380Y-73231380D02*
X122007380Y-72564714D01*
X123007380Y-72993285D01*
D11*
X120313571Y-81502571D02*
X119456428Y-81502571D01*
X119885000Y-81502571D02*
X119885000Y-80002571D01*
X119742142Y-80216857D01*
X119599285Y-80359714D01*
X119456428Y-80431142D01*
M02*
