G04 #@! TF.GenerationSoftware,KiCad,Pcbnew,(5.1.5)-3*
G04 #@! TF.CreationDate,2020-02-06T21:26:36+01:00*
G04 #@! TF.ProjectId,wemos-baseplate,77656d6f-732d-4626-9173-65706c617465,rev?*
G04 #@! TF.SameCoordinates,Original*
G04 #@! TF.FileFunction,Copper,L4,Bot*
G04 #@! TF.FilePolarity,Positive*
%FSLAX46Y46*%
G04 Gerber Fmt 4.6, Leading zero omitted, Abs format (unit mm)*
G04 Created by KiCad (PCBNEW (5.1.5)-3) date 2020-02-06 21:26:36*
%MOMM*%
%LPD*%
G04 APERTURE LIST*
%ADD10O,1.700000X1.000000*%
%ADD11O,2.500000X2.500000*%
%ADD12O,1.700000X1.200000*%
%ADD13R,1.700000X1.200000*%
%ADD14C,1.524000*%
%ADD15C,0.800000*%
%ADD16C,0.250000*%
%ADD17C,0.200000*%
%ADD18C,1.000000*%
%ADD19C,0.300000*%
G04 APERTURE END LIST*
D10*
X111760000Y-95885000D03*
X88900000Y-95885000D03*
X111760000Y-98425000D03*
X88900000Y-98425000D03*
X111760000Y-100965000D03*
X88900000Y-100965000D03*
X111760000Y-103505000D03*
X88900000Y-103505000D03*
X111760000Y-106045000D03*
X88900000Y-106045000D03*
X111760000Y-108585000D03*
X88900000Y-108585000D03*
X111760000Y-111125000D03*
X88900000Y-111125000D03*
X111760000Y-113665000D03*
X88900000Y-113665000D03*
X111760000Y-116205000D03*
X88900000Y-116205000D03*
X111760000Y-118745000D03*
X88900000Y-118745000D03*
X86360000Y-98425000D03*
X86360000Y-100965000D03*
X86360000Y-108585000D03*
X86360000Y-113665000D03*
X86360000Y-95885000D03*
X86360000Y-106045000D03*
X86360000Y-118745000D03*
X86360000Y-116205000D03*
X86360000Y-111125000D03*
X86360000Y-103505000D03*
X114300000Y-116205000D03*
X114300000Y-113665000D03*
X114300000Y-106045000D03*
X114300000Y-100965000D03*
X114300000Y-118745000D03*
X114300000Y-108585000D03*
X114300000Y-95885000D03*
X114300000Y-98425000D03*
X114300000Y-103505000D03*
X114300000Y-111125000D03*
D11*
X100330000Y-89535000D03*
X100330000Y-122555000D03*
D10*
X185180000Y-95885000D03*
X162320000Y-95885000D03*
X185180000Y-98425000D03*
X162320000Y-98425000D03*
X185180000Y-100965000D03*
X162320000Y-100965000D03*
X185180000Y-103505000D03*
X162320000Y-103505000D03*
X185180000Y-106045000D03*
X162320000Y-106045000D03*
X185180000Y-108585000D03*
X162320000Y-108585000D03*
X185180000Y-111125000D03*
X162320000Y-111125000D03*
X185180000Y-113665000D03*
X162320000Y-113665000D03*
X185180000Y-116205000D03*
X162320000Y-116205000D03*
X185180000Y-118745000D03*
X162320000Y-118745000D03*
X159780000Y-98425000D03*
X159780000Y-100965000D03*
X159780000Y-108585000D03*
X159780000Y-113665000D03*
X159780000Y-95885000D03*
X159780000Y-106045000D03*
X159780000Y-118745000D03*
X159780000Y-116205000D03*
X159780000Y-111125000D03*
X159780000Y-103505000D03*
X187720000Y-116205000D03*
X187720000Y-113665000D03*
X187720000Y-106045000D03*
X187720000Y-100965000D03*
X187720000Y-118745000D03*
X187720000Y-108585000D03*
X187720000Y-95885000D03*
X187720000Y-98425000D03*
X187720000Y-103505000D03*
X187720000Y-111125000D03*
D11*
X173750000Y-89535000D03*
X173750000Y-122555000D03*
D10*
X148470000Y-95885000D03*
X125610000Y-95885000D03*
X148470000Y-98425000D03*
X125610000Y-98425000D03*
X148470000Y-100965000D03*
X125610000Y-100965000D03*
X148470000Y-103505000D03*
X125610000Y-103505000D03*
X148470000Y-106045000D03*
X125610000Y-106045000D03*
X148470000Y-108585000D03*
X125610000Y-108585000D03*
X148470000Y-111125000D03*
X125610000Y-111125000D03*
X148470000Y-113665000D03*
X125610000Y-113665000D03*
X148470000Y-116205000D03*
X125610000Y-116205000D03*
X148470000Y-118745000D03*
X125610000Y-118745000D03*
X123070000Y-98425000D03*
X123070000Y-100965000D03*
X123070000Y-108585000D03*
X123070000Y-113665000D03*
X123070000Y-95885000D03*
X123070000Y-106045000D03*
X123070000Y-118745000D03*
X123070000Y-116205000D03*
X123070000Y-111125000D03*
X123070000Y-103505000D03*
X151010000Y-116205000D03*
X151010000Y-113665000D03*
X151010000Y-106045000D03*
X151010000Y-100965000D03*
X151010000Y-118745000D03*
X151010000Y-108585000D03*
X151010000Y-95885000D03*
X151010000Y-98425000D03*
X151010000Y-103505000D03*
X151010000Y-111125000D03*
D11*
X137040000Y-89535000D03*
X137040000Y-122555000D03*
D12*
X191008000Y-80899000D03*
X191008000Y-78899000D03*
X191008000Y-76899000D03*
X191008000Y-74899000D03*
X181896000Y-80899000D03*
X181896000Y-78899000D03*
X181896000Y-76899000D03*
X181896000Y-74899000D03*
X163671000Y-80899000D03*
X163671000Y-78899000D03*
X163671000Y-76899000D03*
X163671000Y-74899000D03*
X145447000Y-80899000D03*
X145447000Y-78899000D03*
X145447000Y-76899000D03*
X145447000Y-74899000D03*
X172784000Y-80899000D03*
X172784000Y-78899000D03*
X172784000Y-76899000D03*
X172784000Y-74899000D03*
X154559000Y-80899000D03*
X154559000Y-78899000D03*
X154559000Y-76899000D03*
X154559000Y-74899000D03*
X136334000Y-80899000D03*
X136334000Y-78899000D03*
X136334000Y-76899000D03*
X136334000Y-74899000D03*
X81661000Y-80899000D03*
X81661000Y-78899000D03*
X81661000Y-76899000D03*
X81661000Y-74899000D03*
X108998000Y-80899000D03*
X108998000Y-78899000D03*
X108998000Y-76899000D03*
X108998000Y-74899000D03*
X99885500Y-80899000D03*
X99885500Y-78899000D03*
X99885500Y-76899000D03*
X99885500Y-74899000D03*
X90773200Y-80899000D03*
X90773200Y-78899000D03*
X90773200Y-76899000D03*
X90773200Y-74899000D03*
X200025000Y-81280000D03*
X197485000Y-81280000D03*
X200025000Y-83820000D03*
X197485000Y-83820000D03*
X200025000Y-86360000D03*
X197485000Y-86360000D03*
X200025000Y-88900000D03*
X197485000Y-88900000D03*
X200025000Y-91440000D03*
X197485000Y-91440000D03*
X200025000Y-93980000D03*
X197485000Y-93980000D03*
X200025000Y-96520000D03*
X197485000Y-96520000D03*
X200025000Y-99060000D03*
X197485000Y-99060000D03*
X200025000Y-101600000D03*
X197485000Y-101600000D03*
X200025000Y-104140000D03*
X197485000Y-104140000D03*
X200025000Y-106680000D03*
X197485000Y-106680000D03*
X200025000Y-109220000D03*
X197485000Y-109220000D03*
X200025000Y-111760000D03*
X197485000Y-111760000D03*
X200025000Y-114300000D03*
X197485000Y-114300000D03*
X200025000Y-116840000D03*
X197485000Y-116840000D03*
X200025000Y-119380000D03*
D13*
X197485000Y-119380000D03*
D12*
X73660000Y-81280000D03*
X76200000Y-81280000D03*
X73660000Y-83820000D03*
X76200000Y-83820000D03*
X73660000Y-86360000D03*
X76200000Y-86360000D03*
X73660000Y-88900000D03*
X76200000Y-88900000D03*
X73660000Y-91440000D03*
X76200000Y-91440000D03*
X73660000Y-93980000D03*
X76200000Y-93980000D03*
X73660000Y-96520000D03*
X76200000Y-96520000D03*
X73660000Y-99060000D03*
X76200000Y-99060000D03*
X73660000Y-101600000D03*
X76200000Y-101600000D03*
X73660000Y-104140000D03*
X76200000Y-104140000D03*
X73660000Y-106680000D03*
X76200000Y-106680000D03*
X73660000Y-109220000D03*
X76200000Y-109220000D03*
X73660000Y-111760000D03*
X76200000Y-111760000D03*
X73660000Y-114300000D03*
X76200000Y-114300000D03*
X73660000Y-116840000D03*
X76200000Y-116840000D03*
X73660000Y-119380000D03*
D13*
X76200000Y-119380000D03*
D14*
X127222000Y-80899000D03*
X127222000Y-78899000D03*
X127222000Y-76899000D03*
X127222000Y-74899000D03*
X118110000Y-80899000D03*
X118110000Y-78899000D03*
X118110000Y-76899000D03*
X118110000Y-74899000D03*
D15*
X158056000Y-103019000D03*
D16*
X200025000Y-81280000D02*
X198849700Y-81280000D01*
X162320000Y-95885000D02*
X163495300Y-95885000D01*
X163495300Y-95885000D02*
X176925000Y-82455300D01*
X176925000Y-82455300D02*
X198041800Y-82455300D01*
X198041800Y-82455300D02*
X198849700Y-81647400D01*
X198849700Y-81647400D02*
X198849700Y-81280000D01*
D17*
X125610000Y-96585000D02*
X125294000Y-96901000D01*
X125610000Y-95885000D02*
X125610000Y-96585000D01*
X88900000Y-96585000D02*
X88900000Y-95885000D01*
X89216000Y-96901000D02*
X88900000Y-96585000D01*
X125294000Y-96901000D02*
X89216000Y-96901000D01*
D16*
X159780000Y-100965000D02*
X158604700Y-100965000D01*
X123070000Y-100965000D02*
X124245300Y-100965000D01*
X124245300Y-100965000D02*
X124245300Y-101217300D01*
X124245300Y-101217300D02*
X124832700Y-101804700D01*
X124832700Y-101804700D02*
X157765000Y-101804700D01*
X157765000Y-101804700D02*
X158604700Y-100965000D01*
X191236900Y-105504700D02*
X198041800Y-105504700D01*
X198041800Y-105504700D02*
X198849700Y-106312600D01*
X198849700Y-106312600D02*
X198849700Y-106680000D01*
X200025000Y-106680000D02*
X198849700Y-106680000D01*
X187900100Y-102167900D02*
X191236900Y-105504700D01*
D17*
X159880010Y-100164990D02*
X182714990Y-100164990D01*
X159780000Y-100965000D02*
X159780000Y-100265000D01*
X159780000Y-100265000D02*
X159880010Y-100164990D01*
X182714990Y-100164990D02*
X183261000Y-100711000D01*
X183261000Y-100711000D02*
X183261000Y-101473000D01*
X183261000Y-101473000D02*
X183896000Y-102108000D01*
X187900100Y-102167900D02*
X183896000Y-102108000D01*
X187833000Y-102108000D02*
X187960000Y-102235000D01*
X183896000Y-102108000D02*
X187833000Y-102108000D01*
X187900100Y-102167900D02*
X187960000Y-102235000D01*
X187960000Y-102235000D02*
X188475200Y-102743000D01*
D16*
X159780000Y-111125000D02*
X158604700Y-111125000D01*
X123070000Y-111125000D02*
X124245300Y-111125000D01*
X124245300Y-111125000D02*
X124245300Y-110887200D01*
X124245300Y-110887200D02*
X124832800Y-110299700D01*
X157779400Y-110299700D02*
X158604700Y-111125000D01*
D17*
X147002700Y-110299700D02*
X147002700Y-110299300D01*
D16*
X124832800Y-110299700D02*
X147002700Y-110299700D01*
D17*
X147002700Y-110299300D02*
X147193000Y-110109000D01*
X147193000Y-110109000D02*
X152273000Y-110109000D01*
X152273000Y-110109000D02*
X152400000Y-110236000D01*
D16*
X152400000Y-110236000D02*
X157779400Y-110299700D01*
X86360000Y-116205000D02*
X87535300Y-116205000D01*
X123070000Y-116205000D02*
X121894700Y-116205000D01*
X121894700Y-116205000D02*
X121033800Y-115344100D01*
X121033800Y-115344100D02*
X88122800Y-115344100D01*
X88122800Y-115344100D02*
X87535300Y-115931600D01*
X87535300Y-115931600D02*
X87535300Y-116205000D01*
X123657700Y-116205000D02*
X123070000Y-116205000D01*
X159780000Y-116205000D02*
X158604700Y-116205000D01*
X123657700Y-116205000D02*
X124245300Y-116205000D01*
X124245300Y-116205000D02*
X124245300Y-115948400D01*
X124245300Y-115948400D02*
X124832700Y-115361000D01*
X124832700Y-115361000D02*
X157760700Y-115361000D01*
X157760700Y-115361000D02*
X158604700Y-116205000D01*
X162320000Y-116205000D02*
X163495300Y-116205000D01*
X163495300Y-116205000D02*
X164670600Y-115029700D01*
X164670600Y-115029700D02*
X194855100Y-115029700D01*
D17*
X194855100Y-115099100D02*
X194855100Y-115029700D01*
X195326000Y-115570000D02*
X194855100Y-115099100D01*
X201295000Y-101600000D02*
X202184000Y-102489000D01*
X200025000Y-101600000D02*
X201295000Y-101600000D01*
X202184000Y-114427000D02*
X201041000Y-115570000D01*
X202184000Y-102489000D02*
X202184000Y-114427000D01*
X201041000Y-115570000D02*
X195326000Y-115570000D01*
D16*
X86360000Y-118745000D02*
X87535300Y-118745000D01*
X123070000Y-118745000D02*
X121894700Y-118745000D01*
X121894700Y-118745000D02*
X121069300Y-119570400D01*
X121069300Y-119570400D02*
X104102000Y-119570400D01*
X104102000Y-119570400D02*
X102449700Y-117918100D01*
X102449700Y-117918100D02*
X88122800Y-117918100D01*
X88122800Y-117918100D02*
X87535300Y-118505600D01*
X87535300Y-118505600D02*
X87535300Y-118745000D01*
X88900000Y-118745000D02*
X90075300Y-118745000D01*
X125610000Y-118745000D02*
X124434700Y-118745000D01*
X124434700Y-118745000D02*
X124434700Y-118965400D01*
X124434700Y-118965400D02*
X123379300Y-120020800D01*
X123379300Y-120020800D02*
X91351100Y-120020800D01*
X91351100Y-120020800D02*
X90075300Y-118745000D01*
X151010000Y-118745000D02*
X152185300Y-118745000D01*
X187720000Y-118745000D02*
X186544700Y-118745000D01*
X186544700Y-118745000D02*
X186544700Y-118507100D01*
X186544700Y-118507100D02*
X185957300Y-117919700D01*
X185957300Y-117919700D02*
X153010600Y-117919700D01*
X153010600Y-117919700D02*
X152185300Y-118745000D01*
X114300000Y-118745000D02*
X115475300Y-118745000D01*
X151010000Y-118745000D02*
X149834700Y-118745000D01*
X149834700Y-118745000D02*
X149834700Y-118530800D01*
X149834700Y-118530800D02*
X149175900Y-117872000D01*
X149175900Y-117872000D02*
X116348300Y-117872000D01*
X116348300Y-117872000D02*
X115475300Y-118745000D01*
X76200000Y-111760000D02*
X77375300Y-111760000D01*
X82204900Y-106930400D02*
X77375300Y-111760000D01*
D17*
X114300000Y-106745000D02*
X113857000Y-107188000D01*
X114300000Y-106045000D02*
X114300000Y-106745000D01*
X110109000Y-107188000D02*
X109982000Y-107061000D01*
X113857000Y-107188000D02*
X110109000Y-107188000D01*
D16*
X109982000Y-107061000D02*
X82204900Y-106930400D01*
X181044300Y-97629600D02*
X183209300Y-97629600D01*
X183209300Y-97629600D02*
X184004700Y-98425000D01*
X149645300Y-98425000D02*
X149645300Y-98180700D01*
X149645300Y-98180700D02*
X150232800Y-97593200D01*
X150232800Y-97593200D02*
X181007900Y-97593200D01*
X181007900Y-97593200D02*
X181044300Y-97629600D01*
X148470000Y-98425000D02*
X149645300Y-98425000D01*
X148470000Y-98425000D02*
X147882400Y-98425000D01*
X185180000Y-98425000D02*
X184004700Y-98425000D01*
X147882400Y-98425000D02*
X147294700Y-98425000D01*
X111760000Y-98425000D02*
X112935300Y-98425000D01*
X147294700Y-98425000D02*
X146469400Y-97599700D01*
X146469400Y-97599700D02*
X113589500Y-97599700D01*
X113589500Y-97599700D02*
X112935300Y-98253900D01*
X112935300Y-98253900D02*
X112935300Y-98425000D01*
D17*
X197485000Y-83820000D02*
X197485000Y-83613154D01*
D16*
X197485000Y-81280000D02*
X196309700Y-81280000D01*
X196309700Y-81280000D02*
X195603300Y-81986400D01*
X195603300Y-81986400D02*
X184983400Y-81986400D01*
X184983400Y-81986400D02*
X181896000Y-78899000D01*
X148470000Y-95885000D02*
X147294700Y-95885000D01*
X113595700Y-95005500D02*
X146415200Y-95005500D01*
X146415200Y-95005500D02*
X147294700Y-95885000D01*
D17*
X111949000Y-94996000D02*
X113411000Y-94996000D01*
X111760000Y-95185000D02*
X111949000Y-94996000D01*
X111760000Y-95885000D02*
X111760000Y-95185000D01*
D16*
X113411000Y-94996000D02*
X113595700Y-95005500D01*
X184004700Y-95885000D02*
X185180000Y-95885000D01*
X164393700Y-96718300D02*
X183171400Y-96718300D01*
X163968810Y-97143190D02*
X164393700Y-96718300D01*
X158357190Y-97143190D02*
X163968810Y-97143190D01*
X183171400Y-96718300D02*
X184004700Y-95885000D01*
X148736000Y-96901000D02*
X157988000Y-96901000D01*
X148470000Y-96635000D02*
X148736000Y-96901000D01*
X148470000Y-95885000D02*
X148470000Y-96635000D01*
X157988000Y-96901000D02*
X158357190Y-97143190D01*
X151010000Y-111125000D02*
X152185300Y-111125000D01*
X153048600Y-111988300D02*
X152185300Y-111125000D01*
X114300000Y-111125000D02*
X115475300Y-111125000D01*
X116311300Y-111961000D02*
X115475300Y-111125000D01*
X77375300Y-116840000D02*
X81728400Y-112486900D01*
X81728400Y-112486900D02*
X111983400Y-112486900D01*
X76200000Y-116840000D02*
X77375300Y-116840000D01*
D17*
X113730000Y-112395000D02*
X112141000Y-112395000D01*
X114300000Y-111825000D02*
X113730000Y-112395000D01*
X114300000Y-111125000D02*
X114300000Y-111825000D01*
D16*
X111983400Y-112486900D02*
X112141000Y-112395000D01*
D17*
X151010000Y-111825000D02*
X150694000Y-112141000D01*
X151010000Y-111125000D02*
X151010000Y-111825000D01*
X146812000Y-112141000D02*
X146685000Y-112014000D01*
X150694000Y-112141000D02*
X146812000Y-112141000D01*
D16*
X146685000Y-112014000D02*
X116311300Y-111961000D01*
D17*
X187720000Y-111825000D02*
X187404000Y-112141000D01*
X187720000Y-111125000D02*
X187720000Y-111825000D01*
X187404000Y-112141000D02*
X183896000Y-112141000D01*
D16*
X183896000Y-112141000D02*
X153048600Y-111988300D01*
X187720000Y-103505000D02*
X186544700Y-103505000D01*
X158056000Y-103019000D02*
X158415000Y-102660000D01*
X158415000Y-102660000D02*
X185957100Y-102660000D01*
X185957100Y-102660000D02*
X186544700Y-103247600D01*
X186544700Y-103247600D02*
X186544700Y-103505000D01*
X76200000Y-104140000D02*
X77375300Y-104140000D01*
X81804400Y-99710900D02*
X77375300Y-104140000D01*
D17*
X77250000Y-104140000D02*
X83854000Y-97536000D01*
X76200000Y-104140000D02*
X77250000Y-104140000D01*
X113950000Y-98425000D02*
X112934000Y-99441000D01*
X114300000Y-98425000D02*
X113950000Y-98425000D01*
X112934000Y-99441000D02*
X110744000Y-99441000D01*
X109863490Y-98560490D02*
X91194490Y-98560490D01*
X110744000Y-99441000D02*
X109863490Y-98560490D01*
X90258990Y-97624990D02*
X83942990Y-97624990D01*
X83942990Y-97624990D02*
X83854000Y-97536000D01*
X91194490Y-98560490D02*
X90258990Y-97624990D01*
D16*
X186544700Y-108585000D02*
X186544700Y-108825400D01*
X186544700Y-108825400D02*
X185957300Y-109412800D01*
X185957300Y-109412800D02*
X153013100Y-109412800D01*
X153013100Y-109412800D02*
X152185300Y-108585000D01*
X151010000Y-108585000D02*
X152185300Y-108585000D01*
X187720000Y-108585000D02*
X186544700Y-108585000D01*
X151010000Y-108585000D02*
X150184200Y-109410800D01*
X150184200Y-109410800D02*
X115713500Y-109410800D01*
X115713500Y-109410800D02*
X114887700Y-108585000D01*
X76200000Y-114300000D02*
X77375300Y-114300000D01*
X114887700Y-108585000D02*
X113281900Y-110190800D01*
X113281900Y-110190800D02*
X81484500Y-110190800D01*
X81484500Y-110190800D02*
X77375300Y-114300000D01*
X114300000Y-108585000D02*
X114887700Y-108585000D01*
X76200000Y-106680000D02*
X77375300Y-106680000D01*
X114300000Y-100965000D02*
X113150700Y-102114300D01*
X113150700Y-102114300D02*
X81941000Y-102114300D01*
X81941000Y-102114300D02*
X77375300Y-106680000D01*
X151597700Y-113665000D02*
X151010000Y-113665000D01*
X151597700Y-113665000D02*
X152185300Y-113665000D01*
X152185300Y-113665000D02*
X153019100Y-112831200D01*
D17*
X151010000Y-112965000D02*
X150694000Y-112649000D01*
X151010000Y-113665000D02*
X151010000Y-112965000D01*
X146685000Y-112649000D02*
X146558000Y-112776000D01*
X150694000Y-112649000D02*
X146685000Y-112649000D01*
X187720000Y-112965000D02*
X187404000Y-112649000D01*
X187720000Y-113665000D02*
X187720000Y-112965000D01*
X183515000Y-112649000D02*
X183388000Y-112776000D01*
X187404000Y-112649000D02*
X183515000Y-112649000D01*
D16*
X163992254Y-112811254D02*
X163865254Y-112811254D01*
X163992254Y-112811254D02*
X183388000Y-112776000D01*
X163865254Y-112811254D02*
X163576000Y-112522000D01*
X163576000Y-112522000D02*
X157861000Y-112522000D01*
X157861000Y-112522000D02*
X157607000Y-112776000D01*
X153019100Y-112831200D02*
X157607000Y-112776000D01*
X122147806Y-112421195D02*
X126653057Y-112429057D01*
X127000000Y-112776000D02*
X146558000Y-112776000D01*
X114300000Y-113665000D02*
X115475300Y-113665000D01*
X116330600Y-112809700D02*
X121566862Y-112803862D01*
X121566862Y-112803862D02*
X121765138Y-112803862D01*
X126653057Y-112429057D02*
X127000000Y-112776000D01*
X115475300Y-113665000D02*
X116330600Y-112809700D01*
X121765138Y-112803862D02*
X122147806Y-112421195D01*
X159780000Y-103505000D02*
X158604700Y-103505000D01*
X158604700Y-103505000D02*
X158322200Y-103787500D01*
X158322200Y-103787500D02*
X154596800Y-103787500D01*
X154596800Y-103787500D02*
X153439600Y-102630300D01*
X153439600Y-102630300D02*
X123944700Y-102630300D01*
X123944700Y-102630300D02*
X123070000Y-103505000D01*
X86360000Y-103505000D02*
X87535300Y-103505000D01*
X123070000Y-103505000D02*
X121894700Y-103505000D01*
X121894700Y-103505000D02*
X121068400Y-102678700D01*
X121068400Y-102678700D02*
X88122800Y-102678700D01*
X88122800Y-102678700D02*
X87535300Y-103266200D01*
X87535300Y-103266200D02*
X87535300Y-103505000D01*
X159780000Y-106045000D02*
X158604700Y-106045000D01*
X123070000Y-106045000D02*
X123897000Y-106872000D01*
X123897000Y-106872000D02*
X157777700Y-106872000D01*
X157777700Y-106872000D02*
X158604700Y-106045000D01*
X200025000Y-111760000D02*
X198849700Y-111760000D01*
X159780000Y-106045000D02*
X160660000Y-106925000D01*
X160660000Y-106925000D02*
X187625200Y-106925000D01*
X187625200Y-106925000D02*
X191284900Y-110584700D01*
X191284900Y-110584700D02*
X198041800Y-110584700D01*
X198041800Y-110584700D02*
X198849700Y-111392600D01*
X198849700Y-111392600D02*
X198849700Y-111760000D01*
X123070000Y-113665000D02*
X121894700Y-113665000D01*
X121894700Y-113665000D02*
X121044100Y-114515600D01*
X121044100Y-114515600D02*
X115824000Y-114554000D01*
D17*
X110490000Y-114808000D02*
X115570000Y-114808000D01*
X110197600Y-114515600D02*
X110490000Y-114808000D01*
X115570000Y-114808000D02*
X115824000Y-114554000D01*
X109893400Y-114515600D02*
X110197600Y-114515600D01*
D16*
X90424000Y-114808000D02*
X90678000Y-114554000D01*
X90678000Y-114554000D02*
X109893400Y-114515600D01*
X86753000Y-114808000D02*
X90424000Y-114808000D01*
X86360000Y-114415000D02*
X86753000Y-114808000D01*
X86360000Y-113665000D02*
X86360000Y-114415000D01*
X86360000Y-108585000D02*
X87535300Y-108585000D01*
X123070000Y-108585000D02*
X121894700Y-108585000D01*
X121894700Y-108585000D02*
X121069200Y-107759500D01*
X121069200Y-107759500D02*
X88122800Y-107759500D01*
X88122800Y-107759500D02*
X87535300Y-108347000D01*
X87535300Y-108347000D02*
X87535300Y-108585000D01*
X86360000Y-98425000D02*
X87535300Y-98425000D01*
X123070000Y-98425000D02*
X121894700Y-98425000D01*
X121894700Y-98425000D02*
X121034700Y-99285000D01*
X99360900Y-98985500D02*
X99086000Y-99260400D01*
X99086000Y-99260400D02*
X88122800Y-99260400D01*
X88122800Y-99260400D02*
X87535300Y-98672900D01*
X87535300Y-98672900D02*
X87535300Y-98425000D01*
X123657700Y-98425000D02*
X123070000Y-98425000D01*
X123657700Y-98425000D02*
X124245300Y-98425000D01*
X159780000Y-98425000D02*
X158604700Y-98425000D01*
X124245300Y-98425000D02*
X124245300Y-98666100D01*
X124245300Y-98666100D02*
X124832700Y-99253500D01*
X124832700Y-99253500D02*
X157776200Y-99253500D01*
X157776200Y-99253500D02*
X158604700Y-98425000D01*
D17*
X109399500Y-98985500D02*
X109399500Y-99239500D01*
D16*
X109399500Y-98985500D02*
X99360900Y-98985500D01*
D17*
X109399500Y-99239500D02*
X110109000Y-99949000D01*
X110109000Y-99949000D02*
X113030000Y-99949000D01*
X113030000Y-99949000D02*
X113665000Y-99314000D01*
D16*
X121034700Y-99285000D02*
X113665000Y-99314000D01*
X148470000Y-108585000D02*
X149645300Y-108585000D01*
X185180000Y-108585000D02*
X184004700Y-108585000D01*
X149645300Y-108585000D02*
X149645300Y-108345200D01*
X149645300Y-108345200D02*
X150232800Y-107757700D01*
X150232800Y-107757700D02*
X183177400Y-107757700D01*
X183177400Y-107757700D02*
X184004700Y-108585000D01*
X162320000Y-106045000D02*
X161144700Y-106045000D01*
X125610000Y-106045000D02*
X126785300Y-106045000D01*
X161144700Y-106045000D02*
X161144700Y-105798700D01*
X161144700Y-105798700D02*
X160557200Y-105211200D01*
X160557200Y-105211200D02*
X127619100Y-105211200D01*
X127619100Y-105211200D02*
X126785300Y-106045000D01*
X88900000Y-106045000D02*
X90075300Y-106045000D01*
X125610000Y-106045000D02*
X124434700Y-106045000D01*
X124434700Y-106045000D02*
X124434700Y-105802900D01*
X124434700Y-105802900D02*
X123847300Y-105215500D01*
X123847300Y-105215500D02*
X90904800Y-105215500D01*
X90904800Y-105215500D02*
X90075300Y-106045000D01*
X88900000Y-103505000D02*
X90075300Y-103505000D01*
X125610000Y-103505000D02*
X124434700Y-103505000D01*
X124434700Y-103505000D02*
X124434700Y-103743900D01*
X124434700Y-103743900D02*
X123847300Y-104331300D01*
X123847300Y-104331300D02*
X90901600Y-104331300D01*
X90901600Y-104331300D02*
X90075300Y-103505000D01*
X111760000Y-100965000D02*
X112935300Y-100965000D01*
X148470000Y-100965000D02*
X147294700Y-100965000D01*
X147294700Y-100965000D02*
X146418300Y-100088600D01*
X146418300Y-100088600D02*
X113595100Y-100088600D01*
X113595100Y-100088600D02*
X112935300Y-100748400D01*
X112935300Y-100748400D02*
X112935300Y-100965000D01*
X149057700Y-100965000D02*
X148470000Y-100965000D01*
X81661000Y-80899000D02*
X90773200Y-80899000D01*
X185096600Y-100088300D02*
X186450000Y-98734900D01*
X195706300Y-86360000D02*
X197485000Y-86360000D01*
X149645300Y-100965000D02*
X149645300Y-100744600D01*
X149645300Y-100744600D02*
X150301600Y-100088300D01*
X149057700Y-100965000D02*
X149645300Y-100965000D01*
X108998000Y-80899000D02*
X99885500Y-80899000D01*
X90773200Y-80899000D02*
X99885500Y-80899000D01*
X187578650Y-94487650D02*
X186944350Y-94487650D01*
X187578650Y-94487650D02*
X195706300Y-86360000D01*
X186436000Y-94996000D02*
X186436000Y-95758000D01*
X186944350Y-94487650D02*
X186436000Y-94996000D01*
X186450000Y-98734900D02*
X186436000Y-95758000D01*
D17*
X185180000Y-100265000D02*
X184356000Y-99441000D01*
X185180000Y-100965000D02*
X185180000Y-100265000D01*
X158750000Y-99441000D02*
X158115000Y-100076000D01*
X184356000Y-99441000D02*
X158750000Y-99441000D01*
D16*
X150301600Y-100088300D02*
X158115000Y-100076000D01*
X81661000Y-78899000D02*
X80475900Y-80084100D01*
X80475900Y-80084100D02*
X80475900Y-83816100D01*
X80475900Y-83816100D02*
X76567300Y-87724700D01*
X76567300Y-87724700D02*
X76200000Y-87724700D01*
X81661000Y-78899000D02*
X90773200Y-78899000D01*
X76200000Y-88900000D02*
X76200000Y-87724700D01*
X185180000Y-103505000D02*
X184004700Y-103505000D01*
X148470000Y-103505000D02*
X149645300Y-103505000D01*
X149645300Y-103505000D02*
X149645300Y-103743700D01*
X149645300Y-103743700D02*
X150232700Y-104331100D01*
X150232700Y-104331100D02*
X183178600Y-104331100D01*
X183178600Y-104331100D02*
X184004700Y-103505000D01*
X99885500Y-78899000D02*
X108998000Y-78899000D01*
X90773200Y-78899000D02*
X99885500Y-78899000D01*
D17*
X197485000Y-89700000D02*
X197485000Y-88900000D01*
X197585010Y-89800010D02*
X197485000Y-89700000D01*
X201604990Y-90987990D02*
X200417010Y-89800010D01*
X200417010Y-89800010D02*
X197585010Y-89800010D01*
X201422000Y-100457000D02*
X201604990Y-100274010D01*
X201604990Y-100274010D02*
X201604990Y-90987990D01*
X198874990Y-100718010D02*
X199136000Y-100457000D01*
X198874990Y-101972796D02*
X198874990Y-100718010D01*
X199402204Y-102500010D02*
X198874990Y-101972796D01*
X199907816Y-102500010D02*
X199402204Y-102500010D01*
X201175010Y-103767204D02*
X199907816Y-102500010D01*
X201175010Y-107052796D02*
X201175010Y-103767204D01*
X200647796Y-107580010D02*
X201175010Y-107052796D01*
X192711156Y-107580010D02*
X200647796Y-107580010D01*
X186219990Y-105244990D02*
X190376136Y-105244990D01*
X185180000Y-104205000D02*
X186219990Y-105244990D01*
X185180000Y-103505000D02*
X185180000Y-104205000D01*
X190376136Y-105244990D02*
X192711156Y-107580010D01*
X199136000Y-100457000D02*
X201422000Y-100457000D01*
D16*
X148470000Y-118745000D02*
X149295500Y-119570500D01*
X149295500Y-119570500D02*
X183179200Y-119570500D01*
X183179200Y-119570500D02*
X184004700Y-118745000D01*
X185180000Y-118745000D02*
X184004700Y-118745000D01*
X187720000Y-116205000D02*
X186544700Y-116205000D01*
X151010000Y-116205000D02*
X152185300Y-116205000D01*
X152185300Y-116205000D02*
X153061300Y-117081000D01*
X153061300Y-117081000D02*
X185885000Y-117081000D01*
X185885000Y-117081000D02*
X186544700Y-116421300D01*
X186544700Y-116421300D02*
X186544700Y-116205000D01*
X150422400Y-116205000D02*
X151010000Y-116205000D01*
X150422400Y-116205000D02*
X149834700Y-116205000D01*
X114300000Y-116205000D02*
X115475300Y-116205000D01*
X149834700Y-116205000D02*
X149834700Y-116447400D01*
X149834700Y-116447400D02*
X149247300Y-117034800D01*
X149247300Y-117034800D02*
X116305100Y-117034800D01*
X116305100Y-117034800D02*
X115475300Y-116205000D01*
D18*
X78050000Y-96520000D02*
X78685000Y-95885000D01*
X76200000Y-96520000D02*
X78050000Y-96520000D01*
X78685000Y-95885000D02*
X86360000Y-95885000D01*
X196850000Y-95885000D02*
X197485000Y-96520000D01*
X187720000Y-95885000D02*
X196850000Y-95885000D01*
D16*
X126785300Y-113665000D02*
X127610600Y-114490300D01*
X125610000Y-113665000D02*
X126785300Y-113665000D01*
X127610600Y-114490300D02*
X146431000Y-114554000D01*
D19*
X146431000Y-114681000D02*
X146431000Y-114554000D01*
X146585990Y-114835990D02*
X146431000Y-114681000D01*
D16*
X76200000Y-101600000D02*
X76200000Y-102775300D01*
X111760000Y-116205000D02*
X110584700Y-116205000D01*
X110584700Y-116205000D02*
X109409400Y-117380300D01*
X109409400Y-117380300D02*
X77559900Y-117380300D01*
X77559900Y-117380300D02*
X76922100Y-118018100D01*
X76922100Y-118018100D02*
X75638800Y-118018100D01*
X75638800Y-118018100D02*
X75024700Y-117404000D01*
X75024700Y-117404000D02*
X75024700Y-103583200D01*
X75024700Y-103583200D02*
X75832600Y-102775300D01*
X75832600Y-102775300D02*
X76200000Y-102775300D01*
M02*
