G04 #@! TF.GenerationSoftware,KiCad,Pcbnew,(5.1.5)-3*
G04 #@! TF.CreationDate,2020-02-06T21:26:36+01:00*
G04 #@! TF.ProjectId,wemos-baseplate,77656d6f-732d-4626-9173-65706c617465,rev?*
G04 #@! TF.SameCoordinates,Original*
G04 #@! TF.FileFunction,Legend,Bot*
G04 #@! TF.FilePolarity,Positive*
%FSLAX46Y46*%
G04 Gerber Fmt 4.6, Leading zero omitted, Abs format (unit mm)*
G04 Created by KiCad (PCBNEW (5.1.5)-3) date 2020-02-06 21:26:36*
%MOMM*%
%LPD*%
G04 APERTURE LIST*
%ADD10C,0.150000*%
G04 APERTURE END LIST*
D10*
X108902380Y-95446904D02*
X108445238Y-95446904D01*
X108673809Y-96246904D02*
X108673809Y-95446904D01*
X108254761Y-96246904D02*
X107835714Y-95713571D01*
X108254761Y-95713571D02*
X107835714Y-96246904D01*
X107530952Y-96246904D02*
X107530952Y-95446904D01*
X107340476Y-95446904D01*
X107226190Y-95485000D01*
X107150000Y-95561190D01*
X107111904Y-95637380D01*
X107073809Y-95789761D01*
X107073809Y-95904047D01*
X107111904Y-96056428D01*
X107150000Y-96132619D01*
X107226190Y-96208809D01*
X107340476Y-96246904D01*
X107530952Y-96246904D01*
X182322380Y-95446904D02*
X181865238Y-95446904D01*
X182093809Y-96246904D02*
X182093809Y-95446904D01*
X181674761Y-96246904D02*
X181255714Y-95713571D01*
X181674761Y-95713571D02*
X181255714Y-96246904D01*
X180950952Y-96246904D02*
X180950952Y-95446904D01*
X180760476Y-95446904D01*
X180646190Y-95485000D01*
X180570000Y-95561190D01*
X180531904Y-95637380D01*
X180493809Y-95789761D01*
X180493809Y-95904047D01*
X180531904Y-96056428D01*
X180570000Y-96132619D01*
X180646190Y-96208809D01*
X180760476Y-96246904D01*
X180950952Y-96246904D01*
X145612380Y-95446904D02*
X145155238Y-95446904D01*
X145383809Y-96246904D02*
X145383809Y-95446904D01*
X144964761Y-96246904D02*
X144545714Y-95713571D01*
X144964761Y-95713571D02*
X144545714Y-96246904D01*
X144240952Y-96246904D02*
X144240952Y-95446904D01*
X144050476Y-95446904D01*
X143936190Y-95485000D01*
X143860000Y-95561190D01*
X143821904Y-95637380D01*
X143783809Y-95789761D01*
X143783809Y-95904047D01*
X143821904Y-96056428D01*
X143860000Y-96132619D01*
X143936190Y-96208809D01*
X144050476Y-96246904D01*
X144240952Y-96246904D01*
M02*
